<svg width="491" height="491" viewBox="0 0 491 491" fill="none" xmlns="http://www.w3.org/2000/svg">
<path d="M423.762 117.811C438.097 117.811 449.717 106.19 449.717 91.8563C449.717 77.5221 438.097 65.902 423.762 65.902C409.428 65.902 397.808 77.5221 397.808 91.8563C397.808 106.19 409.428 117.811 423.762 117.811Z" fill="#EBEBEB"/>
<path d="M424.951 117.202C438.629 117.202 449.717 106.114 449.717 92.4356C449.717 78.7577 438.629 67.6696 424.951 67.6696C411.273 67.6696 400.185 78.7577 400.185 92.4356C400.185 106.114 411.273 117.202 424.951 117.202Z" fill="#DBDBDB"/>
<path d="M448.053 94.3408C449.105 81.5739 439.608 70.3716 426.841 69.3197C414.074 68.2678 402.872 77.7647 401.82 90.5316C400.768 103.299 410.265 114.501 423.032 115.553C435.799 116.605 447.001 107.108 448.053 94.3408Z" fill="white"/>
<path opacity="0.5" d="M447.625 87.5158C437.069 93.9087 419.707 104.416 409.995 110.171C407.255 107.855 405.087 104.938 403.661 101.647L435.753 71.902C438.752 73.4793 441.369 75.6946 443.421 78.3922C445.472 81.0897 446.907 84.204 447.625 87.5158Z" fill="#EBEBEB"/>
<path opacity="0.5" d="M448.136 93.29C448.055 95.8724 447.537 98.4223 446.604 100.832L417.674 114.511C416.413 114.1 415.19 113.578 414.021 112.95C422.761 107.843 438.728 98.6517 448.136 93.29Z" fill="#EBEBEB"/>
<path d="M425.186 70.92H424.735V74.4356H425.186V70.92Z" fill="#C7C7C7"/>
<path d="M414.394 73.6722L414.003 73.8981L415.76 76.9426L416.151 76.7168L414.394 73.6722Z" fill="#C7C7C7"/>
<path d="M406.412 81.46L406.186 81.8512L409.231 83.609L409.457 83.2178L406.412 81.46Z" fill="#C7C7C7"/>
<path d="M406.96 92.2098H403.445V92.6615H406.96V92.2098Z" fill="#C7C7C7"/>
<path d="M409.246 101.222L406.202 102.979L406.428 103.371L409.472 101.613L409.246 101.222Z" fill="#C7C7C7"/>
<path d="M415.781 107.93L414.025 110.975L414.416 111.201L416.173 108.155L415.781 107.93Z" fill="#C7C7C7"/>
<path d="M425.186 110.436H424.735V113.951H425.186V110.436Z" fill="#C7C7C7"/>
<path d="M434.156 107.907L433.765 108.133L435.522 111.177L435.914 110.952L434.156 107.907Z" fill="#C7C7C7"/>
<path d="M440.634 101.217L440.408 101.608L443.453 103.366L443.679 102.975L440.634 101.217Z" fill="#C7C7C7"/>
<path d="M446.466 92.2098H442.951V92.6615H446.466V92.2098Z" fill="#C7C7C7"/>
<path d="M443.473 81.4686L440.429 83.2269L440.655 83.6181L443.699 81.8598L443.473 81.4686Z" fill="#C7C7C7"/>
<path d="M435.514 73.692L433.758 76.7374L434.149 76.9631L435.905 73.9176L435.514 73.692Z" fill="#C7C7C7"/>
<path d="M425.294 72.5109L426.06 93.997L423.851 93.9676L424.695 72.501L425.294 72.5109Z" fill="#C7C7C7"/>
<path d="M438.679 84.943L424.224 94.1639L423.173 92.2392L438.394 84.4127L438.679 84.943Z" fill="#A6A6A6"/>
<path d="M425.707 92.4356C425.707 92.5852 425.662 92.7314 425.579 92.8557C425.496 92.9801 425.378 93.077 425.24 93.1342C425.102 93.1915 424.95 93.2064 424.803 93.1773C424.657 93.1481 424.522 93.0761 424.416 92.9703C424.31 92.8646 424.238 92.7298 424.209 92.5832C424.18 92.4365 424.195 92.2845 424.252 92.1463C424.309 92.0081 424.406 91.89 424.531 91.8069C424.655 91.7239 424.801 91.6795 424.951 91.6795C425.151 91.6795 425.344 91.7592 425.485 91.901C425.627 92.0428 425.707 92.2351 425.707 92.4356Z" fill="#C7C7C7"/>
<path d="M337.651 326.328C337.651 326.328 353.029 322.842 361.454 315.084C369.88 307.327 374.584 293.412 374.584 293.412C368.74 294.528 362.979 296.041 357.34 297.939C355.229 300.111 353.47 302.599 352.125 305.314C351.996 303.558 351.996 301.796 352.125 300.04C350.159 300.891 348.319 302.008 346.656 303.359C339.625 309.477 337.651 326.328 337.651 326.328Z" fill="#DBDBDB"/>
<path d="M364.99 300.168C367.081 298.715 369.212 297.32 371.304 295.857C371.331 295.84 371.351 295.813 371.358 295.782C371.366 295.75 371.36 295.717 371.343 295.69C371.326 295.663 371.299 295.643 371.268 295.636C371.237 295.628 371.204 295.634 371.176 295.651C367.248 298.017 363.32 300.561 359.53 303.193C358.214 304.116 356.918 305.078 355.602 306.06L355.867 305.598C356.329 304.832 356.849 304.076 357.301 303.32C358.265 301.777 359.359 300.318 360.571 298.96C360.571 298.911 360.571 298.832 360.492 298.891C359.294 300.266 358.096 301.631 357.006 303.094C356.486 303.792 356.024 304.518 355.543 305.255C355.307 305.638 355.072 306.021 354.856 306.413L354.62 306.806C352.656 308.368 350.692 309.998 348.856 311.716C347.716 312.783 346.613 313.883 345.546 315.016C346.145 313.16 346.666 311.274 347.353 309.448C347.353 309.435 347.348 309.422 347.339 309.413C347.33 309.404 347.317 309.399 347.304 309.399C347.291 309.399 347.278 309.404 347.269 309.413C347.26 309.422 347.255 309.435 347.255 309.448C346.587 311.412 345.851 313.297 345.291 315.281C344.112 316.551 342.993 317.86 341.932 319.209C341.932 319.13 341.932 319.042 341.982 318.963C342.158 318.237 342.345 317.51 342.531 316.793C342.905 315.399 343.317 314.024 343.788 312.659C344.672 309.825 346.07 307.179 347.913 304.852C347.962 304.803 347.913 304.734 347.844 304.783C344.96 308.373 342.943 312.581 341.952 317.078C341.782 317.733 341.625 318.387 341.481 319.042C341.402 319.386 341.314 319.749 341.255 320.103C340.784 320.757 340.332 321.396 339.9 322.017C337.276 326.026 335.093 330.306 333.389 334.783C331.477 339.811 329.838 344.938 328.479 350.142C328.479 350.163 328.487 350.183 328.502 350.198C328.517 350.212 328.537 350.221 328.558 350.221C328.578 350.221 328.598 350.212 328.613 350.198C328.628 350.183 328.636 350.163 328.636 350.142C331.651 341.147 334.715 332.024 339.86 323.981C340.949 322.287 342.123 320.648 343.376 319.071C345.921 318.9 348.433 318.398 350.849 317.579C353.489 316.69 356.006 315.473 358.342 313.955C359.676 313.063 360.958 312.096 362.181 311.058C362.24 311.009 362.181 310.931 362.122 310.98C359.973 312.709 357.602 314.142 355.072 315.242C352.585 316.382 349.985 317.254 347.314 317.844C346.185 318.089 345.036 318.276 343.877 318.433C345.3 316.679 346.815 315.001 348.414 313.405C348.934 312.885 349.464 312.423 350.005 311.893C351.794 310.64 353.694 309.552 355.68 308.643C358.204 307.425 360.679 306.129 363.173 304.862C364.587 304.145 365.982 303.418 367.396 302.721C367.455 302.721 367.396 302.603 367.347 302.633C364.813 303.85 362.25 304.999 359.697 306.168C357.301 307.258 354.875 308.368 352.568 309.664L352.273 309.831C354.355 308.024 356.515 306.296 358.725 304.626C360.8 303.114 362.888 301.628 364.99 300.168Z" fill="#A6A6A6"/>
<path d="M364.116 308.093C362.859 308.643 361.592 309.124 360.355 309.703C359.117 310.283 357.87 310.999 356.662 311.716C356.613 311.716 356.662 311.814 356.711 311.795C357.939 311.206 359.176 310.656 360.394 310.047C361.612 309.438 362.869 308.751 364.145 308.191C364.204 308.171 364.175 308.063 364.116 308.093Z" fill="#A6A6A6"/>
<path d="M287.726 248.858C290.564 252.523 292.17 256.992 292.312 261.624C292.371 262.999 292.145 264.924 291.988 267.183C295.826 269.407 299.227 272.312 302.024 275.755C298.952 273.973 295.426 273.13 291.88 273.33C291.966 274.874 292.163 276.41 292.469 277.926C294.706 277.922 296.922 278.359 298.99 279.212C296.966 279.187 294.959 279.585 293.098 280.381C295.837 289.101 303.988 298.057 326.486 301.857C328.866 291.164 327.457 279.976 322.499 270.207C315.762 256.95 287.726 248.858 287.726 248.858Z" fill="#DBDBDB"/>
<path d="M334.263 339.163C333.883 335.438 333.399 331.726 332.81 328.027C331.672 320.616 330.158 313.268 328.273 306.011C327.399 302.603 326.32 299.252 325.042 295.975C325.111 295.378 325.14 294.778 325.13 294.178C325.13 293.451 325.13 292.734 325.13 292.007C325.13 290.574 325.052 289.13 324.924 287.697C324.694 284.852 324.231 282.03 323.54 279.261C323.127 277.66 322.656 276.079 322.184 274.498C322.184 274.485 322.179 274.473 322.17 274.464C322.161 274.455 322.148 274.449 322.135 274.449C322.122 274.449 322.11 274.455 322.101 274.464C322.091 274.473 322.086 274.485 322.086 274.498C322.83 277.263 323.385 280.074 323.746 282.914C324.145 285.714 324.397 288.533 324.502 291.359C324.502 292.135 324.502 292.901 324.502 293.677C324.502 294.001 324.502 294.335 324.502 294.659C323.402 291.966 322.139 289.343 320.721 286.803C318.432 282.783 315.856 278.933 313.013 275.284C313.007 274.859 312.948 274.437 312.836 274.027C312.728 273.526 312.62 273.045 312.502 272.525C312.273 271.497 312.017 270.476 311.736 269.461C311.176 267.418 310.44 265.454 309.772 263.441C309.772 263.428 309.767 263.416 309.758 263.406C309.748 263.397 309.736 263.392 309.723 263.392C309.71 263.392 309.697 263.397 309.688 263.406C309.679 263.416 309.674 263.428 309.674 263.441C310.273 265.405 310.656 267.497 311.117 269.52C311.343 270.502 311.569 271.484 311.785 272.534L312.109 274.047C312.105 274.083 312.105 274.119 312.109 274.155C311.196 273.006 310.273 271.877 309.32 270.767C305.029 265.729 300.315 261.084 295.572 256.469C294.993 255.899 294.394 255.349 293.805 254.79C293.756 254.741 293.687 254.79 293.736 254.868C298.263 259.592 302.721 264.374 306.944 269.372C307.926 270.561 308.908 271.768 309.89 272.986C309.379 272.633 308.908 272.299 308.358 272.004C307.052 271.15 305.726 270.315 304.361 269.549C302.996 268.783 301.621 268.037 300.217 267.349C298.813 266.662 297.271 266.043 295.837 265.238C295.778 265.238 295.729 265.307 295.788 265.327C297.209 265.987 298.581 266.748 299.893 267.605C301.258 268.42 302.633 269.235 303.968 270.089C305.304 270.944 306.62 271.749 307.896 272.603C308.996 273.32 310.067 274.096 311.206 274.744C313.813 278.098 316.22 281.604 318.414 285.242C319.772 287.531 321.014 289.888 322.135 292.302L321.33 291.949L319.268 291.035L315.291 289.297C312.767 288.207 310.204 287.196 307.729 285.988C306.334 285.335 304.986 284.587 303.693 283.749C303.634 283.749 303.585 283.798 303.644 283.837C308.25 287.019 313.464 289.258 318.531 291.516L320.741 292.498C321.35 292.764 321.959 293.068 322.587 293.304C324.098 296.683 325.368 300.165 326.387 303.723C328.405 310.885 330.044 318.149 331.297 325.484C332.584 332.829 333.458 340.214 334.135 347.657C334.214 348.581 334.302 349.513 334.4 350.436C334.4 350.515 334.432 350.59 334.487 350.645C334.542 350.7 334.617 350.731 334.695 350.731C334.773 350.731 334.848 350.7 334.903 350.645C334.959 350.59 334.99 350.515 334.99 350.436C335.049 346.646 334.656 342.914 334.263 339.163Z" fill="#A6A6A6"/>
<path d="M320.584 277.042C320.171 274.764 319.602 272.525 318.944 270.286C318.944 270.273 318.939 270.26 318.929 270.251C318.92 270.242 318.908 270.237 318.895 270.237C318.882 270.237 318.869 270.242 318.86 270.251C318.851 270.26 318.846 270.273 318.846 270.286C319.415 272.485 319.828 274.724 320.23 276.953C320.633 279.183 321.026 281.51 321.35 283.827H321.409C321.261 281.552 320.986 279.286 320.584 277.042Z" fill="#A6A6A6"/>
<path d="M310.891 283.248C309.319 282.221 307.679 281.302 305.981 280.498C305.157 280.076 304.322 279.674 303.497 279.271C302.672 278.868 301.749 278.505 300.904 278.083C300.846 278.083 300.787 278.142 300.855 278.171C301.67 278.584 302.456 279.084 303.261 279.526L305.756 280.891C307.374 281.832 309.039 282.691 310.744 283.464C310.773 283.484 310.808 283.491 310.842 283.485C310.876 283.478 310.906 283.458 310.926 283.43C310.945 283.401 310.953 283.366 310.946 283.332C310.94 283.298 310.92 283.268 310.891 283.248Z" fill="#A6A6A6"/>
<path opacity="0.1" d="M337.936 299.697C337.936 299.697 352.155 296.299 358.685 286.754C364.931 277.641 366.944 262.106 367.101 260.741C366.846 261.998 363.91 275.569 354.227 281.893C346.813 286.744 339.644 290.731 337.936 299.697Z" fill="#A6A6A6"/>
<path d="M351.065 275.117C348.535 277.444 346.717 280.44 345.821 283.759C345.821 283.759 345.821 283.759 345.821 283.759C346.87 280.521 348.678 277.582 351.094 275.186C351.183 275.147 351.114 275.068 351.065 275.117Z" fill="#A6A6A6"/>
<path d="M337.936 299.697C337.936 299.697 352.155 296.299 358.685 286.754C364.931 277.641 366.944 262.106 367.101 260.741C367.106 260.708 367.106 260.675 367.101 260.642C367.101 260.642 360.227 270.345 353.108 272.819C345.988 275.294 335.844 283.847 337.936 299.697Z" fill="#DBDBDB"/>
<path d="M364.597 265.994C363.324 268.61 361.854 271.125 360.197 273.516C358.525 275.789 356.542 277.816 354.305 279.536C352.341 281.068 350.377 282.482 348.413 283.965L348.463 283.896C348.826 283.346 349.219 282.826 349.631 282.305C350.436 281.264 351.33 280.282 352.224 279.31C353.991 277.395 355.798 275.51 357.379 273.418C358.262 272.269 359.028 271.036 359.667 269.736C359.667 269.677 359.598 269.647 359.569 269.736C357.261 274.548 352.646 277.592 349.366 281.677C348.896 282.252 348.457 282.852 348.05 283.474C347.722 283.926 347.445 284.414 347.225 284.927C345.425 286.373 343.798 288.02 342.374 289.837C342.499 288.905 342.689 287.983 342.944 287.078C343.273 285.81 343.782 284.597 344.456 283.474C344.456 283.415 344.397 283.356 344.368 283.415C343.677 284.541 343.12 285.744 342.708 286.999C342.408 287.998 342.233 289.031 342.188 290.073C341.488 291.014 340.849 291.998 340.273 293.019L340.449 292.106C340.724 290.692 341.039 289.278 341.431 287.873C342.101 285.025 343.257 282.315 344.849 279.86C344.849 279.86 344.8 279.752 344.76 279.801C343.133 282.228 341.857 284.873 340.97 287.657C340.518 289.052 340.155 290.476 339.841 291.899C339.684 292.607 339.536 293.304 339.409 294.011C339.34 294.374 339.261 294.747 339.202 295.12C337.793 298.219 336.691 301.449 335.913 304.764C334.524 310.696 333.517 316.712 332.898 322.774C332.158 329.112 331.83 335.492 331.916 341.873C331.916 342.669 331.975 343.474 332.014 344.27C332.014 344.476 332.338 344.505 332.348 344.27C332.485 341.107 332.564 337.955 332.751 334.803C332.937 331.651 333.212 328.489 333.556 325.346C334.194 319.165 335.177 313.025 336.502 306.954C337.651 301.759 339.143 296.515 341.991 291.958C343.407 289.693 345.136 287.64 347.127 285.86C349.091 284.073 351.301 282.502 353.402 280.842C355.531 279.225 357.465 277.366 359.166 275.304C360.902 273.004 362.414 270.545 363.684 267.958L364.666 265.994C364.715 265.994 364.626 265.935 364.597 265.994Z" fill="#A6A6A6"/>
<path d="M285.762 293.412C285.762 293.412 285.536 313.621 297.624 319.454C309.713 325.287 316.184 320.436 324.404 322.4C324.089 321.919 318.227 313.494 308.898 311.166C299.264 308.76 288.639 301.828 285.762 293.412Z" fill="#DBDBDB"/>
<path opacity="0.1" d="M285.762 293.412C285.762 293.412 285.536 313.621 297.624 319.454C309.713 325.287 316.184 320.436 324.404 322.4C320.065 320.329 315.424 318.96 310.656 318.345C302.996 317.412 288.433 312.443 285.762 293.412Z" fill="#A6A6A6"/>
<path d="M325.17 322.744C323.73 321.435 322.11 320.34 320.358 319.494C320.103 319.366 319.837 319.268 319.572 319.16C319.307 319.052 319.307 318.846 319.17 318.688C318.806 318.315 318.423 317.952 318.03 317.608C317.272 316.955 316.457 316.37 315.595 315.86C313.631 314.682 311.402 313.896 309.35 312.767C309.291 312.767 309.242 312.826 309.35 312.855C310.332 313.376 311.314 313.955 312.296 314.535C313.278 315.114 314.26 315.625 315.163 316.224C316.007 316.76 316.808 317.361 317.559 318.021C317.775 318.207 317.972 318.413 318.178 318.62C316.843 318.164 315.478 317.799 314.093 317.53C311.883 317.078 309.644 316.764 307.435 316.292C306.35 316.062 305.278 315.773 304.224 315.428C303.242 314.623 302.26 313.818 301.278 312.944C300.127 311.889 299.079 310.728 298.145 309.477C298.145 309.477 298.017 309.477 298.057 309.536C299.525 311.519 301.186 313.351 303.016 315.006C302.495 314.8 301.975 314.593 301.474 314.358C297.321 312.5 293.758 309.538 291.173 305.795C291.173 305.736 291.045 305.795 291.084 305.844C293.277 309.059 296.112 311.784 299.412 313.847C301.063 314.88 302.83 315.717 304.675 316.341C306.821 317.003 309.01 317.518 311.225 317.883C313.393 318.238 315.532 318.747 317.628 319.405C319.555 320.062 321.367 321.017 322.999 322.233C326.08 324.625 328.561 327.701 330.247 331.219C332.402 335.867 333.751 340.848 334.233 345.949C334.233 346.165 334.597 346.165 334.577 345.949C333.988 337.494 331.72 328.646 325.17 322.744Z" fill="#A6A6A6"/>
<path d="M311.137 316.204C310.507 315.261 309.653 314.488 308.652 313.955C307.511 313.355 306.507 312.522 305.706 311.51C305.706 311.451 305.579 311.51 305.618 311.559C306.345 312.485 307.229 313.276 308.23 313.896C309.329 314.481 310.298 315.283 311.078 316.253L311.137 316.204Z" fill="#A6A6A6"/>
<path d="M317.559 337.671L318.109 348.787L319.788 382.754H345.144L346.833 348.787L347.383 337.671H317.559Z" fill="#EBEBEB"/>
<path d="M317.559 337.671L318.109 348.787H346.833L347.383 337.671H317.559Z" fill="#DBDBDB"/>
<path d="M315.782 343.641H349.17V333.036H315.782V343.641Z" fill="#EBEBEB"/>
<path d="M78.5599 165.3L74.1998 174.914L77.1458 176.24C77.5679 176.436 77.9273 176.745 78.1839 177.134C78.4406 177.522 78.5843 177.974 78.5991 178.439C78.5991 178.96 78.6777 179.48 78.7562 180.01C78.8288 180.466 78.7757 180.932 78.6026 181.36C78.4296 181.787 78.1432 182.159 77.7742 182.436L75.1425 184.312L81.2898 192.894L83.9216 191.019C84.2993 190.749 84.7445 190.59 85.2075 190.559C85.6705 190.527 86.133 190.626 86.5435 190.842C87.0092 191.087 87.4878 191.307 87.9772 191.5C88.4112 191.665 88.7912 191.947 89.0754 192.314C89.3595 192.681 89.5368 193.12 89.5877 193.582L89.902 196.803L100.4 195.762L100.085 192.531C100.043 192.07 100.13 191.606 100.336 191.191C100.543 190.777 100.86 190.428 101.254 190.184L101.902 189.742C102.108 189.595 102.324 189.438 102.521 189.271C102.878 188.977 103.309 188.789 103.767 188.727C104.225 188.664 104.691 188.73 105.113 188.917L108.059 190.262L112.419 180.649L109.473 179.313C109.051 179.116 108.692 178.806 108.434 178.418C108.176 178.03 108.029 177.579 108.01 177.114C107.99 176.591 107.941 176.069 107.863 175.552C107.789 175.097 107.842 174.63 108.015 174.202C108.188 173.775 108.475 173.403 108.845 173.127L111.476 171.241L105.329 162.658L102.697 164.544C102.319 164.812 101.873 164.969 101.41 164.999C100.947 165.028 100.485 164.929 100.075 164.711C99.612 164.474 99.1367 164.261 98.6516 164.073C98.2267 163.909 97.8548 163.632 97.5761 163.272C97.2974 162.912 97.1226 162.482 97.0706 162.03L96.7465 158.809L86.2489 159.85L86.5632 163.071C86.6002 163.52 86.5147 163.971 86.3158 164.376C86.117 164.78 85.8122 165.124 85.4339 165.369C85.2103 165.505 84.9939 165.652 84.7857 165.811C84.5697 165.958 84.3635 166.115 84.1572 166.272C83.8008 166.57 83.368 166.762 82.9081 166.826C82.4481 166.89 81.9793 166.824 81.555 166.636L78.5599 165.3ZM88.2718 170.75C89.66 169.748 91.3142 169.18 93.0252 169.119C94.7363 169.057 96.4271 169.505 97.8836 170.404C99.3401 171.304 100.497 172.616 101.207 174.174C101.918 175.732 102.15 177.465 101.875 179.155C101.6 180.845 100.829 182.415 99.6613 183.667C98.4932 184.919 96.98 185.796 95.3132 186.187C93.6463 186.578 91.9009 186.466 90.2979 185.865C88.6948 185.263 87.3062 184.2 86.3078 182.809C84.9708 180.948 84.4276 178.632 84.7977 176.371C85.1679 174.11 86.421 172.088 88.2817 170.75H88.2718Z" fill="#EBEBEB"/>
<path d="M428.152 261.978L421.749 265.67L422.879 267.634C423.041 267.917 423.122 268.24 423.111 268.566C423.101 268.892 423 269.208 422.82 269.48C422.623 269.785 422.437 270.109 422.27 270.462C422.125 270.754 421.903 271 421.627 271.173C421.352 271.346 421.034 271.44 420.709 271.444H418.44V278.839H420.709C421.034 278.843 421.352 278.937 421.627 279.11C421.903 279.283 422.125 279.529 422.27 279.821C422.435 280.158 422.619 280.486 422.82 280.803C423 281.075 423.101 281.392 423.111 281.718C423.122 282.044 423.041 282.366 422.879 282.649L421.749 284.613L428.152 288.305L429.291 286.341C429.457 286.061 429.697 285.832 429.985 285.68C430.272 285.527 430.596 285.457 430.921 285.477H431.461H432.011C432.334 285.458 432.655 285.527 432.941 285.678C433.226 285.829 433.465 286.055 433.632 286.331L434.771 288.295L441.173 284.603L440.044 282.639C439.881 282.356 439.801 282.033 439.813 281.706C439.825 281.38 439.929 281.063 440.113 280.793C440.314 280.476 440.498 280.148 440.663 279.811C440.806 279.518 441.028 279.271 441.303 279.097C441.579 278.924 441.898 278.831 442.224 278.829H444.483V271.435H442.224C441.898 271.433 441.579 271.34 441.303 271.166C441.028 270.993 440.806 270.746 440.663 270.453C440.496 270.129 440.309 269.814 440.113 269.471C439.93 269.202 439.826 268.887 439.814 268.562C439.802 268.237 439.882 267.916 440.044 267.634L441.173 265.67L434.771 261.978L433.641 263.942C433.476 264.222 433.236 264.451 432.948 264.604C432.66 264.756 432.336 264.826 432.011 264.806H431.461H430.921C430.596 264.826 430.272 264.756 429.985 264.604C429.697 264.451 429.457 264.222 429.291 263.942L428.152 261.978ZM431.461 269.048C432.66 269.048 433.832 269.404 434.829 270.07C435.825 270.736 436.602 271.683 437.06 272.791C437.518 273.899 437.638 275.117 437.403 276.293C437.169 277.469 436.591 278.548 435.742 279.395C434.894 280.242 433.813 280.818 432.637 281.051C431.462 281.284 430.243 281.162 429.136 280.702C428.029 280.242 427.083 279.464 426.419 278.466C425.754 277.469 425.401 276.296 425.403 275.097C425.405 274.301 425.565 273.512 425.873 272.777C426.181 272.042 426.632 271.376 427.199 270.815C427.765 270.255 428.437 269.812 429.175 269.512C429.914 269.213 430.704 269.061 431.501 269.068L431.461 269.048Z" fill="#EBEBEB"/>
<path d="M54.5697 146.613L59.0574 152.505L60.8545 151.13C61.1126 150.93 61.4221 150.807 61.7471 150.776C62.0721 150.745 62.3993 150.806 62.6908 150.953C63.0247 151.11 63.3684 151.248 63.6728 151.375C63.9797 151.482 64.2511 151.672 64.4573 151.923C64.6634 152.174 64.7964 152.477 64.8414 152.799L65.136 155.048L72.4716 154.066L72.177 151.827C72.1364 151.504 72.1866 151.175 72.3218 150.879C72.4571 150.582 72.6721 150.329 72.9429 150.148C73.2473 149.942 73.5321 149.716 73.8169 149.48C74.0619 149.266 74.3615 149.125 74.6822 149.071C75.0029 149.017 75.3323 149.053 75.6336 149.176L77.7253 150.05L80.5633 143.176L78.5011 142.39C78.2034 142.261 77.947 142.053 77.76 141.788C77.5729 141.523 77.4624 141.211 77.4405 140.888C77.4405 140.701 77.4405 140.524 77.3816 140.338C77.3227 140.151 77.3816 139.984 77.303 139.807C77.2368 139.488 77.2615 139.157 77.3743 138.852C77.4872 138.546 77.6836 138.278 77.9413 138.079L79.7482 136.694L75.2605 130.802L73.4536 132.177C73.1944 132.375 72.8851 132.496 72.5606 132.528C72.2361 132.559 71.9094 132.499 71.6172 132.354C71.2984 132.194 70.9705 132.053 70.6352 131.932C70.3284 131.825 70.057 131.635 69.8508 131.384C69.6446 131.133 69.5117 130.83 69.4666 130.508L69.1721 128.259L61.8365 129.241L62.1311 131.49C62.1705 131.812 62.1208 132.139 61.9875 132.435C61.8542 132.731 61.6423 132.985 61.375 133.169C61.0714 133.375 60.7796 133.598 60.501 133.837C60.2539 134.05 59.9527 134.192 59.6305 134.246C59.3083 134.299 58.9775 134.263 58.6745 134.141L56.5828 133.267L53.7448 140.141L55.8365 141.015C56.1122 141.136 56.352 141.326 56.5327 141.567C56.7133 141.808 56.8287 142.091 56.8676 142.39L56.9265 142.93C56.9265 143.117 56.9756 143.293 57.0149 143.47C57.0777 143.79 57.0504 144.121 56.9359 144.426C56.8215 144.731 56.6244 144.999 56.3668 145.198L54.5697 146.613ZM61.1491 142.41C60.9959 141.221 61.1984 140.014 61.7312 138.941C62.264 137.867 63.1031 136.976 64.1424 136.38C65.1817 135.783 66.3745 135.508 67.57 135.59C68.7655 135.671 69.91 136.105 70.8589 136.837C71.8077 137.569 72.5182 138.566 72.9005 139.701C73.2829 140.837 73.3199 142.061 73.0069 143.217C72.6939 144.374 72.045 145.412 71.1421 146.2C70.2393 146.988 69.1231 147.49 67.9347 147.644C67.1438 147.747 66.3403 147.693 65.5705 147.484C64.8006 147.275 64.0796 146.917 63.449 146.428C62.8183 145.94 62.2904 145.332 61.8957 144.639C61.501 143.946 61.2473 143.182 61.1491 142.39V142.41Z" fill="#EBEBEB"/>
<path d="M35.9215 382.754L88.3211 382.509L140.711 382.43L245.5 382.263L350.289 382.42L402.679 382.509L455.078 382.754L402.679 382.99L350.289 383.078L245.5 383.245L140.711 383.078L88.3211 382.99L35.9215 382.754Z" fill="#263238"/>
<path d="M380.122 424.391C425.251 424.391 461.834 418.579 461.834 411.409C461.834 404.239 425.251 398.427 380.122 398.427C334.994 398.427 298.41 404.239 298.41 411.409C298.41 418.579 334.994 424.391 380.122 424.391Z" fill="#EBEBEB"/>
<path d="M216.433 460.813C312.813 460.813 390.944 450.007 390.944 436.676C390.944 423.345 312.813 412.538 216.433 412.538C120.053 412.538 41.9214 423.345 41.9214 436.676C41.9214 450.007 120.053 460.813 216.433 460.813Z" fill="#EBEBEB"/>
<path d="M378.787 64.1639H112.056V240.462H378.787V64.1639Z" fill="#EBEBEB"/>
<path d="M385.297 55.5223H105.712V64.1541H385.297V55.5223Z" fill="#455A64"/>
<path d="M167.028 88.3113H124.91V138.217H167.028V88.3113Z" fill="white"/>
<path d="M147.487 91.709C147.489 92.0108 147.401 92.3065 147.234 92.5583C147.068 92.8101 146.83 93.0067 146.552 93.1231C146.273 93.2395 145.966 93.2705 145.67 93.2121C145.374 93.1537 145.102 93.0085 144.888 92.795C144.675 92.5816 144.53 92.3095 144.471 92.0133C144.413 91.7171 144.444 91.4103 144.56 91.1318C144.677 90.8532 144.873 90.6156 145.125 90.4491C145.377 90.2826 145.672 90.1947 145.974 90.1967C146.173 90.1967 146.37 90.2358 146.553 90.3118C146.737 90.3878 146.903 90.4992 147.044 90.6396C147.184 90.7801 147.295 90.9468 147.371 91.1302C147.447 91.3137 147.487 91.5104 147.487 91.709Z" fill="#455A64"/>
<path d="M132.923 98.308C137.185 97.984 141.447 97.9643 145.689 97.9152C149.932 97.8661 154.203 97.984 158.455 98.308C154.194 98.6419 149.942 98.6615 145.689 98.7106C141.437 98.7597 137.185 98.6419 132.923 98.308Z" fill="#EBEBEB"/>
<path d="M132.923 102.256C137.54 101.719 142.203 101.719 146.819 102.256C142.202 102.779 137.54 102.779 132.923 102.256Z" fill="#EBEBEB"/>
<path d="M132.923 106.194C135.869 105.889 138.815 105.82 141.761 105.801C144.707 105.781 147.653 105.889 150.599 106.194C147.653 106.508 144.707 106.576 141.761 106.596C138.815 106.616 135.889 106.508 132.923 106.194Z" fill="#EBEBEB"/>
<path d="M132.923 110.141C136.626 109.837 140.328 109.758 144.03 109.748C147.732 109.738 151.434 109.827 155.126 110.141C151.434 110.455 147.732 110.524 144.03 110.534C140.328 110.544 136.626 110.446 132.923 110.141Z" fill="#EBEBEB"/>
<path d="M132.923 114.089C136.144 113.775 139.356 113.706 142.567 113.686C145.778 113.666 148.999 113.775 152.22 114.089C148.999 114.393 145.788 114.472 142.567 114.482C139.346 114.491 136.144 114.393 132.923 114.089Z" fill="#EBEBEB"/>
<path d="M132.923 118.027C137.038 117.703 141.153 117.683 145.267 117.634C149.382 117.585 153.506 117.703 157.621 118.027C153.506 118.36 149.392 118.38 145.267 118.429C141.143 118.478 137.038 118.36 132.923 118.027Z" fill="#EBEBEB"/>
<path d="M132.923 121.974C138.226 121.437 143.569 121.437 148.871 121.974C143.568 122.498 138.226 122.498 132.923 121.974Z" fill="#EBEBEB"/>
<path d="M132.923 125.912C137.185 125.588 141.447 125.568 145.689 125.519C149.932 125.47 154.203 125.588 158.455 125.912C154.194 126.246 149.942 126.266 145.689 126.315C141.437 126.364 137.185 126.246 132.923 125.912Z" fill="#EBEBEB"/>
<path d="M132.923 129.86C137.185 129.536 141.447 129.516 145.689 129.467C149.932 129.418 154.203 129.526 158.455 129.86C154.194 130.194 149.942 130.213 145.689 130.252C141.437 130.292 137.185 130.184 132.923 129.86Z" fill="#EBEBEB"/>
<path d="M366.335 131.185H333.359V170.259H366.335V131.185Z" fill="white"/>
<path d="M350.986 134.603C350.988 134.828 350.923 135.05 350.799 135.238C350.675 135.427 350.498 135.574 350.29 135.662C350.082 135.75 349.853 135.774 349.631 135.731C349.41 135.688 349.206 135.58 349.045 135.421C348.885 135.263 348.776 135.06 348.731 134.838C348.686 134.617 348.708 134.388 348.794 134.179C348.88 133.97 349.026 133.792 349.213 133.666C349.401 133.54 349.622 133.473 349.847 133.473C349.996 133.472 350.144 133.5 350.283 133.557C350.421 133.613 350.546 133.696 350.652 133.801C350.758 133.906 350.842 134.031 350.9 134.168C350.957 134.306 350.986 134.454 350.986 134.603Z" fill="#455A64"/>
<path d="M338.643 141.84C340.923 141.518 343.237 141.518 345.517 141.84C343.237 142.162 340.923 142.162 338.643 141.84Z" fill="#EBEBEB"/>
<path d="M338.643 144.629C341.618 144.289 344.623 144.289 347.599 144.629C344.622 144.956 341.619 144.956 338.643 144.629Z" fill="#EBEBEB"/>
<path d="M338.643 147.408C341.399 147.081 344.184 147.081 346.941 147.408C344.185 147.748 341.398 147.748 338.643 147.408Z" fill="#EBEBEB"/>
<path d="M338.643 150.246C341.399 149.919 344.184 149.919 346.941 150.246C344.184 150.573 341.399 150.573 338.643 150.246Z" fill="#EBEBEB"/>
<path d="M338.643 152.986C341.033 152.645 343.46 152.645 345.851 152.986C343.459 153.313 341.034 153.313 338.643 152.986Z" fill="#EBEBEB"/>
<path d="M338.643 155.765C341.711 155.437 344.805 155.437 347.874 155.765C344.806 156.105 341.71 156.105 338.643 155.765Z" fill="#EBEBEB"/>
<path d="M338.643 158.554C341.172 158.226 343.733 158.226 346.263 158.554C343.733 158.881 341.172 158.881 338.643 158.554Z" fill="#EBEBEB"/>
<path d="M338.643 161.343C341.815 161.002 345.015 161.002 348.188 161.343C345.014 161.67 341.816 161.67 338.643 161.343Z" fill="#EBEBEB"/>
<path d="M338.643 164.122C341.816 163.794 345.014 163.794 348.188 164.122C345.015 164.462 341.815 164.462 338.643 164.122Z" fill="#EBEBEB"/>
<path d="M352.273 141.84C355.282 141.513 358.318 141.513 361.327 141.84C358.318 142.167 355.282 142.167 352.273 141.84Z" fill="#EBEBEB"/>
<path d="M352.273 144.629C354.242 144.289 356.255 144.289 358.224 144.629C356.253 144.956 354.243 144.956 352.273 144.629Z" fill="#EBEBEB"/>
<path d="M352.273 147.408C355.104 147.081 357.965 147.081 360.796 147.408C357.965 147.748 355.104 147.748 352.273 147.408Z" fill="#EBEBEB"/>
<path d="M352.273 150.246C355.026 149.919 357.808 149.919 360.561 150.246C357.808 150.573 355.026 150.573 352.273 150.246Z" fill="#EBEBEB"/>
<path d="M352.273 152.986C355.281 152.645 358.318 152.645 361.327 152.986C358.318 153.313 355.282 153.313 352.273 152.986Z" fill="#EBEBEB"/>
<path d="M352.273 155.765C354.664 155.437 357.089 155.437 359.481 155.765C357.09 156.106 354.663 156.106 352.273 155.765Z" fill="#EBEBEB"/>
<path d="M352.273 158.554C355.104 158.226 357.965 158.226 360.796 158.554C357.965 158.881 355.104 158.881 352.273 158.554Z" fill="#EBEBEB"/>
<path d="M352.273 161.343C354.456 161.002 356.679 161.002 358.862 161.343C356.678 161.67 354.457 161.67 352.273 161.343Z" fill="#EBEBEB"/>
<path d="M352.273 164.122C354.368 163.794 356.501 163.794 358.597 164.122C356.502 164.462 354.367 164.462 352.273 164.122Z" fill="#EBEBEB"/>
<path d="M184.724 119.067H159.388V144.403H184.724V119.067Z" fill="#438AFB"/>
<path d="M173.568 121.64C173.568 121.939 173.48 122.232 173.314 122.481C173.147 122.729 172.911 122.923 172.635 123.038C172.359 123.152 172.054 123.182 171.761 123.124C171.468 123.065 171.198 122.921 170.987 122.71C170.775 122.498 170.631 122.229 170.573 121.935C170.515 121.642 170.545 121.338 170.659 121.062C170.773 120.785 170.967 120.549 171.216 120.383C171.465 120.217 171.757 120.128 172.056 120.128C172.255 120.128 172.451 120.167 172.635 120.243C172.818 120.319 172.985 120.431 173.126 120.571C173.266 120.711 173.377 120.878 173.453 121.062C173.529 121.245 173.568 121.442 173.568 121.64Z" fill="#455A64"/>
<path d="M378.787 64.1639H112.056V75.3783H378.787V64.1639Z" fill="#DBDBDB"/>
<path d="M196.596 89.2736L239.363 89.1852L282.138 89.2736L239.363 89.362L196.596 89.2736Z" fill="#C7C7C7"/>
<path d="M196.596 92.7597L239.363 92.6714L282.138 92.7597L239.363 92.8579L196.596 92.7597Z" fill="#C7C7C7"/>
<path d="M196.596 96.2556L239.363 96.1574L282.138 96.2556L239.363 96.344L196.596 96.2556Z" fill="#C7C7C7"/>
<path d="M196.596 99.7418L239.363 99.6436L282.138 99.7418L239.363 99.8301L196.596 99.7418Z" fill="#C7C7C7"/>
<path d="M196.596 103.228L239.363 103.139L282.138 103.228L239.363 103.316L196.596 103.228Z" fill="#C7C7C7"/>
<path d="M196.596 106.714L239.363 106.626L282.138 106.714L239.363 106.812L196.596 106.714Z" fill="#C7C7C7"/>
<path d="M196.596 110.2L239.363 110.112L282.138 110.2L239.363 110.298L196.596 110.2Z" fill="#C7C7C7"/>
<path d="M196.596 113.696L239.363 113.598L282.138 113.696L239.363 113.784L196.596 113.696Z" fill="#C7C7C7"/>
<path d="M196.596 117.182L239.363 117.084L282.138 117.182L239.363 117.27L196.596 117.182Z" fill="#C7C7C7"/>
<path d="M196.596 120.668L239.363 120.58L282.138 120.668L239.363 120.757L196.596 120.668Z" fill="#C7C7C7"/>
<path d="M196.596 124.154L239.363 124.066L282.138 124.154L239.363 124.252L196.596 124.154Z" fill="#C7C7C7"/>
<path d="M196.596 127.65L239.363 127.552L282.138 127.65L239.363 127.739L196.596 127.65Z" fill="#C7C7C7"/>
<path d="M196.596 131.136L239.363 131.038L282.138 131.136L239.363 131.225L196.596 131.136Z" fill="#C7C7C7"/>
<path d="M196.596 134.622L239.363 134.534L282.138 134.622L239.363 134.711L196.596 134.622Z" fill="#C7C7C7"/>
<path d="M196.596 138.108L239.363 138.02L282.138 138.108L239.363 138.207L196.596 138.108Z" fill="#C7C7C7"/>
<path d="M212.132 113.696H205.641V142.184H212.132V113.696Z" fill="#438AFB"/>
<path d="M224.161 101.647H217.67V142.184H224.161V101.647Z" fill="white"/>
<path d="M236.2 96.1771H229.709V142.184H236.2V96.1771Z" fill="#438AFB"/>
<path d="M248.23 103.306H241.739V142.174H248.23V103.306Z" fill="white"/>
<path d="M260.269 105.428H253.778V142.174H260.269V105.428Z" fill="#438AFB"/>
<path d="M272.299 126.256H265.808V142.184H272.299V126.256Z" fill="white"/>
<path d="M198.914 86.8285L199.061 100.665L199.159 114.501C199.225 123.732 199.258 132.956 199.258 142.174L198.914 141.84H219.723H240.521L261.33 141.958L282.138 142.154L261.33 142.361L240.521 142.478H219.723H198.914H198.57V142.135C198.57 132.91 198.603 123.686 198.668 114.462L198.767 100.626L198.914 86.8285Z" fill="#C7C7C7"/>
<path d="M212.132 145.1H205.641V145.69H212.132V145.1Z" fill="#C7C7C7"/>
<path d="M224.161 145.1H217.67V145.69H224.161V145.1Z" fill="#C7C7C7"/>
<path d="M236.2 145.1H229.709V145.69H236.2V145.1Z" fill="#C7C7C7"/>
<path d="M248.23 145.1H241.739V145.69H248.23V145.1Z" fill="#C7C7C7"/>
<path d="M260.269 145.1H253.778V145.69H260.269V145.1Z" fill="#C7C7C7"/>
<path d="M272.299 145.1H265.808V145.69H272.299V145.1Z" fill="#C7C7C7"/>
<path d="M161.804 218.289H136.046V220.498H161.804V218.289Z" fill="#C7C7C7"/>
<path d="M170.848 222.904H136.046V225.114H170.848V222.904Z" fill="#C7C7C7"/>
<path d="M154.518 227.529H136.046V229.739H154.518V227.529Z" fill="#C7C7C7"/>
<path d="M130.302 218.289H124.93V223.66H130.302V218.289Z" fill="#438AFB"/>
<path d="M328.135 89.1754H302.377V91.3849H328.135V89.1754Z" fill="#C7C7C7"/>
<path d="M337.18 93.7908H302.377V96.0003H337.18V93.7908Z" fill="#C7C7C7"/>
<path d="M320.849 98.416H302.377V100.626H320.849V98.416Z" fill="#C7C7C7"/>
<path d="M296.633 89.1754H291.261V94.5469H296.633V89.1754Z" fill="#438AFB"/>
<path d="M332.996 107.058H302.377V109.267H332.996V107.058Z" fill="#C7C7C7"/>
<path d="M326.594 111.673H302.377V113.883H326.594V111.673Z" fill="#C7C7C7"/>
<path d="M337.18 116.298H302.377V118.508H337.18V116.298Z" fill="#C7C7C7"/>
<path d="M296.633 107.058H291.261V112.429H296.633V107.058Z" fill="white"/>
<path d="M240.354 161.549H124.91V212.043H240.354V161.549Z" fill="#DBDBDB"/>
<path d="M234.227 167.922H131.048V172.282H234.227V167.922Z" fill="white"/>
<path d="M183.801 167.922H131.048V172.282H183.801V167.922Z" fill="#438AFB"/>
<path d="M234.227 176.269H131.048V180.629H234.227V176.269Z" fill="white"/>
<path d="M225.693 176.269H131.048V180.629H225.693V176.269Z" fill="#438AFB"/>
<path d="M234.227 184.616H131.048V188.976H234.227V184.616Z" fill="white"/>
<path d="M161.578 184.616H131.048V188.976H161.578V184.616Z" fill="#438AFB"/>
<path d="M234.227 192.963H131.048V197.323H234.227V192.963Z" fill="white"/>
<path d="M212.132 192.963H131.048V197.323H212.132V192.963Z" fill="#438AFB"/>
<path d="M234.227 201.31H131.048V205.67H234.227V201.31Z" fill="white"/>
<path d="M190.665 201.31H131.048V205.67H190.665V201.31Z" fill="#438AFB"/>
<path d="M315.163 189.064C314.804 193.896 313.259 198.564 310.665 202.655L303.104 198.285C304.911 195.513 306.041 192.354 306.404 189.064H315.163Z" fill="#455A64"/>
<path d="M315.222 186.786C315.222 187.11 315.222 187.425 315.222 187.768H306.482C306.482 187.454 306.482 187.14 306.482 186.786C306.485 183.302 305.62 179.871 303.965 176.804C302.311 173.737 299.919 171.13 297.006 169.218L301.386 161.647C305.624 164.332 309.114 168.044 311.533 172.439C313.952 176.834 315.221 181.769 315.222 186.786Z" fill="#A6A6A6"/>
<path d="M300.286 160.96L295.926 168.531C292.931 166.814 289.557 165.866 286.106 165.771V157.041C291.087 157.132 295.965 158.48 300.286 160.96Z" fill="#455A64"/>
<path d="M284.829 157.041V165.771C281.28 165.881 277.817 166.889 274.764 168.701C271.71 170.513 269.166 173.069 267.369 176.132L259.798 171.771C262.362 167.38 266.01 163.72 270.392 161.141C274.774 158.562 279.745 157.151 284.829 157.041Z" fill="#438AFB"/>
<path d="M266.731 177.29C265.287 180.121 264.515 183.246 264.472 186.423H255.742C255.781 181.713 256.953 177.082 259.16 172.92L266.731 177.29Z" fill="#A6A6A6"/>
<path d="M273.772 204.256L269.402 211.827C265.34 209.224 261.974 205.67 259.596 201.472C257.217 197.275 255.898 192.561 255.752 187.739H264.482C264.627 191.027 265.544 194.236 267.157 197.105C268.771 199.974 271.037 202.424 273.772 204.256Z" fill="#455A64"/>
<path d="M309.929 203.755C305.664 209.902 299.241 214.217 291.938 215.84C284.635 217.463 276.988 216.276 270.521 212.515L274.891 204.953C279.358 207.571 284.634 208.448 289.708 207.417C294.781 206.386 299.296 203.519 302.387 199.366L309.929 203.755Z" fill="#DBDBDB"/>
<path d="M301.052 187.739C301.049 190.447 300.25 193.095 298.753 195.353C297.257 197.611 295.13 199.378 292.636 200.436L287.245 187.739H301.052Z" fill="#438AFB"/>
<path d="M285.497 186.796L290.878 199.493C290.456 199.66 290.034 199.827 289.612 199.955C288.285 200.365 286.905 200.574 285.517 200.574C284.128 200.571 282.748 200.363 281.422 199.955C278.593 199.103 276.114 197.362 274.352 194.992C272.59 192.621 271.639 189.745 271.639 186.791C271.639 183.837 272.59 180.962 274.352 178.591C276.114 176.22 278.593 174.479 281.422 173.627C284.089 172.803 286.944 172.803 289.612 173.627C291.747 174.287 293.689 175.457 295.27 177.036C296.851 178.616 298.023 180.557 298.685 182.691C299.092 184.018 299.3 185.398 299.304 186.786L285.497 186.796Z" fill="#438AFB"/>
<path d="M285.497 186.796L290.878 199.493C290.456 199.66 290.034 199.827 289.611 199.955C288.285 200.365 286.905 200.574 285.516 200.574C282.575 200.578 279.709 199.639 277.34 197.895C274.972 196.15 273.225 193.692 272.358 190.881C271.52 188.215 271.52 185.357 272.358 182.691C273.227 179.882 274.974 177.426 277.343 175.683C279.711 173.941 282.576 173.003 285.516 173.009C289.163 173.009 292.66 174.457 295.238 177.035C297.816 179.614 299.264 183.111 299.264 186.757L285.497 186.796Z" fill="#DBDBDB"/>
<path d="M285.497 186.796L276.512 197.245C274.778 195.736 273.45 193.817 272.65 191.663C271.849 189.509 271.601 187.189 271.929 184.915C272.256 182.64 273.148 180.484 274.524 178.643C275.9 176.803 277.715 175.336 279.803 174.378C281.892 173.42 284.187 173 286.48 173.158C288.772 173.315 290.989 174.045 292.926 175.28C294.864 176.516 296.461 178.217 297.572 180.228C298.683 182.24 299.271 184.498 299.284 186.796H285.497Z" fill="#A6A6A6"/>
<path d="M324.983 219.673H305.765L281.962 195.87L282.315 195.526L305.971 219.182H324.983V219.673Z" fill="#263238"/>
<path d="M283.484 194.357H280.803V197.038H283.484V194.357Z" fill="#263238"/>
<path d="M324.983 201.261H303.33L293.048 190.979L293.392 190.626L303.526 200.77H324.983V201.261Z" fill="#263238"/>
<path d="M294.551 189.467H291.88V192.148H294.551V189.467Z" fill="#263238"/>
<path d="M324.983 183.035H292.233V183.526H324.983V183.035Z" fill="#263238"/>
<path d="M293.225 181.945H290.544V184.626H293.225V181.945Z" fill="#263238"/>
<path d="M359.176 180.6H333.418V182.809H359.176V180.6Z" fill="#DBDBDB"/>
<path d="M368.221 185.215H333.418V187.425H368.221V185.215Z" fill="#DBDBDB"/>
<path d="M351.89 189.84H333.418V192.05H351.89V189.84Z" fill="#DBDBDB"/>
<path d="M327.674 180.6H322.302V185.971H327.674V180.6Z" fill="#438AFB"/>
<path d="M364.037 198.482H333.418V200.691H364.037V198.482Z" fill="#DBDBDB"/>
<path d="M357.635 203.097H333.418V205.307H357.635V203.097Z" fill="#DBDBDB"/>
<path d="M368.221 207.722H333.418V209.932H368.221V207.722Z" fill="#DBDBDB"/>
<path d="M327.674 198.482H322.302V203.853H327.674V198.482Z" fill="#A6A6A6"/>
<path d="M364.037 216.364H333.418V218.574H364.037V216.364Z" fill="#DBDBDB"/>
<path d="M357.635 220.979H333.418V223.189H357.635V220.979Z" fill="#DBDBDB"/>
<path d="M368.221 225.605H333.418V227.814H368.221V225.605Z" fill="#DBDBDB"/>
<path d="M327.674 216.364H322.302V221.736H327.674V216.364Z" fill="#C7C7C7"/>
<path d="M251.313 332.525L253.219 343.985L266.171 413.893H268.253L258.836 343.985L257.451 332.525H251.313Z" fill="#DBDBDB"/>
<path d="M257.451 332.525H251.313L253.219 343.985H258.836L257.451 332.525Z" fill="#A6A6A6"/>
<path d="M210.659 413.893H212.75L225.693 343.985L227.608 332.525H221.471L220.076 343.985L210.659 413.893Z" fill="#DBDBDB"/>
<path d="M221.47 332.525L220.076 343.985H225.693L227.608 332.525H221.47Z" fill="#A6A6A6"/>
<path d="M171.84 413.893H173.922L186.865 343.985L188.78 332.525H182.642L181.248 343.985L171.84 413.893Z" fill="#DBDBDB"/>
<path d="M181.248 343.985H186.865L188.78 332.525H182.642L181.248 343.985Z" fill="#A6A6A6"/>
<path d="M175.14 337.916H269.991V327.919H234.492L222.551 258.492H178.763L175.14 337.916Z" fill="#DBDBDB"/>
<path d="M175.14 337.916H180.315L183.683 258.492H178.763L175.14 337.916Z" fill="#A6A6A6"/>
<path d="M390.689 390.492C394.126 389.923 398.299 390.541 400.872 393.036C400.97 393.134 400.872 393.271 400.715 393.232C397.469 392.105 394.11 391.332 390.698 390.924C390.641 390.926 390.586 390.904 390.544 390.865C390.503 390.825 390.479 390.771 390.477 390.713C390.476 390.656 390.498 390.6 390.537 390.559C390.577 390.518 390.631 390.494 390.689 390.492Z" fill="#263238"/>
<path d="M388.185 391.926C391.622 391.356 395.805 391.975 398.368 394.469C398.466 394.568 398.368 394.705 398.211 394.666C394.963 393.544 391.606 392.77 388.194 392.358C388.166 392.359 388.138 392.354 388.111 392.343C388.085 392.333 388.061 392.318 388.04 392.298C388.02 392.279 388.003 392.255 387.992 392.229C387.98 392.203 387.974 392.175 387.973 392.147C387.973 392.119 387.978 392.09 387.988 392.064C387.998 392.037 388.014 392.013 388.033 391.993C388.053 391.972 388.076 391.956 388.102 391.944C388.128 391.933 388.156 391.927 388.185 391.926Z" fill="#263238"/>
<path d="M385.68 393.36C389.117 392.8 393.301 393.409 395.864 395.903C395.962 396.001 395.864 396.139 395.716 396.109C392.467 394.977 389.106 394.197 385.69 393.782C385.642 393.773 385.598 393.747 385.566 393.709C385.534 393.672 385.516 393.624 385.515 393.575C385.514 393.525 385.529 393.477 385.56 393.438C385.59 393.399 385.632 393.371 385.68 393.36Z" fill="#263238"/>
<path d="M370.754 408.905C372.571 409.464 424.175 408.119 426.109 406.823C426.856 406.342 427.091 398.81 427.091 389.707V389.412L393.782 389.913V390.473C393.782 390.473 374.26 399.821 372.286 401.471C370.312 403.121 368.937 408.345 370.754 408.905Z" fill="#37474F"/>
<path d="M427.17 389.412V389.707C427.17 398.81 426.895 406.342 426.188 406.823C425.481 407.304 414.129 408.011 402.041 408.443C387.576 408.954 371.824 409.209 370.833 408.905C369.016 408.345 370.479 403.121 372.433 401.471C374.387 399.821 393.929 390.473 393.929 390.473V389.913L405.036 389.746L427.17 389.412Z" fill="#37474F"/>
<path d="M371.284 406.882C379.985 406.44 415.091 405.497 423.713 405.723C423.782 405.723 423.782 405.723 423.713 405.723C415.111 406.352 379.995 407.019 371.294 406.98C371.107 407.029 371.107 406.892 371.284 406.882Z" fill="#263238"/>
<path d="M404.928 389.746C404.113 395.324 402.875 403.543 401.982 408.404C387.517 408.915 371.765 409.17 370.774 408.865C368.957 408.306 370.42 403.082 372.374 401.432C374.328 399.782 393.87 390.433 393.87 390.433V389.874L404.928 389.746Z" fill="#263238"/>
<path d="M431.501 389.854L392.594 390.208C392.594 390.208 382.214 252.551 391.445 216.492H419.363C419.363 216.492 426.866 231.801 422.574 249.035L431.501 389.854Z" fill="#455A64"/>
<path d="M428.81 383.353C427.79 383.221 426.764 383.142 425.736 383.118C424.597 383.039 423.458 382.96 422.309 382.911C420.119 382.823 417.92 382.784 415.72 382.774C411.291 382.774 406.882 382.774 402.424 382.921C399.9 383 397.376 383.098 394.862 383.235C394.841 383.235 394.821 383.244 394.807 383.258C394.792 383.273 394.784 383.293 394.784 383.314C394.784 383.335 394.792 383.355 394.807 383.369C394.821 383.384 394.841 383.392 394.862 383.392C399.262 383.55 403.7 383.609 408.05 383.697C412.401 383.785 416.888 383.864 421.239 383.775C422.496 383.775 423.753 383.775 425.019 383.677C426.286 383.579 427.563 383.677 428.79 383.5C428.869 383.491 428.898 383.373 428.81 383.353Z" fill="#263238"/>
<path d="M395.481 349.788C395.039 339.733 394.725 329.677 394.44 319.612C393.89 299.5 393.746 279.376 394.008 259.238C394.155 247.945 394.45 236.652 394.793 225.369C394.793 225.241 394.597 225.251 394.587 225.369C393.517 245.569 393.114 265.818 393.095 286.057C393.075 306.296 393.487 326.319 394.479 346.42C395.039 357.703 395.726 369.006 396.787 380.24C396.787 380.338 396.944 380.338 396.944 380.24C396.492 370.096 395.913 359.942 395.481 349.788Z" fill="#263238"/>
<path d="M359.52 394.872C362.957 394.302 367.14 394.921 369.703 397.415C369.801 397.514 369.703 397.651 369.546 397.612C366.3 396.485 362.942 395.711 359.53 395.304C359.472 395.305 359.417 395.284 359.376 395.244C359.334 395.205 359.31 395.15 359.309 395.093C359.308 395.036 359.329 394.98 359.369 394.939C359.408 394.897 359.463 394.873 359.52 394.872Z" fill="#263238"/>
<path d="M357.016 396.306C360.453 395.746 364.636 396.355 367.199 398.849C367.297 398.947 367.199 399.085 367.052 399.046C363.801 397.921 360.44 397.144 357.026 396.728C356.977 396.719 356.933 396.693 356.901 396.655C356.87 396.618 356.851 396.57 356.85 396.521C356.849 396.471 356.865 396.423 356.895 396.384C356.925 396.345 356.968 396.317 357.016 396.306Z" fill="#263238"/>
<path d="M354.502 397.71C357.939 397.15 362.112 397.759 364.675 400.253C364.774 400.352 364.675 400.499 364.528 400.46C361.277 399.344 357.916 398.581 354.502 398.181C354.439 398.181 354.379 398.157 354.335 398.112C354.291 398.068 354.266 398.008 354.266 397.946C354.266 397.883 354.291 397.823 354.335 397.779C354.379 397.735 354.439 397.71 354.502 397.71Z" fill="#263238"/>
<path d="M339.585 413.284C341.402 413.844 393.006 412.499 394.941 411.203C395.687 410.721 395.923 403.19 395.923 394.086V393.782L362.613 394.273V394.833C362.613 394.833 343.091 404.181 341.117 405.831C339.143 407.481 337.808 412.725 339.585 413.284Z" fill="#37474F"/>
<path d="M340.116 411.262C348.816 410.83 383.923 409.877 392.545 410.103C392.613 410.103 392.613 410.152 392.545 410.152C383.942 410.781 348.826 411.448 340.126 411.409C339.939 411.458 339.939 411.271 340.116 411.262Z" fill="#263238"/>
<path d="M402.355 252.276C402.355 252.276 399.615 308.112 399.517 309.438C399.517 309.949 398.24 396.109 398.24 396.109L359.343 396.463C359.343 396.463 364.666 315.693 365.235 307.808C365.304 306.895 367.504 252.59 376.735 216.531H418.548C418.548 216.531 418.185 235.415 409.602 249.074C407.128 250.004 404.708 251.073 402.355 252.276Z" fill="#455A64"/>
<path d="M399.33 253.356C401.392 252.237 403.494 251.225 405.654 250.302C407.815 249.379 410.014 248.544 412.165 247.592C412.243 247.592 412.312 247.67 412.234 247.71C410.122 248.8 408.05 249.968 405.91 250.999C403.811 252.01 401.645 252.876 399.428 253.592C399.397 253.605 399.362 253.605 399.331 253.592C399.299 253.579 399.274 253.554 399.261 253.523C399.248 253.492 399.248 253.457 399.261 253.425C399.274 253.394 399.299 253.369 399.33 253.356Z" fill="#263238"/>
<path d="M402.198 252.217C402.198 252.138 402.335 252.158 402.325 252.217C400.921 262.685 399.026 387.095 398.702 390.07C398.702 390.117 398.683 390.162 398.65 390.195C398.617 390.228 398.572 390.247 398.525 390.247C398.478 390.247 398.433 390.228 398.4 390.195C398.367 390.162 398.348 390.117 398.348 390.07C398.279 384.807 398.525 287.029 402.198 252.217Z" fill="#263238"/>
<path d="M382.98 220.488C381.91 225.87 381.163 231.29 380.358 236.75C379.553 242.21 378.777 247.631 378.05 253.081C376.617 263.804 375.34 274.544 374.221 285.3C371.969 307.068 370.332 328.888 369.311 350.761C368.728 363.055 368.374 375.363 368.25 387.684C368.25 387.782 368.407 387.772 368.407 387.684C369.153 365.805 370.214 343.936 371.874 322.106C373.533 300.276 375.713 278.564 378.374 256.881C379.114 250.872 379.887 244.868 380.692 238.872C381.527 232.763 382.509 226.675 383.216 220.547C383.186 220.4 382.98 220.341 382.98 220.488Z" fill="#263238"/>
<path d="M396.129 390.738C395.109 390.602 394.083 390.52 393.055 390.492C391.916 390.414 390.777 390.335 389.638 390.286C387.438 390.198 385.248 390.158 383.049 390.158C378.61 390.158 374.211 390.158 369.743 390.306C367.229 390.384 364.705 390.482 362.181 390.62C362.083 390.62 362.093 390.767 362.181 390.767C366.571 390.924 370.97 390.993 375.369 391.072C379.769 391.15 384.158 391.239 388.548 391.16C389.815 391.16 391.072 391.16 392.329 391.052C393.585 390.944 394.882 391.052 396.109 390.875C396.188 390.836 396.217 390.748 396.129 390.738Z" fill="#263238"/>
<path d="M367.121 206.819C371.196 204.767 387.104 197.313 387.743 196.164C388.381 195.015 394.509 172.822 396.149 168.727C397.789 164.632 402.649 166.891 402.62 173.352C402.591 179.814 403.032 202.184 402.1 205.758C401.167 209.333 383.716 223.434 380.495 226.459C378.07 228.865 364.842 207.958 367.121 206.819Z" fill="#AD6359"/>
<path d="M383.746 223.464C381.515 225.693 379.14 227.772 376.636 229.69C374.604 231.124 368.623 235.081 366.816 232.989C365.589 231.565 368.78 228.835 371.068 226.842C372.257 225.801 373.464 223.768 372.748 223.022C371.51 221.716 368.486 224.485 366.62 226.646C362.996 230.819 358.597 237.595 355.052 236.25C353.716 235.739 354.384 233.745 355.622 231.595C353.363 234.384 350.81 236.907 349.297 236.397C348.903 236.268 348.575 235.991 348.38 235.625C348.186 235.259 348.142 234.831 348.257 234.433C347.952 234.726 347.567 234.921 347.151 234.995C346.734 235.068 346.306 235.016 345.919 234.845C344.653 234.187 344.613 232.587 345.124 230.75C344.942 230.793 344.752 230.791 344.571 230.744C344.39 230.698 344.223 230.609 344.083 230.485C341.078 228.148 348.011 216.089 351.173 214.105C357.505 210.312 364.328 207.407 371.451 205.474C376.518 207.31 383.756 223.454 383.746 223.464Z" fill="#AD6359"/>
<path d="M365.707 219.133C363.424 220.319 361.432 221.996 359.873 224.043C358.067 226.469 356.927 229.307 355.405 231.899C355.405 231.968 355.484 232.037 355.513 231.958C356.22 230.672 357.055 229.435 357.801 228.168C358.548 226.901 359.235 225.664 360.05 224.485C361.522 222.319 363.466 220.516 365.736 219.212C365.736 219.212 365.736 219.123 365.707 219.133Z" fill="#263238"/>
<path d="M362.358 215.5C359.886 217.054 357.582 218.861 355.484 220.891C353.255 223.179 351.919 226.135 350.574 228.993C349.769 230.714 349.006 232.449 348.286 234.197C348.286 234.276 348.355 234.335 348.394 234.256C349.739 231.31 351.163 228.364 352.675 225.565C354.067 222.906 355.969 220.547 358.273 218.623C359.598 217.533 360.993 216.531 362.397 215.549C362.417 215.529 362.358 215.48 362.358 215.5Z" fill="#263238"/>
<path d="M358.263 212.731C355.894 213.933 353.762 215.553 351.968 217.513C349.991 220.091 348.341 222.904 347.058 225.889C346.341 227.48 345.683 229.091 345.045 230.721C345.045 230.78 345.134 230.829 345.163 230.721C346.667 227.126 348.402 223.633 350.358 220.263C351.264 218.644 352.413 217.173 353.765 215.903C355.174 214.714 356.679 213.643 358.263 212.701C358.263 212.701 358.273 212.721 358.263 212.731Z" fill="#263238"/>
<path d="M369.88 203.323L389.628 223.189C389.628 223.189 401.589 211.631 402.875 205.798C404.162 199.965 404.201 177.526 402.875 170.77C401.549 164.014 397.189 161.794 394.263 171.104C391.337 180.413 387.782 194.996 387.507 195.536C387.232 196.076 369.88 203.323 369.88 203.323Z" fill="#438AFB"/>
<path d="M393.065 217.022C391.826 215.619 390.515 214.282 389.137 213.015C387.801 211.7 386.427 210.443 385.042 209.176C382.273 206.652 379.425 204.197 376.509 201.84C376.42 201.762 376.283 201.84 376.371 201.968C378.993 204.688 381.713 207.339 384.482 209.903C385.857 211.169 387.242 212.426 388.666 213.644C390.029 214.894 391.459 216.071 392.947 217.169C393.045 217.199 393.134 217.071 393.065 217.022Z" fill="#263238"/>
<path d="M390.728 174.884C392.987 175.061 397.818 170.956 399.762 167.5C399.698 165.529 399.534 163.562 399.271 161.608C399.104 159.722 398.967 157.621 398.987 155.716C398.987 155.313 397.631 156.03 397.631 156.03L395.137 156.619L386.869 158.583C387.541 161 387.914 163.49 387.978 165.997C387.97 166.261 387.94 166.524 387.89 166.783C387.89 166.783 387.89 166.861 387.89 166.92C387.615 168.374 387.203 174.609 390.728 174.884Z" fill="#AD6359"/>
<path d="M387.89 166.744C387.89 166.744 387.89 166.822 387.89 166.881C388.303 166.935 388.72 166.958 389.137 166.95C397.278 166.832 398.378 156.482 398.378 156.482L395.157 156.6L386.888 158.564C387.561 160.98 387.934 163.47 387.998 165.978C387.982 166.235 387.946 166.492 387.89 166.744Z" fill="#263238"/>
<path d="M399.321 139.346C401.108 143.46 400.303 156.04 397.543 159.123C393.615 163.601 386.456 164.799 382.469 159.899C378.61 155.156 380.005 138.796 383.108 135.919C387.674 131.676 396.728 133.267 399.321 139.346Z" fill="#AD6359"/>
<path d="M380.633 142.793C380.633 142.793 379.651 147.506 378.669 152.19L380.26 151.984L379.896 154.105C380.467 154.234 381.059 154.241 381.632 154.126C382.206 154.011 382.749 153.776 383.225 153.437L380.633 142.793Z" fill="#AD6359"/>
<path d="M382.342 147.909C382.342 147.909 382.41 147.909 382.401 147.987C382.283 148.832 382.293 149.814 383.029 150.177C382.096 149.991 382.096 148.685 382.342 147.909Z" fill="#263238"/>
<path d="M383.196 147.104C384.561 147.104 384.374 149.883 383.108 149.843C381.841 149.804 382.047 147.074 383.196 147.104Z" fill="#263238"/>
<path d="M384.355 146.122C383.991 146.004 383.667 145.827 383.373 145.68C382.982 145.573 382.638 145.342 382.391 145.022C382.335 144.907 382.319 144.777 382.346 144.653C382.372 144.528 382.44 144.416 382.538 144.334C382.753 144.195 383.001 144.116 383.257 144.105C383.512 144.095 383.766 144.154 383.991 144.275C384.482 144.45 384.892 144.8 385.14 145.257C385.201 145.37 385.226 145.499 385.21 145.627C385.195 145.754 385.14 145.873 385.054 145.968C384.968 146.063 384.854 146.129 384.729 146.156C384.603 146.184 384.473 146.172 384.355 146.122Z" fill="#263238"/>
<path d="M383.461 153.28C383.105 153.696 382.643 154.007 382.124 154.18C381.605 154.353 381.049 154.381 380.515 154.262C380.456 154.262 380.427 154.184 380.446 154.184C381.505 154.163 382.533 153.821 383.392 153.202C383.491 153.192 383.52 153.192 383.461 153.28Z" fill="#263238"/>
<path d="M381.576 138.766C378.728 137.912 376.744 131.627 377.736 129.3C378.728 126.973 381.065 130.645 381.065 130.645C381.065 130.645 381.301 128.446 382.302 128.2C383.304 127.955 385.17 130.979 385.17 130.979C385.17 130.979 394.734 131.588 396.777 132.325C398.819 133.061 399.438 135.811 399.438 135.811C400.29 136.188 401.049 136.748 401.661 137.45C402.274 138.153 402.725 138.981 402.983 139.876C403.965 143.058 400.803 155.009 398.829 156.629C396.856 158.249 391.386 149.156 391.386 149.156C391.386 149.156 389.913 149.352 389.304 146.406C388.41 142.036 388.165 139.257 385.995 138.816C384.527 138.651 383.047 138.635 381.576 138.766Z" fill="#263238"/>
<path d="M390.934 149.676C390.934 149.676 393.35 145.434 395.255 146.259C397.16 147.084 395.599 153.055 393.546 154.046C393.292 154.192 393.012 154.284 392.721 154.318C392.431 154.353 392.136 154.328 391.855 154.245C391.575 154.163 391.314 154.024 391.088 153.838C390.862 153.652 390.676 153.422 390.541 153.163L390.934 149.676Z" fill="#AD6359"/>
<path d="M394.764 147.958C394.764 147.958 394.813 147.958 394.764 148.017C394.112 148.421 393.552 148.957 393.12 149.592C392.689 150.226 392.396 150.944 392.26 151.699C392.332 151.541 392.437 151.4 392.569 151.287C392.701 151.173 392.856 151.089 393.023 151.042C393.19 150.994 393.366 150.983 393.538 151.011C393.709 151.038 393.873 151.102 394.018 151.199V151.287C393.749 151.226 393.468 151.251 393.214 151.359C392.96 151.466 392.747 151.651 392.604 151.886C392.36 152.278 392.162 152.696 392.014 153.133C391.955 153.28 391.71 153.231 391.739 153.064C391.514 151.14 392.741 148.341 394.764 147.958Z" fill="#263238"/>
<path d="M390.198 179.019C382.675 193.493 369.369 209.755 356.397 215.824C348.492 219.506 342.649 217.523 340.302 214.587C336.895 210.374 343.533 183.3 348.649 175.14C350.319 172.498 375.045 179.431 373.386 182.328C371.726 185.225 379.278 176.554 387.438 170.043C395.815 163.316 394.764 170.279 390.198 179.019Z" fill="#AD6359"/>
<path d="M356.564 160.704C359.51 158.505 362.78 155.735 366.512 154.665C370.243 153.595 374.829 157.552 375.261 158.947C375.693 160.341 376.98 169.542 373.297 170.681C369.615 171.821 369.762 164.406 369.369 163.68C368.977 162.953 368.544 162.01 367.867 162.295C367.189 162.58 356.711 172.115 356.711 172.115L356.564 160.704Z" fill="#AD6359"/>
<path d="M356.957 161.146C357.163 161.087 365.903 154.105 369.644 153.035C373.386 151.964 377.962 155.922 378.394 157.326C378.826 158.73 380.113 167.912 376.43 169.051C372.748 170.19 372.895 162.776 372.502 162.05C372.109 161.323 371.687 160.38 371.009 160.675C370.332 160.969 359.854 170.495 359.854 170.495L356.957 161.146Z" fill="#AD6359"/>
<path d="M374.996 168.973C374.403 168.44 373.957 167.763 373.7 167.009C373.378 166.24 373.179 165.424 373.111 164.593C373.111 163.863 373.052 163.134 372.934 162.413C372.716 161.727 372.331 161.107 371.815 160.606C371.363 160.174 370.833 160.518 370.459 160.832C369.846 161.303 369.266 161.815 368.721 162.364L366.934 164.092C366.299 164.668 365.702 165.285 365.147 165.938C365.147 165.987 365.147 166.066 365.225 166.027C365.79 165.581 366.331 165.106 366.846 164.603C367.448 164.053 368.057 163.513 368.672 162.983C369.242 162.482 369.792 161.951 370.371 161.46C370.577 161.284 370.97 160.891 371.265 160.861C371.559 160.832 371.923 161.5 372.05 161.706C372.413 162.323 372.584 163.034 372.541 163.749C372.546 164.472 372.625 165.192 372.777 165.899C372.914 166.566 373.166 167.205 373.523 167.785C373.929 168.278 374.391 168.722 374.898 169.11C374.967 169.14 375.065 169.022 374.996 168.973Z" fill="#263238"/>
<path d="M348.531 175.424C348.531 175.424 352.96 164.731 357.153 159.457C360.855 154.783 365.618 151.051 369.625 149.775C373.631 148.498 383.569 158.907 380.27 160.577C376.793 162.305 372.158 157.002 370.725 158.318C369.124 159.791 367.248 162.246 368.004 164.308C368.761 166.37 371.932 169.552 375.32 168.393C378.708 167.235 378.355 162.619 381.36 161.087C384.365 159.555 385.14 164.907 383.932 168.943C382.58 172.916 380.128 176.423 376.862 179.058C374.22 181.091 366.188 187.896 366.188 187.896L348.531 175.424Z" fill="#AD6359"/>
<path d="M378.964 160.911C377.654 160.961 376.355 160.659 375.203 160.037C374.092 159.421 372.944 158.877 371.765 158.406C371.65 158.364 371.527 158.348 371.404 158.36C371.282 158.372 371.163 158.411 371.058 158.475C370.817 158.642 370.593 158.833 370.391 159.045C369.958 159.495 369.564 159.982 369.212 160.498C368.545 161.48 367.896 162.727 368.23 163.798C368.599 164.96 369.278 165.999 370.194 166.803C371.088 167.647 372.226 168.187 373.445 168.344C374.052 168.38 374.661 168.307 375.242 168.128C375.827 167.911 376.361 167.577 376.813 167.146C377.723 166.25 378.424 165.163 378.865 163.965C378.547 165.239 377.931 166.42 377.068 167.411C376.597 167.896 376.028 168.275 375.399 168.521C374.772 168.76 374.105 168.876 373.435 168.865C372.071 168.759 370.784 168.195 369.782 167.264C368.73 166.394 367.941 165.248 367.504 163.955C367.32 163.252 367.379 162.508 367.671 161.843C367.925 161.217 368.255 160.623 368.653 160.076C369.034 159.533 369.462 159.024 369.929 158.554C370.178 158.307 370.451 158.087 370.744 157.896C370.923 157.806 371.117 157.754 371.316 157.74C371.515 157.727 371.714 157.753 371.903 157.817C372.528 158.054 373.126 158.353 373.69 158.711L375.36 159.693C376.439 160.395 377.679 160.814 378.964 160.911Z" fill="#263238"/>
<path d="M345.536 176.377L373.926 181.67L373.533 182.564C373.533 182.564 385.17 170.495 390.227 166.695C396.119 162.256 395.825 168.57 393.046 175.071C390.266 181.572 373.406 210.993 357.821 219.006C352.381 221.795 340.695 218.151 339.399 214.007C337.042 206.583 345.536 176.377 345.536 176.377Z" fill="#438AFB"/>
<path d="M373.602 182.407C372.313 183.401 371.09 184.477 369.939 185.627C368.427 187.051 366.944 188.495 365.461 189.948C362.495 192.835 359.549 195.758 356.623 198.718C356.26 199.091 355.906 199.474 355.553 199.847C354.934 200.122 354.345 200.446 353.746 200.75C353.147 201.055 352.312 201.497 351.575 201.85C351.561 201.861 351.552 201.877 351.548 201.895C351.544 201.912 351.546 201.931 351.554 201.947C351.562 201.963 351.576 201.976 351.592 201.983C351.608 201.991 351.627 201.992 351.644 201.988C352.371 201.673 353.107 201.369 353.814 201.006C354.22 200.809 354.623 200.603 355.022 200.387C353.922 201.526 352.823 202.665 351.742 203.824C351.683 203.893 351.742 203.991 351.86 203.932C357.939 198.423 363.831 192.678 369.536 186.776C370.351 185.932 372.944 183.428 373.651 182.495C373.729 182.456 373.67 182.357 373.602 182.407Z" fill="#263238"/>
<path d="M368.839 186.305C367.05 185.757 365.235 185.301 363.399 184.94C361.572 184.518 359.736 184.154 357.9 183.811C354.217 183.104 350.505 182.505 346.793 182.014C346.666 182.014 346.616 182.171 346.793 182.2C350.446 183.182 354.148 183.978 357.851 184.714C359.687 185.078 361.523 185.431 363.379 185.696C365.194 186.049 367.026 186.305 368.869 186.462C368.928 186.492 368.928 186.335 368.839 186.305Z" fill="#263238"/>
<path d="M390.109 180.865C385.838 187.582 381.487 194.24 376.793 200.672C375.419 202.547 374.083 204.452 372.689 206.328C372.689 206.407 372.738 206.515 372.806 206.436C377.914 200.267 382.558 193.729 386.702 186.875C387.91 184.911 389.078 182.947 390.168 180.904L390.109 180.865Z" fill="#263238"/>
<path d="M425.618 233.824C425.491 233.962 371.923 234.993 371.422 234.452C370.724 233.687 379.484 179.981 387.998 168.276C390.129 165.33 397.729 163.366 400.891 166.312C410.063 174.924 411.988 182.151 414.374 188.063C416.7 194.447 418.648 200.962 420.207 207.575C423.409 220.204 426.05 233.313 425.618 233.824Z" fill="#438AFB"/>
<path d="M384.05 177.526C382.479 181.621 381.104 185.804 379.838 190.007C378.571 194.21 377.442 198.374 376.607 202.646C376.371 203.853 376.145 205.061 375.939 206.269C375.733 207.477 375.566 208.783 375.252 210.011C375.252 210.109 375.379 210.138 375.399 210.011C375.782 207.867 376.293 205.749 376.931 203.667C377.491 201.526 378.08 199.395 378.62 197.245C379.661 193.022 380.81 188.829 382.028 184.655C382.735 182.269 383.481 179.902 384.217 177.526C384.247 177.457 384.09 177.428 384.05 177.526Z" fill="#263238"/>
<path d="M140.269 348.139L142.341 360.61L156.433 436.686H158.701L148.459 360.61L146.946 348.139H140.269Z" fill="#DBDBDB"/>
<path d="M146.946 348.139H140.269L142.341 360.61H148.459L146.946 348.139Z" fill="#A6A6A6"/>
<path d="M96.0298 436.686H98.2982L112.39 360.61L114.462 348.139H107.784L106.272 360.61L96.0298 436.686Z" fill="#DBDBDB"/>
<path d="M107.784 348.139L106.272 360.61H112.39L114.462 348.139H107.784Z" fill="#A6A6A6"/>
<path d="M53.7842 436.686H56.0526L70.1345 360.61L72.2164 348.139H65.5388L64.0265 360.61L53.7842 436.686Z" fill="#DBDBDB"/>
<path d="M64.0264 360.61H70.1345L72.2163 348.139H65.5387L64.0264 360.61Z" fill="#A6A6A6"/>
<path d="M57.3784 354.001H160.596V343.121H121.955L108.973 267.575H61.3162L57.3784 354.001Z" fill="#DBDBDB"/>
<path d="M57.3784 354.001H63.0052L66.6779 267.575H61.3162L57.3784 354.001Z" fill="#A6A6A6"/>
<path d="M270.963 427.926C269.048 428.584 214.331 428.771 212.24 427.455C211.434 426.964 210.943 418.99 210.629 409.347L182.436 376.204L224.387 375.969L245.912 409.121C245.912 409.121 266.888 418.42 269.039 420.109C271.189 421.798 272.868 427.288 270.963 427.926Z" fill="#DD6A57"/>
<path d="M270.963 427.926C269.048 428.584 214.331 428.771 212.24 427.455C211.523 427.023 211.061 420.718 210.747 412.577C216.001 413.491 260.338 421.111 262.439 419.943C264.541 418.774 257.863 414.561 257.863 414.561H257.942C263.048 416.918 268.047 419.324 269.038 420.1C271.16 421.789 272.868 427.288 270.963 427.926Z" fill="#263238"/>
<path d="M241.749 418.44C241.749 418.44 247.376 411.91 257.863 414.561L241.749 418.44Z" fill="#263238"/>
<path d="M249.565 408.748L228.246 410.839L207.202 412.911C207.202 412.911 164.976 352.882 162.413 350.26C156.521 344.368 109.1 334.803 96.3047 322.086C82.7531 308.623 88.6647 291.595 88.6647 291.595H124.017C124.017 291.595 128.495 302.947 130.38 303.536C150.796 309.88 177.987 317.854 186.825 325.651C202.675 339.664 249.565 408.748 249.565 408.748Z" fill="#263238"/>
<path d="M242.927 402.247C236.927 402.807 238.636 402.561 232.655 403.229C229.709 403.533 210.472 405.586 207.791 406.361C207.722 406.361 207.791 406.479 207.791 406.479C210.58 406.617 229.788 404.23 232.714 403.867C238.695 403.111 236.966 403.268 242.937 402.453C242.964 402.452 242.99 402.44 243.008 402.419C243.027 402.399 243.036 402.372 243.035 402.345C243.034 402.318 243.022 402.292 243.001 402.274C242.981 402.255 242.955 402.246 242.927 402.247Z" fill="#455A64"/>
<path d="M208.331 402.748C201.398 393.271 194.308 383.481 187.218 374.113L176.583 360.06C174.803 357.71 173.022 355.369 171.241 353.039C169.743 350.936 168.05 348.98 166.184 347.196C164.241 345.568 162.062 344.243 159.722 343.268C157.257 342.168 154.724 341.225 152.171 340.322C146.868 338.495 141.467 337.013 136.095 335.412C126.128 332.466 116.033 329.235 107.45 323.225C99.7319 317.814 93.29 309.782 91.4537 300.364C91.2265 299.169 91.1016 297.957 91.0805 296.741C91.0805 296.72 91.0722 296.7 91.0575 296.685C91.0428 296.67 91.0228 296.662 91.002 296.662C90.9811 296.662 90.9611 296.67 90.9464 296.685C90.9317 296.7 90.9234 296.72 90.9234 296.741C91.1164 301.314 92.3026 305.791 94.3997 309.86C96.6005 314.026 99.5537 317.749 103.11 320.839C110.77 327.625 120.462 331.543 130.105 334.587C135.447 336.266 140.907 337.72 146.22 339.35C148.94 340.184 151.631 341.058 154.292 342.04C156.844 342.923 159.328 343.99 161.726 345.232C164.058 346.494 166.136 348.179 167.853 350.201C169.67 352.332 171.28 354.649 172.96 356.888C176.495 361.582 180.04 366.27 183.595 370.95C190.734 380.387 197.824 389.874 205.071 399.232C205.975 400.401 206.888 401.55 207.791 402.708C208.037 403.082 208.626 403.15 208.331 402.748Z" fill="#455A64"/>
<path d="M180.747 439.288C178.832 439.907 124.115 439.2 122.053 437.844C121.257 437.353 129.634 384.06 129.634 384.06L166.243 384.424L156.02 420.08C156.02 420.08 176.839 429.713 178.95 431.442C181.061 433.17 182.652 438.679 180.747 439.288Z" fill="#DD6A57"/>
<path d="M180.747 439.288C178.832 439.907 124.115 439.2 122.053 437.844C121.797 437.687 122.495 432.011 123.565 424.401C125.794 408.512 129.624 384.06 129.624 384.06L166.233 384.424L156.01 420.08C156.01 420.08 162.482 423.075 168.57 426.021C173.401 428.358 177.987 430.666 178.92 431.432C181.051 433.16 182.652 438.679 180.747 439.288Z" fill="#DD6A57"/>
<path d="M180.747 439.288C178.832 439.907 124.115 439.2 122.053 437.844C121.797 437.687 122.495 432.011 123.565 424.401C128.966 425.324 141.869 427.514 153.182 429.232L154.498 429.429C164.122 430.862 172.292 431.893 173.156 431.393C175.326 430.175 168.943 426.227 168.59 426.021C173.421 428.358 178.007 430.666 178.94 431.432C181.051 433.16 182.652 438.679 180.747 439.288Z" fill="#263238"/>
<path d="M152.485 429.91C152.485 429.91 158.112 423.37 168.59 425.982L152.485 429.91Z" fill="#263238"/>
<path d="M158.514 419.599L120.118 419.412C120.118 419.412 138.099 351.379 137.235 346.243C136.832 343.867 94.1738 347.441 78.8546 331.376C65.6762 317.549 77.8137 291.654 77.8137 291.654L118.901 290.672C118.901 290.672 115.11 301.788 112.527 308.682C112.527 308.682 168.865 312.659 175.189 325.013C181.935 338.211 158.514 419.599 158.514 419.599Z" fill="#263238"/>
<path d="M117.84 293.402C117.427 295.582 117.074 297.772 116.573 299.932C116.337 300.914 116.121 301.985 115.817 302.986C115.723 303.427 115.48 303.823 115.13 304.106C114.714 304.338 114.24 304.444 113.765 304.41C113.546 304.442 113.324 304.423 113.114 304.354C112.904 304.286 112.712 304.171 112.554 304.017C112.396 303.864 112.275 303.676 112.2 303.468C112.126 303.261 112.1 303.039 112.125 302.819C112.125 300.796 113.48 293.903 113.558 293.333C113.558 293.225 113.205 293.176 113.175 293.333C112.193 297.664 110.848 303.153 111.673 304.243C112.119 304.788 112.746 305.155 113.44 305.278C114.133 305.4 114.848 305.27 115.454 304.911C115.976 304.487 116.325 303.886 116.436 303.222C116.681 302.24 116.828 301.258 117.005 300.345C117.418 298.066 117.86 295.798 118.154 293.471C118.144 293.44 118.126 293.412 118.102 293.39C118.078 293.369 118.048 293.353 118.017 293.346C117.985 293.34 117.952 293.341 117.921 293.351C117.89 293.36 117.862 293.378 117.84 293.402Z" fill="#455A64"/>
<path d="M113.126 305.206C113.056 305.481 113 305.759 112.96 306.04C112.901 306.325 112.842 306.6 112.773 306.875C112.704 307.15 112.645 307.435 112.567 307.719C112.488 308.004 112.449 308.269 112.39 308.554C112.388 308.578 112.395 308.601 112.408 308.621C112.421 308.64 112.44 308.655 112.462 308.663C112.484 308.671 112.509 308.671 112.531 308.664C112.553 308.657 112.573 308.642 112.586 308.623C112.715 308.367 112.83 308.105 112.93 307.837C113.018 307.553 113.107 307.278 113.185 306.993C113.264 306.708 113.323 306.433 113.382 306.148C113.466 305.864 113.515 305.571 113.529 305.274C113.529 305.078 113.195 304.999 113.126 305.206Z" fill="#455A64"/>
<path d="M143.981 344.387C143.195 342.266 140.946 341.972 138.973 341.844C136.144 341.661 133.32 341.422 130.498 341.127C124.861 340.538 119.251 339.726 113.666 338.692C108.356 337.816 103.108 336.599 97.9544 335.049C93.1937 333.669 88.795 331.258 85.0706 327.988C81.581 324.912 79.2777 320.712 78.5599 316.116C78.2962 313.315 78.3721 310.492 78.7858 307.71C79.1099 304.911 79.5125 302.132 80.0722 299.373C80.357 298.008 80.6712 296.662 81.0542 295.327C81.0486 295.312 81.0386 295.299 81.0254 295.29C81.0123 295.28 80.9966 295.275 80.9806 295.275C80.9645 295.275 80.9489 295.28 80.9357 295.29C80.9225 295.299 80.9125 295.312 80.9069 295.327C79.4847 300.698 78.4995 306.176 77.9609 311.706C77.7167 314.236 77.9194 316.789 78.5599 319.248C79.1997 321.365 80.196 323.358 81.5059 325.14C87.3194 333.193 97.326 336.109 106.576 338.103C112.115 339.301 117.68 340.283 123.27 341.049C125.991 341.412 128.72 341.736 131.45 342.031C134.18 342.325 136.979 342.443 139.739 342.689C140.328 342.671 140.914 342.776 141.46 342.998C142.006 343.219 142.5 343.552 142.91 343.975C143.207 344.467 143.404 345.012 143.49 345.58C143.576 346.148 143.549 346.727 143.411 347.284C143.205 348.571 142.822 349.837 142.508 351.104C142.194 352.371 141.83 353.805 141.526 355.15C140.112 360.774 138.707 366.407 137.313 372.05C134.534 383.275 131.686 394.499 129.094 405.772C128.77 407.167 128.455 408.561 128.161 409.965C128.154 409.991 128.158 410.019 128.172 410.042C128.186 410.065 128.208 410.082 128.234 410.088C128.26 410.095 128.288 410.09 128.311 410.077C128.334 410.063 128.351 410.04 128.357 410.014C129.987 404.447 131.303 398.79 132.766 393.163C134.23 387.536 135.634 381.91 137.038 376.283C138.442 370.656 139.847 365.098 141.231 359.5C141.886 356.679 142.58 353.86 143.313 351.045C143.794 348.973 144.757 346.459 143.981 344.387Z" fill="#455A64"/>
<path d="M158.927 413.078C154.478 412.803 150.02 412.695 145.562 412.548C141.103 412.401 136.665 412.342 132.216 412.42C129.683 412.42 127.159 412.636 124.626 412.676C124.527 412.676 124.537 412.823 124.626 412.823C129.084 412.823 133.532 413.177 137.991 413.196C142.449 413.216 146.887 413.196 151.336 413.196C153.86 413.196 156.393 413.285 158.927 413.265C159.084 413.245 159.084 413.088 158.927 413.078Z" fill="#455A64"/>
<path d="M96.8743 297.654C96.8196 297.848 96.7438 298.036 96.6485 298.214C96.6373 298.228 96.6312 298.245 96.6312 298.263C96.6312 298.281 96.6373 298.298 96.6485 298.312C95.7352 301.356 94.5863 304.489 91.9152 306.413C90.5433 307.388 89.0158 308.121 87.398 308.584C85.5126 309.134 83.5486 309.291 81.6533 309.811C81.612 309.83 81.5781 309.862 81.5569 309.903C81.5358 309.943 81.5286 309.989 81.5364 310.034C81.5443 310.079 81.5667 310.12 81.6003 310.151C81.6339 310.181 81.6767 310.2 81.7221 310.204C83.8504 310.298 85.9811 310.08 88.0461 309.556C89.8268 309.156 91.5011 308.379 92.9561 307.278C95.9021 304.891 96.7368 301.297 97.1296 297.674C97.1198 297.546 96.9136 297.546 96.8743 297.654Z" fill="#455A64"/>
<path d="M174.05 322.97C172.272 320.584 169.66 319.297 166.891 318.394C148.233 312.266 125.362 309.556 112.881 308.525C112.783 308.525 112.743 308.662 112.881 308.672C126.374 310.705 160.911 315.33 170.672 321.153C174.855 323.648 176.691 329.628 175.523 339.468C174.59 347.324 173.559 355.769 172.272 363.536C172.272 363.811 172.41 363.792 172.469 363.536C173.952 356.525 175.228 348.856 176.132 341.746C176.858 335.599 178.017 328.292 174.05 322.97Z" fill="#455A64"/>
<path d="M97.9741 211.896C93.5551 217.503 93.0641 225.909 93.0641 225.909C93.0641 225.909 89.254 234.747 91.1001 239.097C91.6112 240.332 92.4144 241.424 93.4408 242.279C94.4671 243.134 95.6858 243.727 96.9921 244.007L96.2851 241.572C96.2851 241.572 98.2491 244.577 103.837 245.215C109.424 245.854 116.328 243.33 119.814 241.002C121.898 239.641 123.59 237.759 124.724 235.543L123.742 239.323C125.475 238.915 127.08 238.084 128.415 236.906C129.75 235.727 130.772 234.236 131.392 232.567C133.827 226.616 123.928 219.683 122.966 218.053C122.004 216.423 119.519 203.971 106.557 207.732C106.547 207.742 101.018 208.047 97.9741 211.896Z" fill="#263238"/>
<path d="M95.1165 243.919C93.5056 243.268 92.1342 242.136 91.1886 240.678C90.1793 239.268 89.6743 237.559 89.7548 235.827C89.9948 233.77 90.6071 231.773 91.5617 229.935C92.4259 227.971 93.4275 226.115 94.2524 224.161C94.2524 224.053 94.1345 223.984 94.0658 224.073C93.0636 225.597 92.1488 227.178 91.326 228.806C90.453 230.303 89.7607 231.899 89.2638 233.559C88.8124 235.094 88.8124 236.727 89.2638 238.263C89.6491 239.514 90.3372 240.651 91.2671 241.572C92.4188 242.559 93.6927 243.394 95.0576 244.056C95.1362 244.086 95.254 243.948 95.1165 243.919Z" fill="#263238"/>
<path d="M131.804 226.705C129.663 222.266 125.146 219.831 122.131 216.109C120.492 214.086 119.136 211.798 117.123 210.119C117.123 210.069 116.996 210.119 117.045 210.207C118.585 211.828 119.948 213.609 121.11 215.52C122.466 217.33 124.003 218.998 125.696 220.498C128.701 223.326 132.285 226.665 132.217 231.133C132.217 233.205 131.235 235.592 129.271 236.475C129.192 236.475 129.271 236.642 129.339 236.593C130.12 236.165 130.805 235.582 131.352 234.88C131.9 234.177 132.297 233.37 132.521 232.508C132.991 230.551 132.737 228.489 131.804 226.705Z" fill="#263238"/>
<path d="M132.148 227.932C132.087 226.152 131.472 224.436 130.39 223.022C129.223 221.706 127.786 220.658 126.177 219.948C124.39 219.045 122.524 218.22 121.267 216.6C121.267 216.531 121.12 216.6 121.169 216.688C123.192 219.359 126.521 220.322 128.956 222.482C131.745 224.957 132.226 228.983 130.92 232.302C130.079 234.36 128.763 236.19 127.081 237.644C127.081 237.644 127.081 237.713 127.081 237.644C129.997 235.326 132.374 231.85 132.148 227.932Z" fill="#263238"/>
<path d="M119.608 256.302C126.894 262.881 152.858 282.963 162.374 280.646C168.609 279.124 190.351 265.827 191.657 258.512C192.226 255.33 181.356 240.335 178.636 242.466C175.915 244.597 158.789 255.909 156.226 256.351C153.663 256.793 127.395 245.549 118.763 243.84C103.876 240.816 115.689 252.757 119.608 256.302Z" fill="#DD6A57"/>
<path d="M181.533 235.258C184.695 233.294 188.171 230.868 191.991 230.141C195.811 229.415 200.014 233.775 200.318 235.209C200.623 236.642 201.065 245.912 197.254 246.708C193.444 247.503 194.308 240.138 194.004 239.382C193.7 238.626 193.336 237.644 192.639 237.87C191.942 238.096 180.629 246.708 180.629 246.708L181.533 235.258Z" fill="#DD6A57"/>
<path d="M181.886 235.729C182.102 235.729 191.441 229.533 195.261 228.806C199.081 228.079 203.284 232.439 203.578 233.883C203.873 235.326 204.325 244.577 200.524 245.372C196.724 246.168 197.578 238.803 197.264 238.047C196.95 237.29 196.606 236.308 195.899 236.534C195.192 236.76 183.899 245.372 183.899 245.372L181.886 235.729Z" fill="#DD6A57"/>
<path d="M199.13 245.166C198.586 244.57 198.207 243.842 198.03 243.055C197.78 242.261 197.654 241.433 197.657 240.6C197.716 239.871 197.716 239.139 197.657 238.41C197.495 237.705 197.157 237.053 196.675 236.515C196.272 236.034 195.752 236.338 195.3 236.603C194.651 237.024 194.028 237.483 193.434 237.978C192.776 238.489 192.138 239.019 191.47 239.539C190.782 240.055 190.126 240.613 189.506 241.209C189.506 241.258 189.506 241.346 189.575 241.307C190.194 240.934 190.744 240.462 191.323 240.03C191.902 239.598 192.629 239.048 193.287 238.587C193.945 238.125 194.495 237.664 195.123 237.222C195.339 237.074 195.771 236.711 196.105 236.711C196.439 236.711 196.695 237.398 196.812 237.624C197.116 238.273 197.219 238.998 197.107 239.706C197.05 240.426 197.066 241.15 197.156 241.867C197.218 242.552 197.412 243.219 197.726 243.831C198.084 244.361 198.503 244.849 198.973 245.284C199.091 245.323 199.199 245.225 199.13 245.166Z" fill="#263238"/>
<path d="M171.919 248.23C171.919 248.23 180.433 236.446 182.23 234.06C185.824 229.317 202.773 217.867 205.297 217.051C207.821 216.236 209.863 221.333 198.423 229.464C192.394 233.755 192.011 237.801 192.531 239.873C193.051 241.945 195.929 245.451 199.405 244.616C202.881 243.782 204.138 238.135 207.261 236.878C210.384 235.621 209.49 242.034 207.919 245.952C206.212 249.786 203.45 253.055 199.955 255.379C197.137 257.166 188.524 263.235 188.524 263.235L171.919 248.23Z" fill="#DD6A57"/>
<path d="M203.382 241.209C202.272 242.515 201.035 244.155 199.297 244.606C197.559 245.058 196.076 244.125 194.927 242.819C193.696 241.563 192.993 239.883 192.963 238.125C193.05 236.51 193.603 234.955 194.554 233.647C195.718 232.057 197.108 230.645 198.678 229.454C198.688 229.449 198.696 229.443 198.703 229.434C198.709 229.426 198.714 229.416 198.716 229.405C198.718 229.395 198.717 229.384 198.714 229.374C198.712 229.364 198.706 229.354 198.699 229.346C198.692 229.338 198.683 229.332 198.673 229.328C198.663 229.324 198.653 229.323 198.642 229.324C198.632 229.325 198.621 229.328 198.612 229.334C198.603 229.339 198.596 229.347 198.59 229.356C197.107 230.416 192.482 233.559 192.403 238.243C192.446 240.035 193.173 241.743 194.436 243.016C195.516 244.263 196.94 245.382 198.688 245.166C200.809 244.891 202.253 242.819 203.49 241.238C203.559 241.16 203.441 241.14 203.382 241.209Z" fill="#263238"/>
<path d="M171.153 244.646L183.634 269.068C183.634 269.068 167.156 281.166 157.965 281.932C146.809 282.914 119.401 259.179 115.277 255.114C108.521 248.436 107.234 243.153 112.272 242.348C114.236 242.024 117.182 242.348 121.11 243.615C125.205 244.901 149.588 254.21 156.383 255.016C160.115 255.457 171.153 244.646 171.153 244.646Z" fill="#455A64"/>
<path d="M171.143 244.646L183.634 269.068C183.634 269.068 180.904 271.032 177.035 273.497C171.408 277.032 163.405 281.471 157.965 281.922C146.819 282.904 119.392 259.169 115.277 255.104C110.367 250.272 108.403 246.168 109.532 243.968C109.827 243.499 110.229 243.106 110.706 242.823C111.182 242.539 111.719 242.373 112.272 242.338C114.236 242.024 117.182 242.338 121.11 243.615C125.205 244.901 149.588 254.21 156.384 255.016C160.115 255.457 171.143 244.646 171.143 244.646Z" fill="#455A64"/>
<path d="M183.634 269.068C183.634 269.068 180.904 271.032 177.035 273.497C174.57 275.039 171.673 276.757 168.717 278.24C164.907 280.145 161.028 281.667 157.915 281.922C146.77 282.904 119.342 259.169 115.228 255.104C110.318 250.272 108.354 246.168 109.483 243.968C109.622 243.695 109.816 243.455 110.053 243.261C110.671 242.75 111.425 242.429 112.223 242.338C114.187 242.024 117.133 242.338 121.061 243.615C125.156 244.901 149.539 254.21 156.334 255.016C160.115 255.467 171.143 244.655 171.143 244.655L183.634 269.068Z" fill="#455A64"/>
<path d="M178.537 270.237C176.573 266.682 169.13 251.863 167.735 248.544C167.637 248.318 167.735 248.2 167.893 248.426C174.001 258.924 176.937 266.574 178.695 270.158C178.724 270.246 178.586 270.325 178.537 270.237Z" fill="#263238"/>
<path d="M168.708 278.23C164.897 280.135 161.019 281.657 157.906 281.913C146.76 282.895 119.333 259.16 115.218 255.094C110.308 250.263 108.344 246.158 109.473 243.958C109.612 243.686 109.806 243.445 110.043 243.251L168.708 278.23Z" fill="#263238"/>
<path d="M73.3848 302.338C77.3128 302.908 86.6909 303.752 96.6779 304.597C112.606 305.913 130.164 307.189 130.164 307.189L127.218 276.747C127.218 276.747 131.293 270.855 130.547 265.15C129.683 258.708 119.392 245.461 118.292 244.439C114.57 240.973 109.198 238.911 104.053 241.68C102.976 242.266 101.985 242.996 101.107 243.85C101.043 243.904 100.984 243.963 100.93 244.027C100.645 244.302 100.341 244.597 100.056 244.921C87.2605 258.737 73.3848 302.338 73.3848 302.338Z" fill="#455A64"/>
<path d="M96.4029 248.348C85.8955 262.646 72.2163 289.287 77.0182 293.52C87.5256 302.81 109.424 313.779 120 314.682C123.094 314.947 128.838 294.708 126.747 292.096C124.655 289.484 98.2687 282.129 98.033 280.116C97.8759 278.967 101.323 266.23 104.288 253.935C107.716 239.824 99.4078 244.253 96.4029 248.348Z" fill="#DD6A57"/>
<path d="M121.316 290.613C121.316 290.613 130.773 290.348 136.96 290.466C140.406 290.535 146.318 291.173 148.832 292.381C152.593 294.188 167.156 304.165 164.819 307.739C162.698 310.98 151.267 300.865 151.267 300.865C151.267 300.865 163.709 310.076 160.439 313.523C157.169 316.97 145.788 303.772 145.788 303.772C145.788 303.772 158.357 313.533 154.42 316.538C151.474 318.816 140.465 307.454 140.465 307.454C140.465 307.454 151.228 315.9 148.282 318.374C144.992 321.114 134.19 311.294 134.19 311.294C125.617 316.322 119.46 315.222 115.218 313.896C114.187 313.533 121.316 290.613 121.316 290.613Z" fill="#DD6A57"/>
<path d="M147.172 297.369C148.675 298.4 150.197 299.431 151.601 300.59C153.006 301.749 154.37 302.957 155.657 304.243C157.374 305.893 158.899 307.731 160.204 309.723C157.505 306.53 154.513 303.597 151.267 300.963C149.873 299.805 148.528 298.577 147.123 297.418L147.172 297.369Z" fill="#263238"/>
<path d="M142.891 302.358C144.757 303.762 146.652 305.078 148.449 306.561C150.246 308.044 151.807 309.585 153.487 311.176C153.614 311.304 153.487 311.333 153.369 311.176C151.631 309.654 149.892 308.377 148.135 306.875C146.377 305.373 144.668 303.792 142.852 302.358C142.832 302.377 142.861 302.338 142.891 302.358Z" fill="#263238"/>
<path d="M138.462 305.981C141.362 308.058 144.04 310.427 146.456 313.052C146.583 313.179 146.456 313.199 146.308 313.052C143.686 310.656 141.654 308.751 138.393 306.06C138.325 306.04 138.384 305.942 138.462 305.981Z" fill="#263238"/>
<path d="M109.464 314.702L123.732 289.484C123.732 289.484 99.3686 280.97 98.7597 280.184C98.1509 279.399 103.002 263.49 105.045 253.022C107.087 242.554 102.354 240.06 94.596 249.939C86.8382 259.818 72.56 285.939 74.956 292.302C77.3521 298.665 109.464 314.702 109.464 314.702Z" fill="#455A64"/>
<path d="M118.547 289.228C117.97 290.006 117.448 290.823 116.986 291.674L115.356 294.345C114.256 296.161 113.195 297.998 112.154 299.844C110.102 303.507 108.069 307.189 106.007 310.842C106.007 310.931 106.086 310.999 106.144 310.921C108.403 307.366 110.632 303.811 112.783 300.188C113.853 298.4 114.884 296.593 115.856 294.757C116.347 293.834 116.838 292.911 117.31 291.988C117.811 291.116 118.251 290.211 118.626 289.278C118.645 289.228 118.577 289.199 118.547 289.228Z" fill="#263238"/>
<path d="M109.365 314.515C104.897 312.148 100.527 309.605 96.1279 307.052C91.7285 304.499 87.2899 301.926 83.136 299.048C81.9576 298.233 80.7694 297.428 79.6107 296.584C78.4519 295.739 77.3913 294.816 76.1933 294.08C76.1049 294.021 76.0264 294.148 76.0951 294.207C76.9777 295.11 77.9335 295.937 78.9527 296.682C79.9347 297.487 80.9953 298.273 82.0362 299.048C84.0002 300.551 86.1508 301.994 88.2719 303.301C92.5338 306.03 96.9724 308.476 101.48 310.774C104.072 312.089 106.714 313.317 109.336 314.652C109.35 314.649 109.363 314.641 109.373 314.631C109.383 314.62 109.39 314.607 109.393 314.593C109.396 314.579 109.395 314.564 109.39 314.55C109.385 314.536 109.377 314.524 109.365 314.515Z" fill="#263238"/>
<path d="M123.732 289.307C121.532 288.453 99.9579 280.233 99.0642 280.066C99.0642 279.399 100.969 271.69 101.392 269.903C101.49 269.48 101.578 269.068 101.667 268.656C101.991 267.84 102.305 267.016 102.649 266.191C103.091 265.073 103.603 263.984 104.18 262.931C104.191 262.912 104.194 262.891 104.188 262.87C104.183 262.85 104.169 262.833 104.151 262.822C104.133 262.812 104.111 262.809 104.091 262.815C104.071 262.82 104.053 262.834 104.043 262.852C103.483 263.932 102.914 265.022 102.403 266.122L102.138 266.701L102.609 264.639C103.012 262.813 103.483 260.976 103.748 259.12C103.742 259.103 103.731 259.088 103.716 259.077C103.701 259.067 103.683 259.061 103.665 259.061C103.647 259.061 103.629 259.067 103.614 259.077C103.599 259.088 103.587 259.103 103.581 259.12C102.924 260.966 102.462 262.881 101.942 264.767C101.421 266.652 98.4259 280.243 98.534 280.332C99.3294 280.921 121.591 288.698 123.722 289.494C123.732 289.484 123.791 289.336 123.732 289.307Z" fill="#263238"/>
<path d="M163.326 318.099H112.851V320.368H163.326V318.099Z" fill="#438AFB"/>
<path opacity="0.1" d="M163.326 318.099H137.922V320.368H163.326V318.099Z" fill="black"/>
<path d="M140.662 320.358H189.85L196.282 286.95H147.084L140.662 320.358Z" fill="#438AFB"/>
<path d="M165.477 303.654C165.442 304.031 165.488 304.412 165.61 304.77C165.732 305.129 165.928 305.458 166.185 305.735C166.443 306.013 166.756 306.234 167.104 306.383C167.452 306.532 167.828 306.606 168.207 306.6C169.014 306.585 169.789 306.278 170.388 305.737C170.987 305.195 171.37 304.456 171.467 303.654C171.507 303.272 171.466 302.887 171.346 302.522C171.226 302.158 171.03 301.823 170.771 301.54C170.512 301.256 170.196 301.031 169.844 300.88C169.491 300.728 169.111 300.653 168.727 300.659C167.913 300.674 167.132 300.987 166.533 301.539C165.934 302.091 165.558 302.844 165.477 303.654Z" fill="white"/>
<path d="M105.585 242.554C105.889 243.33 110.495 247.984 114.099 247.287C115.277 247.052 114.315 240.541 114.315 240.541V240.04L114.855 233.078L106.203 229.15L104.956 228.639C104.956 228.639 104.956 230.554 104.956 232.94V233.284C104.956 233.412 104.956 233.539 104.956 233.667C104.956 234.02 104.956 234.384 104.956 234.747C104.956 235.11 104.956 235.297 104.956 235.582C104.956 235.867 104.956 236.161 104.956 236.446C105.032 238.493 105.242 240.534 105.585 242.554Z" fill="#DD6A57"/>
<path d="M104.976 232.921C105.927 234.718 107.259 236.286 108.879 237.516C110.499 238.745 112.367 239.607 114.354 240.04L114.894 233.078L106.243 229.15L104.995 228.639C104.995 228.639 104.976 230.534 104.976 232.921Z" fill="#263238"/>
<path d="M122.534 220.95C125.372 232.871 118.547 235.916 115.974 236.524C113.637 237.074 105.624 238.665 101.568 227.097C97.5127 215.529 102.158 210.403 107.46 208.891C112.763 207.379 119.696 209.048 122.534 220.95Z" fill="#DD6A57"/>
<path d="M120.924 218.986C120.642 219 120.36 219 120.079 218.986C119.779 219.013 119.479 218.94 119.225 218.78C119.155 218.715 119.108 218.629 119.092 218.535C119.076 218.44 119.091 218.344 119.136 218.259C119.249 218.109 119.398 217.991 119.571 217.917C119.743 217.843 119.932 217.815 120.118 217.837C120.515 217.829 120.9 217.969 121.199 218.23C121.252 218.292 121.288 218.367 121.302 218.448C121.317 218.528 121.31 218.611 121.282 218.688C121.254 218.765 121.206 218.833 121.143 218.886C121.08 218.938 121.004 218.973 120.924 218.986Z" fill="#263238"/>
<path d="M113.205 220.449C113.472 220.362 113.734 220.261 113.991 220.145C114.284 220.079 114.547 219.916 114.737 219.683C114.784 219.598 114.801 219.499 114.785 219.403C114.769 219.306 114.721 219.218 114.648 219.153C114.49 219.044 114.306 218.979 114.114 218.966C113.923 218.952 113.731 218.989 113.558 219.074C113.185 219.2 112.868 219.454 112.665 219.791C112.622 219.872 112.605 219.963 112.614 220.053C112.623 220.144 112.658 220.229 112.716 220.3C112.774 220.37 112.851 220.422 112.938 220.448C113.025 220.475 113.118 220.475 113.205 220.449Z" fill="#263238"/>
<path d="M115.316 223.238C115.316 223.238 115.267 223.238 115.267 223.326C115.454 224.142 115.523 225.104 114.835 225.516C115.729 225.261 115.621 223.984 115.316 223.238Z" fill="#263238"/>
<path d="M114.423 222.521C113.087 222.669 113.441 225.34 114.727 225.192C116.014 225.045 115.542 222.394 114.423 222.521Z" fill="#263238"/>
<path d="M113.912 222.737C113.706 222.924 113.519 223.228 113.234 223.297C112.95 223.366 112.635 223.13 112.38 222.894C112.449 223.405 112.724 223.876 113.284 223.876C113.843 223.876 114.079 223.366 114.128 222.835C114.108 222.796 114.01 222.668 113.912 222.737Z" fill="#263238"/>
<path d="M119.804 222.227C119.804 222.227 119.873 222.227 119.873 222.286C119.961 223.12 120.207 224.053 120.992 224.25C120.099 224.269 119.804 223.022 119.804 222.227Z" fill="#263238"/>
<path d="M120.442 221.254C121.758 220.97 122.239 223.621 121.022 223.886C119.804 224.151 119.342 221.5 120.442 221.254Z" fill="#263238"/>
<path d="M121.031 221.333C121.267 221.431 121.522 221.647 121.768 221.618C122.013 221.588 122.229 221.264 122.367 220.95C122.475 221.451 122.367 222.011 121.935 222.197C121.503 222.384 121.1 221.991 120.894 221.5C120.894 221.441 120.933 221.294 121.031 221.333Z" fill="#263238"/>
<path d="M116.063 229.641C116.289 229.817 116.514 230.063 116.819 230.053C117.125 230.018 117.419 229.917 117.683 229.759C117.683 229.759 117.742 229.759 117.683 229.759C117.585 229.932 117.442 230.076 117.269 230.174C117.096 230.273 116.9 230.323 116.701 230.318C116.527 230.292 116.365 230.214 116.236 230.095C116.106 229.976 116.015 229.821 115.974 229.651C115.974 229.641 116.033 229.621 116.063 229.641Z" fill="#263238"/>
<path d="M119.028 226.106C119.212 226.693 119.366 227.29 119.49 227.893C119.49 227.952 119.362 227.991 119.166 228.04C118.682 228.211 118.16 228.245 117.658 228.14C117.156 228.034 116.692 227.792 116.318 227.441C116.269 227.392 116.318 227.323 116.397 227.353C117.218 227.734 118.14 227.845 119.028 227.667C119.028 227.5 118.331 225.624 118.419 225.605C118.876 225.573 119.335 225.603 119.784 225.693C119.097 223.16 117.997 220.783 117.349 218.24C117.347 218.223 117.351 218.206 117.36 218.192C117.368 218.178 117.381 218.167 117.396 218.16C117.412 218.154 117.429 218.152 117.445 218.156C117.461 218.159 117.476 218.168 117.487 218.181C118.73 220.714 119.717 223.366 120.433 226.096C120.541 226.41 119.284 226.174 119.028 226.106Z" fill="#263238"/>
<path d="M119.048 227.598C118.845 228.139 118.507 228.619 118.066 228.993C117.81 229.184 117.502 229.294 117.182 229.307C116.485 229.307 116.298 228.718 116.279 228.178C116.269 227.888 116.292 227.598 116.347 227.313C117.196 227.688 118.14 227.788 119.048 227.598Z" fill="#263238"/>
<path d="M118.017 228.993C117.761 229.184 117.453 229.294 117.133 229.307C116.436 229.307 116.249 228.718 116.23 228.177C116.576 228.092 116.941 228.126 117.265 228.274C117.59 228.422 117.854 228.675 118.017 228.993Z" fill="#FFA2BE"/>
<path d="M101.667 227.166C103.041 226.862 106.017 222.462 105.025 215.755C105.025 215.755 105.496 221.834 105.192 222.786C104.887 223.739 106.851 220.312 106.125 214.93C108.024 215.869 110.048 216.531 112.135 216.894C114.796 217.189 116.347 216.894 116.495 216.698C116.642 216.502 112.714 215.912 111.506 214.911C111.506 214.911 118.793 216.943 121.955 216.668C122.318 216.668 121.532 209.146 116.18 206.79C110.829 204.433 103.758 209.097 102.03 211.415C102.03 211.415 99.6731 212.161 97.6403 216.158C95.6076 220.155 100.164 227.5 101.667 227.166Z" fill="#263238"/>
<path d="M119.293 222.914C118.871 220.862 119.627 218.986 120.992 218.672C122.357 218.358 123.811 219.831 124.243 221.893C124.675 223.955 123.909 225.821 122.544 226.145C121.179 226.469 119.725 224.927 119.293 222.914ZM119.794 222.816C120.167 224.593 121.356 225.86 122.436 225.644C123.516 225.428 124.105 223.778 123.742 221.991C123.378 220.204 122.18 218.947 121.09 219.173C120 219.398 119.431 220.95 119.804 222.767L119.794 222.816Z" fill="#438AFB"/>
<path d="M109.905 224.819C109.811 224.129 109.92 223.426 110.219 222.796C110.519 222.167 110.995 221.639 111.591 221.278C112.187 220.916 112.875 220.736 113.571 220.76C114.268 220.785 114.942 221.012 115.511 221.415C116.08 221.817 116.519 222.377 116.774 223.025C117.028 223.674 117.088 224.383 116.945 225.065C116.803 225.747 116.464 226.373 115.97 226.864C115.476 227.356 114.85 227.693 114.167 227.834C113.202 227.999 112.211 227.774 111.412 227.209C110.613 226.643 110.071 225.784 109.905 224.819ZM110.406 224.711C110.573 225.28 110.902 225.789 111.353 226.175C111.804 226.56 112.357 226.806 112.946 226.882C113.534 226.958 114.132 226.861 114.666 226.603C115.2 226.345 115.648 225.937 115.954 225.429C116.26 224.92 116.411 224.334 116.389 223.741C116.367 223.148 116.173 222.574 115.831 222.09C115.488 221.605 115.012 221.231 114.46 221.013C113.908 220.795 113.305 220.742 112.724 220.862C111.908 221.068 111.207 221.588 110.773 222.309C110.339 223.03 110.207 223.893 110.406 224.711Z" fill="#438AFB"/>
<path d="M116.642 223.071C118.38 222.02 119.352 222.462 119.362 222.462L119.588 222.011C119.588 222.011 118.38 221.421 116.377 222.629L116.642 223.071Z" fill="#438AFB"/>
<path d="M110.082 224.436V223.896C109.748 223.896 104.072 223.975 103.208 224.102C102.344 224.23 100.517 225.801 100.321 225.978L100.655 226.361C101.419 225.642 102.295 225.052 103.247 224.613C103.945 224.534 107.244 224.505 110.082 224.436Z" fill="#438AFB"/>
<path d="M103.68 227.588C103.68 227.588 100.468 224.2 98.8973 225.398C97.3261 226.597 100.115 231.781 102.246 232.272C102.514 232.351 102.796 232.373 103.073 232.339C103.35 232.305 103.618 232.216 103.859 232.075C104.101 231.934 104.311 231.746 104.478 231.522C104.645 231.298 104.764 231.042 104.829 230.77L103.68 227.588Z" fill="#DD6A57"/>
<path d="M99.732 226.842C99.732 226.842 99.732 226.842 99.732 226.901C100.429 227.128 101.071 227.498 101.616 227.989C102.16 228.48 102.596 229.079 102.894 229.749C102.791 229.619 102.662 229.513 102.514 229.438C102.366 229.363 102.204 229.322 102.039 229.316C101.873 229.311 101.709 229.341 101.556 229.406C101.404 229.47 101.267 229.567 101.156 229.69C101.156 229.69 101.156 229.768 101.156 229.759C101.392 229.64 101.66 229.599 101.921 229.641C102.182 229.684 102.423 229.807 102.609 229.994C102.919 230.291 103.195 230.62 103.434 230.976C103.523 231.094 103.739 230.976 103.67 230.849C103.473 229.071 101.696 226.754 99.732 226.842Z" fill="#263238"/>
<path d="M114.373 240.502L113.077 247.179L105.28 240.374L103.11 243.006C103.11 243.006 112.125 254.79 112.066 254.191L113.588 248.358L117.987 251.363L116.072 242.966L114.373 240.502Z" fill="#EBEBEB"/>
<path d="M116.151 243.035C116.151 242.986 116.033 242.976 116.043 243.035C116.21 244.469 117.388 249.497 117.653 250.891C117.467 250.754 113.608 248.279 113.588 248.338C113.195 249.32 112.076 253.543 112.017 253.916C110.436 252.168 104.799 244.597 103.022 242.996C103.011 242.991 102.998 242.989 102.986 242.991C102.974 242.993 102.963 242.999 102.955 243.007C102.946 243.016 102.94 243.027 102.938 243.039C102.936 243.051 102.938 243.063 102.943 243.074C104.396 244.96 111.997 254.741 112.086 254.691C112.724 252.669 113.252 250.614 113.667 248.534C115.135 249.706 116.681 250.779 118.292 251.745C118.046 250.204 116.622 244.518 116.151 243.035Z" fill="#263238"/>
</svg>
