<svg width="48" height="48" viewBox="0 0 48 48" fill="none" xmlns="http://www.w3.org/2000/svg">
<rect width="48" height="48" rx="5" fill="#438AFB"/>
<path d="M36.8315 15.0197L24.9643 10.0926C24.667 9.96917 24.3329 9.96911 24.0357 10.0926L12.1685 15.0197C11.7165 15.2074 11.4219 15.6487 11.4219 16.1381V22.1277C11.4219 30.3749 16.4066 37.7936 24.0424 40.9102C24.3357 41.0299 24.6643 41.0299 24.9576 40.9102C32.5932 37.7936 37.5781 30.375 37.5781 22.1277V16.1381C37.5781 15.6487 37.2836 15.2074 36.8315 15.0197ZM35.1562 22.1277C35.1562 29.1387 31.0391 35.5928 24.5 38.4737C18.1357 35.6697 13.8438 29.3287 13.8438 22.1277V16.9465L24.5 12.5221L35.1562 16.9465V22.1277ZM23.1616 26.2094L28.3664 21.0046C28.8393 20.5317 29.606 20.5316 30.0789 21.0046C30.5518 21.4775 30.5518 22.2442 30.0788 22.7171L24.0178 28.7781C23.5448 29.2511 22.7781 29.2509 22.3053 28.7781L18.9211 25.3939C18.4482 24.921 18.4482 24.1543 18.9211 23.6814C19.394 23.2085 20.1607 23.2085 20.6336 23.6814L23.1616 26.2094Z" fill="white"/>
</svg>
