<svg width="520" height="408" viewBox="0 0 520 408" fill="none" xmlns="http://www.w3.org/2000/svg">
<rect width="520" height="408" fill="#E5E5E5"/>
<g clip-path="url(#clip0)">
<rect width="1440" height="1024" transform="translate(-59 -590)" fill="#FBFBFB"/>
<rect x="-59" y="-620" width="637" height="1054" fill="#001D4A"/>
<g style="mix-blend-mode:soft-light" clip-path="url(#clip1)">
<g style="mix-blend-mode:multiply" opacity="0.2">
<g style="mix-blend-mode:multiply" opacity="0.2">
<path d="M263.469 174.126C263.402 174.137 263.334 174.137 263.267 174.126C263.165 174.095 263.073 174.038 262.998 173.962C262.924 173.887 262.869 173.793 262.84 173.691L223.288 43.023C223.256 42.9007 223.259 42.7718 223.297 42.6513C223.336 42.5309 223.407 42.4237 223.504 42.3424C223.601 42.2611 223.719 42.2089 223.844 42.1919C223.97 42.1749 224.097 42.1939 224.212 42.2465L350.543 104.82C350.643 104.869 350.728 104.942 350.791 105.033C350.854 105.124 350.892 105.23 350.901 105.341C350.912 105.45 350.895 105.56 350.853 105.662C350.811 105.764 350.745 105.853 350.66 105.923L263.873 173.986C263.758 174.077 263.615 174.126 263.469 174.126ZM224.989 44.0945L263.834 172.364L349.044 105.543L224.989 44.0945Z" fill="#329AA5"/>
</g>
<g style="mix-blend-mode:multiply" opacity="0.2">
<path d="M234.079 258.557C233.918 258.556 233.763 258.495 233.644 258.386C233.546 258.302 233.476 258.19 233.443 258.066C233.41 257.941 233.415 257.809 233.457 257.688L262.847 173.295C262.888 173.175 262.964 173.07 263.065 172.993L349.844 104.937C349.945 104.859 350.066 104.811 350.193 104.8C350.32 104.789 350.448 104.815 350.56 104.875C350.673 104.935 350.766 105.026 350.827 105.138C350.889 105.25 350.917 105.377 350.908 105.504L343.52 207.218C343.514 207.336 343.476 207.449 343.41 207.546C343.345 207.643 343.254 207.72 343.147 207.77L234.382 258.518C234.285 258.553 234.181 258.567 234.079 258.557ZM264.02 173.924L235.213 256.608L342.238 206.675L349.487 106.847L264.02 173.924Z" fill="#329AA5"/>
</g>
<g style="mix-blend-mode:multiply" opacity="0.2">
<path d="M263.469 174.126H263.422L43.1721 157.929C43.0352 157.921 42.9046 157.869 42.7997 157.781C42.6947 157.693 42.621 157.574 42.5894 157.44C42.5533 157.307 42.561 157.166 42.6114 157.037C42.6617 156.908 42.7521 156.799 42.8691 156.726L223.567 42.2776C223.653 42.2236 223.751 42.19 223.852 42.1793C223.953 42.1685 224.055 42.1809 224.15 42.2154C224.246 42.2488 224.332 42.3052 224.401 42.3797C224.47 42.4541 224.52 42.5444 224.546 42.6425L264.098 173.28C264.128 173.383 264.133 173.491 264.113 173.597C264.093 173.702 264.048 173.801 263.982 173.885C263.919 173.961 263.841 174.022 263.752 174.064C263.664 174.105 263.567 174.127 263.469 174.126ZM45.2542 156.773L262.591 172.744L223.575 43.8538L45.2542 156.773Z" fill="#329AA5"/>
</g>
<g style="mix-blend-mode:multiply" opacity="0.2">
<path d="M70.7363 335.806C70.6012 335.807 70.469 335.767 70.358 335.689C70.247 335.612 70.1626 335.503 70.1166 335.376C70.0705 335.249 70.0651 335.111 70.1009 334.981C70.1368 334.85 70.2122 334.735 70.3168 334.649L263.041 172.969C263.152 172.876 263.29 172.822 263.435 172.815C263.579 172.808 263.722 172.849 263.841 172.931C263.96 173.013 264.049 173.132 264.094 173.269C264.139 173.406 264.138 173.555 264.09 173.691L234.7 258.076C234.671 258.159 234.626 258.235 234.568 258.3C234.509 258.366 234.438 258.419 234.358 258.456L71.016 335.744C70.9293 335.787 70.8332 335.808 70.7363 335.806ZM262.063 175.477L75.0714 332.32L233.558 257.33L262.063 175.477Z" fill="#329AA5"/>
</g>
<g style="mix-blend-mode:multiply" opacity="0.2">
<path d="M70.7364 335.806C70.6597 335.805 70.5836 335.792 70.5111 335.767C70.4013 335.728 70.3043 335.659 70.2304 335.569C70.1565 335.479 70.1085 335.37 70.0915 335.255L42.5739 157.378C42.5541 157.279 42.5579 157.176 42.5848 157.078C42.6117 156.98 42.6611 156.89 42.7289 156.815C42.7968 156.74 42.8813 156.681 42.9758 156.644C43.0702 156.607 43.172 156.593 43.2731 156.602L263.515 172.798C263.646 172.807 263.77 172.854 263.873 172.934C263.975 173.015 264.051 173.124 264.09 173.249C264.13 173.373 264.133 173.507 264.097 173.633C264.061 173.759 263.988 173.871 263.888 173.955L71.1637 335.651C71.0434 335.75 70.8925 335.805 70.7364 335.806ZM43.9956 157.999L71.2103 333.873L261.814 174.01L43.9956 157.999Z" fill="#329AA5"/>
</g>
<g style="mix-blend-mode:multiply" opacity="0.2">
<path d="M267.089 395.158H267.042C266.903 395.148 266.77 395.093 266.664 395.003C266.558 394.912 266.483 394.789 266.452 394.653L233.442 257.998C233.399 257.847 233.412 257.686 233.478 257.544C233.543 257.402 233.657 257.288 233.799 257.222L342.611 206.535C342.732 206.482 342.865 206.465 342.995 206.487C343.125 206.509 343.246 206.569 343.341 206.659C343.436 206.751 343.502 206.868 343.53 206.997C343.557 207.125 343.546 207.259 343.497 207.381L267.695 394.746C267.646 394.867 267.562 394.97 267.454 395.043C267.347 395.117 267.219 395.156 267.089 395.158ZM234.848 258.231L267.252 392.355L341.64 208.406L234.848 258.231Z" fill="#329AA5"/>
</g>
<g style="mix-blend-mode:multiply" opacity="0.2">
<path d="M267.089 395.158C267.027 395.169 266.964 395.169 266.903 395.158L70.5499 335.783C70.4225 335.744 70.3099 335.668 70.2266 335.564C70.1433 335.46 70.0934 335.334 70.0833 335.201C70.0732 335.068 70.1035 334.936 70.1701 334.821C70.2367 334.706 70.3366 334.613 70.4567 334.556L233.799 257.268C233.887 257.226 233.983 257.204 234.08 257.204C234.177 257.204 234.273 257.225 234.361 257.267C234.449 257.309 234.527 257.369 234.588 257.445C234.649 257.52 234.693 257.609 234.716 257.703L267.726 394.358C267.751 394.455 267.754 394.556 267.733 394.654C267.713 394.752 267.67 394.844 267.609 394.922C267.547 395.001 267.468 395.065 267.378 395.108C267.288 395.152 267.189 395.174 267.089 395.173V395.158ZM72.562 335.014L266.18 393.543L233.628 258.798L72.562 335.014Z" fill="#329AA5"/>
</g>
<g style="mix-blend-mode:multiply" opacity="0.2">
<path d="M267.089 395.158C266.922 395.157 266.761 395.093 266.638 394.979C266.542 394.889 266.475 394.771 266.447 394.642C266.419 394.513 266.432 394.379 266.483 394.257L342.262 206.861C342.314 206.737 342.402 206.632 342.515 206.56C342.629 206.488 342.761 206.452 342.895 206.457C343.03 206.462 343.159 206.508 343.266 206.589C343.374 206.669 343.454 206.78 343.497 206.908L384.983 336.38C385.024 336.529 385.013 336.686 384.953 336.827C384.892 336.968 384.785 337.085 384.649 337.157L267.377 395.088C267.288 395.134 267.189 395.158 267.089 395.158ZM342.798 209.035L268.348 393.147L383.554 336.241L342.798 209.035Z" fill="#329AA5"/>
</g>
<g style="mix-blend-mode:multiply" opacity="0.2">
<path d="M342.868 207.77C342.718 207.768 342.573 207.716 342.456 207.622C342.373 207.556 342.308 207.47 342.266 207.372C342.224 207.275 342.207 207.169 342.215 207.063L349.595 105.348C349.601 105.258 349.626 105.169 349.669 105.089C349.712 105.008 349.772 104.938 349.844 104.883C349.913 104.824 349.994 104.782 350.081 104.758C350.168 104.734 350.26 104.728 350.349 104.743L480.479 124.729C480.603 124.749 480.718 124.804 480.812 124.887C480.905 124.971 480.973 125.079 481.007 125.2C481.042 125.32 481.041 125.448 481.005 125.568C480.969 125.688 480.9 125.795 480.806 125.878L409.028 188.327C408.959 188.389 408.876 188.434 408.787 188.459L343.054 207.715C342.994 207.741 342.932 207.759 342.868 207.77ZM350.854 106.171L343.59 206.217L408.274 187.264L478.879 125.839L350.854 106.171Z" fill="#329AA5"/>
</g>
<g style="mix-blend-mode:multiply" opacity="0.2">
<path d="M384.354 337.235C384.216 337.235 384.081 337.191 383.97 337.11C383.858 337.029 383.775 336.915 383.732 336.784L357.03 256.119C356.997 256.022 356.988 255.918 357.002 255.817C357.017 255.715 357.055 255.618 357.114 255.534C357.173 255.45 357.251 255.381 357.342 255.333C357.433 255.285 357.534 255.259 357.636 255.257L500.205 251.507C500.342 251.508 500.476 251.552 500.588 251.633C500.699 251.713 500.782 251.827 500.826 251.957C500.872 252.089 500.875 252.232 500.833 252.365C500.791 252.498 500.707 252.614 500.593 252.695L384.742 337.11C384.63 337.193 384.493 337.236 384.354 337.235ZM358.561 256.546L384.696 335.519L498.122 252.874L358.561 256.546Z" fill="#329AA5"/>
</g>
<g style="mix-blend-mode:multiply" opacity="0.2">
<path d="M500.22 252.819C500.084 252.819 499.952 252.778 499.839 252.703L408.22 188.39C408.138 188.333 408.069 188.258 408.021 188.171C407.972 188.084 407.944 187.986 407.938 187.887C407.933 187.787 407.951 187.687 407.99 187.595C408.03 187.503 408.09 187.422 408.166 187.357L479.943 124.907C480.033 124.831 480.141 124.78 480.257 124.758C480.373 124.737 480.492 124.745 480.603 124.783C480.714 124.823 480.812 124.893 480.886 124.984C480.96 125.076 481.007 125.186 481.023 125.303L500.873 252.066C500.892 252.194 500.874 252.324 500.82 252.441C500.766 252.559 500.679 252.658 500.57 252.726C500.463 252.786 500.343 252.819 500.22 252.819ZM409.665 187.799L499.334 250.738L479.912 126.677L409.665 187.799Z" fill="#329AA5"/>
</g>
<g style="mix-blend-mode:multiply" opacity="0.2">
<path d="M267.252 170.819C267.774 171.564 268.062 172.446 268.082 173.356C268.101 174.265 267.85 175.159 267.361 175.926C266.872 176.692 266.166 177.297 265.333 177.662C264.5 178.028 263.577 178.138 262.681 177.98C261.785 177.821 260.957 177.4 260.3 176.771C259.644 176.142 259.188 175.332 258.992 174.444C258.797 173.556 258.868 172.63 259.199 171.783C259.53 170.936 260.105 170.205 260.851 169.685C261.85 168.987 263.086 168.715 264.286 168.928C265.487 169.14 266.553 169.82 267.252 170.819Z" fill="#329AA5"/>
</g>
<g style="mix-blend-mode:multiply" opacity="0.2">
<path d="M354.024 102.786C354.545 103.531 354.834 104.414 354.854 105.323C354.873 106.232 354.622 107.127 354.133 107.893C353.643 108.66 352.938 109.264 352.105 109.63C351.272 109.995 350.349 110.106 349.453 109.947C348.557 109.789 347.728 109.368 347.072 108.739C346.415 108.109 345.96 107.299 345.764 106.411C345.568 105.523 345.64 104.597 345.971 103.75C346.302 102.903 346.876 102.173 347.622 101.653C348.622 100.955 349.857 100.683 351.058 100.895C352.258 101.108 353.325 101.788 354.024 102.786Z" fill="#329AA5"/>
</g>
<g style="mix-blend-mode:multiply" opacity="0.2">
<path d="M346.636 204.478C347.157 205.223 347.446 206.105 347.465 207.015C347.485 207.924 347.234 208.818 346.745 209.585C346.255 210.351 345.549 210.956 344.716 211.321C343.883 211.687 342.96 211.797 342.065 211.639C341.169 211.48 340.34 211.059 339.683 210.43C339.027 209.801 338.572 208.991 338.376 208.103C338.18 207.215 338.252 206.289 338.582 205.442C338.913 204.594 339.488 203.864 340.234 203.344C340.728 202.998 341.287 202.752 341.876 202.621C342.466 202.491 343.075 202.478 343.67 202.583C344.265 202.689 344.833 202.91 345.342 203.235C345.85 203.56 346.29 203.982 346.636 204.478Z" fill="#329AA5"/>
</g>
<g style="mix-blend-mode:multiply" opacity="0.2">
<path d="M412.369 185.222C412.89 185.967 413.179 186.85 413.198 187.759C413.218 188.668 412.967 189.562 412.478 190.329C411.988 191.095 411.283 191.7 410.449 192.065C409.616 192.431 408.694 192.541 407.798 192.383C406.902 192.224 406.073 191.803 405.417 191.174C404.76 190.545 404.305 189.735 404.109 188.847C403.913 187.959 403.985 187.033 404.316 186.186C404.646 185.339 405.221 184.609 405.967 184.088C406.967 183.39 408.202 183.118 409.403 183.331C410.603 183.543 411.67 184.223 412.369 185.222Z" fill="#329AA5"/>
</g>
<g style="mix-blend-mode:multiply" opacity="0.2">
<path d="M484.146 122.772C484.668 123.517 484.956 124.4 484.976 125.309C484.995 126.218 484.744 127.112 484.255 127.879C483.766 128.646 483.06 129.25 482.227 129.616C481.394 129.981 480.471 130.092 479.575 129.933C478.679 129.774 477.851 129.354 477.194 128.724C476.537 128.095 476.082 127.285 475.886 126.397C475.69 125.509 475.762 124.583 476.093 123.736C476.424 122.889 476.999 122.159 477.744 121.638C478.744 120.941 479.98 120.668 481.18 120.881C482.38 121.093 483.447 121.774 484.146 122.772Z" fill="#329AA5"/>
</g>
<g style="mix-blend-mode:multiply" opacity="0.2">
<path d="M503.988 249.535C504.509 250.28 504.796 251.164 504.814 252.073C504.832 252.982 504.58 253.876 504.09 254.642C503.6 255.408 502.893 256.011 502.06 256.376C501.227 256.74 500.304 256.849 499.408 256.69C498.513 256.53 497.685 256.109 497.029 255.478C496.373 254.848 495.919 254.038 495.724 253.15C495.529 252.262 495.602 251.336 495.933 250.489C496.265 249.643 496.84 248.913 497.586 248.393C498.587 247.697 499.823 247.425 501.024 247.639C502.224 247.854 503.29 248.535 503.988 249.535Z" fill="#329AA5"/>
</g>
<g style="mix-blend-mode:multiply" opacity="0.2">
<path d="M388.122 333.95C388.643 334.696 388.932 335.579 388.95 336.489C388.969 337.398 388.718 338.293 388.227 339.059C387.737 339.826 387.03 340.43 386.197 340.794C385.363 341.159 384.439 341.269 383.543 341.109C382.647 340.949 381.819 340.527 381.163 339.896C380.507 339.265 380.053 338.454 379.859 337.565C379.665 336.677 379.738 335.75 380.071 334.904C380.404 334.057 380.98 333.328 381.728 332.809C382.728 332.115 383.962 331.845 385.161 332.059C386.359 332.273 387.424 332.953 388.122 333.95Z" fill="#329AA5"/>
</g>
<g style="mix-blend-mode:multiply" opacity="0.2">
<path d="M362.259 253.502C362.777 254.247 363.062 255.129 363.079 256.036C363.096 256.942 362.844 257.834 362.354 258.598C361.865 259.361 361.159 259.963 360.328 260.326C359.496 260.689 358.576 260.798 357.682 260.639C356.789 260.48 355.963 260.059 355.308 259.431C354.654 258.803 354.2 257.995 354.005 257.109C353.809 256.223 353.881 255.299 354.211 254.454C354.541 253.609 355.114 252.881 355.857 252.361C356.858 251.666 358.094 251.396 359.294 251.61C360.494 251.824 361.56 252.505 362.259 253.502Z" fill="#329AA5"/>
</g>
<g style="mix-blend-mode:multiply" opacity="0.2">
<path d="M270.857 391.865C271.379 392.61 271.667 393.493 271.687 394.402C271.706 395.312 271.455 396.206 270.966 396.973C270.477 397.739 269.771 398.343 268.938 398.709C268.105 399.075 267.182 399.185 266.286 399.027C265.39 398.868 264.562 398.447 263.905 397.818C263.248 397.188 262.793 396.379 262.597 395.491C262.401 394.603 262.473 393.677 262.804 392.829C263.135 391.982 263.709 391.252 264.455 390.732C265.456 390.036 266.691 389.765 267.89 389.978C269.09 390.19 270.157 390.869 270.857 391.865Z" fill="#329AA5"/>
</g>
<g style="mix-blend-mode:multiply" opacity="0.2">
<path d="M237.847 255.234C238.366 255.979 238.652 256.86 238.67 257.768C238.687 258.675 238.435 259.567 237.946 260.331C237.456 261.095 236.751 261.697 235.919 262.061C235.087 262.425 234.166 262.533 233.272 262.374C232.378 262.214 231.552 261.793 230.897 261.165C230.242 260.536 229.789 259.727 229.594 258.84C229.4 257.954 229.472 257.03 229.803 256.185C230.134 255.34 230.708 254.612 231.453 254.093C231.947 253.747 232.505 253.502 233.094 253.372C233.684 253.242 234.293 253.23 234.887 253.336C235.481 253.442 236.048 253.664 236.556 253.99C237.064 254.316 237.503 254.738 237.847 255.234Z" fill="#329AA5"/>
</g>
<g style="mix-blend-mode:multiply" opacity="0.2">
<path d="M74.5121 332.522C75.0337 333.267 75.3224 334.149 75.3418 335.059C75.3612 335.968 75.1104 336.862 74.6211 337.629C74.1318 338.395 73.426 339 72.5929 339.365C71.7599 339.731 70.8371 339.841 69.9412 339.683C69.0454 339.524 68.2167 339.103 67.5601 338.474C66.9034 337.845 66.4484 337.035 66.2524 336.147C66.0564 335.259 66.1283 334.333 66.4591 333.486C66.7898 332.638 67.3645 331.908 68.1105 331.388C69.11 330.69 70.3457 330.418 71.546 330.63C72.7464 330.843 73.8132 331.523 74.5121 332.522Z" fill="#329AA5"/>
</g>
<g style="mix-blend-mode:multiply" opacity="0.2">
<path d="M46.9944 154.645C47.516 155.39 47.8047 156.273 47.8241 157.182C47.8435 158.091 47.5927 158.986 47.1034 159.752C46.6141 160.519 45.9083 161.123 45.0752 161.489C44.2422 161.854 43.3194 161.965 42.4235 161.806C41.5277 161.648 40.699 161.227 40.0424 160.598C39.3857 159.968 38.9307 159.158 38.7347 158.27C38.5387 157.382 38.6106 156.456 38.9414 155.609C39.2721 154.762 39.8468 154.032 40.5928 153.512C41.5923 152.814 42.828 152.542 44.0283 152.754C45.2287 152.967 46.2955 153.647 46.9944 154.645Z" fill="#329AA5"/>
</g>
<g style="mix-blend-mode:multiply" opacity="0.2">
<path d="M227.693 40.1967C228.214 40.9417 228.503 41.8247 228.522 42.7337C228.542 43.6428 228.291 44.5372 227.802 45.3038C227.312 46.0704 226.606 46.6748 225.773 47.0404C224.94 47.406 224.018 47.5165 223.122 47.3578C222.226 47.1992 221.397 46.7786 220.741 46.1492C220.084 45.5197 219.629 44.7098 219.433 43.8219C219.237 42.9339 219.309 42.0078 219.64 41.1608C219.97 40.3137 220.545 39.5837 221.291 39.0631C222.291 38.3655 223.526 38.0931 224.727 38.3057C225.927 38.5182 226.994 39.1984 227.693 40.1967Z" fill="#329AA5"/>
</g>
</g>
<path d="M347.917 101.536L221.586 38.9466L261.138 169.592L347.917 101.536Z" stroke="white" stroke-width="1.69" stroke-linecap="round" stroke-linejoin="round"/>
<path d="M340.537 203.227L347.917 101.536L261.138 169.592L231.748 253.976L340.537 203.227Z" stroke="white" stroke-width="1.69" stroke-linecap="round" stroke-linejoin="round"/>
<path d="M221.586 38.9466L40.8879 153.395L261.138 169.592L221.586 38.9466Z" stroke="white" stroke-width="1.69" stroke-linecap="round" stroke-linejoin="round"/>
<path d="M231.748 253.976L68.4056 331.271L261.138 169.592L231.748 253.976Z" stroke="white" stroke-width="1.69" stroke-linecap="round" stroke-linejoin="round"/>
<path d="M40.8879 153.395L68.4056 331.271L261.138 169.592L40.8879 153.395Z" stroke="white" stroke-width="1.69" stroke-linecap="round" stroke-linejoin="round"/>
<path d="M340.537 203.227L264.758 390.615L231.748 253.976L340.537 203.227Z" stroke="white" stroke-width="1.69" stroke-linecap="round" stroke-linejoin="round"/>
<path d="M68.4056 331.271L264.758 390.615L231.748 253.976L68.4056 331.271Z" stroke="white" stroke-width="1.69" stroke-linecap="round" stroke-linejoin="round"/>
<path d="M340.537 203.227L382.023 332.7L264.758 390.615L340.537 203.227Z" stroke="white" stroke-width="1.69" stroke-linecap="round" stroke-linejoin="round"/>
<path d="M347.917 101.536L478.047 121.522L406.27 183.972L340.537 203.227L347.917 101.536Z" stroke="white" stroke-width="1.69" stroke-linecap="round" stroke-linejoin="round"/>
<path d="M382.023 332.7L497.889 248.285L355.329 252.027L382.023 332.7Z" stroke="white" stroke-width="1.69" stroke-linecap="round" stroke-linejoin="round"/>
<path d="M478.047 121.522L497.889 248.285L406.27 183.972L478.047 121.522Z" stroke="white" stroke-width="1.69" stroke-linecap="round" stroke-linejoin="round"/>
<path d="M264.922 166.936C265.443 167.681 265.732 168.564 265.751 169.473C265.771 170.382 265.52 171.277 265.031 172.043C264.541 172.81 263.835 173.414 263.002 173.78C262.169 174.146 261.247 174.256 260.351 174.097C259.455 173.939 258.626 173.518 257.97 172.889C257.313 172.259 256.858 171.449 256.662 170.561C256.466 169.674 256.538 168.747 256.869 167.9C257.199 167.053 257.774 166.323 258.52 165.803C259.52 165.105 260.755 164.833 261.956 165.045C263.156 165.258 264.223 165.938 264.922 166.936Z" fill="white"/>
<path d="M351.693 98.9039C352.215 99.649 352.503 100.532 352.523 101.441C352.542 102.35 352.291 103.244 351.802 104.011C351.313 104.778 350.607 105.382 349.774 105.748C348.941 106.113 348.018 106.224 347.122 106.065C346.226 105.906 345.398 105.486 344.741 104.856C344.084 104.227 343.629 103.417 343.433 102.529C343.237 101.641 343.309 100.715 343.64 99.868C343.971 99.0209 344.546 98.2909 345.292 97.7703C346.291 97.0728 347.527 96.8004 348.727 97.0129C349.927 97.2255 350.994 97.9056 351.693 98.9039Z" fill="white"/>
<path d="M344.305 200.595C344.826 201.34 345.115 202.223 345.135 203.132C345.154 204.041 344.903 204.936 344.414 205.702C343.925 206.469 343.219 207.073 342.386 207.439C341.553 207.805 340.63 207.915 339.734 207.756C338.838 207.598 338.009 207.177 337.353 206.548C336.696 205.918 336.241 205.108 336.045 204.221C335.849 203.333 335.921 202.406 336.252 201.559C336.583 200.712 337.157 199.982 337.903 199.462C338.398 199.115 338.956 198.87 339.545 198.739C340.135 198.609 340.745 198.596 341.339 198.701C341.934 198.806 342.502 199.028 343.011 199.353C343.52 199.678 343.959 200.1 344.305 200.595Z" fill="white"/>
<path d="M410.038 181.339C410.56 182.084 410.848 182.967 410.868 183.876C410.887 184.786 410.636 185.68 410.147 186.447C409.658 187.213 408.952 187.817 408.119 188.183C407.286 188.549 406.363 188.659 405.467 188.501C404.571 188.342 403.743 187.921 403.086 187.292C402.429 186.662 401.974 185.853 401.778 184.965C401.582 184.077 401.654 183.151 401.985 182.303C402.316 181.456 402.891 180.726 403.636 180.206C404.636 179.508 405.872 179.236 407.072 179.448C408.272 179.661 409.339 180.341 410.038 181.339Z" fill="white"/>
<path d="M481.815 118.89C482.337 119.635 482.626 120.518 482.645 121.427C482.665 122.336 482.414 123.23 481.924 123.997C481.435 124.763 480.729 125.368 479.896 125.733C479.063 126.099 478.14 126.209 477.245 126.051C476.349 125.892 475.52 125.472 474.864 124.842C474.207 124.213 473.752 123.403 473.556 122.515C473.36 121.627 473.432 120.701 473.763 119.854C474.093 119.007 474.668 118.277 475.414 117.756C476.413 117.059 477.649 116.786 478.849 116.999C480.05 117.211 481.117 117.891 481.815 118.89Z" fill="white"/>
<path d="M501.657 245.653C502.178 246.398 502.465 247.281 502.484 248.191C502.502 249.1 502.25 249.994 501.76 250.759C501.269 251.525 500.563 252.129 499.729 252.493C498.896 252.858 497.973 252.967 497.078 252.808C496.182 252.648 495.354 252.226 494.698 251.596C494.042 250.966 493.588 250.156 493.393 249.268C493.198 248.38 493.271 247.454 493.602 246.607C493.934 245.76 494.509 245.031 495.256 244.511C496.256 243.814 497.493 243.543 498.693 243.757C499.894 243.971 500.96 244.653 501.657 245.653Z" fill="white"/>
<path d="M385.791 330.068C386.313 330.814 386.601 331.697 386.62 332.606C386.639 333.516 386.387 334.411 385.897 335.177C385.407 335.943 384.7 336.547 383.866 336.912C383.032 337.277 382.109 337.386 381.213 337.226C380.317 337.066 379.488 336.644 378.833 336.014C378.177 335.383 377.723 334.572 377.528 333.683C377.334 332.794 377.408 331.868 377.741 331.021C378.073 330.175 378.65 329.446 379.397 328.927C380.397 328.232 381.632 327.963 382.83 328.176C384.029 328.39 385.094 329.071 385.791 330.068Z" fill="white"/>
<path d="M359.928 249.62C360.446 250.365 360.732 251.246 360.749 252.153C360.766 253.06 360.513 253.952 360.024 254.715C359.534 255.479 358.829 256.08 357.997 256.444C357.166 256.807 356.245 256.916 355.352 256.757C354.458 256.597 353.632 256.177 352.978 255.549C352.323 254.92 351.87 254.112 351.674 253.227C351.479 252.341 351.551 251.417 351.88 250.572C352.21 249.727 352.783 248.999 353.527 248.479C354.528 247.784 355.764 247.514 356.963 247.728C358.163 247.942 359.229 248.622 359.928 249.62Z" fill="white"/>
<path d="M268.526 387.983C269.048 388.728 269.337 389.611 269.356 390.52C269.376 391.429 269.125 392.324 268.635 393.09C268.146 393.857 267.44 394.461 266.607 394.827C265.774 395.192 264.851 395.303 263.956 395.144C263.06 394.986 262.231 394.565 261.574 393.936C260.918 393.306 260.463 392.496 260.267 391.608C260.071 390.72 260.143 389.794 260.473 388.947C260.804 388.1 261.379 387.37 262.125 386.85C263.125 386.154 264.36 385.883 265.56 386.095C266.76 386.308 267.826 386.987 268.526 387.983Z" fill="white"/>
<path d="M235.516 251.352C236.035 252.096 236.321 252.978 236.339 253.885C236.357 254.793 236.105 255.685 235.615 256.449C235.125 257.213 234.42 257.815 233.588 258.179C232.756 258.542 231.835 258.651 230.941 258.492C230.047 258.332 229.221 257.911 228.566 257.282C227.912 256.653 227.458 255.845 227.264 254.958C227.069 254.072 227.142 253.148 227.473 252.303C227.803 251.457 228.377 250.729 229.122 250.21C229.617 249.864 230.174 249.62 230.764 249.49C231.353 249.36 231.962 249.348 232.556 249.454C233.15 249.56 233.718 249.782 234.226 250.108C234.733 250.433 235.172 250.856 235.516 251.352Z" fill="white"/>
<path d="M72.1814 328.639C72.703 329.384 72.9917 330.267 73.0111 331.176C73.0305 332.085 72.7797 332.98 72.2904 333.746C71.8011 334.513 71.0953 335.117 70.2622 335.483C69.4292 335.849 68.5064 335.959 67.6105 335.8C66.7147 335.642 65.886 335.221 65.2294 334.592C64.5728 333.962 64.1177 333.152 63.9217 332.265C63.7257 331.377 63.7976 330.45 64.1284 329.603C64.4591 328.756 65.0338 328.026 65.7798 327.506C66.7793 326.808 68.015 326.536 69.2154 326.748C70.4157 326.961 71.4826 327.641 72.1814 328.639Z" fill="white"/>
<path d="M44.6637 150.763C45.1853 151.508 45.474 152.391 45.4934 153.3C45.5128 154.209 45.262 155.103 44.7727 155.87C44.2834 156.637 43.5776 157.241 42.7445 157.607C41.9115 157.972 40.9887 158.083 40.0928 157.924C39.197 157.765 38.3683 157.345 37.7117 156.715C37.0551 156.086 36.6 155.276 36.404 154.388C36.208 153.5 36.2799 152.574 36.6107 151.727C36.9414 150.88 37.5161 150.15 38.2621 149.629C39.2616 148.932 40.4973 148.659 41.6977 148.872C42.898 149.084 43.9649 149.765 44.6637 150.763Z" fill="white"/>
<path d="M225.362 36.3145C225.884 37.0595 226.172 37.9424 226.192 38.8515C226.211 39.7606 225.96 40.655 225.471 41.4216C224.982 42.1882 224.276 42.7925 223.443 43.1581C222.61 43.5238 221.687 43.6342 220.791 43.4756C219.895 43.317 219.067 42.8963 218.41 42.2669C217.753 41.6375 217.298 40.8276 217.102 39.9397C216.906 39.0517 216.978 38.1256 217.309 37.2785C217.64 36.4315 218.215 35.7014 218.96 35.1809C219.96 34.4833 221.196 34.2109 222.396 34.4235C223.596 34.636 224.663 35.3162 225.362 36.3145Z" fill="white"/>
<g style="mix-blend-mode:multiply" opacity="0.1">
<path d="M43.3742 196.985C65.9303 196.985 84.2156 178.71 84.2156 156.167C84.2156 133.624 65.9303 115.349 43.3742 115.349C20.8181 115.349 2.53271 133.624 2.53271 156.167C2.53271 178.71 20.8181 196.985 43.3742 196.985Z" fill="black"/>
</g>
<path d="M43.3741 193.53C64.0209 193.53 80.7584 176.802 80.7584 156.167C80.7584 135.532 64.0209 118.804 43.3741 118.804C22.7274 118.804 5.98987 135.532 5.98987 156.167C5.98987 176.802 22.7274 193.53 43.3741 193.53Z" fill="white"/>
<g style="mix-blend-mode:multiply" opacity="0.1">
<path d="M125.835 336.286C132.302 307.974 114.581 279.784 86.2532 273.32C57.9255 266.857 29.7188 284.568 23.2517 312.88C16.7846 341.191 34.5061 369.381 62.8338 375.845C91.1614 382.308 119.368 364.597 125.835 336.286Z" fill="black"/>
</g>
<path d="M121.55 335.026C127.339 309.081 110.986 283.358 85.026 277.573C59.0656 271.787 33.328 288.13 27.5395 314.076C21.7509 340.021 38.1034 365.744 64.0638 371.529C90.0242 377.314 115.762 360.971 121.55 335.026Z" fill="white"/>
<g style="mix-blend-mode:multiply" opacity="0.1">
<path d="M222.286 86.2478C246.116 86.2478 265.434 66.9406 265.434 43.1239C265.434 19.3072 246.116 0 222.286 0C198.455 0 179.137 19.3072 179.137 43.1239C179.137 66.9406 198.455 86.2478 222.286 86.2478Z" fill="black"/>
</g>
<path d="M222.285 82.5985C244.099 82.5985 261.783 64.9251 261.783 43.1239C261.783 21.3227 244.099 3.6493 222.285 3.6493C200.472 3.6493 182.788 21.3227 182.788 43.1239C182.788 64.9251 200.472 82.5985 222.285 82.5985Z" fill="white"/>
<g style="mix-blend-mode:multiply" opacity="0.1">
<path d="M478.25 157.301C498.502 157.301 514.919 140.893 514.919 120.652C514.919 100.412 498.502 84.0039 478.25 84.0039C457.998 84.0039 441.58 100.412 441.58 120.652C441.58 140.893 457.998 157.301 478.25 157.301Z" fill="black"/>
</g>
<path d="M478.25 154.203C496.79 154.203 511.819 139.182 511.819 120.652C511.819 102.123 496.79 87.1019 478.25 87.1019C459.71 87.1019 444.68 102.123 444.68 120.652C444.68 139.182 459.71 154.203 478.25 154.203Z" fill="white"/>
<g style="mix-blend-mode:multiply" opacity="0.1">
<path d="M335.58 248.875C363.551 248.875 386.226 226.213 386.226 198.258C386.226 170.303 363.551 147.642 335.58 147.642C307.609 147.642 284.934 170.303 284.934 198.258C284.934 226.213 307.609 248.875 335.58 248.875Z" fill="black"/>
</g>
<mask id="mask0" mask-type="alpha" maskUnits="userSpaceOnUse" x="293" y="155" width="86" height="86">
<circle cx="336" cy="198" r="43" fill="#C4C4C4"/>
</mask>
<g mask="url(#mask0)">
<path d="M335.58 244.589C361.183 244.589 381.938 223.846 381.938 198.258C381.938 172.671 361.183 151.928 335.58 151.928C309.978 151.928 289.223 172.671 289.223 198.258C289.223 223.846 309.978 244.589 335.58 244.589Z" fill="white"/>
<path d="M366.61 233.183C365.15 232.175 363.529 231.423 361.816 230.962L359.99 230.473H360.029L345.649 225.814C345.124 225.662 344.655 225.361 344.298 224.947C343.941 224.534 343.711 224.026 343.637 223.485C343.054 220.488 343.124 213.275 343.139 211.986C343.138 211.96 343.131 211.935 343.119 211.913C343.107 211.89 343.091 211.87 343.072 211.853C343.052 211.836 343.03 211.824 343.005 211.816C342.981 211.808 342.955 211.805 342.93 211.807H327.291C327.265 211.805 327.24 211.808 327.215 211.816C327.191 211.824 327.168 211.836 327.149 211.853C327.129 211.87 327.113 211.89 327.102 211.913C327.09 211.935 327.083 211.96 327.081 211.986C327.081 213.259 327.159 220.325 326.584 223.485C326.514 224.026 326.287 224.536 325.931 224.95C325.574 225.364 325.105 225.664 324.579 225.814L310.191 230.473H310.23L308.358 230.97C306.88 231.365 305.47 231.983 304.178 232.802C297.598 237.096 297.411 244.139 297.139 245.443C297.135 245.471 297.136 245.5 297.144 245.528C297.153 245.555 297.167 245.581 297.187 245.602C297.206 245.623 297.23 245.639 297.257 245.649C297.284 245.659 297.313 245.663 297.341 245.66H372.91C372.939 245.663 372.968 245.659 372.994 245.649C373.021 245.639 373.046 245.623 373.065 245.602C373.085 245.581 373.099 245.555 373.107 245.528C373.115 245.5 373.117 245.471 373.112 245.443C372.817 244.177 372.724 237.508 366.61 233.183Z" fill="#C9ACA8"/>
<path d="M343.326 220.767C343.264 217.405 343.132 214.253 343.147 213.399C343.148 213.37 343.144 213.342 343.134 213.315C343.124 213.288 343.109 213.264 343.089 213.243C343.07 213.222 343.046 213.205 343.02 213.193C342.994 213.181 342.966 213.175 342.937 213.174H327.299C327.27 213.175 327.242 213.181 327.216 213.193C327.19 213.205 327.166 213.222 327.147 213.243C327.127 213.264 327.112 213.288 327.102 213.315C327.092 213.342 327.088 213.37 327.089 213.399C327.089 214.253 326.964 217.421 326.895 220.791C328.013 221.955 332.154 223.609 334.935 223.625C337.841 223.617 342.122 221.684 343.326 220.767Z" fill="#9B9B9B"/>
<path d="M320.353 196.527C321.449 199.493 320.827 204.128 318.947 205.029C317.067 205.93 314.659 202.738 313.555 199.772C312.452 196.806 313.081 193.669 314.954 192.784C316.826 191.899 319.25 193.561 320.353 196.527Z" fill="#C9ACA8"/>
<path d="M349.883 196.527C348.78 199.493 349.409 204.128 351.289 205.029C353.169 205.93 355.578 202.738 356.681 199.772C357.784 196.806 357.155 193.669 355.275 192.784C353.394 191.899 350.986 193.561 349.883 196.527Z" fill="#C9ACA8"/>
<path d="M334.943 170.221C316.337 169.607 316.057 187.419 316.337 193.289C316.607 197.871 317.32 202.416 318.465 206.861C318.986 208.632 319.926 211.598 321.278 212.886C324.906 216.349 329.42 219.416 332.209 220.48C334.004 220.838 335.852 220.838 337.647 220.48C340.436 219.416 344.95 216.349 348.578 212.886C349.93 211.598 350.87 208.632 351.39 206.861C352.535 202.416 353.248 197.871 353.519 193.289C353.83 187.419 353.558 169.607 334.943 170.221Z" fill="#C9ACA8"/>
<path d="M359.99 230.473H360.029L347.653 226.451C345.167 229.394 339.55 233.54 335.114 233.54C330.678 233.54 325.302 229.821 322.567 226.451L310.191 230.473H310.23L309.36 230.706V245.66H360.861V230.706L359.99 230.473Z" fill="#232323"/>
<path d="M355.756 183.032C355.042 179.988 351.662 174.188 348.119 174.631C347.437 172.431 346.043 170.519 344.157 169.196C341.29 167.224 337.693 166.781 334.314 167.231C328.876 167.969 322.249 169.957 318.667 174.445C315.086 178.932 311.675 185.377 311.885 191.293C312.7 190.114 313.638 189.024 314.682 188.04C314.436 193.405 315.773 198.725 318.527 203.336C318.353 199.853 318.776 196.366 319.778 193.025C319.796 194.656 320.042 196.276 320.508 197.839C320.353 197.334 323.966 192.916 324.875 191.627C324.875 191.868 324.875 192.109 324.836 192.349C324.836 191.798 330.67 188.351 331.416 187.691C333.034 186.304 334.545 184.799 335.938 183.187C335.448 184.073 334.998 184.973 334.578 185.866C334.159 186.759 332.838 192.241 332.247 192.474C336.436 190.697 340.031 187.764 342.611 184.018C343.161 183.232 343.567 182.354 343.808 181.425H344.429C344.499 181.627 344.569 181.821 344.654 182.015C345.383 183.466 346.258 184.84 347.265 186.115C350.754 191.171 352.462 197.243 352.12 203.375C354.103 200.421 355.45 197.087 356.076 193.585C356.702 190.083 356.593 186.49 355.756 183.032Z" fill="#505050"/>
</g>
<g style="mix-blend-mode:multiply" opacity="0.1">
<path d="M440.549 383.829C465.361 359.031 465.361 318.827 440.549 294.029C415.738 269.232 375.51 269.232 350.698 294.029C325.886 318.827 325.886 359.031 350.698 383.829C375.51 408.626 415.738 408.626 440.549 383.829Z" fill="black"/>
</g>
<path d="M436.748 380.029C459.46 357.33 459.46 320.528 436.748 297.828C414.036 275.129 377.212 275.129 354.499 297.828C331.787 320.528 331.787 357.33 354.499 380.029C377.212 402.729 414.036 402.729 436.748 380.029Z" fill="white"/>
<path d="M190.821 194.702C190.821 195.154 190.687 195.595 190.436 195.97C190.185 196.346 189.829 196.638 189.411 196.811C188.994 196.984 188.535 197.029 188.092 196.941C187.649 196.853 187.242 196.635 186.922 196.316C186.603 195.997 186.385 195.59 186.297 195.147C186.209 194.705 186.254 194.246 186.427 193.828C186.6 193.411 186.893 193.055 187.268 192.804C187.644 192.553 188.085 192.419 188.537 192.419C189.143 192.419 189.724 192.66 190.152 193.088C190.581 193.516 190.821 194.097 190.821 194.702Z" fill="white"/>
<path d="M369.399 129.752C369.399 130.471 369.185 131.173 368.786 131.771C368.386 132.369 367.819 132.834 367.154 133.109C366.49 133.384 365.759 133.456 365.053 133.316C364.348 133.176 363.7 132.83 363.192 132.322C362.683 131.813 362.337 131.166 362.197 130.461C362.057 129.756 362.129 129.026 362.404 128.362C362.679 127.698 363.145 127.13 363.743 126.731C364.341 126.332 365.044 126.118 365.763 126.118C366.241 126.117 366.714 126.211 367.155 126.393C367.597 126.575 367.998 126.843 368.336 127.18C368.674 127.518 368.942 127.919 369.124 128.36C369.306 128.802 369.4 129.275 369.399 129.752Z" fill="white"/>
<path d="M139.08 331.264C140.736 331.264 142.079 329.922 142.079 328.267C142.079 326.611 140.736 325.27 139.08 325.27C137.424 325.27 136.081 326.611 136.081 328.267C136.081 329.922 137.424 331.264 139.08 331.264Z" fill="white"/>
<path d="M173.776 404.017C178.749 404.017 182.78 399.988 182.78 395.018C182.78 390.048 178.749 386.019 173.776 386.019C168.803 386.019 164.772 390.048 164.772 395.018C164.772 399.988 168.803 404.017 173.776 404.017Z" fill="white"/>
<path opacity="0.2" d="M134.395 143.635C137.227 143.635 139.523 141.341 139.523 138.511C139.523 135.68 137.227 133.386 134.395 133.386C131.563 133.386 129.268 135.68 129.268 138.511C129.268 141.341 131.563 143.635 134.395 143.635Z" fill="white"/>
<path opacity="0.5" d="M211.316 238.478C211.317 239.151 211.119 239.81 210.746 240.37C210.372 240.931 209.841 241.368 209.219 241.626C208.597 241.885 207.912 241.953 207.251 241.822C206.59 241.691 205.983 241.367 205.507 240.891C205.031 240.415 204.706 239.808 204.575 239.148C204.444 238.487 204.512 237.803 204.771 237.181C205.029 236.559 205.467 236.028 206.027 235.655C206.588 235.282 207.247 235.084 207.921 235.085C208.821 235.087 209.683 235.445 210.319 236.081C210.955 236.717 211.314 237.579 211.316 238.478Z" fill="white"/>
<path opacity="0.5" d="M220.677 285.05C223.368 285.05 225.549 282.87 225.549 280.181C225.549 277.492 223.368 275.313 220.677 275.313C217.987 275.313 215.806 277.492 215.806 280.181C215.806 282.87 217.987 285.05 220.677 285.05Z" fill="white"/>
<path opacity="0.5" d="M515.914 200.588C518.171 200.588 520 198.759 520 196.503C520 194.248 518.171 192.419 515.914 192.419C513.657 192.419 511.827 194.248 511.827 196.503C511.827 198.759 513.657 200.588 515.914 200.588Z" fill="white"/>
<path opacity="0.5" d="M21.9318 242.36C21.9318 243.128 21.704 243.879 21.2772 244.517C20.8503 245.156 20.2436 245.653 19.5339 245.947C18.8241 246.241 18.043 246.318 17.2895 246.168C16.536 246.018 15.8438 245.648 15.3006 245.106C14.7573 244.563 14.3874 243.871 14.2375 243.118C14.0876 242.365 14.1645 241.584 14.4585 240.875C14.7525 240.165 15.2504 239.559 15.8892 239.132C16.528 238.706 17.279 238.478 18.0473 238.478C18.5574 238.478 19.0626 238.579 19.5339 238.774C20.0051 238.969 20.4334 239.255 20.7941 239.615C21.1548 239.976 21.4409 240.404 21.6361 240.875C21.8313 241.346 21.9318 241.851 21.9318 242.36Z" fill="white"/>
<path opacity="0.5" d="M156.995 52.1851C160.299 52.1851 162.977 49.5083 162.977 46.2064C162.977 42.9045 160.299 40.2278 156.995 40.2278C153.691 40.2278 151.013 42.9045 151.013 46.2064C151.013 49.5083 153.691 52.1851 156.995 52.1851Z" fill="white"/>
<path opacity="0.2" d="M390.942 77.9165C390.942 78.8379 390.669 79.7386 390.156 80.5047C389.644 81.2708 388.916 81.868 388.064 82.2206C387.213 82.5732 386.275 82.6654 385.371 82.4857C384.467 82.3059 383.636 81.8622 382.985 81.2107C382.333 80.5592 381.889 79.7291 381.709 78.8254C381.529 77.9217 381.621 76.985 381.974 76.1337C382.327 75.2824 382.924 74.5548 383.691 74.0429C384.457 73.531 385.359 73.2578 386.281 73.2578C387.517 73.2578 388.703 73.7486 389.577 74.6223C390.451 75.496 390.942 76.6809 390.942 77.9165Z" fill="white"/>
<path opacity="0.5" d="M87.797 94.9363C90.586 94.9363 92.8468 92.6767 92.8468 89.8894C92.8468 87.102 90.586 84.8424 87.797 84.8424C85.0081 84.8424 82.7472 87.102 82.7472 89.8894C82.7472 92.6767 85.0081 94.9363 87.797 94.9363Z" fill="white"/>
<path d="M275.021 383.495H274.594C274.42 382.506 273.995 381.577 273.36 380.798C272.724 380.019 271.9 379.415 270.966 379.045C270.031 378.674 269.017 378.549 268.02 378.681C267.023 378.813 266.077 379.198 265.271 379.799C264.592 378.615 263.54 377.687 262.28 377.159C261.019 376.632 259.62 376.534 258.298 376.882C256.977 377.229 255.807 378.002 254.969 379.081C254.131 380.16 253.673 381.485 253.664 382.851C253.666 383.066 253.678 383.281 253.703 383.495H253.276C251.628 383.495 250.047 384.15 248.881 385.315C247.716 386.48 247.061 388.06 247.061 389.707C247.061 391.354 247.716 392.934 248.881 394.099C250.047 395.264 251.628 395.919 253.276 395.919H275.029C276.677 395.919 278.258 395.264 279.424 394.099C280.589 392.934 281.244 391.354 281.244 389.707C281.244 388.06 280.589 386.48 279.424 385.315C278.258 384.15 276.677 383.495 275.029 383.495H275.021Z" fill="#98D0E3"/>
<path d="M275.021 383.495H274.594C274.42 382.506 273.995 381.577 273.36 380.798C272.724 380.019 271.9 379.415 270.966 379.045C270.031 378.674 269.017 378.549 268.02 378.681C267.023 378.813 266.077 379.198 265.271 379.799C264.592 378.615 263.54 377.687 262.28 377.159C261.019 376.632 259.62 376.534 258.298 376.882C256.977 377.229 255.807 378.002 254.969 379.081C254.131 380.16 253.673 381.485 253.664 382.851C253.666 383.066 253.678 383.281 253.703 383.495H253.276C251.628 383.495 250.047 384.15 248.881 385.315C247.716 386.48 247.061 388.06 247.061 389.707C247.061 391.354 247.716 392.934 248.881 394.099C250.047 395.264 251.628 395.919 253.276 395.919H275.029C276.677 395.919 278.258 395.264 279.424 394.099C280.589 392.934 281.244 391.354 281.244 389.707C281.244 388.06 280.589 386.48 279.424 385.315C278.258 384.15 276.677 383.495 275.029 383.495H275.021Z" fill="#A4D5E3"/>
<path d="M262.373 378.045C261.784 377.854 261.168 377.757 260.548 377.757C258.96 377.759 257.439 378.391 256.317 379.514C255.196 380.636 254.566 382.157 254.566 383.744C254.554 383.951 254.554 384.158 254.566 384.365H254.154C253.103 384.362 252.07 384.636 251.159 385.159C250.248 385.682 249.492 386.436 248.965 387.345C248.439 388.253 248.162 389.285 248.161 390.335C248.161 391.385 248.438 392.416 248.964 393.325C248.731 390.631 249.143 385.475 255.614 385.6C255.599 383.821 255.894 378.293 262.373 378.045Z" fill="#B7DEE8"/>
<path d="M256.259 395.895H275.021C276.014 395.893 276.992 395.652 277.874 395.194C278.755 394.736 279.513 394.073 280.085 393.262C280.657 392.451 281.026 391.514 281.162 390.531C281.297 389.548 281.195 388.546 280.864 387.611C276.8 395.647 263.003 394.932 256.259 395.895Z" fill="#95C7DE"/>
<path d="M269.117 394.366H267.742V389.823C267.742 388.87 267.363 387.956 266.688 387.281C266.014 386.607 265.099 386.228 264.145 386.228C263.191 386.228 262.276 386.607 261.601 387.281C260.927 387.956 260.548 388.87 260.548 389.823V394.366H259.173V389.823C259.173 388.505 259.696 387.242 260.629 386.31C261.561 385.378 262.826 384.854 264.145 384.854C265.463 384.854 266.728 385.378 267.661 386.31C268.593 387.242 269.117 388.505 269.117 389.823V394.366Z" fill="#73726F"/>
<path d="M270.686 392.207H257.603C257.307 392.207 257.067 392.447 257.067 392.743V401.237C257.067 401.533 257.307 401.773 257.603 401.773H270.686C270.982 401.773 271.222 401.533 271.222 401.237V392.743C271.222 392.447 270.982 392.207 270.686 392.207Z" fill="#D9E0FF"/>
<path d="M267.742 392.207C268.435 391.318 268.892 390.268 269.07 389.156V392.207H267.742Z" fill="#5C5A5A"/>
<path d="M271.222 401.245V396.035C266.91 399.684 260.695 401.051 257.168 401.555C257.219 401.623 257.285 401.678 257.36 401.716C257.436 401.753 257.519 401.773 257.603 401.773H270.694C270.764 401.774 270.833 401.761 270.897 401.735C270.962 401.709 271.021 401.67 271.07 401.621C271.119 401.571 271.158 401.513 271.184 401.448C271.21 401.384 271.223 401.315 271.222 401.245Z" fill="#7F7F7F"/>
<path d="M265.318 395.554C265.319 395.353 265.269 395.155 265.172 394.979C265.075 394.803 264.934 394.655 264.763 394.55C264.592 394.444 264.397 394.383 264.197 394.375C263.996 394.366 263.796 394.409 263.617 394.499C263.437 394.589 263.284 394.724 263.172 394.891C263.06 395.058 262.992 395.25 262.976 395.45C262.959 395.65 262.995 395.851 263.078 396.034C263.162 396.217 263.291 396.375 263.453 396.493L263.08 399.133H265.217L264.844 396.493C264.99 396.384 265.109 396.242 265.191 396.079C265.274 395.916 265.317 395.736 265.318 395.554Z" fill="#73726F"/>
<path d="M263.08 399.133C263.573 398.927 264 398.59 264.315 398.159C264.63 397.728 264.821 397.219 264.867 396.687L265.217 399.133H263.08Z" fill="#5C5A5A"/>
<path d="M243.168 246.841H242.741C242.567 245.851 242.142 244.922 241.507 244.143C240.872 243.364 240.047 242.76 239.113 242.39C238.178 242.019 237.164 241.894 236.167 242.026C235.171 242.158 234.224 242.543 233.418 243.145C232.739 241.96 231.687 241.032 230.427 240.505C229.166 239.977 227.767 239.88 226.446 240.227C225.124 240.575 223.954 241.348 223.116 242.427C222.279 243.506 221.82 244.83 221.812 246.196C221.813 246.411 221.826 246.627 221.85 246.841H221.423C219.775 246.841 218.194 247.495 217.028 248.66C215.863 249.825 215.208 251.405 215.208 253.052C215.208 254.7 215.863 256.279 217.028 257.444C218.194 258.609 219.775 259.264 221.423 259.264H243.176C244.825 259.264 246.405 258.609 247.571 257.444C248.737 256.279 249.391 254.7 249.391 253.052C249.391 251.405 248.737 249.825 247.571 248.66C246.405 247.495 244.825 246.841 243.176 246.841H243.168Z" fill="#98D0E3"/>
<path d="M243.168 246.841H242.741C242.567 245.851 242.142 244.922 241.507 244.143C240.872 243.364 240.047 242.76 239.113 242.39C238.178 242.019 237.164 241.894 236.167 242.026C235.171 242.158 234.224 242.543 233.418 243.145C232.739 241.96 231.687 241.032 230.427 240.505C229.166 239.977 227.767 239.88 226.446 240.227C225.124 240.575 223.954 241.348 223.116 242.427C222.279 243.506 221.82 244.83 221.812 246.196C221.813 246.411 221.826 246.627 221.85 246.841H221.423C219.775 246.841 218.194 247.495 217.028 248.66C215.863 249.825 215.208 251.405 215.208 253.052C215.208 254.7 215.863 256.279 217.028 257.444C218.194 258.609 219.775 259.264 221.423 259.264H243.176C244.825 259.264 246.405 258.609 247.571 257.444C248.737 256.279 249.391 254.7 249.391 253.052C249.391 251.405 248.737 249.825 247.571 248.66C246.405 247.495 244.825 246.841 243.176 246.841H243.168Z" fill="#A4D5E3"/>
<path d="M230.521 241.39C229.931 241.199 229.315 241.102 228.695 241.103C227.108 241.105 225.586 241.736 224.464 242.859C223.343 243.981 222.713 245.503 222.713 247.089C222.701 247.296 222.701 247.503 222.713 247.71H222.301C221.25 247.707 220.218 247.981 219.307 248.504C218.396 249.027 217.639 249.781 217.112 250.69C216.586 251.598 216.309 252.63 216.309 253.68C216.309 254.73 216.585 255.761 217.111 256.67C216.878 253.976 217.29 248.82 223.762 248.945C223.746 247.167 224.041 241.638 230.521 241.39Z" fill="#B7DEE8"/>
<path d="M224.406 259.24H243.169C244.162 259.238 245.14 258.997 246.021 258.539C246.902 258.081 247.66 257.419 248.232 256.607C248.804 255.796 249.174 254.859 249.309 253.876C249.445 252.893 249.342 251.891 249.011 250.956C244.948 258.992 231.15 258.278 224.406 259.24Z" fill="#95C7DE"/>
<path d="M237.264 257.711H235.889V253.169C235.889 252.215 235.51 251.301 234.835 250.627C234.161 249.952 233.246 249.574 232.292 249.574C231.338 249.574 230.423 249.952 229.748 250.627C229.074 251.301 228.695 252.215 228.695 253.169V257.711H227.32V253.169C227.32 251.851 227.844 250.587 228.776 249.655C229.709 248.723 230.973 248.199 232.292 248.199C233.611 248.199 234.875 248.723 235.808 249.655C236.74 250.587 237.264 251.851 237.264 253.169V257.711Z" fill="#73726F"/>
<path d="M238.833 255.552H225.751C225.454 255.552 225.214 255.792 225.214 256.088V264.582C225.214 264.878 225.454 265.118 225.751 265.118H238.833C239.13 265.118 239.369 264.878 239.369 264.582V256.088C239.369 255.792 239.13 255.552 238.833 255.552Z" fill="#D9E0FF"/>
<path d="M235.889 255.552C236.582 254.663 237.039 253.614 237.218 252.501V255.552H235.889Z" fill="#5C5A5A"/>
<path d="M239.369 264.59V259.38C235.058 263.029 228.843 264.396 225.315 264.901C225.366 264.968 225.432 265.023 225.507 265.061C225.583 265.098 225.666 265.118 225.75 265.118H238.841C238.911 265.119 238.98 265.106 239.045 265.08C239.109 265.054 239.168 265.015 239.217 264.966C239.266 264.917 239.305 264.858 239.331 264.793C239.358 264.729 239.371 264.66 239.369 264.59Z" fill="#7F7F7F"/>
<path d="M233.465 258.899C233.466 258.698 233.416 258.5 233.319 258.324C233.222 258.149 233.081 258.001 232.91 257.895C232.74 257.789 232.544 257.729 232.344 257.72C232.143 257.711 231.943 257.754 231.764 257.844C231.584 257.935 231.431 258.07 231.319 258.236C231.207 258.403 231.139 258.595 231.123 258.795C231.106 258.996 231.142 259.197 231.225 259.379C231.309 259.562 231.438 259.72 231.601 259.838L231.228 262.478H233.364L232.991 259.838C233.137 259.729 233.256 259.587 233.339 259.424C233.421 259.261 233.464 259.081 233.465 258.899Z" fill="#73726F"/>
<path d="M231.228 262.478C231.72 262.272 232.147 261.935 232.462 261.504C232.777 261.073 232.968 260.564 233.015 260.032L233.364 262.478H231.228Z" fill="#5C5A5A"/>
<path d="M271.914 163.761H271.486C271.312 162.771 270.887 161.842 270.252 161.063C269.617 160.284 268.793 159.681 267.858 159.31C266.923 158.939 265.909 158.814 264.913 158.946C263.916 159.079 262.969 159.464 262.164 160.065C261.484 158.88 260.433 157.952 259.172 157.425C257.912 156.897 256.512 156.8 255.191 157.147C253.869 157.495 252.699 158.268 251.861 159.347C251.024 160.426 250.565 161.75 250.557 163.116C250.558 163.332 250.571 163.547 250.596 163.761H250.168C248.52 163.761 246.939 164.415 245.774 165.58C244.608 166.745 243.953 168.325 243.953 169.972C243.953 171.62 244.608 173.2 245.774 174.364C246.939 175.529 248.52 176.184 250.168 176.184H271.922C273.57 176.184 275.151 175.529 276.316 174.364C277.482 173.2 278.137 171.62 278.137 169.972C278.137 168.325 277.482 166.745 276.316 165.58C275.151 164.415 273.57 163.761 271.922 163.761H271.914Z" fill="#98D0E3"/>
<path d="M271.914 163.761H271.486C271.312 162.771 270.887 161.842 270.252 161.063C269.617 160.284 268.793 159.681 267.858 159.31C266.923 158.939 265.909 158.814 264.913 158.946C263.916 159.079 262.969 159.464 262.164 160.065C261.484 158.88 260.433 157.952 259.172 157.425C257.912 156.897 256.512 156.8 255.191 157.147C253.869 157.495 252.699 158.268 251.861 159.347C251.024 160.426 250.565 161.75 250.557 163.116C250.558 163.332 250.571 163.547 250.596 163.761H250.168C248.52 163.761 246.939 164.415 245.774 165.58C244.608 166.745 243.953 168.325 243.953 169.972C243.953 171.62 244.608 173.2 245.774 174.364C246.939 175.529 248.52 176.184 250.168 176.184H271.922C273.57 176.184 275.151 175.529 276.316 174.364C277.482 173.2 278.137 171.62 278.137 169.972C278.137 168.325 277.482 166.745 276.316 165.58C275.151 164.415 273.57 163.761 271.922 163.761H271.914Z" fill="#A4D5E3"/>
<path d="M259.266 158.31C258.676 158.119 258.06 158.022 257.44 158.023C255.853 158.025 254.331 158.656 253.21 159.779C252.088 160.901 251.458 162.423 251.458 164.009C251.446 164.216 251.446 164.423 251.458 164.63H251.046C249.996 164.627 248.963 164.901 248.052 165.424C247.141 165.947 246.384 166.701 245.858 167.61C245.331 168.519 245.054 169.55 245.054 170.6C245.054 171.65 245.331 172.681 245.857 173.59C245.624 170.896 246.035 165.741 252.507 165.826C252.491 164.087 252.787 158.558 259.266 158.31Z" fill="#B7DEE8"/>
<path d="M253.152 176.16H271.914C272.907 176.158 273.885 175.917 274.766 175.459C275.647 175.001 276.405 174.339 276.977 173.527C277.55 172.716 277.919 171.779 278.054 170.796C278.19 169.813 278.087 168.811 277.756 167.876C273.693 175.912 259.895 175.198 253.152 176.16Z" fill="#95C7DE"/>
<path d="M266.009 174.631H264.634V170.089C264.634 169.135 264.255 168.221 263.581 167.547C262.906 166.872 261.991 166.494 261.037 166.494C260.083 166.494 259.168 166.872 258.494 167.547C257.819 168.221 257.44 169.135 257.44 170.089V174.631H256.065V170.089C256.065 168.771 256.589 167.507 257.521 166.575C258.454 165.643 259.718 165.119 261.037 165.119C262.356 165.119 263.62 165.643 264.553 166.575C265.485 167.507 266.009 168.771 266.009 170.089V174.631Z" fill="#73726F"/>
<path d="M267.579 172.472H254.496C254.2 172.472 253.96 172.712 253.96 173.008V181.502C253.96 181.798 254.2 182.038 254.496 182.038H267.579C267.875 182.038 268.115 181.798 268.115 181.502V173.008C268.115 172.712 267.875 172.472 267.579 172.472Z" fill="#D9E0FF"/>
<path d="M264.634 172.472C265.327 171.583 265.784 170.534 265.963 169.421V172.472H264.634Z" fill="#5C5A5A"/>
<path d="M268.115 181.51V176.3C263.803 179.95 257.588 181.316 254.061 181.821C254.111 181.888 254.177 181.943 254.253 181.981C254.328 182.019 254.411 182.038 254.496 182.038H267.586C267.656 182.039 267.725 182.026 267.79 182C267.854 181.974 267.913 181.935 267.962 181.886C268.012 181.837 268.05 181.778 268.077 181.713C268.103 181.649 268.116 181.58 268.115 181.51Z" fill="#7F7F7F"/>
<path d="M262.21 175.819C262.212 175.618 262.161 175.42 262.064 175.244C261.967 175.069 261.826 174.921 261.655 174.815C261.485 174.709 261.29 174.649 261.089 174.64C260.888 174.631 260.688 174.674 260.509 174.764C260.33 174.855 260.176 174.99 260.064 175.156C259.952 175.323 259.884 175.515 259.868 175.716C259.852 175.916 259.887 176.117 259.971 176.299C260.054 176.482 260.183 176.64 260.346 176.758L259.973 179.398H262.109L261.736 176.758C261.883 176.649 262.002 176.507 262.084 176.344C262.166 176.181 262.209 176.001 262.21 175.819Z" fill="#73726F"/>
<path d="M259.973 179.398C260.466 179.192 260.892 178.855 261.207 178.424C261.522 177.993 261.713 177.484 261.76 176.952L262.109 179.398H259.973Z" fill="#5C5A5A"/>
<path d="M419.524 175.407H419.097C418.922 174.418 418.497 173.489 417.862 172.71C417.227 171.931 416.403 171.327 415.468 170.957C414.534 170.586 413.52 170.461 412.523 170.593C411.526 170.725 410.58 171.11 409.774 171.711C409.094 170.527 408.043 169.599 406.782 169.071C405.522 168.544 404.123 168.446 402.801 168.794C401.48 169.141 400.309 169.914 399.472 170.993C398.634 172.072 398.176 173.397 398.167 174.763C398.155 174.978 398.155 175.193 398.167 175.407H397.74C396.091 175.407 394.511 176.062 393.345 177.227C392.179 178.392 391.525 179.972 391.525 181.619C391.525 183.266 392.179 184.846 393.345 186.011C394.511 187.176 396.091 187.831 397.74 187.831H419.493C421.141 187.831 422.722 187.176 423.888 186.011C425.053 184.846 425.708 183.266 425.708 181.619C425.708 179.972 425.053 178.392 423.888 177.227C422.722 176.062 421.141 175.407 419.493 175.407H419.524Z" fill="#98D0E3"/>
<path d="M419.524 175.407H419.097C418.922 174.418 418.497 173.489 417.862 172.71C417.227 171.931 416.403 171.327 415.468 170.957C414.534 170.586 413.52 170.461 412.523 170.593C411.526 170.725 410.58 171.11 409.774 171.711C409.094 170.527 408.043 169.599 406.782 169.071C405.522 168.544 404.123 168.446 402.801 168.794C401.48 169.141 400.309 169.914 399.472 170.993C398.634 172.072 398.176 173.397 398.167 174.763C398.155 174.978 398.155 175.193 398.167 175.407H397.74C396.091 175.407 394.511 176.062 393.345 177.227C392.179 178.392 391.525 179.972 391.525 181.619C391.525 183.266 392.179 184.846 393.345 186.011C394.511 187.176 396.091 187.831 397.74 187.831H419.493C421.141 187.831 422.722 187.176 423.888 186.011C425.053 184.846 425.708 183.266 425.708 181.619C425.708 179.972 425.053 178.392 423.888 177.227C422.722 176.062 421.141 175.407 419.493 175.407H419.524Z" fill="#A4D5E3"/>
<path d="M406.876 169.957C406.286 169.766 405.67 169.669 405.05 169.669C403.463 169.671 401.942 170.303 400.82 171.425C399.698 172.548 399.068 174.069 399.068 175.656C399.056 175.863 399.056 176.07 399.068 176.277H398.657C397.606 176.274 396.573 176.548 395.662 177.071C394.751 177.594 393.994 178.348 393.468 179.257C392.942 180.165 392.664 181.197 392.664 182.247C392.664 183.297 392.941 184.328 393.467 185.237C393.234 182.543 393.646 177.387 400.117 177.473C400.102 175.733 400.397 170.205 406.876 169.957Z" fill="#B7DEE8"/>
<path d="M400.762 187.807H419.524C420.517 187.805 421.495 187.564 422.376 187.106C423.257 186.648 424.016 185.985 424.588 185.174C425.16 184.363 425.529 183.426 425.665 182.443C425.8 181.46 425.698 180.458 425.366 179.523C421.303 187.559 407.505 186.844 400.762 187.807Z" fill="#95C7DE"/>
<path d="M413.62 186.278H412.244V181.735C412.244 180.782 411.866 179.868 411.191 179.193C410.516 178.519 409.601 178.14 408.647 178.14C407.693 178.14 406.779 178.519 406.104 179.193C405.429 179.868 405.05 180.782 405.05 181.735V186.278H403.675V181.735C403.675 180.417 404.199 179.153 405.132 178.222C406.064 177.29 407.329 176.766 408.647 176.766C409.966 176.766 411.231 177.29 412.163 178.222C413.096 179.153 413.62 180.417 413.62 181.735V186.278Z" fill="#73726F"/>
<path d="M415.189 184.119H402.106C401.81 184.119 401.57 184.359 401.57 184.655V193.149C401.57 193.445 401.81 193.685 402.106 193.685H415.189C415.485 193.685 415.725 193.445 415.725 193.149V184.655C415.725 184.359 415.485 184.119 415.189 184.119Z" fill="#D9E0FF"/>
<path d="M412.245 184.119C412.938 183.23 413.395 182.18 413.573 181.068V184.119H412.245Z" fill="#5C5A5A"/>
<path d="M415.725 193.157V187.947C411.413 191.596 405.198 192.963 401.671 193.467C401.722 193.535 401.787 193.59 401.863 193.628C401.938 193.665 402.022 193.685 402.106 193.685H415.197C415.266 193.686 415.336 193.673 415.4 193.647C415.465 193.621 415.523 193.582 415.573 193.533C415.622 193.483 415.661 193.425 415.687 193.36C415.713 193.296 415.726 193.227 415.725 193.157Z" fill="#7F7F7F"/>
<path d="M409.821 187.466C409.822 187.265 409.772 187.067 409.674 186.891C409.577 186.715 409.437 186.567 409.266 186.462C409.095 186.356 408.9 186.296 408.699 186.287C408.498 186.278 408.299 186.321 408.119 186.411C407.94 186.501 407.787 186.636 407.674 186.803C407.562 186.97 407.495 187.162 407.478 187.362C407.462 187.562 407.497 187.763 407.581 187.946C407.664 188.129 407.794 188.287 407.956 188.405L407.583 191.045H409.72L409.347 188.405C409.493 188.296 409.612 188.154 409.694 187.991C409.776 187.828 409.82 187.648 409.821 187.466Z" fill="#73726F"/>
<path d="M407.583 191.045C408.076 190.839 408.503 190.502 408.818 190.071C409.133 189.64 409.324 189.131 409.37 188.599L409.72 191.045H407.583Z" fill="#5C5A5A"/>
<path d="M357.372 93.8803H356.945C356.771 92.8906 356.346 91.9619 355.711 91.1829C355.076 90.4038 354.251 89.8002 353.317 89.4297C352.382 89.0592 351.368 88.934 350.371 89.0661C349.374 89.1982 348.428 89.5832 347.622 90.1844C346.943 88.9996 345.891 88.0718 344.631 87.5444C343.37 87.017 341.971 86.9194 340.649 87.2669C339.328 87.6143 338.158 88.3873 337.32 89.4663C336.482 90.5453 336.024 91.8702 336.015 93.2359C336.017 93.4512 336.03 93.6664 336.054 93.8803H335.627C333.979 93.8803 332.398 94.5347 331.232 95.6996C330.067 96.8645 329.412 98.4445 329.412 100.092C329.412 101.739 330.067 103.319 331.232 104.484C332.398 105.649 333.979 106.303 335.627 106.303H357.38C359.029 106.303 360.609 105.649 361.775 104.484C362.94 103.319 363.595 101.739 363.595 100.092C363.595 98.4445 362.94 96.8645 361.775 95.6996C360.609 94.5347 359.029 93.8803 357.38 93.8803H357.372Z" fill="#98D0E3"/>
<path d="M357.372 93.8803H356.945C356.771 92.8906 356.346 91.9619 355.711 91.1829C355.076 90.4038 354.251 89.8002 353.317 89.4297C352.382 89.0592 351.368 88.934 350.371 89.0661C349.374 89.1982 348.428 89.5832 347.622 90.1844C346.943 88.9996 345.891 88.0718 344.631 87.5444C343.37 87.017 341.971 86.9194 340.649 87.2669C339.328 87.6143 338.158 88.3873 337.32 89.4663C336.482 90.5453 336.024 91.8702 336.015 93.2359C336.017 93.4512 336.03 93.6664 336.054 93.8803H335.627C333.979 93.8803 332.398 94.5347 331.232 95.6996C330.067 96.8645 329.412 98.4445 329.412 100.092C329.412 101.739 330.067 103.319 331.232 104.484C332.398 105.649 333.979 106.303 335.627 106.303H357.38C359.029 106.303 360.609 105.649 361.775 104.484C362.94 103.319 363.595 101.739 363.595 100.092C363.595 98.4445 362.94 96.8645 361.775 95.6996C360.609 94.5347 359.029 93.8803 357.38 93.8803H357.372Z" fill="#A4D5E3"/>
<path d="M344.724 88.4296C344.135 88.2388 343.519 88.1419 342.899 88.1423C341.311 88.1444 339.79 88.776 338.668 89.8985C337.547 91.0209 336.917 92.5424 336.917 94.1288C336.905 94.3356 336.905 94.543 336.917 94.7499H336.505C335.454 94.7467 334.421 95.0205 333.51 95.5437C332.599 96.0668 331.843 96.8207 331.316 97.7295C330.79 98.6382 330.513 99.6696 330.512 100.72C330.512 101.77 330.789 102.801 331.315 103.71C331.082 101.016 331.494 95.8602 337.965 95.9456C337.95 94.2064 338.245 88.6781 344.724 88.4296Z" fill="#B7DEE8"/>
<path d="M338.61 106.28H357.372C358.365 106.278 359.343 106.037 360.224 105.579C361.106 105.121 361.864 104.458 362.436 103.647C363.008 102.836 363.377 101.899 363.513 100.916C363.648 99.9326 363.546 98.9311 363.215 97.9955C359.151 106.032 345.354 105.317 338.61 106.28Z" fill="#95C7DE"/>
<path d="M351.468 104.751H350.093V100.208C350.093 99.2549 349.714 98.3405 349.039 97.6663C348.365 96.9922 347.45 96.6134 346.496 96.6134C345.542 96.6134 344.627 96.9922 343.952 97.6663C343.278 98.3405 342.899 99.2549 342.899 100.208V104.751H341.524V100.208C341.524 98.8904 342.047 97.6265 342.98 96.6946C343.912 95.7626 345.177 95.2391 346.496 95.2391C347.814 95.2391 349.079 95.7626 350.012 96.6946C350.944 97.6265 351.468 98.8904 351.468 100.208V104.751Z" fill="#73726F"/>
<path d="M353.037 102.592H339.954C339.658 102.592 339.418 102.832 339.418 103.128V111.622C339.418 111.918 339.658 112.158 339.954 112.158H353.037C353.333 112.158 353.573 111.918 353.573 111.622V103.128C353.573 102.832 353.333 102.592 353.037 102.592Z" fill="#D9E0FF"/>
<path d="M350.093 102.592C350.786 101.703 351.243 100.653 351.421 99.5406V102.592H350.093Z" fill="#5C5A5A"/>
<path d="M353.573 111.63V106.42C349.261 110.069 343.046 111.436 339.519 111.94C339.57 112.008 339.636 112.063 339.711 112.1C339.787 112.138 339.87 112.158 339.954 112.158H353.045C353.115 112.159 353.184 112.146 353.248 112.12C353.313 112.094 353.372 112.055 353.421 112.006C353.47 111.956 353.509 111.898 353.535 111.833C353.561 111.769 353.574 111.7 353.573 111.63Z" fill="#7F7F7F"/>
<path d="M347.669 105.939C347.67 105.738 347.62 105.54 347.523 105.364C347.426 105.188 347.285 105.04 347.114 104.935C346.943 104.829 346.748 104.769 346.547 104.76C346.347 104.751 346.147 104.794 345.968 104.884C345.788 104.974 345.635 105.109 345.523 105.276C345.411 105.443 345.343 105.635 345.327 105.835C345.31 106.035 345.345 106.236 345.429 106.419C345.513 106.602 345.642 106.76 345.804 106.878L345.431 109.518H347.568L347.195 106.878C347.341 106.769 347.46 106.627 347.542 106.464C347.625 106.301 347.668 106.121 347.669 105.939Z" fill="#73726F"/>
<path d="M345.431 109.518C345.924 109.312 346.351 108.975 346.666 108.544C346.981 108.113 347.172 107.604 347.218 107.072L347.568 109.518H345.431Z" fill="#5C5A5A"/>
<mask id="mask1" mask-type="alpha" maskUnits="userSpaceOnUse" x="34" y="283" width="82" height="82">
<circle cx="75" cy="324" r="41" fill="#C4C4C4"/>
</mask>
<g mask="url(#mask1)">
<path d="M62.5479 310.082C52.4016 294.336 61.6545 287.984 68.9184 292.907C74.9782 297.014 81.0225 291.277 86.049 296.122C90.0345 300.004 89.2343 303.343 85.5673 312.97C81.5741 323.375 62.5479 310.082 62.5479 310.082Z" fill="#505050"/>
<path d="M68.1027 327.428H82.5685L85.8858 304.717H64.0784L68.1027 327.428Z" fill="#C9ACA8"/>
<path d="M85.1012 310.121C85.1012 310.121 87.8669 308.995 87.8669 311.255C87.8669 314.112 84.2233 316.076 84.2233 316.076L85.1012 310.121Z" fill="#C9ACA8"/>
<path d="M65.0418 310.167C65.0418 310.167 62.0818 308.995 62.0818 311.255C62.0818 314.112 66.0906 316.076 66.0906 316.076L65.0418 310.167Z" fill="#C9ACA8"/>
<path d="M73.9994 318.126C74.472 316.238 74.7839 314.313 74.9316 312.373C74.2284 314.19 73.6775 316.062 73.2846 317.971C73.1059 318.817 72.935 319.64 72.7952 320.3L73.8051 320.378H74.4111H75.4755C75.9937 320.396 76.5126 320.383 77.0293 320.339C76.5352 320.187 76.0317 320.068 75.5221 319.982L74.4733 319.795L73.8828 319.702C73.5954 319.702 73.6342 319.663 73.6187 319.656C73.6031 319.648 73.6187 319.656 73.6187 319.594C73.6187 319.531 73.6886 319.291 73.7352 319.128C73.8051 318.833 73.9139 318.483 73.9994 318.126Z" fill="#9B9B9B"/>
<path d="M78.7229 326.162H71.6454V333.049H78.7229V326.162Z" fill="#C9ACA8"/>
<path d="M101.75 381.337L90.5162 349.549L94.5016 381.337H56.7989L59.4791 350.201L47.2586 381.337H41.7737L53.3727 330.961H96.2885L107.779 381.337" fill="#232323"/>
<path d="M78.855 330.961L82.0946 336.396L75.5687 335.93C75.5687 335.93 74.9239 332.102 76.9593 330.969L78.855 330.961Z" fill="#3D3D3D"/>
<path d="M74.279 335.627L68.5999 337.11L71.3578 330.961H74.279V335.627Z" fill="#3D3D3D"/>
<path d="M77.9848 330.961C77.9848 330.961 75.4599 342.382 72.1348 330.961H77.9848Z" fill="#6E7876"/>
<path d="M75.5687 335.922L79.3211 366.98L74.7763 371.6L69.9673 367.042L74.2791 335.635C74.2791 335.635 75.3589 334.237 75.5687 335.922Z" fill="#6E7876"/>
<path d="M71.6454 327.428H78.7229V329.602L71.6454 328.189V327.428Z" fill="#9B9B9B"/>
</g>
<path d="M74.7763 275.15C65.1344 275.15 55.709 278.007 47.6921 283.361C39.6751 288.715 33.4267 296.324 29.7369 305.227C26.0471 314.13 25.0817 323.926 26.9627 333.377C28.8438 342.828 33.4868 351.51 40.3046 358.324C47.1225 365.138 55.8089 369.778 65.2656 371.658C74.7222 373.538 84.5242 372.573 93.4322 368.885C102.34 365.198 109.954 358.953 115.311 350.94C120.667 342.928 123.527 333.508 123.527 323.872C123.527 310.95 118.39 298.557 109.248 289.42C100.105 280.283 87.7056 275.15 74.7763 275.15ZM74.7763 363.665C66.9014 363.665 59.2034 361.331 52.6557 356.959C46.108 352.586 41.0047 346.371 37.9911 339.1C34.9776 331.829 34.1891 323.828 35.7254 316.109C37.2617 308.39 41.0538 301.299 46.6221 295.734C52.1905 290.169 59.285 286.379 67.0086 284.844C74.7321 283.308 82.7378 284.096 90.0132 287.108C97.2886 290.12 103.507 295.22 107.882 301.764C112.257 308.308 114.592 316.002 114.592 323.872C114.592 334.426 110.397 344.547 102.93 352.01C95.4635 359.472 85.3361 363.665 74.7763 363.665Z" fill="#256C8D"/>
<mask id="mask2" mask-type="alpha" maskUnits="userSpaceOnUse" x="343" y="289" width="102" height="102">
<circle cx="394" cy="340" r="51" fill="#C4C4C4"/>
</mask>
<g mask="url(#mask2)">
<path d="M381.65 321.977C369.399 302.97 380.57 295.306 389.342 301.246C396.66 306.208 403.955 299.274 410.015 305.128C414.832 309.787 413.899 313.84 409.44 325.464C404.654 338.027 381.65 321.977 381.65 321.977Z" fill="#505050"/>
<path d="M388.355 342.918H405.819L409.828 315.502H383.491L388.355 342.918Z" fill="#C9ACA8"/>
<path d="M408.873 322.024C408.873 322.024 412.213 320.665 412.213 323.398C412.213 326.846 407.816 329.214 407.816 329.214L408.873 322.024Z" fill="#C9ACA8"/>
<path d="M384.665 322.086C384.665 322.086 381.091 320.665 381.091 323.398C381.091 326.846 385.931 329.214 385.931 329.214L384.665 322.086Z" fill="#C9ACA8"/>
<path d="M395.44 331.691C396.012 329.41 396.388 327.086 396.567 324.742C395.716 326.934 395.051 329.193 394.578 331.497C394.36 332.522 394.158 333.515 393.995 334.284L395.215 334.377L395.937 334.416L397.227 334.455C397.849 334.473 398.472 334.455 399.092 334.4C398.493 334.228 397.886 334.085 397.274 333.973L396.007 333.748L395.285 333.64C394.943 333.593 394.99 333.593 394.966 333.585C394.943 333.577 394.966 333.585 395.005 333.508C395.044 333.43 395.098 333.135 395.145 332.941L395.44 331.691Z" fill="#9B9B9B"/>
<path d="M401.174 341.389H392.628V349.704H401.174V341.389Z" fill="#C9ACA8"/>
<path d="M428.971 408L415.406 369.62L420.223 408H374.705L377.944 370.412L363.199 408H356.572L370.572 347.189H422.383L436.25 408" fill="#232323"/>
<path d="M401.337 347.189L405.221 353.734L397.344 353.175C397.344 353.175 396.567 348.555 399.029 347.189H401.337Z" fill="#3D3D3D"/>
<path d="M395.813 352.81L388.953 354.604L392.286 347.189H395.813V352.81Z" fill="#3D3D3D"/>
<path d="M400.28 347.189C400.28 347.189 397.235 360.971 393.226 347.189H400.28Z" fill="#6E7876"/>
<path d="M397.367 353.175L401.896 390.654L396.411 396.237L390.608 390.732L395.813 352.81C395.813 352.81 397.072 351.141 397.367 353.175Z" fill="#6E7876"/>
<path d="M392.628 342.918H401.174V345.543L392.628 343.834V342.918Z" fill="#9B9B9B"/>
</g>
<path d="M396.411 279.808C384.772 279.808 373.394 283.258 363.716 289.721C354.038 296.184 346.495 305.369 342.041 316.117C337.587 326.864 336.421 338.69 338.692 350.099C340.963 361.508 346.568 371.988 354.798 380.214C363.028 388.439 373.515 394.041 384.93 396.31C396.346 398.58 408.179 397.415 418.932 392.963C429.686 388.512 438.877 380.973 445.343 371.301C451.81 361.629 455.261 350.257 455.261 338.624C455.261 323.025 449.061 308.065 438.025 297.035C426.988 286.005 412.019 279.808 396.411 279.808ZM396.411 386.655C386.907 386.654 377.616 383.836 369.713 378.557C361.811 373.278 355.653 365.776 352.016 357C348.38 348.223 347.429 338.566 349.285 329.249C351.14 319.933 355.718 311.375 362.439 304.659C369.161 297.942 377.724 293.368 387.046 291.516C396.368 289.663 406.031 290.615 414.812 294.25C423.593 297.886 431.099 304.042 436.379 311.941C441.66 319.839 444.478 329.125 444.478 338.624C444.48 344.934 443.238 351.182 440.823 357.012C438.409 362.841 434.868 368.138 430.405 372.6C425.941 377.062 420.641 380.601 414.809 383.016C408.976 385.43 402.724 386.672 396.411 386.671V386.655Z" fill="#256C8D"/>
<mask id="mask3" mask-type="alpha" maskUnits="userSpaceOnUse" x="185" y="6" width="74" height="74">
<circle cx="222" cy="43" r="37" fill="#C4C4C4"/>
</mask>
<g mask="url(#mask3)">
<path d="M211.914 30.988C203.221 17.5011 211.137 12.0582 217.352 16.2743C222.55 19.7916 227.724 14.8767 232.028 19.0307C235.438 22.3229 234.755 25.2423 231.616 33.4571C228.237 42.3707 211.914 30.988 211.914 30.988Z" fill="#505050"/>
<path d="M216.669 45.8492H229.06L231.903 26.3915H213.219L216.669 45.8492Z" fill="#C9ACA8"/>
<path d="M231.228 31.0579C231.228 31.0579 233.597 30.0951 233.597 32.0285C233.597 34.482 230.49 36.1592 230.49 36.1592L231.228 31.0579Z" fill="#C9ACA8"/>
<path d="M214.05 31.0579C214.05 31.0579 211.518 30.0485 211.518 31.9819C211.518 34.4354 214.952 36.1126 214.952 36.1126L214.05 31.0579Z" fill="#C9ACA8"/>
<path d="M221.718 37.8829C222.117 36.2618 222.377 34.6098 222.495 32.9447C221.895 34.5025 221.424 36.1075 221.089 37.7431L220.67 39.7153L221.532 39.7852H222.045H222.961C223.405 39.7995 223.848 39.7866 224.29 39.7464C223.866 39.6229 223.435 39.5218 223 39.4435L222.099 39.2882L221.586 39.2106C221.345 39.2106 221.377 39.2106 221.361 39.164C221.345 39.1174 221.361 39.164 221.361 39.1097C221.361 39.0553 221.423 38.8534 221.462 38.7137C221.579 38.4807 221.648 38.1857 221.718 37.8829Z" fill="#9B9B9B"/>
<path d="M225.766 44.7622H219.706V50.6632H225.766V44.7622Z" fill="#C9ACA8"/>
<path d="M245.491 92.0246L235.866 64.7945L239.284 92.0246H206.988L209.28 65.3536L198.816 92.0246H194.123L204.052 48.8696H240.815L250.658 92.0246" fill="#232323"/>
<path d="M225.883 48.8696L228.656 53.5283L223.062 53.1323C223.062 53.1323 222.511 49.8479 224.259 48.8774L225.883 48.8696Z" fill="#3D3D3D"/>
<path d="M221.959 52.8683L217.096 54.1417L219.458 48.8696H221.959V52.8683Z" fill="#3D3D3D"/>
<path d="M225.129 48.8696C225.129 48.8696 222.977 58.6528 220.126 48.8696H225.129Z" fill="#6E7876"/>
<path d="M223.062 53.1245L226.279 79.7179L222.394 83.6778L218.277 79.7955L221.967 52.8916C221.967 52.8916 222.853 51.6804 223.062 53.1245Z" fill="#6E7876"/>
<path d="M219.706 45.8492H225.766V47.7049L219.706 46.4937V45.8492Z" fill="#9B9B9B"/>
</g>
<path d="M222.387 1.06374C214.128 1.06374 206.054 3.5114 199.187 8.0972C192.32 12.683 186.968 19.201 183.807 26.8269C180.647 34.4528 179.82 42.8441 181.431 50.9397C183.042 59.0353 187.019 66.4716 192.859 72.3083C198.699 78.1449 206.14 82.1197 214.24 83.73C222.34 85.3403 230.736 84.5138 238.367 81.3551C245.997 78.1963 252.519 72.8472 257.107 65.984C261.696 59.1209 264.145 51.052 264.145 42.7978C264.145 31.7292 259.745 21.114 251.914 13.2874C244.083 5.46071 233.462 1.06374 222.387 1.06374ZM222.387 76.8839C215.641 76.8839 209.047 74.8848 203.438 71.1393C197.83 67.3939 193.458 62.0704 190.877 55.842C188.296 49.6136 187.62 42.76 188.936 36.148C190.252 29.5359 193.5 23.4623 198.27 18.6953C203.04 13.9283 209.117 10.6819 215.733 9.36671C222.349 8.05149 229.206 8.72651 235.438 11.3064C241.67 13.8863 246.997 18.2552 250.744 23.8606C254.492 29.466 256.492 36.0562 256.492 42.7978C256.488 51.8353 252.893 60.5012 246.497 66.8903C240.102 73.2793 231.429 76.8683 222.387 76.8683V76.8839Z" fill="#256C8D"/>
<path d="M335.813 150.918C326.479 150.918 317.354 153.685 309.592 158.868C301.831 164.051 295.782 171.417 292.21 180.036C288.637 188.656 287.703 198.14 289.524 207.29C291.345 216.44 295.84 224.844 302.44 231.441C309.041 238.038 317.451 242.53 326.606 244.35C335.761 246.17 345.251 245.236 353.875 241.666C362.499 238.096 369.87 232.05 375.056 224.293C380.242 216.536 383.01 207.417 383.01 198.087C383.011 191.893 381.791 185.759 379.419 180.035C377.048 174.312 373.571 169.112 369.189 164.731C364.806 160.351 359.603 156.877 353.876 154.507C348.149 152.136 342.012 150.917 335.813 150.918ZM335.813 236.607C328.191 236.605 320.74 234.345 314.403 230.111C308.066 225.878 303.127 219.861 300.211 212.823C297.295 205.784 296.533 198.039 298.021 190.568C299.509 183.096 303.18 176.233 308.571 170.847C313.961 165.461 320.829 161.793 328.305 160.307C335.781 158.822 343.53 159.585 350.572 162.501C357.614 165.416 363.633 170.353 367.868 176.688C372.103 183.022 374.363 190.469 374.363 198.087C374.363 203.146 373.366 208.156 371.428 212.83C369.491 217.504 366.651 221.751 363.072 225.328C359.492 228.905 355.242 231.742 350.565 233.677C345.888 235.612 340.875 236.608 335.813 236.607Z" fill="#256C8D"/>
<g style="mix-blend-mode:multiply" opacity="0.1">
<path d="M41.9136 198.219C65.0618 198.219 83.8271 179.465 83.8271 156.33C83.8271 133.195 65.0618 114.441 41.9136 114.441C18.7653 114.441 0 133.195 0 156.33C0 179.465 18.7653 198.219 41.9136 198.219Z" fill="black"/>
</g>
<path d="M41.9136 194.671C63.1009 194.671 80.2767 177.505 80.2767 156.33C80.2767 135.155 63.1009 117.989 41.9136 117.989C20.7262 117.989 3.55042 135.155 3.55042 156.33C3.55042 177.505 20.7262 194.671 41.9136 194.671Z" fill="white"/>
<mask id="mask4" mask-type="alpha" maskUnits="userSpaceOnUse" x="8" y="122" width="68" height="68">
<circle cx="42" cy="156" r="34" fill="#C4C4C4"/>
</mask>
<g mask="url(#mask4)">
<path d="M67.59 185.229C66.3847 184.395 65.0443 183.775 63.6279 183.397L62.0741 182.993L50.172 179.111C49.7391 178.986 49.3516 178.739 49.0565 178.398C48.7614 178.058 48.5714 177.639 48.5095 177.193C48.0977 174.701 48.1676 168.753 48.1676 167.713C48.1637 167.671 48.1437 167.632 48.1118 167.605C48.08 167.577 48.0387 167.563 47.9967 167.565H35.0536C35.0116 167.563 34.9703 167.577 34.9385 167.605C34.9066 167.632 34.8867 167.671 34.8827 167.713C34.8827 168.769 34.9449 174.615 34.4709 177.232C34.409 177.678 34.219 178.097 33.9239 178.437C33.6288 178.777 33.2414 179.025 32.8084 179.15L20.9063 183.032L19.3525 183.444C18.1307 183.768 16.9651 184.276 15.8954 184.95C10.4571 188.514 10.2939 194.337 10.0686 195.416C10.0664 195.44 10.0692 195.463 10.0768 195.486C10.0845 195.508 10.0969 195.528 10.1131 195.545C10.1293 195.562 10.149 195.575 10.1709 195.584C10.1927 195.592 10.2161 195.596 10.2396 195.595H72.7797C72.8031 195.596 72.8266 195.592 72.8484 195.584C72.8702 195.575 72.8899 195.562 72.9061 195.545C72.9224 195.528 72.9347 195.508 72.9424 195.486C72.9501 195.463 72.9529 195.44 72.9506 195.416C72.7331 194.329 72.6476 188.809 67.59 185.229Z" fill="#C9ACA8"/>
<path d="M48.323 174.957C48.2686 172.177 48.1676 169.569 48.1754 168.862C48.1764 168.838 48.1728 168.815 48.1648 168.793C48.1568 168.771 48.1445 168.751 48.1286 168.733C48.1127 168.716 48.0936 168.702 48.0723 168.692C48.051 168.682 48.0279 168.677 48.0045 168.676H35.0536C35.0301 168.675 35.0067 168.68 34.9853 168.69C34.9638 168.699 34.9446 168.714 34.9291 168.731C34.9136 168.749 34.9022 168.77 34.8955 168.792C34.8888 168.815 34.8871 168.839 34.8904 168.862C34.8904 169.561 34.7817 172.185 34.7273 174.973C35.6518 175.935 39.0779 177.302 41.3853 177.302C43.6927 177.302 47.3286 175.718 48.323 174.957Z" fill="#9B9B9B"/>
<path d="M29.3123 154.894C30.2213 157.355 29.7008 161.191 28.147 161.928C26.5932 162.666 24.5965 160.034 23.6876 157.58C22.7786 155.127 23.3069 152.533 24.8607 151.796C26.4145 151.058 28.3956 152.44 29.3123 154.894Z" fill="#C9ACA8"/>
<path d="M53.7534 154.894C52.8367 157.355 53.3572 161.191 54.911 161.928C56.4648 162.666 58.4614 160.034 59.3781 157.58C60.2949 155.127 59.7666 152.533 58.2128 151.796C56.659 151.058 54.6624 152.44 53.7534 154.894Z" fill="#C9ACA8"/>
<path d="M41.3853 133.13C25.9872 132.617 25.7541 147.354 25.9872 152.184C26.2126 155.977 26.8032 159.739 27.7507 163.419C28.178 164.887 28.9627 167.34 30.0814 168.404C33.088 171.269 36.8249 173.839 39.1323 174.685C39.8702 174.874 40.6324 174.95 41.393 174.91C42.1562 174.949 42.9209 174.873 43.6616 174.685C45.9923 173.808 49.6981 171.269 52.7046 168.404C53.8234 167.34 54.6003 164.887 55.0353 163.419C55.9738 159.738 56.5591 155.976 56.7833 152.184C57.0164 147.354 56.7911 132.617 41.3853 133.13Z" fill="#C9ACA8"/>
<path d="M62.1518 182.993L51.9123 179.662C49.8535 182.1 45.2077 185.524 41.5329 185.524C37.8582 185.524 33.4066 182.465 31.1458 179.655L20.9064 182.985L20.1838 183.172V195.548H62.8354V183.18L62.1518 182.993Z" fill="#232323"/>
<path d="M58.6091 143.728C58.0187 141.213 55.2219 136.414 52.293 136.74C51.7338 134.911 50.5766 133.323 49.0067 132.229C46.5877 130.699 43.6862 130.12 40.8648 130.606C36.3511 131.212 30.8817 132.85 27.9217 136.577C24.9618 140.304 22.1572 145.623 22.3048 150.553C22.9856 149.576 23.7668 148.673 24.6355 147.859C24.4308 152.298 25.5358 156.699 27.813 160.515C27.671 157.63 28.0204 154.742 28.8462 151.974C28.865 153.323 29.0689 154.664 29.4522 155.957C29.3279 155.546 32.319 151.889 33.0726 150.794C33.0726 150.996 33.0726 151.198 33.0726 151.392C33.0726 150.934 37.9048 148.084 38.5108 147.51C39.8477 146.365 41.0969 145.122 42.2477 143.79C41.8437 144.513 41.4708 145.258 41.1212 146.003C40.7716 146.749 39.6839 151.275 39.2256 151.438C42.6799 149.967 45.644 147.543 47.7714 144.45C48.226 143.797 48.5625 143.069 48.7659 142.3H49.2786C49.333 142.463 49.3951 142.634 49.4651 142.789C50.0706 143.986 50.7941 145.12 51.6248 146.174C54.5087 150.361 55.9238 155.385 55.6492 160.461C57.2672 158.025 58.3653 155.282 58.8746 152.403C59.3839 149.524 59.2935 146.571 58.6091 143.728Z" fill="#505050"/>
</g>
<path d="M42.1078 117.158C34.3835 117.158 26.8327 119.447 20.4103 123.736C13.9878 128.025 8.98204 134.121 6.02609 141.253C3.07014 148.386 2.29673 156.234 3.80366 163.805C5.31059 171.376 9.03018 178.331 14.4921 183.79C19.9539 189.249 26.9128 192.966 34.4886 194.472C42.0645 195.978 49.9171 195.205 57.0533 192.251C64.1896 189.297 70.2891 184.294 74.5805 177.875C78.8719 171.456 81.1624 163.91 81.1624 156.19C81.1624 145.838 77.0477 135.91 69.7236 128.59C62.3994 121.271 52.4657 117.158 42.1078 117.158ZM42.1078 188.071C35.7987 188.071 29.6313 186.201 24.3855 182.698C19.1397 179.195 15.051 174.216 12.6366 168.391C10.2223 162.565 9.59055 156.155 10.8214 149.971C12.0522 143.786 15.0904 138.106 19.5516 133.647C24.0128 129.188 29.6967 126.152 35.8846 124.922C42.0724 123.692 48.4863 124.323 54.3152 126.736C60.144 129.149 65.126 133.235 68.6312 138.478C72.1363 143.721 74.0072 149.885 74.0072 156.19C74.0051 164.645 70.6436 172.753 64.6618 178.731C58.6799 184.71 50.5674 188.069 42.1078 188.071Z" fill="#256C8D"/>
<g style="mix-blend-mode:multiply" opacity="0.1">
<path d="M478.529 157.068C498.674 157.068 515.005 140.747 515.005 120.613C515.005 100.48 498.674 84.1592 478.529 84.1592C458.385 84.1592 442.054 100.48 442.054 120.613C442.054 140.747 458.385 157.068 478.529 157.068Z" fill="black"/>
</g>
<mask id="mask5" mask-type="alpha" maskUnits="userSpaceOnUse" x="450" y="91" width="58" height="58">
<circle cx="479" cy="120" r="29" fill="#C4C4C4"/>
</mask>
<g mask="url(#mask5)">
<path d="M478.529 153.985C496.971 153.985 511.92 139.044 511.92 120.613C511.92 102.183 496.971 87.2417 478.529 87.2417C460.088 87.2417 445.138 102.183 445.138 120.613C445.138 139.044 460.088 153.985 478.529 153.985Z" fill="white"/>
<path d="M500.873 145.763C499.823 145.036 498.656 144.494 497.423 144.163L496.11 143.814L485.754 140.452C485.378 140.342 485.042 140.126 484.786 139.83C484.529 139.534 484.364 139.17 484.309 138.782C483.89 136.624 483.936 131.429 483.952 130.505C483.951 130.487 483.946 130.469 483.938 130.452C483.93 130.436 483.919 130.421 483.906 130.409C483.892 130.396 483.876 130.387 483.858 130.381C483.841 130.375 483.823 130.372 483.804 130.373H472.555C472.536 130.372 472.518 130.375 472.501 130.381C472.483 130.387 472.467 130.396 472.454 130.409C472.44 130.421 472.429 130.436 472.421 130.452C472.413 130.469 472.408 130.487 472.407 130.505C472.475 133.269 472.356 136.035 472.05 138.782C471.996 139.17 471.831 139.535 471.575 139.831C471.318 140.127 470.981 140.343 470.605 140.452L460.249 143.814L458.905 144.171C457.838 144.453 456.821 144.898 455.89 145.491C451.151 148.597 451.019 153.651 450.817 154.599C450.815 154.619 450.817 154.639 450.823 154.658C450.83 154.677 450.841 154.694 450.855 154.708C450.869 154.723 450.887 154.733 450.906 154.74C450.925 154.747 450.945 154.749 450.965 154.746H505.348C505.368 154.749 505.388 154.747 505.407 154.74C505.426 154.733 505.443 154.723 505.458 154.708C505.472 154.694 505.483 154.677 505.489 154.658C505.496 154.639 505.498 154.619 505.495 154.599C505.348 153.682 505.278 148.876 500.873 145.763Z" fill="#C9ACA8"/>
<path d="M484.107 136.826C484.061 134.403 483.967 132.128 483.975 131.515C483.976 131.495 483.973 131.475 483.966 131.456C483.959 131.437 483.949 131.42 483.935 131.405C483.921 131.391 483.904 131.379 483.886 131.371C483.867 131.363 483.848 131.359 483.828 131.359H472.563C472.543 131.359 472.523 131.363 472.504 131.371C472.486 131.379 472.469 131.391 472.455 131.405C472.442 131.42 472.431 131.437 472.424 131.456C472.417 131.475 472.414 131.495 472.415 131.515C472.415 132.128 472.322 134.411 472.275 136.841C473.052 137.68 476.066 138.868 478.063 138.883C480.216 138.702 482.291 137.995 484.107 136.826Z" fill="#9B9B9B"/>
<path d="M467.559 119.363C468.336 121.499 467.901 124.845 466.55 125.49C465.198 126.134 463.442 123.836 462.665 121.7C461.888 119.565 462.323 117.314 463.675 116.661C465.027 116.009 466.767 117.244 467.559 119.363Z" fill="#C9ACA8"/>
<path d="M488.831 119.363C488.054 121.499 488.489 124.845 489.841 125.49C491.193 126.134 492.948 123.836 493.725 121.7C494.502 119.565 494.067 117.314 492.715 116.661C491.364 116.009 489.623 117.244 488.831 119.363Z" fill="#C9ACA8"/>
<path d="M478.071 100.418C464.669 99.9754 464.467 112.802 464.669 117.034C464.873 120.335 465.394 123.608 466.223 126.809C466.596 128.083 467.28 130.218 468.251 131.15C470.869 133.642 474.116 135.847 476.121 136.585C477.424 136.844 478.765 136.844 480.067 136.585C482.072 135.809 485.319 133.611 487.937 131.15C488.909 130.218 489.584 128.083 489.965 126.809C490.795 123.608 491.315 120.335 491.519 117.034C491.674 112.802 491.472 99.9754 478.071 100.418Z" fill="#C9ACA8"/>
<path d="M496.11 143.814L487.199 140.918C485.412 143.037 481.365 146.027 478.164 146.027C474.963 146.027 471.102 143.34 469.136 140.918L460.226 143.814L459.604 143.984V154.746H496.685V143.984L496.11 143.814Z" fill="#232323"/>
<path d="M493.057 109.65C492.544 107.453 490.113 103.283 487.557 103.601C487.073 102.01 486.069 100.626 484.706 99.6726C482.599 98.3445 480.076 97.8412 477.62 98.2595C473.689 98.7875 468.927 100.216 466.347 103.454C463.768 106.692 461.336 111.327 461.461 115.582C462.051 114.74 462.725 113.959 463.473 113.253C463.308 117.104 464.272 120.92 466.246 124.232C466.12 121.724 466.425 119.213 467.148 116.809C467.161 117.982 467.338 119.148 467.676 120.272C467.567 119.915 470.17 116.731 470.784 115.784C470.784 115.955 470.784 116.126 470.784 116.304C470.784 115.9 474.987 113.416 475.523 112.958C476.686 111.957 477.774 110.872 478.778 109.712C478.431 110.349 478.104 110.993 477.799 111.645C477.519 112.259 476.54 116.234 476.144 116.397C479.158 115.125 481.746 113.018 483.602 110.325C483.996 109.756 484.287 109.123 484.465 108.454H484.915C484.958 108.6 485.01 108.742 485.071 108.881C485.596 109.926 486.226 110.914 486.951 111.832C489.463 115.471 490.695 119.84 490.455 124.255C491.874 122.132 492.839 119.739 493.287 117.225C493.735 114.711 493.656 112.132 493.057 109.65Z" fill="#505050"/>
</g>
<path d="M478.7 86.5196C471.978 86.5196 465.406 88.5119 459.817 92.2445C454.227 95.9771 449.871 101.282 447.298 107.49C444.726 113.697 444.053 120.527 445.364 127.116C446.676 133.706 449.913 139.759 454.666 144.509C459.42 149.26 465.476 152.495 472.069 153.806C478.662 155.117 485.497 154.444 491.707 151.873C497.918 149.302 503.226 144.948 506.961 139.362C510.696 133.775 512.689 127.208 512.689 120.489C512.689 111.48 509.108 102.84 502.734 96.4691C496.36 90.0985 487.715 86.5196 478.7 86.5196ZM478.7 148.232C473.21 148.232 467.843 146.605 463.278 143.556C458.714 140.508 455.156 136.175 453.055 131.106C450.954 126.036 450.404 120.458 451.475 115.077C452.546 109.695 455.19 104.752 459.072 100.872C462.954 96.9924 467.9 94.3502 473.285 93.2798C478.669 92.2093 484.251 92.7587 489.323 94.8585C494.395 96.9582 498.73 100.514 501.781 105.076C504.831 109.639 506.459 115.002 506.459 120.489C506.459 127.847 503.534 134.903 498.328 140.106C493.123 145.309 486.062 148.232 478.7 148.232Z" fill="#256C8D"/>
</g>
</g>
<defs>
<clipPath id="clip0">
<rect width="1440" height="1024" fill="white" transform="translate(-59 -590)"/>
</clipPath>
<clipPath id="clip1">
<rect width="520" height="408" fill="white"/>
</clipPath>
</defs>
</svg>
