<svg width="160" height="153" viewBox="0 0 160 153" fill="none" xmlns="http://www.w3.org/2000/svg">
<path d="M117.493 114.745C138.602 93.6212 138.602 59.3724 117.493 38.2484C96.3835 17.1244 62.1584 17.1244 41.0491 38.2484C19.9397 59.3724 19.9397 93.6212 41.0491 114.745C62.1584 135.869 96.3835 135.869 117.493 114.745Z" fill="#D9E0FF"/>
<path opacity="0.73" d="M123.415 89.4701V107.715C121.428 110.526 119.181 113.144 116.703 115.534V89.4701C116.703 89.3397 113.413 86.6291 110.904 84.5787V83.3885L113.934 82.6065C115.176 82.2864 116.489 82.3873 117.667 82.8932C118.195 83.1258 118.734 83.3317 119.282 83.5101V85.908C121.791 87.9583 123.38 89.305 123.415 89.4353V89.4701Z" fill="#001D4A"/>
<path d="M2.34424 7.09923L18.1975 44.3446L29.7966 36.4038L36.5078 46.1778L37.7233 29.6967L51.7533 21.139L2.34424 7.09923Z" fill="#001D4A"/>
<path d="M37.4281 33.7366L15.3672 16.378L37.7233 29.6967L37.4281 33.7366Z" fill="#6D88FF"/>
<path d="M36.7945 50.8172C36.673 50.0961 36.5167 49.375 36.3257 48.6712L37.4109 48.3759C37.6106 49.1143 37.7756 49.8702 37.9058 50.626L36.7945 50.8172Z" fill="#98C3DE"/>
<path d="M23.6675 76.1166C22.0543 76.0136 20.4955 75.4926 19.1442 74.6049L19.7606 73.6666C20.9478 74.4486 22.3184 74.9068 23.7369 74.9958L23.6675 76.1166ZM28.3384 75.1957L27.8435 74.1879C29.1414 73.5301 30.3 72.6273 31.2555 71.5293L32.1237 72.2852C31.0655 73.495 29.7791 74.4841 28.3384 75.1957ZM16.01 71.0081C15.3731 69.7256 15.0403 68.3134 15.0376 66.8813C15.0376 66.7683 15.0376 66.6554 15.0376 66.5424V66.2992L16.1663 66.3774V66.5859V66.8813C16.1799 68.1305 16.4768 69.3604 17.0345 70.4781L16.01 71.0081ZM59.5674 70.7561V69.6267C61.0347 69.6267 62.5366 69.5572 64.0473 69.4442L64.1341 70.5737C62.5974 70.6866 61.0607 70.7474 59.5674 70.7561ZM55.0007 70.6084L54.2801 70.5476C52.8997 70.4347 51.6755 70.2783 50.4514 70.0698L50.6424 68.9577C51.8057 69.1662 53.0299 69.3139 54.3756 69.4269L55.0788 69.479L55.0007 70.6084ZM68.6661 70.0958L68.5185 68.9751C69.9684 68.7753 71.4617 68.532 72.955 68.2453L73.1634 69.3487C71.6527 69.644 70.1334 69.896 68.6661 70.0958ZM46.0149 68.9577C44.7366 68.5263 43.5013 67.9766 42.325 67.3157L41.7954 67.0116L42.3424 66.0125L42.8373 66.2992C43.9473 66.918 45.1093 67.4383 46.3101 67.8543L46.0149 68.9577ZM34.7283 68.5059L33.7559 67.9412C34.4857 66.6597 35.1016 65.3166 35.5965 63.9274L36.6557 64.3096C36.1356 65.7615 35.4907 67.1655 34.7283 68.5059ZM77.6085 68.3756L77.3394 67.2809C78.7546 66.9421 80.2131 66.5511 81.6804 66.1341L81.9929 67.2114C80.517 67.6458 79.0063 68.0368 77.6172 68.3756H77.6085ZM86.36 65.8822L86.0127 64.8135C87.4365 64.3531 88.8691 63.8665 90.2842 63.3626L90.6575 64.4226C89.2424 64.9265 87.8099 65.4217 86.3687 65.8822H86.36ZM38.0014 64.3965C36.9337 63.5885 35.8142 62.8513 34.6502 62.1898L34.2768 61.9899L34.7891 60.9908L35.1884 61.208C36.3952 61.892 37.5554 62.6554 38.6612 63.493L38.0014 64.3965ZM17.7551 62.6589L16.9737 61.8596C18.1474 60.7846 19.5709 60.0201 21.115 59.6355L21.497 60.6954C20.1056 61.0512 18.8215 61.7399 17.7551 62.7024V62.6589ZM30.1616 60.4608C28.882 60.1735 27.5748 60.0278 26.2634 60.0264H25.8032V58.897C27.3465 58.8796 28.886 59.0518 30.3873 59.4096L30.1616 60.4608ZM37.8712 59.8006L36.7599 59.6007C37.0184 58.1436 37.152 56.6671 37.1593 55.1872H38.2879C38.2822 56.7486 38.1427 58.3065 37.8712 59.844V59.8006Z" fill="#98C3DE"/>
<path d="M94.9721 62.8327L94.5728 61.7814L96.6738 60.9648L97.0818 62.016C96.3699 62.294 95.684 62.5373 94.9721 62.8327Z" fill="#00C8B7"/>
<path d="M116.703 89.47L77.4781 112.65L38.2529 89.47C38.2529 89.3223 40.4495 87.5152 43.7573 84.8307L43.8441 84.7525C54.6966 75.9168 77.4781 57.8979 77.4781 57.8979C77.4781 57.8979 100.277 75.9168 111.129 84.7177C114.481 87.4457 116.686 89.2876 116.721 89.4353C116.716 89.4475 116.71 89.4592 116.703 89.47Z" fill="#001D4A"/>
<path d="M93.6092 38.7322H51.2847C49.5416 38.7322 47.8699 39.4251 46.6374 40.6585C45.4048 41.8919 44.7124 43.5647 44.7124 45.309V109.339C44.7124 111.084 45.4048 112.757 46.6374 113.99C47.8699 115.223 49.5416 115.916 51.2847 115.916H104.314C106.057 115.916 107.729 115.223 108.961 113.99C110.194 112.757 110.886 111.084 110.886 109.339V56.0213L93.6092 38.7322Z" fill="white"/>
<path d="M93.6094 49.4445C93.6094 51.1888 94.3018 52.8616 95.5343 54.095C96.7669 55.3284 98.4386 56.0213 100.182 56.0213H110.886L93.6094 38.7322V49.4445Z" fill="#E6E8E8"/>
<path d="M71.6612 49.5487H57.0668C55.7722 49.5487 54.7227 50.599 54.7227 51.8945V66.499C54.7227 67.7945 55.7722 68.8448 57.0668 68.8448H71.6612C72.9558 68.8448 74.0053 67.7945 74.0053 66.499V51.8945C74.0053 50.599 72.9558 49.5487 71.6612 49.5487Z" fill="#D9E0FF"/>
<path d="M91.6643 74.2139H56.6325C56.1329 74.2139 55.6537 74.4126 55.3003 74.7661C54.947 75.1197 54.7485 75.5992 54.7485 76.0992C54.7485 76.5992 54.947 77.0788 55.3003 77.4323C55.6537 77.7859 56.1329 77.9845 56.6325 77.9845H91.6643C91.9117 77.9845 92.1567 77.9358 92.3852 77.841C92.6138 77.7463 92.8215 77.6074 92.9964 77.4323C93.1714 77.2573 93.3102 77.0494 93.4048 76.8207C93.4995 76.592 93.5483 76.3468 93.5483 76.0992C93.5483 75.8517 93.4995 75.6065 93.4048 75.3778C93.3102 75.149 93.1714 74.9412 92.9964 74.7661C92.8215 74.5911 92.6138 74.4522 92.3852 74.3574C92.1567 74.2627 91.9117 74.2139 91.6643 74.2139Z" fill="#D9DBDB"/>
<path d="M91.6643 83.6143H56.6325C56.3851 83.6143 56.1401 83.6631 55.9115 83.7579C55.683 83.8526 55.4753 83.9915 55.3003 84.1665C55.1254 84.3416 54.9866 84.5494 54.8919 84.7782C54.7973 85.0069 54.7485 85.2521 54.7485 85.4996C54.7485 86.0005 54.9467 86.4809 55.2998 86.8358C55.6529 87.1908 56.1321 87.3913 56.6325 87.3936H91.6643C92.1647 87.3913 92.6439 87.1908 92.997 86.8358C93.3501 86.4809 93.5483 86.0005 93.5483 85.4996C93.5483 85.2521 93.4995 85.0069 93.4048 84.7782C93.3102 84.5494 93.1714 84.3416 92.9964 84.1665C92.8215 83.9915 92.6138 83.8526 92.3852 83.7579C92.1567 83.6631 91.9117 83.6143 91.6643 83.6143Z" fill="#D9DBDB"/>
<path d="M75.7592 92.7367H56.6589C56.1584 92.739 55.6792 92.9396 55.3262 93.2945C54.9731 93.6495 54.7749 94.1299 54.7749 94.6307C54.7749 95.1307 54.9734 95.6102 55.3267 95.9638C55.68 96.3174 56.1592 96.516 56.6589 96.516H75.7592C76.2589 96.516 76.7381 96.3174 77.0914 95.9638C77.4447 95.6102 77.6432 95.1307 77.6432 94.6307C77.6432 94.1299 77.445 93.6495 77.0919 93.2945C76.7389 92.9396 76.2597 92.739 75.7592 92.7367Z" fill="#D9DBDB"/>
<path d="M116.703 89.47V127.132C116.699 128.4 116.193 129.614 115.296 130.509C114.4 131.405 113.186 131.909 111.919 131.911H43.0193C41.7544 131.909 40.5421 131.404 39.6484 130.508C38.7548 129.612 38.2529 128.398 38.2529 127.132V89.47L77.4781 112.615L116.703 89.47Z" fill="#6D88FF"/>
<path d="M115.375 130.443L90.1279 105.178L77.4782 112.641L64.8199 105.178L39.5728 130.443C40.0189 130.916 40.5572 131.293 41.1545 131.55C41.7518 131.807 42.3954 131.939 43.0455 131.937H111.946C112.588 131.932 113.224 131.797 113.813 131.54C114.402 131.284 114.934 130.91 115.375 130.443Z" fill="#001D4A"/>
<path d="M3.68164 18.1503L8.83004 29.9573C8.95511 30.2465 8.96045 30.5736 8.8449 30.8668C8.72934 31.1599 8.50232 31.3953 8.21362 31.5212L8.0313 31.5993C7.88782 31.6622 7.73326 31.6959 7.57663 31.6985C7.42001 31.701 7.26444 31.6723 7.119 31.6141C6.97355 31.5559 6.84114 31.4693 6.72947 31.3594C6.6178 31.2495 6.5291 31.1184 6.46855 30.9738L1.50246 19.0973C1.4411 18.9494 1.41022 18.7905 1.41167 18.6303C1.41313 18.4701 1.44689 18.3118 1.51093 18.165C1.57498 18.0181 1.66799 17.8858 1.78439 17.7758C1.90079 17.6658 2.03818 17.5804 2.18834 17.5248C2.46987 17.4169 2.78214 17.4216 3.06024 17.5381C3.33835 17.6546 3.5609 17.8739 3.68164 18.1503Z" fill="#001D4A"/>
<path d="M23.8408 101.286C23.0937 101.286 22.3632 101.507 21.7415 101.922C21.1198 102.336 20.6346 102.926 20.3471 103.616C20.0596 104.306 19.9826 105.066 20.1259 105.8C20.2692 106.534 20.6263 107.209 21.1522 107.74C21.6781 108.271 22.3493 108.635 23.0813 108.785C23.8133 108.935 24.5733 108.865 25.2655 108.583C25.9578 108.302 26.5513 107.822 26.9714 107.203C27.3915 106.585 27.6193 105.856 27.6262 105.108C27.6308 104.608 27.5362 104.112 27.3481 103.648C27.1599 103.185 26.8818 102.763 26.5298 102.407C26.1779 102.052 25.759 101.77 25.2975 101.577C24.836 101.385 24.3409 101.286 23.8408 101.286ZM23.8408 106.603C23.5372 106.603 23.2404 106.512 22.9884 106.342C22.7364 106.173 22.5407 105.932 22.4261 105.651C22.3116 105.369 22.2834 105.06 22.3452 104.762C22.407 104.465 22.5561 104.192 22.7733 103.98C22.9904 103.768 23.2659 103.625 23.5646 103.57C23.8633 103.515 24.1715 103.55 24.4501 103.671C24.7286 103.792 24.9648 103.994 25.1284 104.25C25.2921 104.506 25.3758 104.805 25.3689 105.108C25.3598 105.508 25.1948 105.888 24.9092 106.167C24.6236 106.447 24.2402 106.603 23.8408 106.603Z" fill="#D9E0FF"/>
<path d="M125.203 116.603C124.454 116.601 123.721 116.822 123.097 117.237C122.474 117.652 121.987 118.243 121.699 118.935C121.411 119.627 121.335 120.389 121.48 121.124C121.625 121.86 121.985 122.535 122.514 123.066C123.043 123.597 123.718 123.958 124.452 124.105C125.187 124.252 125.948 124.177 126.641 123.891C127.333 123.605 127.924 123.119 128.341 122.496C128.757 121.873 128.979 121.14 128.979 120.391C128.979 119.387 128.582 118.425 127.874 117.715C127.166 117.005 126.205 116.605 125.203 116.603ZM125.203 121.92C124.898 121.921 124.6 121.832 124.346 121.664C124.092 121.496 123.893 121.256 123.776 120.974C123.659 120.693 123.627 120.383 123.686 120.084C123.745 119.785 123.892 119.51 124.107 119.295C124.323 119.079 124.597 118.932 124.896 118.873C125.195 118.814 125.505 118.845 125.786 118.963C126.067 119.08 126.307 119.279 126.475 119.533C126.644 119.787 126.732 120.086 126.731 120.391C126.731 120.796 126.57 121.185 126.283 121.472C125.997 121.759 125.608 121.92 125.203 121.92Z" fill="#D9E0FF"/>
<path d="M156.145 57.811C155.571 57.8093 155.01 57.978 154.532 58.2958C154.054 58.6136 153.681 59.0662 153.46 59.5963C153.239 60.1264 153.181 60.7101 153.291 61.2736C153.402 61.837 153.678 62.3549 154.083 62.7616C154.488 63.1683 155.005 63.4455 155.568 63.5582C156.13 63.6709 156.714 63.6139 157.244 63.3945C157.775 63.1752 158.228 62.8032 158.547 62.3259C158.866 61.8485 159.036 61.2871 159.036 60.7128C159.034 59.9454 158.729 59.21 158.188 58.6665C157.646 58.1231 156.912 57.8156 156.145 57.811ZM156.145 61.8857C155.913 61.8857 155.687 61.8169 155.494 61.688C155.301 61.5591 155.151 61.376 155.062 61.1616C154.974 60.9473 154.951 60.7115 154.996 60.484C155.041 60.2565 155.153 60.0475 155.317 59.8835C155.48 59.7194 155.689 59.6077 155.917 59.5625C156.144 59.5172 156.38 59.5404 156.594 59.6292C156.808 59.718 156.991 59.8683 157.12 60.0612C157.249 60.2541 157.317 60.4808 157.317 60.7128C157.319 60.8672 157.289 61.0202 157.23 61.163C157.172 61.3058 157.086 61.4356 156.977 61.5447C156.868 61.6539 156.738 61.7402 156.595 61.7988C156.452 61.8573 156.3 61.8868 156.145 61.8857Z" fill="#D9E0FF"/>
<path d="M105.148 11.4519C104.542 11.4519 103.949 11.6318 103.445 11.9688C102.941 12.3058 102.548 12.7847 102.316 13.3451C102.084 13.9055 102.024 14.5222 102.142 15.1171C102.26 15.712 102.552 16.2585 102.981 16.6874C103.409 17.1163 103.955 17.4084 104.55 17.5267C105.144 17.645 105.761 17.5843 106.321 17.3522C106.881 17.12 107.359 16.727 107.696 16.2226C108.033 15.7183 108.212 15.1253 108.212 14.5188C108.212 13.7054 107.89 12.9253 107.315 12.3502C106.74 11.775 105.961 11.4519 105.148 11.4519ZM105.148 15.7959C104.902 15.7959 104.662 15.723 104.458 15.5865C104.254 15.45 104.095 15.256 104.001 15.029C103.907 14.8019 103.882 14.5521 103.93 14.3111C103.978 14.0701 104.096 13.8488 104.27 13.675C104.443 13.5013 104.665 13.3829 104.906 13.335C105.146 13.2871 105.396 13.3117 105.623 13.4057C105.85 13.4997 106.044 13.659 106.18 13.8633C106.316 14.0676 106.389 14.3078 106.389 14.5535C106.38 14.877 106.245 15.1841 106.014 15.4096C105.782 15.6352 105.471 15.7613 105.148 15.7611V15.7959Z" fill="#D9E0FF"/>
<path d="M7.19757 82.8498C6.56052 82.8498 5.93777 83.0388 5.40808 83.393C4.87838 83.7472 4.46554 84.2506 4.22175 84.8396C3.97796 85.4285 3.91417 86.0766 4.03845 86.7019C4.16274 87.3271 4.46951 87.9014 4.91998 88.3522C5.37044 88.803 5.94437 89.11 6.56919 89.2343C7.194 89.3587 7.84164 89.2949 8.4302 89.0509C9.01876 88.807 9.52182 88.3938 9.87575 87.8638C10.2297 87.3337 10.4186 86.7105 10.4186 86.073C10.4186 85.2182 10.0792 84.3983 9.47517 83.7939C8.87112 83.1894 8.05184 82.8498 7.19757 82.8498Z" fill="#D9E0FF"/>
<path d="M136.368 93.5186C135.904 93.5187 135.45 93.6564 135.065 93.9146C134.679 94.1727 134.379 94.5396 134.202 94.9687C134.024 95.3979 133.978 95.87 134.07 96.3252C134.161 96.7805 134.385 97.1985 134.714 97.5262C135.042 97.8539 135.461 98.0766 135.916 98.1661C136.371 98.2557 136.843 98.208 137.271 98.0291C137.699 97.8502 138.065 97.5482 138.321 97.1613C138.578 96.7744 138.714 96.32 138.712 95.8557C138.712 95.5481 138.651 95.2435 138.534 94.9593C138.416 94.6752 138.243 94.4172 138.025 94.2001C137.807 93.9829 137.549 93.811 137.264 93.694C136.98 93.5771 136.675 93.5175 136.368 93.5186Z" fill="#D9E0FF"/>
<path d="M58.8206 12.4163C58.144 12.4163 57.4827 12.617 56.9202 12.9932C56.3576 13.3693 55.9192 13.9039 55.6603 14.5294C55.4014 15.1549 55.3336 15.8431 55.4656 16.5072C55.5976 17.1712 55.9234 17.7811 56.4018 18.2598C56.8802 18.7385 57.4897 19.0646 58.1533 19.1966C58.8168 19.3287 59.5046 19.2609 60.1296 19.0018C60.7547 18.7428 61.2889 18.304 61.6648 17.7411C62.0407 17.1782 62.2413 16.5164 62.2413 15.8393C62.239 14.9322 61.8779 14.0629 61.2369 13.4214C60.5959 12.7799 59.7271 12.4186 58.8206 12.4163Z" fill="#D9E0FF"/>
<path d="M77.1483 136.472C76.6566 136.472 76.1759 136.618 75.7667 136.891C75.3576 137.163 75.0382 137.551 74.8489 138.005C74.6595 138.459 74.6087 138.959 74.7027 139.442C74.7968 139.925 75.0315 140.37 75.3774 140.719C75.7233 141.069 76.1648 141.309 76.6464 141.408C77.1281 141.507 77.6282 141.461 78.084 141.277C78.5397 141.092 78.9306 140.776 79.2075 140.37C79.4844 139.963 79.6349 139.484 79.6401 138.992C79.6423 138.662 79.5796 138.336 79.4555 138.031C79.3315 137.726 79.1484 137.448 78.9169 137.214C78.6854 136.98 78.41 136.794 78.1065 136.667C77.8031 136.539 77.4774 136.473 77.1483 136.472Z" fill="#D9E0FF"/>
<path d="M125.42 25.6307C124.841 25.6307 124.276 25.8024 123.794 26.1241C123.313 26.4459 122.938 26.9031 122.717 27.4381C122.495 27.9731 122.437 28.5618 122.55 29.1298C122.663 29.6977 122.942 30.2194 123.351 30.6289C123.76 31.0383 124.282 31.3172 124.849 31.4302C125.417 31.5431 126.005 31.4851 126.54 31.2635C127.074 31.0419 127.531 30.6667 127.853 30.1852C128.174 29.7037 128.346 29.1376 128.346 28.5586C128.346 27.782 128.038 27.0373 127.489 26.4883C126.94 25.9392 126.196 25.6307 125.42 25.6307Z" fill="#D9E0FF"/>
<path d="M21.7397 51.7381C22.6603 51.7381 23.4066 50.9913 23.4066 50.07C23.4066 49.1487 22.6603 48.4019 21.7397 48.4019C20.8191 48.4019 20.0728 49.1487 20.0728 50.07C20.0728 50.9913 20.8191 51.7381 21.7397 51.7381Z" fill="#D9E0FF"/>
<path d="M157.144 43.2065C156.58 43.2083 156.029 43.3775 155.562 43.6929C155.094 44.0082 154.73 44.4554 154.517 44.9778C154.304 45.5001 154.25 46.0742 154.363 46.6271C154.476 47.18 154.75 47.6869 155.152 48.0835C155.553 48.4801 156.063 48.7485 156.617 48.8548C157.17 48.9611 157.743 48.9004 158.263 48.6805C158.782 48.4606 159.224 48.0913 159.534 47.6194C159.843 47.1476 160.006 46.5944 160 46.0301C159.994 45.2773 159.689 44.5579 159.154 44.0289C158.619 43.4998 157.896 43.2042 157.144 43.2065Z" fill="#D9E0FF"/>
<path d="M5.60018 61.8944C6.60231 61.8944 7.41471 61.0814 7.41471 60.0786C7.41471 59.0757 6.60231 58.2628 5.60018 58.2628C4.59804 58.2628 3.78564 59.0757 3.78564 60.0786C3.78564 61.0814 4.59804 61.8944 5.60018 61.8944Z" fill="#D9E0FF"/>
<path d="M81.8451 6.33469L82.9911 5.19656C83.1783 5.00501 83.2831 4.74773 83.2831 4.47981C83.2831 4.21188 83.1783 3.9546 82.9911 3.76305C82.7982 3.57518 82.5396 3.47005 82.2705 3.47005C82.0013 3.47005 81.7428 3.57518 81.5499 3.76305L80.4125 4.89248L79.2752 3.75436C79.0823 3.56649 78.8238 3.46136 78.5546 3.46136C78.2854 3.46136 78.0269 3.56649 77.834 3.75436C77.6468 3.94592 77.542 4.20319 77.542 4.47112C77.542 4.73904 77.6468 4.99632 77.834 5.18788L79.0061 6.33469L77.834 7.47282C77.644 7.66407 77.5378 7.923 77.5386 8.19265C77.5394 8.4623 77.6472 8.72058 77.8383 8.91068C78.0294 9.10078 78.2882 9.20711 78.5577 9.2063C78.8271 9.20548 79.0852 9.09758 79.2752 8.90634L80.4125 7.80296L81.5499 8.94109C81.7398 9.13234 81.9979 9.24024 82.2674 9.24105C82.5369 9.24186 82.7956 9.13553 82.9867 8.94543C83.1778 8.75533 83.2857 8.49705 83.2865 8.2274C83.2873 7.95775 83.181 7.69882 82.9911 7.50757L81.8451 6.33469Z" fill="#D9E0FF"/>
<path d="M4.34122 40.8173L5.47855 39.6705C5.57332 39.5768 5.64855 39.4652 5.6999 39.3421C5.75124 39.2191 5.77768 39.0871 5.77768 38.9537C5.77768 38.8204 5.75124 38.6884 5.6999 38.5654C5.64855 38.4423 5.57332 38.3307 5.47855 38.237C5.28713 38.0497 5.03003 37.9448 4.76229 37.9448C4.49455 37.9448 4.23745 38.0497 4.04603 38.237L2.87396 39.3404L1.73663 38.2109C1.54374 38.023 1.28519 37.9179 1.01602 37.9179C0.746851 37.9179 0.488308 38.023 0.295419 38.2109C0.108229 38.4025 0.00341603 38.6598 0.00341603 38.9277C0.00341603 39.1956 0.108229 39.4529 0.295419 39.6444L1.43276 40.8173L0.295419 41.9207C0.105454 42.1119 -0.000809454 42.3709 4.64339e-06 42.6405C0.000818741 42.9102 0.108644 43.1684 0.29976 43.3585C0.490876 43.5486 0.749627 43.655 1.01909 43.6542C1.28856 43.6534 1.54666 43.5454 1.73663 43.3542L2.87396 42.2161L4.0113 43.3542C4.20554 43.5215 4.45578 43.6091 4.71186 43.5995C4.96794 43.5899 5.21094 43.4838 5.39214 43.3025C5.57334 43.1212 5.67936 42.878 5.68895 42.6217C5.69853 42.3655 5.61098 42.1151 5.44383 41.9207L4.34122 40.8173Z" fill="#D9E0FF"/>
<path d="M138.66 110.382L139.624 109.418C139.723 109.343 139.805 109.248 139.865 109.138C139.925 109.029 139.96 108.908 139.969 108.784C139.978 108.66 139.96 108.535 139.916 108.419C139.873 108.302 139.805 108.196 139.717 108.108C139.629 108.02 139.523 107.952 139.406 107.909C139.29 107.865 139.165 107.847 139.041 107.856C138.917 107.865 138.796 107.9 138.687 107.96C138.578 108.019 138.483 108.102 138.408 108.201L137.444 109.166L136.481 108.201C136.318 108.042 136.1 107.953 135.873 107.953C135.646 107.953 135.428 108.042 135.265 108.201C135.106 108.364 135.017 108.582 135.017 108.81C135.017 109.037 135.106 109.255 135.265 109.418L136.229 110.382L135.265 111.346C135.132 111.513 135.065 111.723 135.076 111.936C135.088 112.149 135.177 112.35 135.327 112.501C135.477 112.653 135.678 112.743 135.891 112.756C136.103 112.769 136.313 112.703 136.481 112.571L137.444 111.598L138.408 112.571C138.57 112.731 138.789 112.82 139.016 112.82C139.243 112.82 139.461 112.731 139.624 112.571C139.785 112.409 139.876 112.188 139.876 111.959C139.876 111.729 139.785 111.509 139.624 111.346L138.66 110.382Z" fill="#D9E0FF"/>
</svg>
