<svg width="349" height="349" viewBox="0 0 349 349" fill="none" xmlns="http://www.w3.org/2000/svg">
<path d="M349 266.915H0V267.09H349V266.915Z" fill="#EBEBEB"/>
<path d="M165.426 235.784H30.6491C29.5933 235.782 28.5813 235.362 27.8354 234.614C27.0895 233.867 26.6705 232.855 26.6705 231.799V42.3406C26.6797 41.2908 27.1027 40.287 27.8477 39.5473C28.5926 38.8076 29.5993 38.3917 30.6491 38.3899H165.426C166.483 38.3899 167.497 38.8098 168.244 39.5572C168.992 40.3047 169.412 41.3184 169.412 42.3755V231.799C169.412 232.856 168.992 233.87 168.244 234.617C167.497 235.364 166.483 235.784 165.426 235.784ZM30.6491 38.5295C29.6396 38.5313 28.672 38.9337 27.9588 39.6482C27.2456 40.3627 26.845 41.331 26.845 42.3406V231.799C26.845 232.808 27.2456 233.777 27.9588 234.491C28.672 235.206 29.6396 235.608 30.6491 235.61H165.426C166.436 235.608 167.404 235.206 168.119 234.492C168.833 233.777 169.235 232.809 169.237 231.799V42.3406C169.235 41.3304 168.833 40.3621 168.119 39.6478C167.404 38.9335 166.436 38.5313 165.426 38.5295H30.6491Z" fill="#EBEBEB"/>
<path d="M316.41 235.784H181.627C180.57 235.782 179.557 235.362 178.81 234.615C178.063 233.868 177.643 232.855 177.641 231.799V42.3406C177.652 41.2902 178.077 40.2864 178.823 39.5469C179.569 38.8074 180.576 38.3917 181.627 38.3899H316.41C317.459 38.3935 318.464 38.8103 319.207 39.5498C319.951 40.2893 320.373 41.292 320.382 42.3406V231.799C320.382 232.853 319.964 233.865 319.22 234.612C318.475 235.359 317.465 235.781 316.41 235.784ZM181.627 38.5295C180.616 38.5313 179.648 38.9335 178.934 39.6478C178.219 40.3621 177.817 41.3304 177.815 42.3406V231.799C177.817 232.809 178.219 233.777 178.934 234.492C179.648 235.206 180.616 235.608 181.627 235.61H316.41C317.421 235.608 318.389 235.206 319.103 234.492C319.817 233.777 320.22 232.809 320.221 231.799V42.3406C320.22 41.3304 319.817 40.3621 319.103 39.6478C318.389 38.9335 317.421 38.5313 316.41 38.5295H181.627Z" fill="#EBEBEB"/>
<path d="M314.03 278.146H295.882V278.32H314.03V278.146Z" fill="#EBEBEB"/>
<path d="M248.509 280.045H217.078V280.219H248.509V280.045Z" fill="#EBEBEB"/>
<path d="M295.184 271.669H252.753V271.843H295.184V271.669Z" fill="#EBEBEB"/>
<path d="M50.0396 272.841H36.617V273.016H50.0396V272.841Z" fill="#EBEBEB"/>
<path d="M94.8512 272.841H56.2588V273.016H94.8512V272.841Z" fill="#EBEBEB"/>
<path d="M170.41 275.787H118.43V275.961H170.41V275.787Z" fill="#EBEBEB"/>
<path d="M194.358 59.6093H54.095V160.303H194.358V59.6093Z" fill="#FAFAFA"/>
<path d="M91.7032 160.303L115.756 59.6021H142.532L118.479 160.303H91.7032Z" fill="white"/>
<path d="M143.997 160.303L168.051 59.6021H177.816L153.762 160.303H143.997Z" fill="white"/>
<path d="M82.4617 160.303L106.522 59.6021H110.186L86.1332 160.303H82.4617Z" fill="white"/>
<path d="M201.024 56.14H47.4081C47.3256 56.14 47.244 56.1563 47.1677 56.1878C47.0915 56.2194 47.0223 56.2657 46.9639 56.324C46.9056 56.3823 46.8593 56.4516 46.8278 56.5278C46.7962 56.604 46.7799 56.6857 46.7799 56.7682C46.7799 56.8504 46.7962 56.9317 46.8279 57.0076C46.8595 57.0834 46.9059 57.1522 46.9644 57.21C47.0228 57.2677 47.0921 57.3134 47.1683 57.3442C47.2444 57.375 47.326 57.3904 47.4081 57.3894H201.024C201.189 57.3894 201.348 57.3242 201.466 57.2079C201.583 57.0916 201.65 56.9336 201.652 56.7682C201.65 56.6022 201.584 56.4434 201.466 56.326C201.349 56.2086 201.19 56.1418 201.024 56.14Z" fill="#E0E0E0"/>
<path d="M121.857 160.519H127.839L127.839 59.3927H121.857L121.857 160.519Z" fill="#F0F0F0"/>
<path d="M127.839 160.519H128.509V59.3927H127.839L127.839 160.519Z" fill="#E0E0E0"/>
<path d="M53.1247 109.125V110.786L195.328 110.786V109.125L53.1247 109.125Z" fill="#F0F0F0"/>
<path d="M195.328 159.605V58.6321H53.1247V159.605V161.238H195.328V159.605ZM54.786 159.605V60.3003H193.688V159.605H54.786Z" fill="#F0F0F0"/>
<path d="M195.328 161.266H196.159V58.6319H195.328V161.266Z" fill="#E0E0E0"/>
<path opacity="0.5" d="M170.584 54.6187V221.859H205.645L199.216 54.6187H170.584Z" fill="#EBEBEB"/>
<path opacity="0.5" d="M146.252 54.6187V221.859H181.313L174.884 54.6187H146.252Z" fill="#EBEBEB"/>
<path opacity="0.5" d="M65.2071 54.6187V221.859H43.6389L47.5966 54.6187H65.2071Z" fill="#EBEBEB"/>
<path opacity="0.5" d="M80.1793 54.6187V221.859H58.6111L62.5618 54.6187H80.1793Z" fill="#EBEBEB"/>
<path d="M131.35 266.908H146.824V160.631H131.35V266.908Z" fill="#E6E6E6"/>
<path d="M136.801 266.915H131.35V246.715H142.511L136.801 266.915Z" fill="#F0F0F0"/>
<path d="M295.024 266.908H310.498V160.631H295.024V266.908Z" fill="#E6E6E6"/>
<path d="M131.35 261.401H299.777V160.638H131.35V261.401Z" fill="#F0F0F0"/>
<path d="M294.326 266.915H299.777V246.715H288.616L294.326 266.915Z" fill="#F0F0F0"/>
<path d="M244.251 168.979V252.334H294.179V168.979H244.251Z" fill="#E6E6E6"/>
<path d="M264.277 171.91H274.153C278.329 171.95 282.369 170.429 285.482 167.646H252.934C256.05 170.433 260.096 171.954 264.277 171.91Z" fill="#F0F0F0"/>
<path d="M190.603 168.979V252.334H240.531V168.979H190.603Z" fill="#E6E6E6"/>
<path d="M210.098 171.91H219.975C224.155 171.954 228.201 170.433 231.317 167.646H198.776C201.887 170.428 205.925 171.949 210.098 171.91Z" fill="#F0F0F0"/>
<path d="M136.955 168.979V252.334H186.883V168.979H136.955Z" fill="#E6E6E6"/>
<path d="M156.471 171.91H166.347C170.528 171.954 174.574 170.433 177.69 167.646H145.128C148.244 170.433 152.29 171.954 156.471 171.91Z" fill="#F0F0F0"/>
<path d="M304.328 141.352H253.032C253.032 141.352 253.5 154.572 268.206 158.935V160.638H289.146V158.935C303.874 154.572 304.328 141.352 304.328 141.352Z" fill="#E6E6E6"/>
<path d="M290.431 57.5433H223.332V129.395H290.431V57.5433Z" fill="#F0F0F0"/>
<path d="M290.438 129.388H292.657V57.5361H290.438V129.388Z" fill="#E0E0E0"/>
<path d="M279.088 63.6995H234.682V123.225H279.088V63.6995Z" fill="white"/>
<path d="M174.5 298.437C249.244 298.437 309.835 294.899 309.835 290.536C309.835 286.172 249.244 282.634 174.5 282.634C99.7564 282.634 39.1648 286.172 39.1648 290.536C39.1648 294.899 99.7564 298.437 174.5 298.437Z" fill="#F5F5F5"/>
<path d="M256.759 287.806L251.078 287.716L250.694 274.531L256.375 274.621L256.759 287.806Z" fill="#FF8B7B"/>
<path d="M250.882 283.96L257.087 284.058C257.199 284.06 257.306 284.101 257.39 284.173C257.474 284.246 257.53 284.346 257.548 284.456L258.372 289.523C258.391 289.648 258.383 289.776 258.348 289.897C258.313 290.019 258.251 290.131 258.168 290.226C258.085 290.321 257.982 290.397 257.866 290.448C257.751 290.499 257.626 290.524 257.499 290.522C255.259 290.452 252.034 290.27 249.221 290.221C245.933 290.173 248.523 290.305 244.67 290.221C242.339 290.18 241.829 287.813 242.82 287.618C247.315 286.711 247.546 285.705 249.493 284.358C249.903 284.084 250.389 283.945 250.882 283.96Z" fill="#0364FF"/>
<path d="M234.779 117.376C234.291 119.302 233.725 121.054 233.139 122.876C232.553 124.698 231.897 126.457 231.213 128.237C229.82 131.847 228.156 135.347 226.236 138.707C225.999 139.139 225.726 139.558 225.461 139.984L225.056 140.619L224.861 140.94C224.798 141.038 224.679 141.191 224.596 141.317C223.875 142.343 223.015 143.264 222.041 144.053C220.279 145.453 218.278 146.522 216.136 147.208C214.192 147.848 212.184 148.269 210.147 148.465C209.156 148.576 208.165 148.618 207.18 148.632C206.176 148.647 205.172 148.608 204.172 148.513L204.06 144.242C207.364 143.58 210.567 142.489 213.588 140.996C214.876 140.341 216.054 139.489 217.078 138.469C217.479 138.049 217.826 137.58 218.111 137.073L218.223 136.878L218.369 136.599L218.663 136.04C218.851 135.67 219.053 135.342 219.228 134.916C220.727 131.763 222.048 128.529 223.186 125.228C223.786 123.56 224.337 121.871 224.903 120.182C225.468 118.493 225.978 116.748 226.473 115.135L234.779 117.376Z" fill="#FF8B7B"/>
<path d="M205.408 144.277L198.958 143.579L199.265 150.056C199.265 150.056 204.151 151.243 206.189 147.515L205.408 144.277Z" fill="#FF8B7B"/>
<path d="M193.646 146.447L194.84 149.239C194.937 149.465 195.098 149.658 195.302 149.796C195.506 149.933 195.745 150.009 195.991 150.014L199.265 150.091L198.958 143.614L194.568 144.654C194.382 144.699 194.208 144.783 194.057 144.902C193.907 145.02 193.784 145.17 193.697 145.34C193.609 145.51 193.56 145.697 193.551 145.888C193.542 146.079 193.575 146.27 193.646 146.447Z" fill="#FF8B7B"/>
<path opacity="0.2" d="M250.694 274.531L250.889 281.329L256.571 281.42L256.375 274.621L250.694 274.531Z" fill="black"/>
<path d="M229.014 110.172C225.964 114.004 223.186 121.34 222.034 125.528C225.419 131.161 232.05 130.177 232.05 130.177C232.05 130.177 237.536 125.835 239.33 120.642C241.124 115.449 234.402 103.395 229.014 110.172Z" fill="#0364FF"/>
<path d="M264.249 110.982C265.596 120.796 263.551 133.562 265.1 152.164L234.709 154.09C229.181 130.491 228.588 120.586 228.002 114.074C227.89 112.807 228.187 111.537 228.849 110.451C229.511 109.365 230.503 108.518 231.68 108.036C238.842 105.07 251.126 104.63 259.565 106.117C260.761 106.325 261.86 106.909 262.702 107.784C263.544 108.659 264.086 109.779 264.249 110.982Z" fill="#0364FF"/>
<path d="M242.073 117.508C240.739 117.5 239.424 117.835 238.256 118.48C237.087 119.125 236.104 120.06 235.401 121.194H249.514C248.615 120.077 247.484 119.168 246.2 118.532C244.915 117.895 243.507 117.546 242.073 117.508Z" fill="white"/>
<path d="M249.94 121.724H235.086C234.734 122.387 234.464 123.09 234.284 123.818H251.168C250.835 123.078 250.423 122.376 249.94 121.724Z" fill="white"/>
<path d="M251.475 124.488H234.13C234.022 125.11 233.97 125.741 233.977 126.373H252.027C251.895 125.731 251.711 125.1 251.475 124.488Z" fill="white"/>
<path d="M240.985 136.738H247.183C247.904 136.44 248.575 136.033 249.172 135.531H238.716C239.417 136.03 240.179 136.435 240.985 136.738Z" fill="white"/>
<path d="M237.153 134.149H250.477C250.797 133.71 251.075 133.243 251.308 132.753H236.029C236.368 133.246 236.743 133.712 237.153 134.149Z" fill="white"/>
<path d="M235.289 131.552H251.79C251.95 131.049 252.067 130.533 252.139 130.01H234.619C234.805 130.539 235.029 131.055 235.289 131.552Z" fill="white"/>
<path d="M252.167 127.245H234.019C234.015 127.304 234.015 127.362 234.019 127.42C234.074 127.94 234.165 128.455 234.291 128.963H252.222C252.242 128.448 252.223 127.932 252.167 127.42C252.17 127.362 252.17 127.304 252.167 127.245Z" fill="white"/>
<path d="M249.654 91.5359L241.445 98.7811C242.625 101.859 243.099 105.175 238.423 106.641C238.167 106.719 237.951 106.891 237.816 107.122C236.713 109.035 236.482 112.008 241.634 111.548C245.483 111.218 249.075 109.478 251.72 106.662C251.91 106.483 252.024 106.238 252.037 105.978C252.05 105.717 251.961 105.462 251.79 105.266C248.998 102.264 249.186 95.4168 249.654 91.5359Z" fill="#FF8B7B"/>
<path opacity="0.2" d="M246.303 94.4883L241.417 98.781C241.723 99.5054 241.957 100.258 242.115 101.029C244.07 100.659 246.596 98.5646 246.631 96.7149C246.673 95.9582 246.561 95.2009 246.303 94.4883Z" fill="black"/>
<path d="M234.27 81.3938C232.469 83.8787 233.656 89.6372 234.968 90.5446C238.318 88.9741 237.704 79.9769 234.27 81.3938Z" fill="#263238"/>
<path d="M249.8 85.198C249.8 90.8308 250.038 94.1254 247.357 97.1966C243.33 101.81 236.231 99.6954 234.57 94.1812C233.076 89.2184 233.376 80.8424 238.758 78.2459C239.931 77.6589 241.235 77.3842 242.546 77.4483C243.856 77.5125 245.127 77.9134 246.237 78.6122C247.347 79.311 248.258 80.2842 248.882 81.4378C249.506 82.5914 249.823 83.8865 249.8 85.198Z" fill="#FF8B7B"/>
<path d="M249.423 90.775C250.247 88.8904 245.794 90.0142 245.794 90.0142C245.794 90.0142 245.096 83.9835 247.008 81.6382C245.075 82.7899 239.952 82.755 238.891 81.6382C236.734 82.7271 233.872 83.0342 232.043 81.7848C230.214 80.5354 230.305 77.5619 231.485 76.1449C232.985 77.5409 235.114 75.6145 234.165 74.6722C237.166 72.8713 242.255 73.8485 243.239 74.8816C243.008 74.5122 242.93 74.0666 243.024 73.6409C243.118 73.2152 243.376 72.8436 243.742 72.6061C243.742 72.6061 244.335 74.8885 246.136 74.7908C249.319 74.6163 253.046 75.7052 251.622 78.7136C253.898 78.9509 254.986 81.5475 254.309 83.5996C253.632 85.6517 255.67 86.0216 255.901 85.4004C256.669 86.8453 256.054 87.7038 254.721 88.2343C258.211 92.2687 250.771 93.4972 249.388 96.1217C249.375 96.0938 248.425 93.0714 249.423 90.775Z" fill="#263238"/>
<path d="M252.774 90.5166C252.17 91.8068 251.085 92.8091 249.751 93.3086C247.978 93.9578 246.959 92.4152 247.343 90.6772C247.685 89.1067 249.025 86.8801 250.833 86.9848C252.641 87.0895 253.5 88.9322 252.774 90.5166Z" fill="#FF8B7B"/>
<path d="M256.724 214.523C254.896 185.905 258.449 152.548 258.449 152.548L234.717 154.056C236.113 164.84 240.301 199.523 242.025 216.478C243.86 234.479 248.802 278.313 248.802 278.313L258.435 278.46C258.435 278.46 259.321 237.083 256.724 214.523Z" fill="#263238"/>
<path opacity="0.2" d="M256.55 211.431C256.55 211.054 256.515 210.684 256.494 210.307C255.908 197.422 256.299 183.958 256.878 173.279L255.412 174.207C249.172 183.455 253.179 200.857 256.634 213.155C256.606 212.583 256.571 212.004 256.55 211.431Z" fill="black"/>
<path d="M247.895 276.338L248.663 280.261L258.665 280.442L259.056 276.736L247.895 276.338Z" fill="#263238"/>
<path d="M241.69 87.5012C241.69 87.9549 241.494 88.3458 241.194 88.3667C240.894 88.3876 240.629 88.0317 240.601 87.571C240.573 87.1103 240.796 86.7264 241.096 86.7055C241.396 86.6845 241.662 87.0405 241.69 87.5012Z" fill="#263238"/>
<path d="M235.366 88.0039C235.366 88.4576 235.17 88.8485 234.87 88.8624C234.57 88.8764 234.305 88.5274 234.277 88.0737C234.249 87.62 234.472 87.2291 234.772 87.2082C235.073 87.1872 235.338 87.5432 235.366 88.0039Z" fill="#263238"/>
<path d="M237.83 87.7875C237.36 89.2232 236.695 90.5876 235.854 91.8429C236.182 92.0445 236.549 92.1726 236.931 92.2184C237.313 92.2642 237.701 92.2266 238.067 92.1081L237.83 87.7875Z" fill="#FF5652"/>
<path d="M240.07 93.204C240.579 93.1088 241.062 92.9119 241.493 92.6253C241.924 92.3387 242.292 91.9681 242.576 91.5358C242.592 91.5039 242.596 91.467 242.587 91.4323C242.578 91.3976 242.557 91.3674 242.527 91.3474C242.512 91.3389 242.494 91.3336 242.477 91.3318C242.459 91.3301 242.441 91.3318 242.425 91.337C242.408 91.3422 242.392 91.3508 242.378 91.3621C242.365 91.3735 242.354 91.3875 242.346 91.4032C242.021 91.8745 241.592 92.2645 241.092 92.543C240.592 92.8214 240.034 92.9808 239.463 93.0086C239.445 93.0095 239.427 93.014 239.411 93.0219C239.395 93.0299 239.38 93.0411 239.368 93.0548C239.357 93.0685 239.348 93.0845 239.342 93.1018C239.337 93.119 239.335 93.1372 239.337 93.1552C239.337 93.1729 239.341 93.1905 239.348 93.2067C239.355 93.223 239.366 93.2375 239.379 93.2494C239.392 93.2612 239.408 93.2702 239.424 93.2756C239.441 93.281 239.459 93.2828 239.477 93.2808C239.676 93.2669 239.874 93.2413 240.07 93.204Z" fill="#263238"/>
<path d="M243.134 84.6882C243.179 84.68 243.221 84.658 243.253 84.6254C243.281 84.6037 243.305 84.5765 243.322 84.5454C243.339 84.5143 243.349 84.4799 243.353 84.4446C243.356 84.4092 243.352 84.3735 243.341 84.3398C243.33 84.306 243.312 84.275 243.288 84.2485C243.017 83.9188 242.671 83.6592 242.278 83.4916C241.886 83.3239 241.459 83.2531 241.033 83.2852C240.963 83.2956 240.899 83.3325 240.855 83.3883C240.811 83.444 240.79 83.5145 240.796 83.5854C240.8 83.6203 240.812 83.6541 240.829 83.6847C240.847 83.7152 240.87 83.742 240.898 83.7635C240.926 83.7849 240.958 83.8006 240.992 83.8096C241.026 83.8185 241.061 83.8206 241.096 83.8157C241.438 83.7908 241.781 83.8489 242.096 83.985C242.411 84.1211 242.688 84.3312 242.904 84.5975C242.932 84.6307 242.967 84.6564 243.008 84.6723C243.048 84.6881 243.091 84.6936 243.134 84.6882Z" fill="#263238"/>
<path d="M233.83 85.6655C233.875 85.6608 233.917 85.6457 233.955 85.6214C233.992 85.5972 234.024 85.5645 234.046 85.5259C234.203 85.2245 234.427 84.9639 234.703 84.7651C234.978 84.5663 235.296 84.4348 235.631 84.3812C235.67 84.3844 235.709 84.3791 235.746 84.3658C235.783 84.3525 235.816 84.3314 235.844 84.304C235.872 84.2766 235.894 84.2435 235.907 84.2069C235.921 84.1704 235.927 84.1313 235.925 84.0922C235.922 84.0532 235.911 84.0152 235.893 83.9807C235.874 83.9463 235.848 83.9163 235.817 83.8927C235.786 83.8691 235.75 83.8525 235.712 83.8441C235.674 83.8356 235.634 83.8355 235.596 83.8437C235.173 83.9023 234.77 84.0591 234.418 84.3015C234.067 84.5439 233.777 84.8652 233.572 85.2397C233.539 85.302 233.531 85.3746 233.551 85.4423C233.57 85.51 233.615 85.5675 233.676 85.6027C233.721 85.6373 233.774 85.659 233.83 85.6655Z" fill="#263238"/>
<path d="M288.162 288.218L282.467 288.134L279.807 274.942L285.496 275.033L288.162 288.218Z" fill="#FF8B7B"/>
<path d="M287.332 284.086L281.14 284.03C281.09 284.024 281.04 284.03 280.993 284.048C280.945 284.066 280.903 284.095 280.87 284.133C280.836 284.171 280.812 284.216 280.8 284.265C280.787 284.314 280.787 284.365 280.798 284.414L281.559 289.488C281.618 289.765 281.766 290.016 281.98 290.201C282.194 290.386 282.463 290.496 282.746 290.514C284.966 290.514 285.629 290.333 288.435 290.361C291.715 290.361 290.228 290.486 294.074 290.521C296.406 290.521 296.168 288.19 295.121 287.953C291.785 287.213 290.633 285.928 288.839 284.546C288.399 284.235 287.871 284.074 287.332 284.086Z" fill="#0364FF"/>
<path opacity="0.2" d="M279.807 274.949L281.175 281.741L286.871 281.831L285.503 275.033L279.807 274.949Z" fill="black"/>
<path d="M276.603 214.105C272.639 188.23 269.198 162.348 265.114 152.129L244.998 153.4C244.998 153.4 256.313 197.736 262.092 215.682C264.884 234.528 278.767 278.788 278.767 278.788L287.799 278.39C287.799 278.39 280.596 239.979 276.603 214.105Z" fill="#263238"/>
<path d="M277.357 277.197L278.781 281.05L288.791 280.728L288.56 277.029L277.357 277.197Z" fill="#263238"/>
<path d="M265.456 112.978C265.777 113.488 266.015 113.886 266.28 114.332C266.545 114.779 266.762 115.198 266.978 115.638C267.439 116.51 267.878 117.39 268.311 118.269C269.156 120.053 269.908 121.88 270.566 123.741C271.243 125.62 271.802 127.538 272.241 129.486L272.562 130.966L272.82 132.473C272.911 132.969 272.96 133.486 273.016 133.995L273.1 134.763L273.141 135.147V135.237V135.531C273.185 136.368 273.045 137.204 272.73 137.981C272.559 138.408 272.352 138.819 272.108 139.209C271.739 139.791 271.313 140.336 270.838 140.835C270.069 141.635 269.241 142.374 268.36 143.048C266.778 144.247 265.12 145.342 263.397 146.329C260.097 148.236 256.658 149.892 253.109 151.285L251.085 147.529C254.002 145.372 256.99 143.209 259.761 140.982C261.157 139.879 262.497 138.734 263.67 137.597C264.208 137.086 264.706 136.533 265.156 135.942C265.296 135.751 265.42 135.548 265.526 135.335C265.575 135.237 265.463 135.203 265.387 135.817C265.387 135.873 265.387 135.977 265.387 136.068V136.187V136.11L265.324 135.81L265.198 135.203C265.121 134.798 265.045 134.393 264.933 133.988L264.626 132.781L264.27 131.566C263.774 129.954 263.209 128.348 262.56 126.757C261.911 125.165 261.206 123.581 260.466 122.024C260.089 121.25 259.705 120.468 259.3 119.714L258.686 118.583L258.106 117.536L265.456 112.978Z" fill="#FF8B7B"/>
<path d="M253.158 146.72L247.42 147.306L249.884 153.7C249.884 153.7 255.021 152.541 254.903 149.721L253.158 146.72Z" fill="#FF8B7B"/>
<path d="M243.525 151.906L244.775 154C245.017 154.404 245.397 154.706 245.844 154.853C246.292 154.999 246.777 154.978 247.211 154.795L249.884 153.7L247.42 147.278L244.3 149.142C244.066 149.271 243.861 149.445 243.695 149.655C243.53 149.864 243.407 150.105 243.335 150.362C243.263 150.619 243.243 150.888 243.275 151.153C243.308 151.418 243.393 151.674 243.525 151.906Z" fill="#FF8B7B"/>
<path d="M249.521 116.035C251.189 120.565 257.122 126.505 260.11 129.591C266.741 129.507 271.18 122.967 271.18 122.967C271.18 122.967 268.165 111.491 262.274 107.345C257.841 104.232 246.583 108.022 249.521 116.035Z" fill="#0364FF"/>
<path d="M237.32 211.159H99.6464V223.946H237.32V211.159Z" fill="#263238"/>
<path opacity="0.2" d="M237.32 211.159H198.239V223.946H237.32V211.159Z" fill="black"/>
<path d="M107.89 223.946H99.6464V292.999H107.89V223.946Z" fill="#263238"/>
<path opacity="0.2" d="M107.883 227.527L99.6464 225.74V223.946H107.883V227.527Z" fill="black"/>
<path d="M237.327 223.946H229.084V292.999H237.327V223.946Z" fill="#263238"/>
<path opacity="0.2" d="M237.327 223.946H229.084V292.999H237.327V223.946Z" fill="black"/>
<path d="M206.482 223.946H198.239V292.999H206.482V223.946Z" fill="#263238"/>
<path opacity="0.2" d="M206.482 227.527L198.239 225.74V223.946H206.482V227.527Z" fill="black"/>
<path d="M133.688 223.946H125.445V292.999H133.688V223.946Z" fill="#263238"/>
<path opacity="0.2" d="M133.688 223.946H125.445V292.999H133.688V223.946Z" fill="black"/>
<path d="M223.332 146.943H120.119L110.954 187.078H214.167L223.332 146.943Z" fill="#263238"/>
<path d="M223.332 146.943H225.691L216.527 187.078H214.167L223.332 146.943Z" fill="black"/>
<path d="M238.158 162.997H89.3928C84.7669 162.997 81.0168 166.747 81.0168 171.373V202.783C81.0168 207.409 84.7669 211.159 89.3928 211.159H238.158C242.783 211.159 246.534 207.409 246.534 202.783V171.373C246.534 166.747 242.783 162.997 238.158 162.997Z" fill="#0364FF"/>
<path opacity="0.2" d="M238.165 162.997H219.144C214.518 162.997 210.768 166.747 210.768 171.373V202.783C210.768 207.409 214.518 211.159 219.144 211.159H238.165C242.79 211.159 246.541 207.409 246.541 202.783V171.373C246.541 166.747 242.79 162.997 238.165 162.997Z" fill="black"/>
<path opacity="0.2" d="M204.654 175.442H87.1313C86.7611 175.442 86.406 175.295 86.1442 175.033C85.8824 174.772 85.7353 174.417 85.7353 174.046C85.7353 173.676 85.8824 173.321 86.1442 173.059C86.406 172.797 86.7611 172.65 87.1313 172.65H204.654C205.024 172.65 205.379 172.797 205.641 173.059C205.903 173.321 206.05 173.676 206.05 174.046C206.05 174.417 205.903 174.772 205.641 175.033C205.379 175.295 205.024 175.442 204.654 175.442Z" fill="black"/>
<path d="M197.813 188.355H204.877C205.184 188.354 205.477 188.231 205.694 188.014C205.911 187.797 206.034 187.503 206.036 187.197C206.036 186.889 205.914 186.593 205.697 186.375C205.48 186.156 205.185 186.033 204.877 186.031H197.813C197.505 186.033 197.211 186.156 196.993 186.375C196.776 186.593 196.654 186.889 196.654 187.197C196.656 187.503 196.779 187.797 196.996 188.014C197.213 188.231 197.506 188.354 197.813 188.355Z" fill="white"/>
<path d="M197.813 193.304H204.877C205.185 193.302 205.48 193.179 205.697 192.96C205.914 192.742 206.036 192.446 206.036 192.138C206.034 191.832 205.911 191.538 205.694 191.321C205.477 191.104 205.184 190.981 204.877 190.98H197.813C197.506 190.981 197.213 191.104 196.996 191.321C196.779 191.538 196.656 191.832 196.654 192.138C196.654 192.446 196.776 192.742 196.993 192.96C197.211 193.179 197.505 193.302 197.813 193.304Z" fill="white"/>
<path d="M197.813 198.232H204.877C205.185 198.23 205.48 198.107 205.697 197.888C205.914 197.67 206.036 197.374 206.036 197.066C206.036 196.758 205.914 196.463 205.697 196.245C205.48 196.026 205.185 195.903 204.877 195.901H197.813C197.505 195.903 197.211 196.026 196.993 196.245C196.776 196.463 196.654 196.758 196.654 197.066C196.654 197.374 196.776 197.67 196.993 197.888C197.211 198.107 197.505 198.23 197.813 198.232Z" fill="white"/>
<path d="M114.549 174.046C115.91 162.271 107.464 152.729 95.7028 152.729H181.689C193.465 152.729 201.931 162.271 200.535 174.046H114.549Z" fill="#0364FF"/>
<g opacity="0.3">
<path opacity="0.3" d="M114.549 174.046C115.91 162.271 107.464 152.729 95.7028 152.729H181.689C193.465 152.729 201.931 162.271 200.535 174.046H114.549Z" fill="white"/>
</g>
<path d="M95.6888 152.729H181.689C169.921 152.729 159.277 162.271 157.915 174.046L148.143 258.735C146.789 270.51 136.145 280.052 124.37 280.052H81.0238C69.2485 280.052 60.7818 270.51 62.1778 258.735L71.9498 174.046C73.29 162.271 83.9135 152.729 95.6888 152.729Z" fill="#0364FF"/>
<path opacity="0.7" d="M95.6888 152.729H181.689C169.921 152.729 159.277 162.271 157.915 174.046L148.143 258.735C146.789 270.51 136.145 280.052 124.37 280.052H81.0238C69.2485 280.052 60.7818 270.51 62.1778 258.735L71.9498 174.046C73.29 162.271 83.9135 152.729 95.6888 152.729Z" fill="white"/>
<path d="M105.531 258.734C104.17 270.51 112.615 280.051 124.377 280.051H38.39C26.6147 280.051 18.148 270.51 19.544 258.734H105.531Z" fill="#0364FF"/>
<path opacity="0.5" d="M105.531 258.734C104.17 270.51 112.615 280.051 124.377 280.051H38.39C26.6147 280.051 18.148 270.51 19.544 258.734H105.531Z" fill="white"/>
<path d="M78.176 181.41H80.2002L79.4464 187.943H77.4221L78.176 181.41Z" fill="#0364FF"/>
<path d="M81.6659 181.41H83.5505L85.5957 185.026L86.0075 181.41H87.913L87.1592 187.943H85.2606L83.2225 184.356L82.8106 187.943H80.9121L81.6659 181.41Z" fill="#0364FF"/>
<path d="M88.5831 181.41H90.6771L91.6055 186.115L93.5948 181.41H95.6469L92.464 187.943H90.2793L88.5831 181.41Z" fill="#0364FF"/>
<path d="M95.3816 184.684C95.4487 183.735 95.8697 182.845 96.5612 182.192C97.278 181.578 98.2009 181.259 99.1438 181.299C99.586 181.262 100.031 181.322 100.448 181.473C100.865 181.625 101.244 181.866 101.559 182.178C101.829 182.519 102.023 182.915 102.126 183.338C102.23 183.76 102.241 184.2 102.159 184.628C102.102 185.292 101.894 185.934 101.552 186.506C101.247 186.991 100.818 187.386 100.31 187.65C99.7368 187.908 99.1177 188.045 98.49 188.055C97.8623 188.064 97.2392 187.946 96.659 187.706C96.1959 187.46 95.8276 187.067 95.612 186.589C95.3622 185.987 95.2825 185.328 95.3816 184.684ZM97.3988 184.684C97.2992 185.158 97.371 185.653 97.6013 186.08C97.7134 186.224 97.8591 186.339 98.0258 186.415C98.1924 186.49 98.3749 186.524 98.5575 186.513C98.7532 186.52 98.9482 186.485 99.1298 186.412C99.3114 186.338 99.4755 186.228 99.6115 186.087C99.9431 185.648 100.129 185.115 100.142 184.565C100.241 184.105 100.164 183.624 99.9256 183.218C99.8109 183.075 99.6635 182.962 99.4959 182.888C99.3282 182.814 99.1453 182.781 98.9624 182.792C98.7708 182.79 98.5808 182.827 98.4043 182.902C98.2278 182.976 98.0685 183.086 97.9363 183.225C97.6026 183.642 97.4139 184.157 97.3988 184.691V184.684Z" fill="#0364FF"/>
<path d="M103.695 181.41H105.719L104.965 187.943H102.941L103.695 181.41Z" fill="#0364FF"/>
<path d="M111.073 185.27L112.776 185.808C112.625 186.263 112.388 186.684 112.078 187.05C111.796 187.378 111.443 187.636 111.045 187.804C110.573 187.984 110.07 188.07 109.565 188.055C108.982 188.078 108.401 187.973 107.862 187.748C107.406 187.508 107.04 187.126 106.822 186.659C106.542 186.034 106.452 185.339 106.564 184.663C106.625 183.718 107.035 182.83 107.715 182.171C108.418 181.568 109.324 181.256 110.249 181.299C110.915 181.254 111.578 181.43 112.134 181.801C112.6 182.191 112.91 182.736 113.006 183.337L111.177 183.728C111.158 183.575 111.108 183.428 111.031 183.295C110.942 183.145 110.814 183.022 110.661 182.939C110.495 182.852 110.31 182.809 110.123 182.813C109.908 182.809 109.694 182.857 109.501 182.953C109.308 183.049 109.141 183.19 109.014 183.365C108.759 183.747 108.612 184.19 108.588 184.649C108.473 185.149 108.53 185.672 108.748 186.136C108.848 186.273 108.981 186.382 109.135 186.453C109.289 186.524 109.459 186.554 109.628 186.541C109.794 186.55 109.96 186.526 110.117 186.471C110.274 186.416 110.418 186.331 110.542 186.219C110.788 185.947 110.969 185.622 111.073 185.27Z" fill="#0364FF"/>
<path d="M114.263 181.41H119.672L119.512 182.806H116.119L116.001 183.846H119.142L118.988 185.179H115.868L115.721 186.464H119.211L119.044 187.943H113.537L114.263 181.41Z" fill="#0364FF"/>
<path d="M147.808 204.995H74.8953L75.8446 196.731H148.758L147.808 204.995Z" fill="#0364FF"/>
<path opacity="0.8" d="M147.808 204.996H74.8954L74.1206 211.738H147.034L147.808 204.996Z" fill="white"/>
<path d="M142.769 248.746H120.579L121.033 244.76H143.23L142.769 248.746Z" fill="#0364FF"/>
<path opacity="0.8" d="M142.769 248.746H120.579L120.203 252.006H142.392L142.769 248.746Z" fill="white"/>
<path opacity="0.5" d="M146.252 218.488H73.3388L74.1206 211.738H147.034L146.252 218.488Z" fill="white"/>
<path opacity="0.8" d="M146.252 218.488H73.3388L72.564 225.238H145.477L146.252 218.488Z" fill="white"/>
<path opacity="0.5" d="M144.702 231.98H71.7823L72.564 225.238H145.477L144.702 231.98Z" fill="white"/>
<path opacity="0.8" d="M144.702 231.98H71.7823L71.0075 238.73H143.921L144.702 231.98Z" fill="white"/>
</svg>
