<svg width="381" height="381" viewBox="0 0 381 381" fill="none" xmlns="http://www.w3.org/2000/svg">
<path d="M75.6206 304.846C86.1666 296.212 87.5306 281.704 86.0371 268.887C85.7856 266.746 85.839 264.467 84.6503 262.669C83.4615 260.871 80.9469 259.781 79.0724 260.848C77.5484 261.732 76.9693 263.644 76.1921 265.252C75.1471 267.412 73.5151 269.234 71.4829 270.51C70.157 271.333 68.4806 271.904 67.0481 271.272C65.0897 270.403 64.663 267.866 64.503 265.732C64.1982 261.755 63.8985 257.774 63.6038 253.792C63.5537 251.647 63.1574 249.524 62.4303 247.505C61.5921 245.539 59.9538 243.779 57.8583 243.383C55.7628 242.987 53.2863 244.358 53.0425 246.484C53.0327 247.376 53.0836 248.267 53.1949 249.151C53.2382 249.593 53.1517 250.039 52.946 250.432C52.7403 250.826 52.4243 251.151 52.0367 251.369C51.1985 251.689 50.2841 251.155 49.583 250.607C47.1751 248.641 45.4301 245.989 43.7918 243.345C42.1535 240.701 40.5457 238.011 38.3283 235.801C36.1109 233.591 33.1543 231.991 30.0453 232.067C26.9364 232.143 23.7893 234.315 23.2559 237.401C22.7225 240.487 24.7418 243.383 26.8754 245.654C30.0532 249.008 33.6974 251.887 37.6958 254.203C38.4621 254.545 39.0999 255.121 39.517 255.849C40.1037 257.236 38.8541 258.76 37.4748 259.347C35.9051 260.01 34.1373 259.987 32.4685 260.322C30.7997 260.657 29.0319 261.541 28.5213 263.164C27.8203 265.45 29.8548 267.553 31.7903 268.902C35.6908 271.603 40.0224 273.621 44.5995 274.869C46.2378 275.311 47.9523 275.676 49.3239 276.675C50.6955 277.673 51.6099 279.524 50.9775 281.094C50.345 282.664 48.3791 283.304 46.6874 283.136C44.9958 282.969 43.4337 282.199 41.7954 281.742C38.7474 280.881 34.9374 281.399 33.2153 284.089C32.706 285.006 32.4193 286.03 32.3783 287.078C32.3373 288.126 32.543 289.17 32.979 290.124C33.866 292.021 35.1254 293.721 36.6824 295.123C41.869 300.331 48.3415 304.075 55.4428 305.973C62.5294 307.764 68.9683 307.878 75.6206 304.846Z" fill="#EBEBEB"/>
<path d="M76.5426 314.363C75.4473 308.452 73.7808 302.662 71.5667 297.073C68.8309 290.247 65.6988 283.586 62.1865 277.124L59.4357 272.034C58.5366 270.358 57.645 268.696 56.6697 267.127C54.8005 264.118 52.7653 261.215 50.5737 258.432C48.4934 255.758 46.4131 253.289 44.4776 251.003C42.5422 248.717 40.6677 246.621 38.8617 244.777C36.0516 241.862 33.0171 239.171 29.7863 236.731C28.6433 235.862 27.7289 235.207 27.1117 234.795L26.403 234.307C26.3221 234.252 26.2381 234.201 26.1516 234.155C26.1516 234.155 26.2277 234.224 26.3801 234.338L27.0736 234.848C27.6832 235.29 28.5976 235.946 29.7101 236.83C32.904 239.303 35.9071 242.013 38.6941 244.937C40.4695 246.781 42.3288 248.884 44.2795 251.178C46.2303 253.472 48.2877 255.941 50.3755 258.615C52.5664 261.393 54.6016 264.291 56.4715 267.294C57.4393 268.856 58.3232 270.51 59.2224 272.186L61.9503 277.284C65.4334 283.737 68.5523 290.379 71.2924 297.18C73.5091 302.749 75.193 308.515 76.3216 314.401" fill="#E0E0E0"/>
<path d="M56.6089 267.089C56.6804 266.784 56.7212 266.472 56.7308 266.159C56.7917 265.565 56.8527 264.688 56.9137 263.614C57.0432 261.465 57.1194 258.493 57.1956 255.232C57.2718 251.971 57.3937 248.984 57.569 246.85C57.6452 245.776 57.729 244.914 57.79 244.312C57.8344 244.005 57.8547 243.694 57.8509 243.383C57.7567 243.68 57.6929 243.987 57.6604 244.297C57.5614 244.892 57.4471 245.76 57.3404 246.827C57.1042 248.976 56.9441 251.948 56.8679 255.209C56.7917 258.47 56.7384 261.404 56.6927 263.591C56.6546 264.62 56.6317 265.481 56.6089 266.136C56.5781 266.453 56.5781 266.772 56.6089 267.089Z" fill="#E0E0E0"/>
<path d="M28.392 264.254H28.6815H29.5121C30.2284 264.254 31.2647 264.254 32.5601 264.292C35.128 264.345 38.6561 264.544 42.5804 264.947C46.5047 265.351 49.9947 265.869 52.5245 266.319C53.7894 266.54 54.8105 266.738 55.5192 266.875L56.3269 267.035C56.5174 267.035 56.6165 267.081 56.6165 267.035C56.5307 266.99 56.438 266.959 56.3421 266.944L55.542 266.723C54.8486 266.548 53.8275 266.311 52.5626 266.068C50.0404 265.557 46.5199 265.001 42.6109 264.589C38.7018 264.178 35.1433 264.025 32.5601 264.033C31.2723 264.033 30.2741 264.033 29.5121 264.102L28.6892 264.155C28.5855 264.172 28.4852 264.206 28.392 264.254Z" fill="#E0E0E0"/>
<path d="M71.2163 296.586C71.2762 296.47 71.3272 296.351 71.3687 296.227C71.4754 295.961 71.5973 295.618 71.7573 295.199C72.0926 294.3 72.5193 292.981 73.0832 291.389C74.1576 288.135 75.5063 283.593 76.9389 278.557C78.3715 273.52 79.6745 268.978 80.6956 265.709C81.2061 264.109 81.6176 262.799 81.9224 261.838C82.0595 261.412 82.1662 261.076 82.25 260.787C82.2968 260.666 82.3301 260.541 82.3491 260.413C82.2811 260.523 82.2274 260.641 82.1891 260.764C82.09 261.038 81.9605 261.381 81.8005 261.8C81.4652 262.699 81.0385 264.01 80.4822 265.61C79.4002 268.864 78.0514 273.406 76.6265 278.442C75.2015 283.479 73.9138 288.036 72.8622 291.29C72.3593 292.89 71.9402 294.201 71.643 295.153C71.5058 295.587 71.3992 295.915 71.3077 296.212C71.2651 296.333 71.2345 296.458 71.2163 296.586Z" fill="#E0E0E0"/>
<path d="M33.3144 287.876C33.4324 287.933 33.5582 287.971 33.6877 287.99L34.7926 288.249L38.8617 289.179C42.2907 289.941 47.0151 291.107 52.2348 292.387C57.4545 293.667 62.1865 294.78 65.6308 295.511C67.3529 295.877 68.7474 296.159 69.7151 296.334L70.8276 296.532C70.9578 296.562 71.0904 296.58 71.2239 296.586C71.1028 296.53 70.9745 296.492 70.8429 296.471L69.738 296.212L65.6765 295.283C62.2475 294.521 57.5231 293.355 52.311 292.075C47.0989 290.795 42.3593 289.682 38.9151 288.951C37.1929 288.585 35.7985 288.303 34.8307 288.128L33.7106 287.922C33.58 287.896 33.4475 287.88 33.3144 287.876Z" fill="#E0E0E0"/>
<path d="M175.724 87.1073L120.631 103.678L131.801 140.813L186.894 124.242L175.724 87.1073Z" fill="white"/>
<path d="M186.903 124.206C186.903 124.206 186.819 123.97 186.682 123.528C186.545 123.086 186.339 122.415 186.073 121.562C185.547 119.84 184.77 117.318 183.787 114.102C181.821 107.648 179.009 98.3895 175.58 87.1195L175.778 87.2262L120.701 103.861L120.838 103.609L131.994 140.749L131.765 140.627L171.45 128.778L182.811 125.418L185.859 124.526L186.621 124.297L186.896 124.229L186.652 124.313L185.89 124.557L182.903 125.471L171.61 128.923L131.864 140.97L131.689 141.023L131.635 140.848C128.229 129.532 124.434 116.952 120.449 103.716L120.396 103.525L120.579 103.472L175.679 86.9366L175.831 86.8909L175.877 87.0433C179.253 98.3742 182.019 107.678 183.954 114.163C184.899 117.378 185.646 119.893 186.149 121.623C186.4 122.461 186.583 123.109 186.72 123.566C186.858 124.023 186.903 124.206 186.903 124.206Z" fill="#E0E0E0"/>
<path d="M175.732 87.0967C175.712 87.1548 175.686 87.2109 175.656 87.2643L175.397 87.7367C175.145 88.1711 174.802 88.7731 174.376 89.5351L170.528 96.1416L157.619 118.034L157.528 118.179L157.375 118.118L155.691 117.47L130.873 107.785L123.367 104.813L121.341 103.983L120.815 103.762C120.752 103.741 120.693 103.71 120.639 103.67C120.706 103.676 120.77 103.694 120.83 103.723L121.363 103.906L123.428 104.668L130.972 107.526L155.829 117.097L157.52 117.752L157.276 117.836C162.382 109.263 166.969 101.582 170.291 95.9968L174.246 89.4589C174.703 88.6969 175.069 88.1254 175.328 87.691L175.625 87.2414C175.686 87.1424 175.724 87.089 175.732 87.0967Z" fill="#E0E0E0"/>
<path d="M336.042 235.458C336.042 235.458 332.468 231.922 325.503 240.754C321.852 245.225 318.499 249.931 315.468 254.843C315.468 254.843 313.73 256.642 312.587 255.011C311.444 253.38 310.263 249.174 307.718 249.387C305.173 249.601 303.71 252.222 303.367 256.405C303.024 260.589 301.95 269.74 301.843 270.563C301.737 271.386 301.081 272.461 300.098 271.478C299.115 270.495 294.17 262.128 290.322 264.704C286.474 267.279 287.449 279.121 287.533 280.408C287.617 281.696 287.266 282.184 286.626 282.367C285.986 282.55 284.576 279.578 283.06 277.254C281.544 274.93 279.387 272.484 277.299 274.168C275.211 275.852 272.994 284.135 278.267 299.352L281.17 306.21L288.6 307.269C304.655 308.557 312.123 304.343 313.227 301.897C314.332 299.451 311.437 297.972 308.8 297.089C306.164 296.205 302.933 295.565 302.956 294.917C302.979 294.269 303.352 293.797 304.624 293.553C305.897 293.309 317.578 291.267 319.102 286.916C320.626 282.565 311.292 279.837 310.096 279.151C308.899 278.465 309.783 277.528 310.545 277.231C311.307 276.934 319.903 273.588 323.873 272.217C327.843 270.845 330.03 268.849 329.58 266.243C329.13 263.637 324.779 263.644 322.912 262.936C321.046 262.227 322.356 260.109 322.356 260.109C326.37 255.954 330.105 251.537 333.535 246.888C340.339 237.927 335.905 235.313 335.905 235.313" fill="#EBEBEB"/>
<path d="M329.763 243.322C329.729 243.389 329.688 243.453 329.641 243.512L329.252 244.061C328.887 244.549 328.376 245.242 327.728 246.126C326.395 247.917 324.452 250.492 322.029 253.662C317.19 260.002 310.423 268.704 302.91 278.275L283.692 302.819L277.894 310.279L276.309 312.298L275.889 312.816C275.79 312.931 275.745 312.992 275.737 312.984C275.771 312.917 275.812 312.853 275.859 312.793L276.248 312.252L277.772 310.18C279.097 308.389 281.048 305.814 283.464 302.644C288.302 296.304 295.077 287.602 302.598 278.031C310.118 268.46 316.877 259.789 321.808 253.487C324.238 250.355 326.22 247.818 327.606 246.035C328.277 245.174 328.81 244.511 329.184 244.008L329.61 243.49C329.702 243.375 329.755 243.314 329.763 243.322Z" fill="#E0E0E0"/>
<path d="M309.135 255.339C309.301 255.992 309.396 256.661 309.417 257.335C309.532 258.569 309.631 260.284 309.699 262.181C309.768 264.079 309.798 265.648 309.836 267.028C309.893 267.697 309.893 268.37 309.836 269.039C309.671 268.386 309.579 267.717 309.562 267.043C309.463 265.801 309.379 264.086 309.311 262.197C309.242 260.307 309.196 258.73 309.143 257.35C309.082 256.681 309.08 256.008 309.135 255.339Z" fill="#E0E0E0"/>
<path d="M310.477 269.306C313.084 268.885 315.711 268.598 318.348 268.445C322.699 268.087 326.242 267.881 326.25 267.988C323.642 268.405 321.015 268.689 318.379 268.841C314.028 269.207 310.492 269.413 310.477 269.306Z" fill="#E0E0E0"/>
<path d="M297.835 283.997C298.519 284.05 299.197 284.16 299.862 284.325C301.112 284.561 302.826 284.889 304.731 285.194C306.636 285.499 308.366 285.727 309.623 285.887C310.309 285.942 310.989 286.051 311.658 286.215C310.972 286.274 310.282 286.258 309.6 286.169C308.328 286.078 306.552 285.895 304.67 285.582C302.788 285.27 301.035 284.904 299.801 284.599C299.126 284.47 298.467 284.268 297.835 283.997Z" fill="#E0E0E0"/>
<path d="M293.842 271.638C294.158 272.19 294.414 272.775 294.604 273.383C295.008 274.488 295.549 276.012 296.128 277.703C296.707 279.395 297.195 280.934 297.538 282.062C297.753 282.658 297.911 283.273 298.01 283.898C297.689 283.346 297.434 282.757 297.248 282.146C296.837 281.048 296.303 279.524 295.724 277.833C295.145 276.141 294.657 274.594 294.315 273.474C294.091 272.881 293.932 272.265 293.842 271.638Z" fill="#E0E0E0"/>
<path d="M281.033 283.19C281.4 283.914 281.711 284.666 281.963 285.438C282.488 286.847 283.189 288.798 283.944 290.962C284.698 293.126 285.353 295.092 285.818 296.517C286.105 297.279 286.327 298.064 286.481 298.864C286.108 298.129 285.797 297.365 285.552 296.578C285.026 295.176 284.325 293.225 283.57 291.061C282.816 288.897 282.153 286.931 281.696 285.499C281.411 284.749 281.189 283.977 281.033 283.19Z" fill="#E0E0E0"/>
<path d="M286.458 298.453C287.326 298.502 288.19 298.614 289.042 298.788C290.627 299.039 292.852 299.382 295.252 299.702C297.652 300.022 299.885 300.266 301.478 300.464C302.345 300.521 303.208 300.636 304.061 300.807C303.192 300.86 302.32 300.84 301.455 300.746C299.847 300.64 297.645 300.441 295.199 300.114C292.753 299.786 290.566 299.405 288.988 299.093C288.129 298.949 287.283 298.735 286.458 298.453Z" fill="#E0E0E0"/>
<path d="M302.407 160.487L300.601 219.583L343.787 220.902L345.592 161.806L302.407 160.487Z" fill="#F5F5F5"/>
<path d="M294.456 168.343L292.651 227.439L335.836 228.758L337.642 169.662L294.456 168.343Z" fill="white"/>
<path d="M335.828 228.745C335.823 228.648 335.823 228.552 335.828 228.455C335.828 228.257 335.828 227.983 335.828 227.625C335.828 226.863 335.867 225.796 335.905 224.394C335.981 221.567 336.088 217.46 336.225 212.255C336.522 201.854 336.941 187.109 337.436 169.652L337.612 169.835L294.429 168.532L294.635 168.341C293.941 190.439 293.309 210.853 292.791 227.434L292.631 227.267L323.995 228.311L332.72 228.615L335.006 228.707L335.806 228.745H335.044L332.758 228.692L324.071 228.471L292.608 227.594H292.448V227.434C292.943 210.845 293.553 190.409 294.216 168.334V168.135H294.421L337.596 169.477H337.779V169.659C337.208 187.185 336.728 201.953 336.385 212.377C336.209 217.559 336.065 221.658 335.973 224.47C335.92 225.857 335.882 226.924 335.851 227.663C335.851 228.013 335.851 228.288 335.813 228.478C335.775 228.669 335.828 228.745 335.828 228.745Z" fill="#E0E0E0"/>
<path d="M320.802 182.011C320.802 182.126 316.1 182.065 310.309 181.889C304.518 181.714 299.816 181.478 299.816 181.371C299.816 181.265 304.525 181.318 310.317 181.493C316.108 181.668 320.802 181.905 320.802 182.011Z" fill="#E0E0E0"/>
<path d="M331.958 187.498C331.958 187.604 324.719 187.498 315.788 187.201C306.857 186.903 299.618 186.614 299.626 186.507C299.633 186.4 306.865 186.507 315.803 186.804C324.741 187.102 331.965 187.383 331.958 187.498Z" fill="#E0E0E0"/>
<path d="M331.798 192.855C331.798 192.961 324.551 192.855 315.62 192.558C306.69 192.26 299.458 191.971 299.458 191.864C299.458 191.757 306.705 191.864 315.635 192.161C324.566 192.458 331.798 192.74 331.798 192.855Z" fill="#E0E0E0"/>
<path d="M331.63 198.212C331.63 198.318 324.391 198.212 315.46 197.914C306.529 197.617 299.298 197.328 299.298 197.221C299.298 197.114 306.545 197.221 315.475 197.518C324.406 197.815 331.637 198.12 331.63 198.212Z" fill="#E0E0E0"/>
<path d="M331.47 203.568C331.47 203.675 324.223 203.568 315.3 203.271C306.377 202.974 299.13 202.684 299.13 202.578C299.13 202.471 306.377 202.578 315.308 202.875C324.238 203.172 331.47 203.454 331.47 203.568Z" fill="#E0E0E0"/>
<path d="M331.31 208.925C331.31 209.032 324.063 208.925 315.132 208.628C306.202 208.331 298.97 208.041 298.97 207.935C298.97 207.828 306.217 207.935 315.148 208.232C324.078 208.529 331.31 208.788 331.31 208.925Z" fill="#E0E0E0"/>
<path d="M331.142 214.282C331.142 214.389 323.895 214.282 314.972 213.985C306.049 213.688 298.803 213.398 298.81 213.291C298.818 213.185 306.049 213.291 314.98 213.589C323.911 213.886 331.15 214.168 331.142 214.282Z" fill="#E0E0E0"/>
<path d="M316.024 219.182C316.024 219.288 312.13 219.258 307.33 219.113C302.529 218.968 298.643 218.755 298.643 218.648C298.643 218.542 302.537 218.572 307.337 218.717C312.138 218.862 316.024 219.067 316.024 219.182Z" fill="#E0E0E0"/>
<path d="M207.914 114.275L194.401 148.214L236.85 165.115L250.363 131.176L207.914 114.275Z" fill="white"/>
<path d="M250.355 131.178L250.149 131.102L249.555 130.873L247.269 129.959L238.559 126.492L207.881 114.3L207.972 114.262L194.47 148.194L194.424 148.087L236.867 165.003H236.784C240.868 154.777 244.259 146.304 246.621 140.383C247.81 137.427 248.739 135.103 249.372 133.525L250.134 131.719L250.385 131.094L250.149 131.712C249.989 132.123 249.753 132.725 249.44 133.51C248.816 135.095 247.916 137.419 246.728 140.368C244.373 146.296 240.997 154.793 236.936 165.042V165.103H236.875L194.371 148.285H194.294V148.209C199.179 135.956 203.789 124.374 207.812 114.277V114.209H207.873L238.628 126.492L247.292 129.967L249.578 130.881L250.164 131.117L250.355 131.178Z" fill="#E0E0E0"/>
<path d="M208.495 117.031L196.685 146.695L236.153 162.409L247.963 132.746L208.495 117.031Z" fill="#EBEBEB"/>
<path d="M196.84 146.784L217.97 133.83L221.917 148.765L230.162 144.91L236.311 162.497L196.84 146.784Z" fill="#E0E0E0"/>
<path d="M231.031 136.398C230.786 137.013 230.364 137.541 229.819 137.917C229.274 138.292 228.63 138.497 227.968 138.506C227.306 138.515 226.657 138.327 226.102 137.967C225.546 137.607 225.111 137.09 224.849 136.482C224.588 135.874 224.513 135.202 224.633 134.551C224.754 133.901 225.065 133.3 225.527 132.826C225.989 132.352 226.581 132.026 227.228 131.889C227.876 131.751 228.549 131.809 229.164 132.055C229.572 132.217 229.944 132.458 230.259 132.764C230.574 133.07 230.825 133.435 230.999 133.839C231.172 134.242 231.264 134.676 231.27 135.115C231.275 135.554 231.194 135.99 231.031 136.398Z" fill="#E0E0E0"/>
<path d="M98.6406 183.535C98.9274 183.654 99.2379 183.703 99.5474 183.68C99.9182 183.638 100.263 183.468 100.523 183.2C100.824 182.783 101.092 182.342 101.323 181.882L106.268 173.256L107.914 170.406L108.79 168.882C108.943 168.639 109.075 168.384 109.187 168.12C109.267 167.857 109.267 167.576 109.187 167.312C109.118 167.041 108.966 166.799 108.752 166.619C108.508 166.446 108.254 166.288 107.99 166.147L106.291 165.202L102.755 163.22L87.0125 154.389C86.7019 154.223 86.3408 154.178 85.9989 154.262C85.6569 154.346 85.3584 154.555 85.1608 154.846L83.9797 156.873C83.2177 158.214 82.4557 159.548 81.6937 160.851L77.2741 168.402C77.0988 168.699 76.9236 168.996 76.7559 169.294C76.5862 169.551 76.4985 169.854 76.5045 170.162C76.5165 170.463 76.6262 170.752 76.8169 170.985C77.0333 171.209 77.2924 171.388 77.5789 171.511L80.9088 173.401L86.8677 176.784L95.4935 181.714L97.8329 183.071L98.4348 183.429C98.572 183.513 98.6406 183.558 98.633 183.566L98.4196 183.467L97.7948 183.139L95.4249 181.844L86.7305 177.028L80.7717 173.652L77.4341 171.785C77.1107 171.643 76.8182 171.438 76.5731 171.183C76.335 170.889 76.1986 170.525 76.1844 170.147C76.1681 169.77 76.2693 169.397 76.474 169.08C76.6416 168.783 76.8169 168.486 76.9922 168.189L81.3584 160.653L83.6444 156.675L84.8408 154.625C85.093 154.251 85.475 153.984 85.9128 153.876C86.3506 153.767 86.813 153.825 87.2106 154.038L102.938 162.9L106.474 164.897L108.158 165.857C108.449 166.005 108.729 166.173 108.996 166.36C109.262 166.587 109.451 166.89 109.537 167.229C109.629 167.552 109.629 167.895 109.537 168.219C109.416 168.508 109.27 168.785 109.103 169.05L108.211 170.574L106.55 173.416C104.424 177.013 102.702 179.931 101.498 181.981C101.248 182.442 100.963 182.882 100.645 183.299C100.361 183.577 99.9889 183.747 99.5931 183.779C99.3537 183.797 99.1135 183.758 98.892 183.665C98.8027 183.634 98.718 183.59 98.6406 183.535Z" fill="#E0E0E0"/>
<path d="M94.6171 167.914L96.5374 171.321L92.5749 171.397L88.6125 171.465L90.6547 167.983L92.6969 164.501L94.6171 167.914Z" fill="#E0E0E0"/>
<path d="M353.035 313.182C353.035 313.296 280.149 313.388 190.272 313.388C100.394 313.388 27.4855 313.311 27.4855 313.182C27.4855 313.052 100.356 312.969 190.272 312.969C280.188 312.969 353.035 313.083 353.035 313.182Z" fill="#263238"/>
<path d="M108.059 264.787L85.0542 241.676L96.6213 220.431C108.188 205.618 132.679 206.571 132.679 206.571C144.761 205.749 156.899 206.495 168.79 208.788C188.244 212.598 186.674 225.445 186.674 225.445L189.281 273.124L192.077 311.948L120.335 313.395L108.059 264.818" fill="#0364FF"/>
<path d="M146.708 311.125L82.4481 311.887C78.9082 311.928 75.4159 311.068 72.2992 309.389C69.1826 307.71 66.5438 305.267 64.6308 302.288C62.7179 299.309 61.5934 295.893 61.3631 292.36C61.1328 288.828 61.8043 285.294 63.3143 282.092L90.7921 231.137L115.824 248.054L98.7473 283.464L150.761 284.394L146.708 311.125Z" fill="#0364FF"/>
<path d="M184.404 217.673L235.968 297.287L205.885 299.253C205.885 299.253 187.917 270.944 188.321 271.523C189.037 272.59 184.404 217.673 184.404 217.673Z" fill="#0364FF"/>
<path d="M114.528 252.634C114.53 252.494 114.553 252.355 114.597 252.222C114.673 251.917 114.757 251.536 114.871 251.064C115.108 250.066 115.458 248.618 115.816 246.819C116.174 245.021 116.578 242.857 116.83 240.449C117.139 237.84 117.139 235.203 116.83 232.593C116.416 230.005 115.514 227.52 114.17 225.27C113.091 223.418 111.813 221.688 110.36 220.111C109.381 219.034 108.338 218.016 107.236 217.063C106.816 216.735 106.414 216.384 106.032 216.012C106.156 216.073 106.274 216.147 106.383 216.233C106.596 216.393 106.939 216.614 107.335 216.941C108.481 217.846 109.561 218.832 110.566 219.89C112.068 221.455 113.387 223.186 114.498 225.049C115.889 227.334 116.82 229.868 117.241 232.509C117.543 235.151 117.522 237.82 117.18 240.457C116.923 242.603 116.557 244.734 116.083 246.842C115.687 248.648 115.321 250.088 115.008 251.079C114.871 251.574 114.749 251.955 114.666 252.214C114.633 252.358 114.588 252.499 114.528 252.634Z" fill="#263238"/>
<path d="M112.456 255.377C112.346 255.774 112.198 256.159 112.014 256.527C111.709 257.289 111.252 258.31 110.665 259.575C109.499 262.158 107.846 265.709 105.941 269.596C104.036 273.482 102.237 276.964 100.904 279.502C100.233 280.751 99.6848 281.788 99.2961 282.451C99.1106 282.82 98.8966 283.174 98.6561 283.51C98.7929 283.121 98.9611 282.744 99.159 282.382C99.5476 281.62 100.051 280.599 100.683 279.372L105.613 269.466C107.48 265.603 109.179 262.113 110.444 259.499C111.039 258.272 111.526 257.251 111.907 256.451C112.06 256.078 112.243 255.719 112.456 255.377Z" fill="#263238"/>
<path d="M146.708 311.125C146.708 311.125 146.708 311.079 146.708 310.995C146.708 310.911 146.708 310.759 146.708 310.599C146.746 310.233 146.799 309.723 146.86 309.075C147.012 307.719 147.226 305.791 147.492 303.36C148.056 298.43 148.864 291.496 149.778 283.319L149.961 283.517H130.98L97.8253 283.464L87.7669 283.403L85.0313 283.365H84.315H84.0712C84.1522 283.355 84.234 283.355 84.315 283.365H85.0313L87.7669 283.327L97.8253 283.266L131.033 283.213H150.015H150.22V283.411C149.215 291.579 148.369 298.514 147.759 303.436C147.454 305.859 147.203 307.787 146.997 309.144C146.916 309.784 146.847 310.292 146.791 310.668L146.73 311.056C146.723 311.079 146.715 311.125 146.708 311.125Z" fill="#263238"/>
<path d="M99.197 284.028C98.7367 283.52 98.3091 282.983 97.9168 282.42C95.8632 279.842 93.3202 277.695 90.434 276.103C89.8176 275.805 89.2173 275.474 88.6357 275.113C89.312 275.271 89.9616 275.528 90.5635 275.875C93.5695 277.36 96.169 279.554 98.1378 282.268C98.5704 282.803 98.9269 283.395 99.197 284.028Z" fill="#263238"/>
<path d="M190.347 289.072C190.292 288.855 190.256 288.633 190.241 288.409C190.187 287.944 190.119 287.312 190.027 286.512C189.852 284.866 189.616 282.481 189.364 279.532C188.839 273.627 188.237 265.458 187.703 256.436C187.17 247.414 186.797 239.23 186.583 233.309C186.476 230.345 186.4 227.975 186.37 226.291C186.37 225.491 186.37 224.859 186.332 224.386C186.32 224.165 186.32 223.944 186.332 223.723C186.374 223.942 186.397 224.164 186.4 224.386C186.4 224.851 186.461 225.491 186.507 226.291C186.591 227.983 186.705 230.368 186.85 233.294C187.132 239.215 187.551 247.383 188.084 256.413C188.618 265.443 189.182 273.596 189.608 279.509C189.837 282.428 190.02 284.843 190.149 286.504C190.21 287.266 190.256 287.937 190.294 288.402C190.332 288.623 190.35 288.848 190.347 289.072Z" fill="#263238"/>
<path d="M132.984 245.753C132.987 245.403 133.015 245.054 133.068 244.709C133.159 243.985 133.274 243.017 133.418 241.828C133.754 239.314 134.18 235.869 134.744 231.877L135.034 232.059L130.104 235.511L125.09 239.001L124.732 239.253L124.793 238.818C125.402 234.864 125.92 231.45 126.317 228.912C126.515 227.746 126.667 226.786 126.789 226.07C126.83 225.727 126.901 225.387 127.002 225.057C127.003 225.404 126.972 225.751 126.911 226.093C126.82 226.809 126.705 227.769 126.553 228.95C126.21 231.45 125.73 234.871 125.181 238.856L124.892 238.674L129.898 235.168L134.836 231.732L135.194 231.48L135.133 231.915C134.546 235.892 134.036 239.337 133.67 241.821C133.479 243.002 133.327 243.969 133.213 244.686C133.169 245.047 133.092 245.405 132.984 245.753Z" fill="#E0E0E0"/>
<path d="M161.666 248.839C161.391 248.62 161.136 248.378 160.904 248.115C160.409 247.581 159.738 246.873 158.915 246.004L152.11 238.628L152.438 238.514C152.278 240.381 152.11 242.408 151.935 244.511C151.76 246.614 151.577 248.702 151.417 250.607L151.379 251.049L151.089 250.721L144.467 243.253L142.578 241.074C142.337 240.825 142.123 240.551 141.938 240.259C142.212 240.492 142.467 240.747 142.7 241.021L144.666 243.124L151.386 250.492L151.059 250.607C151.219 248.709 151.386 246.652 151.569 244.511C151.752 242.369 151.92 240.381 152.08 238.514L152.118 238.079L152.408 238.399L159.113 245.875L161.026 248.062C161.259 248.304 161.473 248.563 161.666 248.839Z" fill="#E0E0E0"/>
<path d="M176.098 247.818C175.956 248.139 175.783 248.445 175.58 248.732L174.056 251.186L168.615 259.629L168.432 259.339L174.346 258.318L180.365 257.305L180.8 257.228L180.594 257.556L175.031 265.831L173.355 268.224C173.169 268.517 172.96 268.795 172.73 269.055C172.881 268.743 173.054 268.442 173.248 268.155L174.772 265.717L180.221 257.335L180.411 257.625L174.391 258.668L168.455 259.674L168.021 259.743L168.265 259.385L173.82 251.003L175.45 248.602C175.65 248.328 175.867 248.066 176.098 247.818Z" fill="#E0E0E0"/>
<path d="M156.903 262.585C156.76 262.903 156.586 263.207 156.385 263.492L154.861 265.953L149.428 274.389L149.237 274.099L155.166 273.078L161.193 272.057L161.628 271.988L161.376 272.347L155.813 280.629L154.175 283.007C153.993 283.3 153.784 283.576 153.55 283.83C153.703 283.519 153.876 283.219 154.069 282.931C154.465 282.321 154.983 281.506 155.593 280.5L161.041 272.118L161.231 272.407L155.212 273.451L149.276 274.45L148.841 274.526L149.085 274.16L154.64 265.778C155.311 264.788 155.859 263.98 156.278 263.378C156.467 263.099 156.676 262.834 156.903 262.585Z" fill="#E0E0E0"/>
<path d="M198.379 247.65C198.228 247.964 198.055 248.267 197.861 248.557L196.337 251.018L190.904 259.453L190.713 259.164L196.641 258.143L202.669 257.122L203.103 257.053L202.859 257.411L197.289 265.694C196.619 266.67 196.07 267.47 195.651 268.064C195.47 268.361 195.261 268.639 195.026 268.895C195.18 268.583 195.355 268.282 195.552 267.995L197.076 265.565L202.524 257.183L202.715 257.472L196.695 258.509L190.759 259.514L190.332 259.591L190.568 259.225L196.123 250.843L197.762 248.443C197.941 248.159 198.148 247.893 198.379 247.65Z" fill="#E0E0E0"/>
<path d="M222.306 286.009C222.033 285.802 221.778 285.572 221.544 285.323L219.456 283.312L212.285 276.286L212.605 276.156C212.544 278.031 212.483 280.058 212.415 282.169C212.346 284.279 212.262 286.375 212.194 288.265V288.707L211.881 288.394L204.902 281.269L202.905 279.189C202.657 278.953 202.428 278.699 202.219 278.427C202.491 278.636 202.745 278.865 202.981 279.113L205.054 281.117L212.141 288.143L211.813 288.272C211.874 286.367 211.942 284.31 212.011 282.176C212.08 280.043 212.163 278.039 212.232 276.164V275.73L212.537 276.035L219.601 283.167L221.62 285.255C221.869 285.487 222.099 285.739 222.306 286.009Z" fill="#E0E0E0"/>
<path d="M101.262 235.412C101.113 235.728 100.94 236.031 100.744 236.319L99.2197 238.78L93.7866 247.223L93.5961 246.934L99.5245 245.905L105.552 244.892L105.986 244.815L105.742 245.181L100.172 253.457L98.5415 255.834C98.3564 256.125 98.1474 256.4 97.9167 256.657C98.0627 256.345 98.2361 256.047 98.4348 255.765L99.9588 253.327C101.338 251.216 103.228 248.321 105.407 244.945L105.598 245.235L99.5778 246.278L93.6419 247.284L93.2151 247.353L93.4514 246.995C95.684 243.642 97.6043 240.746 99.0063 238.613L100.645 236.212C100.829 235.93 101.035 235.662 101.262 235.412Z" fill="#E0E0E0"/>
<path d="M71.1325 292.395C71.3893 292.626 71.624 292.882 71.8336 293.157L73.6929 295.389L80.0098 303.185L79.6746 303.276C79.9489 301.424 80.2384 299.413 80.5509 297.317C80.8633 295.222 81.1681 293.157 81.45 291.275L81.511 290.84L81.7853 291.191L87.927 299.055L89.672 301.341C89.8937 301.605 90.0925 301.888 90.2664 302.186C90.0161 301.95 89.7843 301.696 89.5729 301.424L87.7441 299.199L81.5338 291.419L81.8691 291.336C81.5948 293.218 81.2976 295.26 80.9852 297.378C80.6728 299.497 80.3756 301.478 80.0937 303.329L80.0327 303.764L79.7584 303.421L73.5405 295.542L71.765 293.256C71.5351 292.983 71.3238 292.696 71.1325 292.395Z" fill="#E0E0E0"/>
<path d="M139.941 255.499C139.6 255.572 139.253 255.618 138.905 255.636L136.009 255.887L125.997 256.649L126.118 256.329L130.508 260.444L134.95 264.635L135.27 264.94H134.828L124.869 265.488L121.988 265.61C121.644 265.64 121.297 265.64 120.952 265.61C121.291 265.542 121.635 265.499 121.981 265.481L124.854 265.252L134.805 264.566L134.691 264.887L130.233 260.711L125.859 256.581L125.539 256.276H125.974L135.994 255.674L138.89 255.529C139.239 255.492 139.59 255.482 139.941 255.499Z" fill="#E0E0E0"/>
<path d="M123.055 293.903C123.309 294.142 123.549 294.397 123.772 294.665L125.669 296.86L132.154 304.526L131.818 304.617C132.054 302.758 132.314 300.746 132.58 298.651C132.847 296.555 133.121 294.475 133.342 292.593L133.403 292.151L133.678 292.494L139.987 300.228L141.778 302.514C142 302.779 142.203 303.059 142.387 303.352C142.13 303.118 141.893 302.863 141.679 302.59L139.804 300.403L133.403 292.783L133.731 292.684C133.495 294.574 133.236 296.616 132.969 298.742C132.702 300.868 132.435 302.857 132.207 304.716L132.146 305.15L131.872 304.815L125.494 297.058L123.68 294.772C123.444 294.504 123.234 294.213 123.055 293.903Z" fill="#E0E0E0"/>
<path d="M92.8724 265.74C92.5314 265.815 92.1848 265.861 91.8361 265.877L88.9481 266.121L78.9354 266.883L79.0497 266.555L83.4465 270.678L87.8889 274.869L88.209 275.173H87.767L77.8077 275.722L74.9273 275.844C74.5901 275.873 74.2511 275.873 73.9138 275.844C74.2523 275.771 74.5965 275.728 74.9425 275.714L77.8153 275.486L87.767 274.792L87.6527 275.12L83.195 270.944L78.8135 266.814L78.5011 266.509H78.9354L88.9557 265.9L91.8513 265.763C92.1906 265.729 92.532 265.722 92.8724 265.74Z" fill="#E0E0E0"/>
<path d="M118.803 293.042C118.462 293.115 118.115 293.158 117.767 293.172L114.871 293.423L104.859 294.185L104.981 293.858L109.37 297.98L113.812 302.171L114.132 302.476H113.698L103.731 303.017L100.85 303.146C100.506 303.176 100.159 303.176 99.8142 303.146C100.153 303.073 100.497 303.03 100.843 303.017L103.716 302.788L113.667 302.095L113.553 302.422L109.095 298.247L104.721 294.132L104.401 293.835H104.836L114.856 293.225L117.759 293.088C118.105 293.041 118.455 293.026 118.803 293.042Z" fill="#E0E0E0"/>
<path d="M177.332 223.579C176.991 223.652 176.645 223.698 176.296 223.716L173.4 223.96L163.395 224.722L163.51 224.401L167.899 228.516L172.341 232.707L172.661 233.012H172.227L162.26 233.561L159.38 233.683C159.035 233.713 158.688 233.713 158.343 233.683C158.682 233.61 159.026 233.566 159.372 233.553L162.245 233.324L172.204 232.639L172.082 232.959L167.64 228.791L163.266 224.661L162.946 224.356H163.38L173.4 223.746L176.304 223.609C176.645 223.573 176.989 223.563 177.332 223.579Z" fill="#E0E0E0"/>
<path d="M148.864 293.042C148.864 293.042 161.681 289.347 165.925 288.265C167.579 287.845 174.658 291.579 179.55 294.688C179.55 294.688 186.286 298.681 185.745 299.908C185.143 301.264 182.697 300.99 178.696 299.146C178.696 299.146 180.083 303.162 177.363 303.07C177.363 303.07 178.712 307.414 176.167 307.863C173.622 308.313 173.027 302.773 170.787 302.476C168.547 302.179 163.929 301.874 163.929 301.874C163.929 301.874 160.066 308.275 157.071 308.732C154.076 309.189 147.165 308.374 147.165 308.374L148.864 293.042Z" fill="#FFBE9D"/>
<path d="M170.741 293.926C171.996 294.485 173.195 295.161 174.322 295.946C175.519 296.622 176.647 297.413 177.69 298.308C175.236 297.078 172.908 295.611 170.741 293.926Z" fill="#EB996E"/>
<path d="M169.987 296.418C171.451 296.879 172.873 297.463 174.239 298.163C175.65 298.737 177.011 299.427 178.308 300.228C176.843 299.772 175.421 299.191 174.056 298.491C172.642 297.92 171.28 297.227 169.987 296.418Z" fill="#EB996E"/>
<path d="M171.358 302.369C173.294 302.362 175.222 302.619 177.089 303.131C175.153 303.137 173.225 302.88 171.358 302.369Z" fill="#EB996E"/>
<path d="M132.184 160.782C132.335 161.276 132.337 161.803 132.19 162.298C132.043 162.793 131.754 163.234 131.358 163.566C130.962 163.897 130.478 164.105 129.965 164.163C129.451 164.221 128.933 164.126 128.473 163.891C126.736 163.015 126.515 160.614 126.858 158.702C127.2 156.789 127.848 154.739 127.048 152.964C126.431 151.608 125.097 150.747 124.061 149.68C123.147 148.752 122.459 147.626 122.053 146.388C121.648 145.151 121.534 143.836 121.722 142.547C121.941 141.262 122.511 140.063 123.369 139.082C124.227 138.1 125.339 137.374 126.583 136.985C129.136 136.276 132.283 137.061 134.203 135.209C135.582 133.868 135.666 131.681 136.733 130.081C138.387 127.597 141.884 127.201 144.841 127.605C147.797 128.008 150.8 128.961 153.695 128.237C156.111 127.635 158.092 125.951 160.363 124.915C162.838 123.783 165.604 123.454 168.275 123.972C170.947 124.49 173.389 125.831 175.262 127.805C177.134 129.78 178.342 132.29 178.718 134.986C179.093 137.681 178.617 140.426 177.355 142.837C176.514 144.601 175.083 146.017 173.309 146.837" fill="#263238"/>
<path d="M146.89 223.731C148.834 223.727 150.757 223.338 152.548 222.585C154.34 221.832 155.964 220.732 157.327 219.347C158.69 217.962 159.765 216.32 160.488 214.517C161.212 212.713 161.571 210.784 161.544 208.841L161.353 194.836C161.353 194.836 173.118 193.655 173.896 181.996C174.673 170.338 174.117 143.431 174.117 143.431C167.643 140.22 160.43 138.793 153.221 139.298C146.012 139.803 139.069 142.221 133.106 146.304L131.308 147.546L132.184 209.222C132.23 213.09 133.801 216.784 136.554 219.5C139.308 222.217 143.022 223.737 146.89 223.731Z" fill="#FFBE9D"/>
<path d="M171.038 164.592C170.613 164.543 170.22 164.339 169.935 164.02C169.65 163.7 169.493 163.287 169.493 162.858C169.493 162.43 169.65 162.017 169.935 161.697C170.22 161.378 170.613 161.174 171.038 161.125C171.131 161.102 171.228 161.102 171.32 161.125C171.746 161.174 172.138 161.378 172.423 161.697C172.708 162.017 172.866 162.43 172.866 162.858C172.866 163.287 172.708 163.7 172.423 164.02C172.138 164.339 171.746 164.543 171.32 164.592C171.227 164.607 171.132 164.607 171.038 164.592Z" fill="#263238"/>
<path d="M173.324 160.828C173.134 161.026 172.037 160.066 170.429 159.982C168.821 159.898 167.609 160.652 167.449 160.439C167.289 160.226 167.564 159.99 168.097 159.631C168.81 159.174 169.651 158.958 170.496 159.014C171.341 159.07 172.145 159.396 172.791 159.944C173.271 160.371 173.424 160.782 173.324 160.828Z" fill="#263238"/>
<path d="M154.739 161.224C155.016 161.415 155.229 161.684 155.353 161.997C155.476 162.31 155.504 162.652 155.433 162.981C155.361 163.31 155.194 163.61 154.953 163.843C154.711 164.077 154.405 164.234 154.074 164.293C153.743 164.353 153.402 164.313 153.094 164.179C152.785 164.045 152.524 163.822 152.342 163.539C152.16 163.256 152.067 162.926 152.073 162.59C152.079 162.254 152.185 161.927 152.377 161.651C152.634 161.281 153.027 161.029 153.47 160.949C153.913 160.869 154.369 160.968 154.739 161.224Z" fill="#263238"/>
<path d="M155.798 161.293C155.6 161.491 154.503 160.531 152.903 160.447C151.302 160.363 150.083 161.117 149.916 160.904C149.832 160.805 150.038 160.454 150.563 160.096C151.276 159.639 152.117 159.422 152.962 159.479C153.807 159.535 154.611 159.861 155.257 160.409C155.737 160.835 155.89 161.209 155.798 161.293Z" fill="#263238"/>
<path d="M161.544 174.902C161.544 174.78 162.542 174.628 164.173 174.49C164.592 174.49 164.935 174.391 164.973 174.17C165.003 173.75 164.922 173.33 164.737 172.951C164.378 171.862 164.02 170.764 163.639 169.614C162.115 164.866 161.117 160.957 161.353 160.881C161.59 160.805 163.007 164.592 164.508 169.339C164.859 170.498 165.201 171.625 165.529 172.692C165.771 173.247 165.819 173.867 165.666 174.452C165.598 174.61 165.494 174.75 165.361 174.86C165.229 174.97 165.072 175.047 164.904 175.085C164.667 175.138 164.423 175.156 164.18 175.138C162.534 175.108 161.544 175.031 161.544 174.902Z" fill="#263238"/>
<path d="M156.21 176.395C158.659 177.653 161.269 178.568 163.967 179.116C163.375 179.928 162.526 180.517 161.558 180.785C160.589 181.054 159.558 180.986 158.633 180.594C155.196 179.123 156.21 176.395 156.21 176.395Z" fill="white"/>
<path d="M161.399 194.668C156.005 194.476 150.79 192.683 146.418 189.517C146.418 189.517 149.558 198.105 161.254 197.693L161.399 194.668Z" fill="#EB996E"/>
<path d="M174.216 146.38C174.216 146.38 167.167 149.962 157.833 145.527C151.737 142.616 144.597 141.267 143.058 142.524C141.518 143.782 141.313 150.03 135.339 151.973C135.339 151.973 135.986 163.906 131.216 163.571C126.446 163.236 129.067 144.696 129.067 144.696L140.596 138.783L153.253 136.139L165.255 137.594L174.566 139.949L174.216 146.38Z" fill="#263238"/>
<path d="M132.085 159.738C131.894 159.639 124.198 156.926 124.023 164.92C123.848 172.913 131.902 171.442 131.917 171.214C131.932 170.985 132.085 159.738 132.085 159.738Z" fill="#FFBE9D"/>
<path d="M129.54 168.128C129.54 168.128 129.395 168.227 129.159 168.326C128.824 168.462 128.45 168.462 128.115 168.326C127.277 167.998 126.591 166.642 126.591 165.202C126.59 164.515 126.738 163.836 127.025 163.213C127.107 162.965 127.248 162.741 127.435 162.559C127.622 162.378 127.85 162.244 128.1 162.169C128.261 162.14 128.427 162.163 128.574 162.236C128.721 162.308 128.841 162.427 128.915 162.573C129.014 162.794 128.961 162.954 128.999 162.969C129.037 162.984 129.174 162.839 129.121 162.512C129.079 162.312 128.972 162.133 128.816 162.001C128.6 161.832 128.327 161.752 128.054 161.78C127.724 161.837 127.414 161.978 127.154 162.189C126.894 162.399 126.692 162.673 126.568 162.984C126.216 163.67 126.033 164.431 126.035 165.202C126.035 166.809 126.842 168.341 127.985 168.699C128.199 168.764 128.424 168.782 128.646 168.75C128.867 168.719 129.079 168.639 129.265 168.516C129.54 168.326 129.54 168.143 129.54 168.128Z" fill="#EB996E"/>
<path d="M128.016 134.722C128.928 134.454 129.902 134.489 130.792 134.822C131.682 135.154 132.44 135.766 132.954 136.566C132.243 136.028 131.477 135.568 130.668 135.194C129.803 134.945 128.914 134.787 128.016 134.722Z" fill="#263238"/>
<path d="M132.824 129.936C132.969 129.936 132.748 131.62 133.022 133.617C133.259 134.817 133.635 135.986 134.142 137.099C134.142 137.099 133.807 136.817 133.472 136.223C133.041 135.432 132.757 134.57 132.633 133.678C132.412 132.432 132.477 131.153 132.824 129.936Z" fill="#263238"/>
<path d="M165.659 156.972C165.613 156.881 165.956 156.599 166.603 156.34C168.323 155.675 170.232 155.694 171.937 156.393C172.578 156.667 172.92 156.949 172.875 157.041C172.776 157.254 171.236 156.652 169.263 156.652C167.289 156.652 165.75 157.208 165.659 156.972Z" fill="#263238"/>
<path d="M147.828 155.311C147.782 155.219 148.125 154.945 148.773 154.678C149.625 154.349 150.533 154.186 151.447 154.198C152.365 154.198 153.274 154.379 154.122 154.732C154.762 155.006 155.097 155.288 155.059 155.387C155.021 155.486 153.421 154.998 151.44 154.991C149.459 154.983 147.935 155.524 147.828 155.311Z" fill="#263238"/>
<path d="M164.279 158.252C164.297 158.409 164.297 158.568 164.279 158.725C164.279 159.06 164.279 159.487 164.318 160.012C164.356 160.538 164.318 161.247 164.363 162.009C164.335 162.888 164.464 163.766 164.744 164.6C165.112 165.681 165.748 166.652 166.593 167.421C167.438 168.19 168.464 168.732 169.575 168.996C170.213 169.152 170.871 169.209 171.526 169.164C172.207 169.133 172.879 168.992 173.515 168.745C174.87 168.237 176.025 167.304 176.807 166.086C177.546 164.922 177.918 163.562 177.874 162.184C177.874 160.82 177.874 159.509 177.874 158.252L178.056 158.435L168.15 158.344L165.278 158.29H164.516H164.234C164.56 158.254 164.888 158.239 165.217 158.245L168.044 158.191L178.056 158.1H178.308V158.29C178.308 159.548 178.308 160.858 178.308 162.222C178.359 163.675 177.968 165.11 177.188 166.337C176.359 167.627 175.135 168.614 173.698 169.149C173.023 169.408 172.31 169.555 171.587 169.583C170.898 169.624 170.207 169.56 169.537 169.393C168.372 169.111 167.298 168.534 166.42 167.717C165.542 166.9 164.889 165.871 164.523 164.729C164.25 163.858 164.136 162.944 164.188 162.032C164.188 161.27 164.188 160.561 164.226 159.982C164.264 159.403 164.226 159.045 164.264 158.709C164.257 158.557 164.262 158.404 164.279 158.252Z" fill="#263238"/>
<path d="M145.603 157.856C145.603 157.856 145.603 158.031 145.603 158.328V159.616C145.603 160.18 145.603 160.851 145.641 161.62C145.621 162.499 145.75 163.375 146.022 164.211C146.373 165.214 146.949 166.124 147.706 166.87C148.58 167.72 149.667 168.318 150.853 168.6C152.164 168.916 153.54 168.828 154.8 168.349C156.152 167.841 157.304 166.911 158.084 165.697C158.827 164.534 159.201 163.174 159.159 161.796C159.159 160.432 159.159 159.113 159.159 157.856L159.342 158.039L149.436 157.947L146.57 157.902H145.808H145.526C145.85 157.866 146.176 157.85 146.502 157.856L149.329 157.81L159.342 157.719H159.524V157.902C159.524 159.159 159.524 160.477 159.524 161.841C159.57 163.295 159.177 164.729 158.397 165.956C157.568 167.242 156.347 168.225 154.914 168.76C154.239 169.019 153.526 169.166 152.804 169.195C152.112 169.235 151.418 169.171 150.746 169.004C149.501 168.697 148.363 168.057 147.454 167.152C146.668 166.363 146.079 165.4 145.732 164.341C145.459 163.469 145.345 162.555 145.397 161.643C145.397 160.881 145.397 160.172 145.443 159.593C145.488 159.014 145.443 158.656 145.443 158.321C145.47 158.158 145.525 158.001 145.603 157.856Z" fill="#263238"/>
<path d="M164.447 158.808C162.704 159.073 160.932 159.073 159.189 158.808C160.931 158.534 162.705 158.534 164.447 158.808Z" fill="#263238"/>
<path d="M131.064 158.908C133.487 158.706 135.918 158.632 138.349 158.687C140.781 158.618 143.215 158.676 145.641 158.862C143.219 159.073 140.787 159.147 138.356 159.083C135.924 159.161 133.49 159.102 131.064 158.908Z" fill="#263238"/>
<path d="M209.451 302.705C211.163 305.883 213.756 308.499 216.92 310.238C220.083 311.978 223.681 312.767 227.282 312.511C231.536 312.214 235.561 310.474 238.693 307.58C241.826 304.686 243.878 300.811 244.51 296.593L248.93 246.004L231.229 241.63L223.997 281.254C223.997 281.254 220.218 297.858 209.451 302.705Z" fill="#FFBE9D"/>
<path d="M231.069 245.295L231.655 236.418C231.655 236.418 234.162 216.499 234.162 214.549C234.162 212.308 235.237 211.76 236.067 211.821C237.355 211.905 238.27 213.497 238.353 215.425C238.353 216.088 238.293 226.619 238.293 226.619C238.901 225.624 239.581 224.674 240.327 223.777C241.851 221.803 245.539 220.675 249.296 220.797C253.052 220.919 254.081 221.285 254.104 222.74C254.091 223.018 254.015 223.29 253.884 223.535C253.752 223.78 253.567 223.993 253.342 224.158C252.649 224.735 251.768 225.039 250.866 225.011C244.853 224.904 243.246 228.112 243.246 228.112L243.169 229.278C243.169 229.278 246.819 226.664 249.73 227.754C250.16 227.913 250.554 228.157 250.888 228.47C251.708 228.474 252.512 228.691 253.222 229.101C253.932 229.511 254.522 230.1 254.934 230.808C255.346 231.517 255.565 232.321 255.571 233.14C255.576 233.96 255.368 234.767 254.965 235.481C254.808 235.847 254.543 236.157 254.205 236.368C253.868 236.579 253.473 236.682 253.075 236.662C252.672 236.541 252.307 236.318 252.016 236.014C251.845 235.869 251.665 235.737 251.475 235.618L250.805 238.841C250.805 238.841 248.907 246.004 248.435 249.22" fill="#FFBE9D"/>
<path d="M232.798 244.602C233.896 244.907 235.031 244.099 235.625 243.124C236.22 242.148 236.471 240.998 236.989 239.977C238.559 236.929 242.323 235.481 243.764 232.357C243.962 231.922 244.068 231.328 243.687 231.038C243.306 230.749 242.834 230.985 242.445 231.198L232.539 236.685" fill="#FFBE9D"/>
<path d="M232.532 236.67C232.84 236.396 233.18 236.161 233.545 235.969C234.216 235.549 235.199 234.97 236.418 234.262L240.723 231.8L241.965 231.099C242.428 230.733 243.017 230.566 243.604 230.635C243.785 230.693 243.944 230.805 244.059 230.956C244.175 231.108 244.242 231.29 244.251 231.48C244.271 231.794 244.216 232.107 244.091 232.395C243.862 232.903 243.576 233.384 243.238 233.827C241.866 235.61 240.091 236.731 238.811 238.034C238.188 238.623 237.659 239.304 237.241 240.053C236.867 240.754 236.631 241.485 236.342 242.148C236.164 242.702 235.867 243.209 235.472 243.636C235.077 244.062 234.594 244.397 234.056 244.617C233.24 244.861 232.783 244.617 232.814 244.571C233.208 244.584 233.602 244.519 233.972 244.381C234.448 244.138 234.869 243.798 235.208 243.383C235.546 242.969 235.795 242.489 235.938 241.973C236.182 241.235 236.464 240.51 236.784 239.801C237.204 238.99 237.752 238.252 238.407 237.614C239.717 236.243 241.455 235.092 242.735 233.439C243.036 233.039 243.292 232.607 243.497 232.151C243.687 231.717 243.657 231.282 243.413 231.236C243.169 231.191 242.689 231.397 242.27 231.633L241.005 232.319L236.639 234.696C235.389 235.359 234.353 235.877 233.667 236.22C233.312 236.423 232.929 236.574 232.532 236.67Z" fill="#EB996E"/>
<path d="M243.032 229.362C243.099 228.641 243.337 227.946 243.726 227.335C244.177 226.708 244.818 226.243 245.554 226.009C246.477 225.706 247.441 225.552 248.412 225.552C249.408 225.562 250.404 225.475 251.384 225.293C252.205 225.125 252.967 224.744 253.593 224.188C253.802 223.996 253.963 223.759 254.066 223.495C254.169 223.231 254.211 222.947 254.188 222.664C254.177 222.456 254.108 222.256 253.99 222.085C253.952 222.085 253.99 222.306 254.028 222.672C254.024 222.927 253.965 223.179 253.855 223.409C253.744 223.639 253.585 223.843 253.388 224.005C252.779 224.485 252.062 224.809 251.3 224.95C250.34 225.108 249.369 225.179 248.397 225.163C247.39 225.152 246.388 225.31 245.432 225.628C244.633 225.906 243.95 226.443 243.489 227.152C243.191 227.63 243.018 228.175 242.986 228.737C242.943 228.946 242.959 229.162 243.032 229.362Z" fill="#EB996E"/>
<path d="M238.3 214.678C238.235 215.375 238.235 216.077 238.3 216.774C238.3 218.206 238.3 219.921 238.353 221.811C238.407 223.7 238.353 225.415 238.353 226.847C238.308 227.546 238.323 228.247 238.399 228.943C238.566 228.26 238.65 227.559 238.651 226.855C238.742 225.567 238.803 223.807 238.795 221.811C238.788 219.814 238.712 218.046 238.62 216.759C238.588 216.056 238.481 215.358 238.3 214.678Z" fill="#EB996E"/>
<path d="M245.409 231.701C245.622 231.65 245.827 231.571 246.019 231.465C246.267 231.338 246.54 231.266 246.819 231.252C247.097 231.239 247.375 231.286 247.634 231.389C247.794 231.475 247.928 231.601 248.024 231.755C248.12 231.909 248.175 232.084 248.183 232.265C248.207 232.72 248.174 233.175 248.084 233.622C247.958 234.182 248.048 234.77 248.335 235.268C248.518 235.523 248.757 235.732 249.035 235.878C249.313 236.024 249.622 236.102 249.936 236.106C250.244 236.104 250.549 236.039 250.832 235.916C251.115 235.793 251.37 235.614 251.582 235.389C251.979 234.991 252.245 234.48 252.344 233.926C252.463 233.03 252.45 232.121 252.305 231.229C252.227 230.625 252.044 230.04 251.764 229.499C251.551 229.118 251.353 228.973 251.338 228.989C251.323 229.004 251.46 229.194 251.62 229.568C251.829 230.116 251.96 230.69 252.008 231.275C252.108 232.134 252.096 233.002 251.97 233.858C251.873 234.342 251.622 234.783 251.254 235.112C250.886 235.442 250.42 235.643 249.928 235.687C249.68 235.685 249.436 235.626 249.215 235.513C248.994 235.401 248.803 235.238 248.656 235.039C248.425 234.621 248.352 234.134 248.45 233.667C248.535 233.187 248.555 232.698 248.511 232.212C248.489 231.98 248.407 231.758 248.273 231.567C248.14 231.376 247.959 231.223 247.749 231.122C247.452 231.009 247.133 230.969 246.818 231.003C246.503 231.037 246.2 231.146 245.935 231.32C245.577 231.534 245.364 231.648 245.409 231.701Z" fill="#EB996E"/>
<path d="M251.407 235.069C251.353 235.268 251.375 235.48 251.468 235.664C251.575 235.925 251.74 236.159 251.952 236.346C252.163 236.534 252.414 236.67 252.687 236.746C253.097 236.834 253.523 236.814 253.924 236.689C254.325 236.563 254.686 236.336 254.973 236.03C255.66 235.275 256.028 234.284 256.001 233.263C256.001 232.256 255.687 231.273 255.102 230.452C254.625 229.782 253.974 229.255 253.22 228.928C252.725 228.705 252.193 228.578 251.65 228.554C251.269 228.554 251.064 228.554 251.064 228.615C251.767 228.706 252.453 228.901 253.098 229.194C253.775 229.53 254.357 230.031 254.79 230.65C255.296 231.418 255.562 232.32 255.552 233.241C255.577 234.154 255.262 235.045 254.668 235.74C254.426 236.013 254.119 236.221 253.775 236.342C253.431 236.463 253.062 236.495 252.702 236.433C252.462 236.38 252.237 236.275 252.041 236.126C251.845 235.978 251.683 235.789 251.567 235.572C251.46 235.283 251.46 235.069 251.407 235.069Z" fill="#EB996E"/>
<path d="M244.167 242.11C243.84 242.007 243.489 242.007 243.162 242.11C242.304 242.298 241.532 242.764 240.967 243.436L241.318 243.543C241.271 243.071 241.195 242.603 241.089 242.141C240.786 240.503 240.034 238.981 238.917 237.744C239.664 239.173 240.256 240.678 240.685 242.232C240.792 242.705 240.868 243.162 240.921 243.589L240.982 244.061L241.279 243.688C241.785 243.065 242.46 242.602 243.223 242.354C243.794 242.179 244.167 242.164 244.167 242.11Z" fill="#EB996E"/>
<path d="M244.358 224.196C244.259 224.241 244.663 224.958 245.592 225.392C246.522 225.826 247.345 225.575 247.307 225.468C247.269 225.361 246.545 225.369 245.783 225.011C245.021 224.653 244.457 224.119 244.358 224.196Z" fill="#EB996E"/>
<path d="M228.021 251.041L250.263 252.634C250.263 252.634 246.842 291.991 246.179 298.095C245.516 304.198 241.607 313.403 228.021 313.403C214.434 313.403 211.904 308.778 205.862 299.253C212.986 294.315 224.302 279.57 224.302 279.57L228.021 251.041Z" fill="#0364FF"/>
<path d="M238.506 256.337C238.391 256.669 238.254 256.992 238.094 257.305L236.852 259.926L232.463 268.986L232.242 268.719L238.01 267.005L243.87 265.283L244.297 265.161L244.091 265.549L239.519 274.427L238.17 276.979C238.021 277.291 237.845 277.589 237.645 277.871C237.761 277.545 237.899 277.227 238.056 276.918C238.376 276.263 238.818 275.394 239.306 274.32L243.733 265.382L243.954 265.648L238.102 267.386L232.326 269.077L231.907 269.199L232.105 268.811L236.654 259.842C237.21 258.783 237.66 257.914 237.995 257.266C238.139 256.943 238.31 256.632 238.506 256.337Z" fill="#E0E0E0"/>
<path d="M236.403 294.193C236.061 294.266 235.715 294.312 235.366 294.33L232.471 294.582L222.458 295.344L222.58 295.016L226.969 299.131L231.412 303.322L231.732 303.626H231.29L221.33 304.175L218.45 304.297C218.105 304.327 217.758 304.327 217.414 304.297C217.753 304.23 218.097 304.189 218.442 304.175L221.315 303.939L231.267 303.253L231.152 303.581L226.695 299.397L222.321 295.267L222.001 294.97H222.435L232.455 294.368L235.359 294.223C235.705 294.187 236.054 294.176 236.403 294.193Z" fill="#E0E0E0"/>
<path d="M276.004 153.595L253.319 145.449L230.886 153.488C228.021 154.837 225.506 155.652 225.506 158.319V171.623C225.453 180.968 228.005 190.143 232.875 198.118C237.741 206.167 244.952 212.535 253.54 216.368C262.684 213.389 269.542 205.433 273.771 198.636C278.655 190.665 281.22 181.49 281.178 172.142V160.178C281.178 156.368 279.151 154.509 276.004 153.595Z" fill="#0364FF"/>
<g opacity="0.3">
<path opacity="0.3" d="M253.54 208.627C246.734 205.557 241.031 200.479 237.195 194.073C233.335 187.77 231.305 180.516 231.336 173.125V163.829C231.336 161.71 232.616 159.729 235.146 158.548L253.327 151.751V145.48L230.886 153.488C228.531 154.517 225.506 155.653 225.506 158.32V171.624C225.453 180.969 228.005 190.143 232.875 198.119C237.741 206.167 244.952 212.535 253.54 216.369V208.627Z" fill="black"/>
</g>
<g opacity="0.4">
<path opacity="0.4" d="M253.54 216.347C255.079 215.844 256.571 215.207 257.998 214.442C261.507 212.457 264.697 209.955 267.462 207.02C269.961 204.328 272.161 201.371 274.023 198.204C278.963 190.173 281.45 180.875 281.178 171.45V160.47C281.178 154.998 278.358 154.595 275.996 153.566L253.311 145.42V151.691L271.706 158.603C274.236 159.784 275.516 161.765 275.516 163.876V173.21C275.546 180.599 273.517 187.85 269.656 194.15C265.904 200.526 260.268 205.584 253.525 208.628L253.54 216.347Z" fill="black"/>
</g>
<path opacity="0.5" d="M259.339 172.532V170.734C259.339 169.172 258.718 167.673 257.614 166.569C256.509 165.464 255.011 164.843 253.449 164.843C251.886 164.843 250.388 165.464 249.284 166.569C248.179 167.673 247.558 169.172 247.558 170.734V172.563C246.779 172.679 246.067 173.072 245.552 173.669C245.038 174.266 244.755 175.028 244.754 175.816V186.408C244.754 187.281 245.101 188.118 245.718 188.736C246.336 189.353 247.173 189.7 248.046 189.7H259.08C259.953 189.7 260.79 189.353 261.408 188.736C262.025 188.118 262.372 187.281 262.372 186.408V175.816C262.372 174.988 262.06 174.189 261.498 173.58C260.936 172.972 260.165 172.597 259.339 172.532ZM255.049 183.764H252.168L252.618 181.684C252.303 181.478 252.063 181.177 251.933 180.824C251.803 180.471 251.791 180.085 251.898 179.725C252.005 179.364 252.226 179.048 252.527 178.823C252.828 178.598 253.194 178.477 253.571 178.477C253.947 178.477 254.313 178.598 254.614 178.823C254.916 179.048 255.136 179.364 255.243 179.725C255.35 180.085 255.338 180.471 255.208 180.824C255.079 181.177 254.838 181.478 254.523 181.684C254.721 182.461 255.049 183.764 255.049 183.764ZM258.097 172.517H248.831V170.734C248.879 169.54 249.388 168.412 250.249 167.585C251.11 166.758 252.258 166.296 253.452 166.296C254.647 166.296 255.795 166.758 256.656 167.585C257.517 168.412 258.026 169.54 258.074 170.734L258.097 172.517Z" fill="white"/>
<path d="M235.016 172.403C234.818 171.806 234.702 171.186 234.673 170.558C234.503 169.059 234.442 167.548 234.49 166.04C234.49 165.156 234.574 164.318 234.65 163.556C234.688 162.861 234.861 162.18 235.161 161.552C235.375 161.121 235.723 160.771 236.151 160.553C236.464 160.409 236.654 160.416 236.654 160.439C236.107 160.69 235.667 161.128 235.412 161.674C235.169 162.283 235.034 162.93 235.016 163.586C234.955 164.348 234.909 165.179 234.886 166.055C234.833 167.8 234.886 169.385 234.955 170.536C235.024 171.155 235.044 171.78 235.016 172.403Z" fill="white"/>
<path d="M235.344 178.186C235.237 178.186 235.138 177.645 235.123 176.967C235.107 176.289 235.191 175.74 235.298 175.74C235.405 175.74 235.504 176.281 235.519 176.959C235.534 177.637 235.458 178.186 235.344 178.186Z" fill="white"/>
<path d="M212.842 247.825L187.551 310.37H141.945V313.197H277.787L305.577 247.825H212.842Z" fill="#263238"/>
<path d="M251.506 284.752C250.591 287.899 247.924 289.888 245.547 289.202C243.169 288.516 241.988 285.392 242.903 282.245C243.817 279.098 246.492 277.109 248.869 277.795C251.247 278.48 252.428 281.605 251.506 284.752Z" fill="#FAFAFA"/>
</svg>
