<svg width="59" height="59" viewBox="0 0 59 59" fill="none" xmlns="http://www.w3.org/2000/svg">
<rect width="59" height="59" rx="6.14583" fill="#438AFB"/>
<path d="M24.6465 9H17.5908C17.3188 9 17.058 9.10801 16.8658 9.30037L12.3004 13.8658C12.108 14.058 12 14.3189 12 14.5908V26.5C12 27.0663 12.4591 27.5254 13.0254 27.5254H24.6465C25.2128 27.5254 25.6719 27.0663 25.6719 26.5V10.0254C25.6719 9.4591 25.2128 9 24.6465 9ZM23.6211 25.4746H14.0508V15.0156L18.0156 11.0508H23.6211V25.4746Z" fill="white"/>
<path d="M45.9746 25.4746H38.919C38.647 25.4746 38.3862 25.5826 38.1939 25.775L33.6285 30.3404C33.4362 30.5327 33.3281 30.7935 33.3281 31.0654V42.9746C33.3281 43.5409 33.7872 44 34.3535 44H45.9746C46.5409 44 47 43.5409 47 42.9746V26.5C47 25.9337 46.5409 25.4746 45.9746 25.4746ZM44.9492 41.9492H35.3789V31.4902L39.3437 27.5254H44.9492V41.9492Z" fill="white"/>
<path d="M26.082 34.3955C24.7453 34.3955 23.6055 35.2528 23.1822 36.4463H19.8613V31.9688C19.8613 31.4025 19.4022 30.9434 18.8359 30.9434C18.2696 30.9434 17.8105 31.4025 17.8105 31.9688V37.4717C17.8105 38.038 18.2696 38.4971 18.8359 38.4971H23.1822C23.6055 39.6906 24.7453 40.5479 26.082 40.5479C27.7782 40.5479 29.1582 39.1679 29.1582 37.4717C29.1582 35.7755 27.7782 34.3955 26.082 34.3955ZM26.082 38.4971C25.5166 38.4971 25.0566 38.0371 25.0566 37.4717C25.0566 36.9063 25.5166 36.4463 26.082 36.4463C26.6474 36.4463 27.1074 36.9063 27.1074 37.4717C27.1074 38.0371 26.6474 38.4971 26.082 38.4971Z" fill="white"/>
<path d="M40.1641 14.5029H35.8178C35.3945 13.3094 34.2547 12.4521 32.918 12.4521C31.2218 12.4521 29.8418 13.8321 29.8418 15.5283C29.8418 17.2245 31.2218 18.6045 32.918 18.6045C34.2547 18.6045 35.3945 17.7472 35.8178 16.5537H39.1387V21.0312C39.1387 21.5975 39.5978 22.0566 40.1641 22.0566C40.7304 22.0566 41.1895 21.5975 41.1895 21.0312V15.5283C41.1895 14.962 40.7304 14.5029 40.1641 14.5029ZM32.918 16.5537C32.3526 16.5537 31.8926 16.0937 31.8926 15.5283C31.8926 14.9629 32.3526 14.5029 32.918 14.5029C33.4834 14.5029 33.9434 14.9629 33.9434 15.5283C33.9434 16.0937 33.4834 16.5537 32.918 16.5537Z" fill="white"/>
</svg>
