<svg width="379" height="379" viewBox="0 0 379 379" fill="none" xmlns="http://www.w3.org/2000/svg">
<g clip-path="url(#clip0)">
<path d="M379 289.859H0V290.049H379V289.859Z" fill="#EBEBEB"/>
<path d="M330.238 302.056H315.919V302.245H330.238V302.056Z" fill="#EBEBEB"/>
<path d="M244.47 300.737H222.132V300.926H244.47V300.737Z" fill="#EBEBEB"/>
<path d="M315.161 295.021H279.452V295.211H315.161V295.021Z" fill="#EBEBEB"/>
<path d="M48.0797 296.295H39.7645V296.484H48.0797V296.295Z" fill="#EBEBEB"/>
<path d="M84.0548 296.295H54.8264V296.484H84.0548V296.295Z" fill="#EBEBEB"/>
<path d="M170.664 299.493H129.618V299.683H170.664V299.493Z" fill="#EBEBEB"/>
<path d="M179.646 256.053H33.2838C32.1372 256.051 31.0383 255.594 30.2283 254.782C29.4182 253.971 28.9632 252.871 28.9632 251.724V45.9804C28.9732 44.8404 29.4326 43.7504 30.2416 42.9471C31.0505 42.1438 32.1438 41.6921 33.2838 41.6901H179.646C180.794 41.6901 181.895 42.1461 182.707 42.9578C183.518 43.7695 183.974 44.8704 183.974 46.0183V251.724C183.974 252.872 183.518 253.973 182.707 254.785C181.895 255.597 180.794 256.053 179.646 256.053ZM33.2838 41.8417C32.1875 41.8437 31.1368 42.2807 30.3622 43.0566C29.5877 43.8325 29.1527 44.8841 29.1527 45.9804V251.724C29.1527 252.821 29.5877 253.872 30.3622 254.648C31.1368 255.424 32.1875 255.861 33.2838 255.863H179.646C180.743 255.861 181.795 255.424 182.57 254.649C183.346 253.873 183.783 252.821 183.785 251.724V45.9804C183.783 44.8834 183.346 43.8318 182.57 43.0561C181.795 42.2804 180.743 41.8437 179.646 41.8417H33.2838Z" fill="#EBEBEB"/>
<path d="M343.609 256.053H197.239C196.092 256.051 194.992 255.594 194.181 254.783C193.37 253.971 192.913 252.872 192.911 251.724V45.9804C192.923 44.8397 193.384 43.7497 194.194 42.9466C195.004 42.1435 196.098 41.6921 197.239 41.6901H343.609C344.748 41.6941 345.839 42.1466 346.646 42.9497C347.454 43.7528 347.912 44.8417 347.922 45.9804V251.724C347.922 252.87 347.468 253.968 346.66 254.779C345.851 255.591 344.754 256.049 343.609 256.053ZM197.239 41.8417C196.142 41.8437 195.091 42.2804 194.315 43.0561C193.539 43.8318 193.103 44.8834 193.101 45.9804V251.724C193.103 252.821 193.539 253.873 194.315 254.649C195.091 255.424 196.142 255.861 197.239 255.863H343.609C344.706 255.861 345.758 255.424 346.533 254.649C347.309 253.873 347.746 252.821 347.748 251.724V45.9804C347.746 44.8834 347.309 43.8318 346.533 43.0561C345.758 42.2804 344.706 41.8437 343.609 41.8417H197.239Z" fill="#EBEBEB"/>
<path d="M47.6025 202.121H104.142L104.142 60.8294H47.6025L47.6025 202.121Z" fill="#E6E6E6"/>
<path d="M39.416 202.121H102.694L102.694 60.8294H39.416L39.416 202.121Z" fill="#F5F5F5"/>
<path d="M96.1673 195.587L96.1673 67.3484H45.9423L45.9423 195.587H96.1673Z" fill="#F3F6FA"/>
<path d="M116.99 202.121H173.529L173.529 60.8294H116.99L116.99 202.121Z" fill="#E6E6E6"/>
<path d="M108.804 202.121H172.081L172.081 60.8294H108.804L108.804 202.121Z" fill="#F5F5F5"/>
<path d="M165.555 195.587V67.3484H115.33V195.587H165.555Z" fill="#F3F6FA"/>
<path d="M212.3 234.328H165.956V289.859H212.3V234.328Z" fill="#E0E0E0"/>
<path d="M212.301 234.328H165.957L155.526 223.709H201.871L212.301 234.328Z" fill="#E0E0E0"/>
<path d="M138.835 223.709H92.4986L83.7437 234.328H130.088L138.835 223.709Z" fill="#F5F5F5"/>
<path d="M83.7515 289.859H165.964V234.328H83.7515V289.859Z" fill="#F5F5F5"/>
<path d="M160.006 275.025H165.964V249.155H160.006V275.025Z" fill="#F0F0F0"/>
<path d="M111.706 243.864V266.369H134.211V243.864H111.706Z" fill="#F0F0F0"/>
<path d="M83.8425 243.864V266.369H106.348V243.864H83.8425Z" fill="#F0F0F0"/>
<path d="M111.706 267.763V269.598H134.211V267.763H111.706Z" fill="#F0F0F0"/>
<path d="M83.8425 267.763V269.598H106.348V267.763H83.8425Z" fill="#F0F0F0"/>
<path d="M111.699 273.138V274.972H134.204V273.138H111.699Z" fill="#F0F0F0"/>
<path d="M83.8425 273.138V274.972H106.348V273.138H83.8425Z" fill="#F0F0F0"/>
<path d="M111.706 278.504V280.339H134.211V278.504H111.706Z" fill="#F0F0F0"/>
<path d="M83.8425 278.512V280.346H106.348V278.512H83.8425Z" fill="#F0F0F0"/>
<path d="M179.305 249.162H165.956V275.033H179.305V249.162Z" fill="#E6E6E6"/>
<path d="M229.848 289.859H252.103L252.103 164.994H229.848V289.859Z" fill="#E6E6E6"/>
<path d="M235.784 289.859H229.841V268.279H242.014L235.784 289.859Z" fill="#F5F5F5"/>
<path d="M293.657 289.859H315.911V164.994H293.657V289.859Z" fill="#E6E6E6"/>
<path d="M229.841 282.431H298.849V164.994H229.841V282.431Z" fill="#F5F5F5"/>
<path d="M292.906 289.859H298.849V268.279H286.675L292.906 289.859Z" fill="#F5F5F5"/>
<path d="M234.457 277.557H294.24V226.278H234.457V277.557Z" fill="#F0F0F0"/>
<path d="M253.422 277.557H294.233V226.278H253.422V277.557Z" fill="#E6E6E6"/>
<path d="M234.457 221.715H294.24V170.436H234.457V221.715Z" fill="#F0F0F0"/>
<path d="M253.422 221.715H294.233V170.436H253.422V221.715Z" fill="#E6E6E6"/>
<path d="M273.835 209.678C273.835 216.295 268.203 221.715 261.321 221.715H255.113C248.23 221.715 242.606 216.295 242.606 209.678H273.835Z" fill="#F3F6FA"/>
<path d="M273.835 201.257C273.835 207.874 268.203 213.294 261.321 213.294H255.113C248.23 213.294 242.606 207.874 242.606 201.257H273.835Z" fill="#F3F6FA"/>
<path d="M267.574 242.81H285.978C285.978 242.81 282.779 250.565 282.779 255.12C282.779 259.676 296.78 277.557 276.776 277.557C256.772 277.557 270.765 259.683 270.765 255.12C270.765 250.557 267.574 242.81 267.574 242.81Z" fill="#F5F5F5"/>
<path d="M273.835 192.828C273.835 199.453 268.203 204.872 261.321 204.872H255.113C248.23 204.872 242.606 199.453 242.606 192.828H273.835Z" fill="#F3F6FA"/>
<path d="M268.332 155.943C267.635 136.19 266.884 99.9727 268.415 90.0732L270.909 88.1403C270.909 88.1403 270.364 106.279 270.075 136.531C269.787 166.783 269.431 151.448 269.742 155.943H268.332Z" fill="#E6E6E6"/>
<path d="M262.624 103.437C256.841 99.2602 244.66 96.2888 232.047 96.304C227.089 96.304 246.79 101.163 254.787 106.514C260.987 110.676 267.817 117.672 270.045 121.553C268.954 113.382 268.415 107.636 262.624 103.437Z" fill="#E6E6E6"/>
<path d="M274.237 114.314C279.543 109.971 291.39 106.62 303.981 106.249C308.93 106.097 289.798 111.555 282.423 117.149C276.7 121.492 270.644 128.686 268.855 132.627C269.022 124.441 268.916 118.665 274.237 114.314Z" fill="#E6E6E6"/>
<path d="M269.295 164.994C266.951 164.994 264.695 164.097 262.992 162.488C261.288 160.878 260.264 158.678 260.13 156.338L259.319 149.675H279.27L278.459 156.338C278.325 158.678 277.302 160.878 275.598 162.488C273.894 164.097 271.638 164.994 269.295 164.994Z" fill="#F0F0F0"/>
<path d="M280.559 152.866H258.031L257.387 147.022H281.211L280.559 152.866Z" fill="#F0F0F0"/>
<path d="M189.5 324.09C270.668 324.09 336.469 320.249 336.469 315.51C336.469 310.771 270.668 306.929 189.5 306.929C108.331 306.929 42.5313 310.771 42.5313 315.51C42.5313 320.249 108.331 324.09 189.5 324.09Z" fill="#F5F5F5"/>
<path d="M268.559 301.593L263.109 302.745L259.418 290.344L264.868 289.192L268.559 301.593Z" fill="#7F3E3B"/>
<path d="M262.768 302.154L268.719 300.903C268.827 300.882 268.939 300.897 269.038 300.947C269.137 300.996 269.216 301.077 269.264 301.176L271.357 305.792C271.408 305.904 271.434 306.025 271.432 306.148C271.43 306.27 271.4 306.391 271.345 306.501C271.289 306.61 271.209 306.705 271.112 306.78C271.014 306.854 270.901 306.905 270.78 306.929C268.62 307.346 265.474 307.869 262.799 308.445C259.645 309.112 259.206 309.787 255.454 310.264C253.18 310.552 252.27 308.339 253.18 307.99C257.387 306.474 258.334 305.891 261.518 302.844C261.861 302.499 262.294 302.26 262.768 302.154Z" fill="#263238"/>
<path opacity="0.2" d="M259.418 290.344L261.321 296.742L266.771 295.589L264.868 289.2L259.418 290.344Z" fill="black"/>
<path d="M229.083 124.191C227.969 127.882 226.748 131.475 225.422 135.083C224.095 138.691 222.67 142.246 220.987 145.847L220.328 147.203L219.608 148.591C219.365 149.053 219.077 149.485 218.812 149.94C218.547 150.395 218.281 150.827 217.978 151.251C216.837 152.96 215.57 154.582 214.188 156.102C212.838 157.609 211.381 159.018 209.83 160.317C209.072 160.969 208.268 161.583 207.442 162.166C206.616 162.75 205.82 163.296 204.85 163.857L202.166 160.286C202.689 159.68 203.326 158.975 203.887 158.293C204.448 157.611 205.001 156.883 205.555 156.178C206.638 154.753 207.662 153.29 208.587 151.812C209.528 150.343 210.391 148.825 211.171 147.264C211.565 146.506 211.929 145.748 212.263 144.937L212.763 143.762L213.248 142.527C214.529 139.169 215.727 135.629 216.902 132.089L220.449 121.477L229.083 124.191Z" fill="#803E3C"/>
<path d="M233.062 118.18C234.98 123.281 224.785 141.428 224.785 141.428L213.324 132.589C215.284 127.78 217.666 123.153 220.442 118.763C224.474 112.752 230.955 112.586 233.062 118.18Z" fill="#0364FF"/>
<path opacity="0.2" d="M230.819 123.22C227.195 124.736 222.276 130.588 220.737 138.304L224.785 141.427C224.785 141.427 230.849 130.694 232.721 123.417C232.457 123.204 232.137 123.071 231.799 123.036C231.461 123.001 231.121 123.065 230.819 123.22Z" fill="black"/>
<path d="M226.293 114.284C226.293 114.284 219.57 127.003 225.96 159.051H256.439C256.644 154.367 253.703 136.031 258.22 113.988C254.851 113.34 251.443 112.909 248.018 112.699C243.703 112.449 239.378 112.449 235.063 112.699C232.103 112.996 229.171 113.526 226.293 114.284Z" fill="#0364FF"/>
<path d="M192.388 164.168L195.488 166.972L200.082 165.752L196.966 160.211L192.388 164.168Z" fill="#7F3E3B"/>
<path d="M203.69 160.529L196.966 160.211L200.082 165.752C200.082 165.752 205.077 166.282 205.554 162.591L203.69 160.529Z" fill="#7F3E3B"/>
<path d="M246.729 98.1077C245.918 102.277 245.099 109.917 248.018 112.699C248.018 112.699 246.706 115.496 238.96 115.496C231.88 115.496 235.063 112.699 235.063 112.699C239.71 111.593 239.611 108.151 238.778 104.899L246.729 98.1077Z" fill="#7F3E3B"/>
<path opacity="0.2" d="M243.492 100.882L238.785 104.9C238.981 105.645 239.112 106.406 239.179 107.174C240.316 108.94 243.417 106.347 243.985 103.634C244.028 102.691 243.86 101.751 243.492 100.882Z" fill="black"/>
<path d="M228.029 88.9511C226.475 91.5662 229.894 98.8051 233.851 98.1457C237.807 97.4862 230.985 84.0014 228.029 88.9511Z" fill="#263238"/>
<path d="M244.834 91.5587C245.66 97.1527 246.426 100.382 244.235 103.808C240.945 108.955 233.623 107.863 231.107 102.633C228.871 97.9183 227.893 89.5651 232.835 86.2224C233.922 85.4801 235.18 85.028 236.491 84.9092C237.801 84.7904 239.12 85.0087 240.323 85.5435C241.525 86.0783 242.571 86.9117 243.361 87.9645C244.15 89.0173 244.657 90.2546 244.834 91.5587Z" fill="#7F3E3B"/>
<path d="M245.327 84.1833L240.498 87.7005C243.409 91.1645 240.104 98.7369 244.69 97.0163C246.79 96.2659 252.209 88.0037 245.327 84.1833Z" fill="#263238"/>
<path d="M239.528 79.8703C232.198 81.644 231.546 79.5292 232.039 76.7852C226.559 77.6872 222.458 82.0078 225.641 87.2305C229.174 93.0292 239.952 88.322 241.855 88.2841L244.591 87.617C250.807 85.8054 248.685 77.6645 239.528 79.8703Z" fill="#263238"/>
<path d="M246.062 94.4845C244.675 94.4845 240.384 94.4845 240.339 94.4845C240.307 94.4845 240.276 94.4717 240.253 94.449C240.23 94.4263 240.218 94.3954 240.218 94.3632C240.217 94.347 240.219 94.3308 240.225 94.3155C240.23 94.3003 240.239 94.2865 240.251 94.275C240.262 94.2635 240.276 94.2546 240.291 94.2489C240.306 94.2432 240.323 94.2408 240.339 94.242C240.384 94.242 244.675 94.242 246.062 94.242C246.094 94.242 246.125 94.2547 246.148 94.2775C246.17 94.3002 246.183 94.3311 246.183 94.3632C246.183 94.3954 246.17 94.4263 246.148 94.449C246.125 94.4717 246.094 94.4845 246.062 94.4845Z" fill="#F3F6FA"/>
<path d="M248.624 97.1149C248.133 98.4533 247.133 99.5433 245.842 100.147C244.121 100.905 242.977 99.4571 243.219 97.6834C243.432 96.0916 244.584 93.7646 246.426 93.7343C246.826 93.7356 247.219 93.8366 247.571 94.028C247.922 94.2194 248.22 94.4953 248.438 94.8307C248.656 95.1661 248.787 95.5506 248.82 95.9493C248.852 96.3481 248.785 96.7487 248.624 97.1149Z" fill="#7F3E3B"/>
<path d="M237.845 308.612H232.282L232.092 295.711H237.663L237.845 308.612Z" fill="#7F3E3B"/>
<path d="M232.054 307.968H238.118C238.228 307.966 238.336 308.003 238.422 308.072C238.508 308.141 238.567 308.238 238.588 308.347L239.687 313.297C239.715 313.415 239.715 313.539 239.688 313.658C239.66 313.777 239.606 313.888 239.529 313.983C239.453 314.078 239.355 314.155 239.245 314.206C239.134 314.258 239.013 314.284 238.891 314.282C236.693 314.244 233.524 314.115 230.765 314.115C227.544 314.115 224.762 314.297 220.98 314.297C218.706 314.297 218.061 311.985 219.016 311.773C223.375 310.818 226.93 310.719 230.69 308.4C231.094 308.128 231.567 307.978 232.054 307.968Z" fill="#263238"/>
<path opacity="0.2" d="M232.092 295.719L232.191 302.366H237.762L237.663 295.719H232.092Z" fill="black"/>
<path d="M229.758 308.817C229.379 308.907 228.981 308.867 228.628 308.703C228.515 308.632 228.421 308.535 228.354 308.421C228.287 308.306 228.248 308.176 228.242 308.043C228.229 307.965 228.239 307.884 228.27 307.81C228.301 307.737 228.351 307.673 228.416 307.626C228.977 307.21 230.978 308.036 231.205 308.134C231.229 308.146 231.249 308.165 231.262 308.187C231.276 308.21 231.282 308.237 231.281 308.263C231.281 308.29 231.273 308.315 231.258 308.337C231.244 308.359 231.222 308.375 231.198 308.384C230.735 308.58 230.252 308.725 229.758 308.817ZM228.742 307.786C228.681 307.789 228.624 307.81 228.575 307.846C228.548 307.863 228.527 307.889 228.516 307.919C228.505 307.949 228.504 307.983 228.514 308.013C228.513 308.105 228.536 308.196 228.581 308.276C228.627 308.356 228.693 308.422 228.772 308.468C229.444 308.657 230.163 308.581 230.781 308.256C230.138 307.969 229.445 307.809 228.742 307.786Z" fill="#0364FF"/>
<path d="M231.19 308.392H231.129C230.493 308.172 229.174 307.111 229.196 306.467C229.199 306.366 229.236 306.269 229.303 306.193C229.369 306.116 229.46 306.066 229.56 306.05C229.661 306.022 229.765 306.015 229.868 306.029C229.971 306.044 230.07 306.079 230.159 306.133C230.917 306.565 231.289 308.165 231.304 308.233C231.308 308.258 231.306 308.283 231.298 308.307C231.29 308.331 231.277 308.352 231.258 308.37C231.238 308.383 231.214 308.391 231.19 308.392ZM229.674 306.293H229.613C229.447 306.346 229.439 306.429 229.439 306.459C229.439 306.846 230.296 307.665 230.955 307.975C230.816 307.342 230.488 306.766 230.015 306.323C229.963 306.295 229.906 306.278 229.848 306.273C229.789 306.268 229.73 306.275 229.674 306.293Z" fill="#0364FF"/>
<path d="M225.96 159.051C225.96 159.051 221.867 211.285 221.101 228.658C220.298 246.721 230.379 300.767 230.379 300.767H239.437C239.437 300.767 236.451 250.64 238.012 232.956C239.71 213.673 245.994 159.051 245.994 159.051H225.96Z" fill="#263238"/>
<path opacity="0.2" d="M235.094 200.112C235.806 207.155 237.176 214.116 239.187 220.904C240.582 207.192 242.628 188.765 244.114 175.598C240.627 177.88 233.714 184.482 235.094 200.112Z" fill="black"/>
<path d="M236.496 159.051C236.496 159.051 238.823 211.11 242.378 227.423C246.259 245.289 257.856 295.84 257.856 295.84L268.066 293.687C268.066 293.687 261.184 245.759 258.97 228.075C256.568 208.874 256.166 159.051 256.166 159.051H236.496Z" fill="#263238"/>
<path d="M268.772 293.77L257.773 296.082L255.939 292.133L268.044 289.23L268.772 293.77Z" fill="#0364FF"/>
<path d="M241.188 300.994H229.947L228.961 296.749L241.377 296.969L241.188 300.994Z" fill="#0364FF"/>
<path d="M237.14 94.7954C237.239 95.2426 237.08 95.6595 236.784 95.7201C236.488 95.7808 236.17 95.47 236.079 95.0228C235.988 94.5756 236.147 94.1587 236.435 94.098C236.723 94.0374 237.049 94.3482 237.14 94.7954Z" fill="#263238"/>
<path d="M232.062 95.8717C232.153 96.3189 231.993 96.7358 231.698 96.7964C231.402 96.857 231.091 96.5463 230.993 96.099C230.894 95.6518 231.061 95.2274 231.357 95.1667C231.652 95.1061 231.948 95.4244 232.062 95.8717Z" fill="#263238"/>
<path d="M233.381 95.8262C233.137 97.3137 232.688 98.7602 232.047 100.124C232.401 100.279 232.784 100.355 233.17 100.345C233.557 100.336 233.936 100.243 234.283 100.071L233.381 95.8262Z" fill="#630F0F"/>
<path d="M235.359 101.852C235.34 101.859 235.32 101.861 235.301 101.859C235.281 101.857 235.262 101.851 235.245 101.841C235.228 101.831 235.213 101.817 235.202 101.801C235.191 101.785 235.183 101.766 235.18 101.746C235.176 101.727 235.177 101.707 235.182 101.688C235.188 101.669 235.197 101.651 235.21 101.636C235.222 101.621 235.238 101.608 235.256 101.6C235.274 101.591 235.294 101.587 235.313 101.587C235.879 101.504 236.417 101.29 236.885 100.96C237.352 100.631 237.736 100.197 238.004 99.692C238.018 99.6592 238.044 99.6329 238.076 99.6187C238.109 99.6046 238.145 99.6037 238.179 99.6162C238.195 99.6236 238.21 99.6341 238.222 99.6473C238.235 99.6605 238.245 99.676 238.251 99.6929C238.257 99.7098 238.26 99.7278 238.259 99.7459C238.259 99.764 238.255 99.7817 238.247 99.7981C237.966 100.348 237.557 100.821 237.054 101.179C236.552 101.536 235.97 101.767 235.359 101.852Z" fill="#263238"/>
<path d="M239.528 90.846C239.488 90.8574 239.446 90.8592 239.405 90.8513C239.364 90.8434 239.326 90.826 239.293 90.8005C239.023 90.5957 238.709 90.4573 238.376 90.3967C238.043 90.3361 237.7 90.355 237.375 90.4519C237.309 90.473 237.237 90.4682 237.175 90.4382C237.112 90.4083 237.063 90.3555 237.038 90.2907C237.013 90.2259 237.013 90.1539 237.039 90.0895C237.065 90.0251 237.115 89.973 237.178 89.944C237.588 89.8153 238.023 89.7867 238.446 89.8606C238.87 89.9344 239.269 90.1086 239.611 90.3685C239.64 90.3888 239.664 90.4146 239.682 90.4443C239.701 90.474 239.713 90.5071 239.719 90.5416C239.725 90.5761 239.723 90.6114 239.715 90.6454C239.707 90.6795 239.693 90.7116 239.672 90.7399C239.635 90.788 239.585 90.8248 239.528 90.846Z" fill="#263238"/>
<path d="M228.984 92.4759C228.944 92.4736 228.904 92.4605 228.87 92.438C228.812 92.3979 228.772 92.3368 228.757 92.2676C228.743 92.1983 228.757 92.1262 228.795 92.0665C229.017 91.6998 229.325 91.3923 229.692 91.1706C230.059 90.9488 230.474 90.8193 230.902 90.7931C230.965 90.8038 231.023 90.8367 231.065 90.886C231.107 90.9352 231.129 90.9977 231.129 91.0622C231.129 91.1267 231.107 91.1891 231.065 91.2384C231.023 91.2877 230.965 91.3206 230.902 91.3313C230.564 91.3579 230.237 91.4647 229.948 91.6426C229.66 91.8205 229.418 92.0646 229.242 92.3546C229.216 92.3979 229.177 92.4325 229.131 92.4541C229.085 92.4756 229.034 92.4832 228.984 92.4759Z" fill="#263238"/>
<path d="M253.703 112.942L252.262 112.813C252.192 112.81 252.123 112.832 252.068 112.875C252.012 112.918 251.974 112.979 251.959 113.048C247.957 134.545 250.201 157.376 250.201 157.376H251.792C250.92 142.636 251.644 127.844 253.953 113.26C253.959 113.223 253.958 113.184 253.948 113.147C253.939 113.11 253.922 113.075 253.898 113.045C253.875 113.015 253.845 112.991 253.811 112.973C253.778 112.955 253.741 112.944 253.703 112.942Z" fill="#263238"/>
<path d="M252.02 157.391C252.02 157.255 251.966 157.125 251.871 157.029C251.776 156.933 251.647 156.877 251.512 156.875H250.413C250.277 156.877 250.147 156.932 250.05 157.028C249.954 157.125 249.899 157.255 249.897 157.391C249.898 157.504 249.938 157.614 250.009 157.702C250.081 157.791 250.18 157.852 250.291 157.876V159.24C250.309 159.406 250.387 159.559 250.511 159.671C250.635 159.782 250.796 159.844 250.962 159.844C251.129 159.844 251.289 159.782 251.413 159.671C251.537 159.559 251.615 159.406 251.633 159.24V157.876C251.743 157.85 251.84 157.789 251.911 157.701C251.981 157.612 252.019 157.503 252.02 157.391Z" fill="#F3F6FA"/>
<path d="M229.575 113.245L228.15 113.51C228.091 113.521 228.038 113.551 227.997 113.594C227.956 113.638 227.93 113.694 227.923 113.753C224.891 135.265 228.211 157.391 228.211 157.391H229.795C227.43 133.976 229.53 116.338 229.901 113.556C229.907 113.512 229.902 113.468 229.887 113.427C229.872 113.386 229.848 113.349 229.816 113.319C229.785 113.288 229.746 113.266 229.705 113.253C229.663 113.241 229.618 113.238 229.575 113.245Z" fill="#263238"/>
<path d="M230.03 157.391C230.021 157.253 229.961 157.124 229.861 157.029C229.762 156.934 229.63 156.879 229.492 156.875H228.393C228.327 156.875 228.261 156.889 228.2 156.915C228.139 156.941 228.084 156.98 228.039 157.028C227.993 157.076 227.958 157.133 227.936 157.196C227.913 157.258 227.904 157.325 227.908 157.391C227.914 157.505 227.957 157.615 228.031 157.703C228.105 157.79 228.205 157.851 228.317 157.876L228.386 159.24C228.395 159.419 228.473 159.588 228.602 159.712C228.732 159.836 228.904 159.906 229.083 159.907C229.17 159.909 229.256 159.892 229.336 159.858C229.416 159.825 229.489 159.776 229.549 159.713C229.61 159.651 229.656 159.576 229.687 159.495C229.718 159.414 229.731 159.327 229.727 159.24L229.659 157.876C229.768 157.851 229.865 157.789 229.932 157.701C230 157.612 230.035 157.502 230.03 157.391Z" fill="#F3F6FA"/>
<path d="M260.699 303.465C260.346 303.628 259.949 303.67 259.57 303.587C259.444 303.542 259.33 303.466 259.241 303.367C259.151 303.268 259.087 303.148 259.054 303.018C259.027 302.945 259.019 302.865 259.032 302.788C259.046 302.711 259.079 302.638 259.13 302.578C259.6 302.055 261.722 302.45 261.965 302.503C261.992 302.506 262.017 302.518 262.036 302.537C262.056 302.556 262.068 302.582 262.071 302.609C262.077 302.634 262.075 302.661 262.066 302.685C262.056 302.71 262.04 302.73 262.018 302.745C261.604 303.03 261.162 303.271 260.699 303.465ZM259.486 302.669C259.428 302.685 259.376 302.717 259.335 302.76C259.335 302.76 259.282 302.836 259.335 302.935C259.352 303.024 259.393 303.108 259.453 303.177C259.513 303.246 259.59 303.299 259.676 303.329C260.376 303.375 261.067 303.153 261.609 302.707C260.911 302.552 260.189 302.539 259.486 302.669Z" fill="#0364FF"/>
<path d="M261.988 302.76H261.92C261.26 302.669 259.744 301.911 259.646 301.244C259.63 301.144 259.649 301.041 259.7 300.952C259.751 300.864 259.831 300.796 259.926 300.759C260.017 300.711 260.118 300.682 260.221 300.675C260.324 300.667 260.427 300.68 260.525 300.714C261.336 300.987 262.041 302.472 262.079 302.533C262.091 302.555 262.098 302.58 262.098 302.605C262.098 302.63 262.091 302.655 262.079 302.677L261.988 302.76ZM260.093 301.009H260.032C259.88 301.093 259.896 301.176 259.896 301.206C259.964 301.585 260.98 302.207 261.685 302.419C261.457 301.987 260.927 301.161 260.419 300.987C260.311 300.956 260.195 300.964 260.093 301.009Z" fill="#0364FF"/>
<path d="M237.951 98.5929C236.155 98.9719 234.305 97.4559 233.835 95.2198C233.418 93.2263 234.343 91.8922 236.443 91.4298C238.543 90.9675 239.93 91.8392 240.354 93.8251C240.824 96.084 239.748 98.2139 237.951 98.5929ZM236.496 91.7179C235.124 92.0059 233.585 92.8473 234.086 95.1971C234.525 97.3043 236.246 98.7369 237.876 98.3807C239.505 98.0244 240.536 96.0309 240.089 93.9237C239.611 91.5435 237.868 91.3919 236.496 91.7179Z" fill="#F3F6FA"/>
<path d="M230.591 100.147C229.075 100.465 227.468 98.9036 226.998 96.6675C226.43 93.9766 228.059 93.2186 229.083 92.9988C230.106 92.779 231.902 92.8244 232.471 95.5078C232.941 97.7818 232.1 99.8284 230.591 100.147ZM229.136 93.2338C227.991 93.4763 226.741 94.2571 227.233 96.6069C227.68 98.7141 229.166 100.192 230.538 99.8966C231.91 99.601 232.676 97.6226 232.228 95.5532C231.736 93.2338 230.273 92.9988 229.136 93.2338Z" fill="#F3F6FA"/>
<path d="M233.949 93.8251H233.888C233.551 93.708 233.188 93.6849 232.838 93.7583C232.488 93.8318 232.165 93.999 231.903 94.242C231.892 94.2535 231.879 94.2627 231.865 94.2689C231.85 94.2752 231.835 94.2784 231.819 94.2784C231.803 94.2784 231.788 94.2752 231.774 94.2689C231.759 94.2627 231.746 94.2535 231.736 94.242C231.724 94.2307 231.715 94.2172 231.708 94.2022C231.702 94.1872 231.699 94.1711 231.699 94.1549C231.699 94.1386 231.702 94.1225 231.708 94.1075C231.715 94.0925 231.724 94.079 231.736 94.0677C232.028 93.7973 232.389 93.6115 232.778 93.5301C233.168 93.4487 233.573 93.4747 233.949 93.6053C233.979 93.6142 234.004 93.634 234.019 93.6608C234.035 93.6875 234.04 93.7192 234.032 93.7493C234.025 93.7672 234.013 93.7832 233.999 93.7962C233.985 93.8093 233.968 93.8192 233.949 93.8251Z" fill="#F3F6FA"/>
<path d="M239.429 115.489L240.536 114.685L242.909 116.959L239.429 115.489Z" fill="#263238"/>
<path d="M240.536 114.685C240.536 114.685 242.492 117.422 242.871 119.4C245.213 118.43 249.625 116.004 250.216 112.578C249.364 112.306 248.551 111.924 247.798 111.441C247.798 111.441 245.44 113.442 240.536 114.685Z" fill="#F3F6FA"/>
<path d="M239.43 115.489L238.967 114.556L235.905 116.959L239.43 115.489Z" fill="#263238"/>
<path d="M238.967 114.564C237.746 115.724 236.946 117.257 236.693 118.922C234.358 117.952 233.441 114.791 234.048 112.684C234.938 112.285 235.868 111.98 236.822 111.774C236.787 112.419 236.984 113.055 237.377 113.567C237.771 114.079 238.335 114.432 238.967 114.564Z" fill="#F3F6FA"/>
<path d="M235.268 162.356L239.233 166.532L243.204 164.668L239.847 158.392L235.268 162.356Z" fill="#7F3E3B"/>
<path d="M246.57 158.71L239.846 158.392L243.204 164.668C243.204 164.668 247.957 164.463 248.435 160.779L246.57 158.71Z" fill="#7F3E3B"/>
<path d="M263.784 121.833C264.777 125.949 265.656 130.065 266.445 134.226C266.839 136.303 267.208 138.39 267.551 140.488C267.908 142.587 268.218 144.694 268.476 146.893C268.535 147.307 268.568 147.725 268.575 148.143C268.59 148.625 268.559 149.107 268.484 149.583C268.348 150.491 268.074 151.373 267.673 152.199C266.984 153.566 266.042 154.79 264.898 155.807C263.042 157.427 260.945 158.75 258.683 159.726C254.603 161.507 250.306 162.741 245.903 163.394L244.789 159.074C246.608 158.316 248.518 157.482 250.314 156.58C252.09 155.725 253.816 154.771 255.484 153.722C256.988 152.824 258.361 151.722 259.562 150.448C259.962 150.024 260.271 149.524 260.472 148.977C260.512 148.85 260.528 148.716 260.517 148.583C260.526 148.54 260.526 148.497 260.517 148.454C260.477 148.352 260.451 148.245 260.441 148.136C259.638 144.209 258.645 140.109 257.728 136.061C256.81 132.013 255.871 127.905 255.022 123.827L263.784 121.833Z" fill="#803E3C"/>
<path d="M258.22 113.988C265.8 115.345 269.151 134.31 269.151 134.31L256.962 141.784C256.962 141.784 253.089 130.596 253.293 123.554C253.506 116.838 252.467 112.942 258.22 113.988Z" fill="#0364FF"/>
<path d="M206.836 168.556H128.784V315.502H206.836V168.556Z" fill="#0364FF"/>
<path d="M221.321 166.767H135.962V168.564H221.321V166.767Z" fill="#0364FF"/>
<path opacity="0.3" d="M221.321 166.767H135.962V168.564H221.321V166.767Z" fill="black"/>
<path d="M206.843 315.51H228.507L228.507 168.564H206.843L206.843 315.51Z" fill="#0364FF"/>
<path opacity="0.2" d="M206.843 315.51H228.507L228.507 168.564H206.843L206.843 315.51Z" fill="black"/>
<path opacity="0.1" d="M200.536 175.568H196.17C195.781 175.568 195.465 175.883 195.465 176.273V180.669C195.465 181.058 195.781 181.374 196.17 181.374H200.536C200.926 181.374 201.241 181.058 201.241 180.669V176.273C201.241 175.883 200.926 175.568 200.536 175.568Z" fill="black"/>
<path opacity="0.3" d="M188.621 175.568H184.255C183.866 175.568 183.55 175.883 183.55 176.273V180.669C183.55 181.058 183.866 181.374 184.255 181.374H188.621C189.01 181.374 189.326 181.058 189.326 180.669V176.273C189.326 175.883 189.01 175.568 188.621 175.568Z" fill="black"/>
<path opacity="0.3" d="M176.713 175.568H172.346C171.957 175.568 171.641 175.883 171.641 176.273V180.669C171.641 181.058 171.957 181.374 172.346 181.374H176.713C177.102 181.374 177.417 181.058 177.417 180.669V176.273C177.417 175.883 177.102 175.568 176.713 175.568Z" fill="black"/>
<path opacity="0.1" d="M164.797 175.568H160.431C160.041 175.568 159.726 175.883 159.726 176.273V180.669C159.726 181.058 160.041 181.374 160.431 181.374H164.797C165.186 181.374 165.502 181.058 165.502 180.669V176.273C165.502 175.883 165.186 175.568 164.797 175.568Z" fill="black"/>
<path opacity="0.3" d="M152.889 175.568H148.522C148.133 175.568 147.818 175.883 147.818 176.273V180.669C147.818 181.058 148.133 181.374 148.522 181.374H152.889C153.278 181.374 153.594 181.058 153.594 180.669V176.273C153.594 175.883 153.278 175.568 152.889 175.568Z" fill="black"/>
<path opacity="0.3" d="M140.973 175.568H136.607C136.218 175.568 135.902 175.883 135.902 176.273V180.669C135.902 181.058 136.218 181.374 136.607 181.374H140.973C141.362 181.374 141.678 181.058 141.678 180.669V176.273C141.678 175.883 141.362 175.568 140.973 175.568Z" fill="black"/>
<g opacity="0.1">
<path opacity="0.1" d="M204.289 184.702H131.331V207.707H204.289V184.702Z" fill="black"/>
</g>
<path d="M200.158 187.991H198.103C197.559 187.991 197.118 188.433 197.118 188.977V203.439C197.118 203.984 197.559 204.425 198.103 204.425H200.158C200.702 204.425 201.143 203.984 201.143 203.439V188.977C201.143 188.433 200.702 187.991 200.158 187.991Z" fill="#0364FF"/>
<path opacity="0.1" d="M191.857 187.991H189.803C189.259 187.991 188.818 188.433 188.818 188.977V203.439C188.818 203.984 189.259 204.425 189.803 204.425H191.857C192.402 204.425 192.843 203.984 192.843 203.439V188.977C192.843 188.433 192.402 187.991 191.857 187.991Z" fill="black"/>
<path d="M183.55 187.991H181.496C180.951 187.991 180.51 188.433 180.51 188.977V203.439C180.51 203.984 180.951 204.425 181.496 204.425H183.55C184.094 204.425 184.535 203.984 184.535 203.439V188.977C184.535 188.433 184.094 187.991 183.55 187.991Z" fill="#0364FF"/>
<path d="M175.242 187.991H173.188C172.644 187.991 172.203 188.433 172.203 188.977V203.439C172.203 203.984 172.644 204.425 173.188 204.425H175.242C175.786 204.425 176.228 203.984 176.228 203.439V188.977C176.228 188.433 175.786 187.991 175.242 187.991Z" fill="#0364FF"/>
<path opacity="0.3" d="M152.229 192.532C152.229 192.007 152.385 191.494 152.676 191.058C152.968 190.622 153.382 190.281 153.867 190.081C154.352 189.88 154.885 189.827 155.4 189.93C155.914 190.032 156.387 190.285 156.758 190.656C157.129 191.027 157.382 191.5 157.484 192.014C157.587 192.529 157.534 193.062 157.333 193.547C157.132 194.032 156.792 194.446 156.356 194.738C155.92 195.029 155.407 195.185 154.882 195.185C154.179 195.183 153.506 194.903 153.008 194.405C152.511 193.908 152.231 193.235 152.229 192.532Z" fill="#F3F6FA"/>
<path opacity="0.1" d="M165.123 199.877C165.121 200.401 164.965 200.913 164.672 201.349C164.38 201.784 163.965 202.123 163.48 202.322C162.995 202.522 162.462 202.573 161.948 202.47C161.434 202.367 160.962 202.114 160.591 201.742C160.221 201.371 159.969 200.898 159.867 200.384C159.766 199.87 159.819 199.337 160.02 198.852C160.221 198.368 160.561 197.954 160.997 197.663C161.433 197.372 161.946 197.216 162.47 197.216C162.819 197.216 163.165 197.285 163.487 197.419C163.809 197.553 164.102 197.749 164.349 197.996C164.595 198.243 164.79 198.536 164.923 198.859C165.056 199.182 165.124 199.528 165.123 199.877Z" fill="black"/>
<path opacity="0.1" d="M159.817 192.532C159.817 192.007 159.973 191.494 160.264 191.058C160.556 190.622 160.97 190.281 161.455 190.081C161.939 189.88 162.473 189.827 162.988 189.93C163.502 190.032 163.975 190.285 164.346 190.656C164.717 191.027 164.97 191.5 165.072 192.014C165.174 192.529 165.122 193.062 164.921 193.547C164.72 194.032 164.38 194.446 163.944 194.738C163.508 195.029 162.995 195.185 162.47 195.185C161.767 195.183 161.093 194.903 160.596 194.405C160.099 193.908 159.819 193.235 159.817 192.532Z" fill="black"/>
<path opacity="0.1" d="M157.535 199.877C157.534 200.401 157.377 200.913 157.084 201.349C156.792 201.784 156.377 202.123 155.892 202.322C155.407 202.522 154.874 202.573 154.36 202.47C153.846 202.367 153.374 202.114 153.004 201.742C152.633 201.371 152.381 200.898 152.28 200.384C152.178 199.87 152.231 199.337 152.432 198.852C152.633 198.368 152.973 197.954 153.409 197.663C153.845 197.372 154.358 197.216 154.882 197.216C155.231 197.216 155.577 197.285 155.899 197.419C156.222 197.553 156.514 197.749 156.761 197.996C157.007 198.243 157.202 198.536 157.335 198.859C157.468 199.182 157.536 199.528 157.535 199.877Z" fill="black"/>
<path opacity="0.3" d="M145.722 200.277C147.969 198.03 147.969 194.387 145.722 192.14C143.476 189.893 139.833 189.893 137.586 192.14C135.339 194.387 135.339 198.03 137.586 200.277C139.833 202.523 143.476 202.523 145.722 200.277Z" fill="#F3F6FA"/>
<g opacity="0.1">
<path opacity="0.1" d="M204.289 210.86H131.331V233.865H204.289V210.86Z" fill="black"/>
</g>
<path d="M200.158 214.15H198.103C197.559 214.15 197.118 214.591 197.118 215.135V229.598C197.118 230.142 197.559 230.584 198.103 230.584H200.158C200.702 230.584 201.143 230.142 201.143 229.598V215.135C201.143 214.591 200.702 214.15 200.158 214.15Z" fill="#0364FF"/>
<path opacity="0.1" d="M191.857 214.15H189.803C189.259 214.15 188.818 214.591 188.818 215.135V229.598C188.818 230.142 189.259 230.584 189.803 230.584H191.857C192.402 230.584 192.843 230.142 192.843 229.598V215.135C192.843 214.591 192.402 214.15 191.857 214.15Z" fill="black"/>
<path d="M183.55 214.15H181.496C180.951 214.15 180.51 214.591 180.51 215.135V229.598C180.51 230.142 180.951 230.584 181.496 230.584H183.55C184.094 230.584 184.535 230.142 184.535 229.598V215.135C184.535 214.591 184.094 214.15 183.55 214.15Z" fill="#0364FF"/>
<path d="M175.242 214.15H173.188C172.644 214.15 172.203 214.591 172.203 215.135V229.598C172.203 230.142 172.644 230.584 173.188 230.584H175.242C175.786 230.584 176.228 230.142 176.228 229.598V215.135C176.228 214.591 175.786 214.15 175.242 214.15Z" fill="#0364FF"/>
<path opacity="0.3" d="M152.229 218.698C152.229 218.173 152.385 217.66 152.676 217.224C152.968 216.788 153.382 216.448 153.867 216.247C154.352 216.046 154.885 215.994 155.4 216.096C155.914 216.198 156.387 216.451 156.758 216.822C157.129 217.193 157.382 217.666 157.484 218.18C157.587 218.695 157.534 219.228 157.333 219.713C157.132 220.198 156.792 220.612 156.356 220.904C155.92 221.195 155.407 221.351 154.882 221.351C154.179 221.351 153.504 221.071 153.006 220.574C152.509 220.076 152.229 219.402 152.229 218.698Z" fill="#F3F6FA"/>
<path opacity="0.3" d="M162.47 228.688C163.935 228.688 165.123 227.501 165.123 226.035C165.123 224.57 163.935 223.382 162.47 223.382C161.005 223.382 159.817 224.57 159.817 226.035C159.817 227.501 161.005 228.688 162.47 228.688Z" fill="#F3F6FA"/>
<path opacity="0.1" d="M159.817 218.698C159.817 218.173 159.973 217.66 160.264 217.224C160.556 216.788 160.97 216.448 161.455 216.247C161.939 216.046 162.473 215.994 162.988 216.096C163.502 216.198 163.975 216.451 164.346 216.822C164.717 217.193 164.97 217.666 165.072 218.18C165.174 218.695 165.122 219.228 164.921 219.713C164.72 220.198 164.38 220.612 163.944 220.904C163.508 221.195 162.995 221.351 162.47 221.351C161.766 221.351 161.092 221.071 160.594 220.574C160.096 220.076 159.817 219.402 159.817 218.698Z" fill="black"/>
<path opacity="0.1" d="M154.882 228.688C156.347 228.688 157.535 227.501 157.535 226.035C157.535 224.57 156.347 223.382 154.882 223.382C153.417 223.382 152.229 224.57 152.229 226.035C152.229 227.501 153.417 228.688 154.882 228.688Z" fill="black"/>
<path opacity="0.3" d="M141.655 228.12C144.833 228.12 147.409 225.544 147.409 222.367C147.409 219.189 144.833 216.613 141.655 216.613C138.478 216.613 135.902 219.189 135.902 222.367C135.902 225.544 138.478 228.12 141.655 228.12Z" fill="#F3F6FA"/>
<g opacity="0.1">
<path opacity="0.1" d="M204.289 237.026H131.331V260.032H204.289V237.026Z" fill="black"/>
</g>
<path d="M200.158 240.309H198.103C197.559 240.309 197.118 240.75 197.118 241.294V255.757C197.118 256.301 197.559 256.742 198.103 256.742H200.158C200.702 256.742 201.143 256.301 201.143 255.757V241.294C201.143 240.75 200.702 240.309 200.158 240.309Z" fill="#0364FF"/>
<path opacity="0.1" d="M191.857 240.309H189.803C189.259 240.309 188.818 240.75 188.818 241.294V255.757C188.818 256.301 189.259 256.742 189.803 256.742H191.857C192.402 256.742 192.843 256.301 192.843 255.757V241.294C192.843 240.75 192.402 240.309 191.857 240.309Z" fill="black"/>
<path d="M183.55 240.309H181.496C180.951 240.309 180.51 240.75 180.51 241.294V255.757C180.51 256.301 180.951 256.742 181.496 256.742H183.55C184.094 256.742 184.535 256.301 184.535 255.757V241.294C184.535 240.75 184.094 240.309 183.55 240.309Z" fill="#0364FF"/>
<path d="M175.242 240.309H173.188C172.644 240.309 172.203 240.75 172.203 241.294V255.757C172.203 256.301 172.644 256.742 173.188 256.742H175.242C175.786 256.742 176.228 256.301 176.228 255.757V241.294C176.228 240.75 175.786 240.309 175.242 240.309Z" fill="#0364FF"/>
<path opacity="0.3" d="M152.229 244.834C152.231 244.309 152.388 243.797 152.68 243.362C152.972 242.927 153.387 242.588 153.872 242.388C154.357 242.189 154.89 242.137 155.404 242.24C155.919 242.343 156.391 242.597 156.761 242.968C157.131 243.339 157.383 243.812 157.485 244.327C157.586 244.841 157.534 245.374 157.332 245.858C157.131 246.343 156.791 246.757 156.355 247.048C155.919 247.339 155.407 247.494 154.882 247.494C154.533 247.494 154.188 247.425 153.865 247.292C153.543 247.158 153.25 246.962 153.004 246.715C152.757 246.468 152.562 246.174 152.429 245.851C152.296 245.529 152.228 245.183 152.229 244.834Z" fill="#F3F6FA"/>
<path opacity="0.3" d="M162.47 254.847C163.935 254.847 165.123 253.659 165.123 252.194C165.123 250.729 163.935 249.541 162.47 249.541C161.005 249.541 159.817 250.729 159.817 252.194C159.817 253.659 161.005 254.847 162.47 254.847Z" fill="#F3F6FA"/>
<path opacity="0.1" d="M159.817 244.834C159.818 244.309 159.975 243.797 160.267 243.362C160.56 242.927 160.975 242.588 161.46 242.388C161.944 242.189 162.478 242.137 162.992 242.24C163.506 242.343 163.978 242.597 164.348 242.968C164.718 243.339 164.97 243.812 165.072 244.327C165.174 244.841 165.121 245.374 164.92 245.858C164.719 246.343 164.379 246.757 163.943 247.048C163.507 247.339 162.994 247.494 162.47 247.494C162.121 247.494 161.775 247.425 161.453 247.292C161.13 247.158 160.837 246.962 160.591 246.715C160.344 246.468 160.149 246.174 160.016 245.851C159.883 245.529 159.816 245.183 159.817 244.834Z" fill="black"/>
<path opacity="0.1" d="M154.882 254.847C156.347 254.847 157.535 253.659 157.535 252.194C157.535 250.729 156.347 249.541 154.882 249.541C153.417 249.541 152.229 250.729 152.229 252.194C152.229 253.659 153.417 254.847 154.882 254.847Z" fill="black"/>
<path opacity="0.1" d="M141.655 254.278C144.833 254.278 147.409 251.703 147.409 248.525C147.409 245.348 144.833 242.772 141.655 242.772C138.478 242.772 135.902 245.348 135.902 248.525C135.902 251.703 138.478 254.278 141.655 254.278Z" fill="black"/>
<g opacity="0.1">
<path opacity="0.1" d="M204.289 263.185H131.331V286.19H204.289V263.185Z" fill="black"/>
</g>
<path d="M200.158 266.475H198.103C197.559 266.475 197.118 266.916 197.118 267.46V281.923C197.118 282.467 197.559 282.908 198.103 282.908H200.158C200.702 282.908 201.143 282.467 201.143 281.923V267.46C201.143 266.916 200.702 266.475 200.158 266.475Z" fill="#0364FF"/>
<path opacity="0.1" d="M191.857 266.475H189.803C189.259 266.475 188.818 266.916 188.818 267.46V281.923C188.818 282.467 189.259 282.908 189.803 282.908H191.857C192.402 282.908 192.843 282.467 192.843 281.923V267.46C192.843 266.916 192.402 266.475 191.857 266.475Z" fill="black"/>
<path d="M183.55 266.475H181.496C180.951 266.475 180.51 266.916 180.51 267.46V281.923C180.51 282.467 180.951 282.908 181.496 282.908H183.55C184.094 282.908 184.535 282.467 184.535 281.923V267.46C184.535 266.916 184.094 266.475 183.55 266.475Z" fill="#0364FF"/>
<path d="M175.242 266.475H173.188C172.644 266.475 172.203 266.916 172.203 267.46V281.923C172.203 282.467 172.644 282.908 173.188 282.908H175.242C175.786 282.908 176.228 282.467 176.228 281.923V267.46C176.228 266.916 175.786 266.475 175.242 266.475Z" fill="#0364FF"/>
<path opacity="0.3" d="M154.882 273.676C156.347 273.676 157.535 272.488 157.535 271.023C157.535 269.557 156.347 268.37 154.882 268.37C153.417 268.37 152.229 269.557 152.229 271.023C152.229 272.488 153.417 273.676 154.882 273.676Z" fill="#F3F6FA"/>
<path opacity="0.3" d="M162.47 281.013C163.935 281.013 165.123 279.825 165.123 278.36C165.123 276.895 163.935 275.707 162.47 275.707C161.005 275.707 159.817 276.895 159.817 278.36C159.817 279.825 161.005 281.013 162.47 281.013Z" fill="#F3F6FA"/>
<path opacity="0.3" d="M162.47 273.676C163.935 273.676 165.123 272.488 165.123 271.023C165.123 269.557 163.935 268.37 162.47 268.37C161.005 268.37 159.817 269.557 159.817 271.023C159.817 272.488 161.005 273.676 162.47 273.676Z" fill="#F3F6FA"/>
<path opacity="0.1" d="M154.882 281.013C156.347 281.013 157.535 279.825 157.535 278.36C157.535 276.895 156.347 275.707 154.882 275.707C153.417 275.707 152.229 276.895 152.229 278.36C152.229 279.825 153.417 281.013 154.882 281.013Z" fill="black"/>
<path opacity="0.3" d="M141.655 280.445C144.833 280.445 147.409 277.869 147.409 274.691C147.409 271.514 144.833 268.938 141.655 268.938C138.478 268.938 135.902 271.514 135.902 274.691C135.902 277.869 138.478 280.445 141.655 280.445Z" fill="#F3F6FA"/>
<g opacity="0.1">
<path opacity="0.1" d="M204.289 289.344H131.331V312.349H204.289V289.344Z" fill="black"/>
</g>
<path d="M200.158 292.633H198.103C197.559 292.633 197.118 293.075 197.118 293.619V308.081C197.118 308.626 197.559 309.067 198.103 309.067H200.158C200.702 309.067 201.143 308.626 201.143 308.081V293.619C201.143 293.075 200.702 292.633 200.158 292.633Z" fill="#0364FF"/>
<path opacity="0.1" d="M191.857 292.633H189.803C189.259 292.633 188.818 293.075 188.818 293.619V308.081C188.818 308.626 189.259 309.067 189.803 309.067H191.857C192.402 309.067 192.843 308.626 192.843 308.081V293.619C192.843 293.075 192.402 292.633 191.857 292.633Z" fill="black"/>
<path d="M183.55 292.633H181.496C180.951 292.633 180.51 293.075 180.51 293.619V308.081C180.51 308.626 180.951 309.067 181.496 309.067H183.55C184.094 309.067 184.535 308.626 184.535 308.081V293.619C184.535 293.075 184.094 292.633 183.55 292.633Z" fill="#0364FF"/>
<path d="M175.242 292.633H173.188C172.644 292.633 172.203 293.075 172.203 293.619V308.081C172.203 308.626 172.644 309.067 173.188 309.067H175.242C175.786 309.067 176.228 308.626 176.228 308.081V293.619C176.228 293.075 175.786 292.633 175.242 292.633Z" fill="#0364FF"/>
<path opacity="0.3" d="M154.882 299.834C156.347 299.834 157.535 298.647 157.535 297.181C157.535 295.716 156.347 294.528 154.882 294.528C153.417 294.528 152.229 295.716 152.229 297.181C152.229 298.647 153.417 299.834 154.882 299.834Z" fill="#F3F6FA"/>
<path opacity="0.3" d="M162.47 307.172C163.935 307.172 165.123 305.984 165.123 304.519C165.123 303.053 163.935 301.866 162.47 301.866C161.005 301.866 159.817 303.053 159.817 304.519C159.817 305.984 161.005 307.172 162.47 307.172Z" fill="#F3F6FA"/>
<path opacity="0.3" d="M162.47 299.834C163.935 299.834 165.123 298.647 165.123 297.181C165.123 295.716 163.935 294.528 162.47 294.528C161.005 294.528 159.817 295.716 159.817 297.181C159.817 298.647 161.005 299.834 162.47 299.834Z" fill="#F3F6FA"/>
<path opacity="0.1" d="M154.882 307.172C156.347 307.172 157.535 305.984 157.535 304.519C157.535 303.053 156.347 301.866 154.882 301.866C153.417 301.866 152.229 303.053 152.229 304.519C152.229 305.984 153.417 307.172 154.882 307.172Z" fill="black"/>
<path opacity="0.3" d="M141.655 306.603C144.833 306.603 147.409 304.028 147.409 300.85C147.409 297.673 144.833 295.097 141.655 295.097C138.478 295.097 135.902 297.673 135.902 300.85C135.902 304.028 138.478 306.603 141.655 306.603Z" fill="#F3F6FA"/>
<path d="M130.952 132.718H187.272L195.193 164.978H138.873L130.952 132.718Z" fill="#0364FF"/>
<path d="M154.791 164.978L155.011 166.76H215.181L214.961 164.978H154.791Z" fill="#0364FF"/>
<path d="M185.589 132.718L193.51 164.978H193.517L193.737 166.76H139.093L138.873 164.978L130.952 132.718H185.589Z" fill="#0364FF"/>
<path opacity="0.6" d="M185.589 132.718L193.51 164.978H193.517L193.737 166.76H139.093L138.873 164.978L130.952 132.718H185.589Z" fill="#F3F6FA"/>
<path opacity="0.3" d="M162.894 113.632L162.538 113.45C162.083 113.215 151.448 107.552 149.94 100.116C149.037 95.3513 148.666 90.5007 148.833 85.6538V84.9867L149.5 84.9412C149.584 84.9412 157.512 84.3121 162.629 82.6672L162.864 82.5914L163.091 82.6672C168.208 84.2969 176.136 84.9412 176.22 84.9412L176.887 84.9867V85.6538C177.079 90.4979 176.734 95.3485 175.856 100.116C174.34 107.552 163.728 113.215 163.258 113.45L162.894 113.632ZM150.327 86.4118C150.231 90.9102 150.601 95.4064 151.433 99.8283C152.646 105.847 161.052 110.895 162.894 111.956C164.729 110.925 173.135 105.892 174.348 99.8283C175.183 95.407 175.554 90.9103 175.454 86.4118C171.21 86.0659 167.005 85.3327 162.894 84.2211C158.78 85.3322 154.574 86.0654 150.327 86.4118Z" fill="#0364FF"/>
<path d="M162.894 109.417C159.718 107.477 154.367 103.459 153.548 99.3889C152.852 95.7507 152.492 92.0564 152.472 88.3524C155.99 87.9896 159.474 87.3561 162.894 86.4574C166.312 87.3567 169.794 87.9902 173.309 88.3524C173.286 92.0563 172.926 95.7503 172.233 99.3889C171.414 103.459 166.063 107.477 162.894 109.417Z" fill="#0364FF"/>
<path opacity="0.3" d="M109.084 315.51H107.568V138.38C107.574 134.02 109.309 129.839 112.392 126.756C115.475 123.673 119.656 121.938 124.016 121.932H157.823C158.965 121.928 160.059 121.472 160.866 120.664C161.673 119.855 162.127 118.761 162.129 117.619H163.645C163.645 119.163 163.031 120.645 161.94 121.738C160.848 122.831 159.368 123.446 157.823 123.448H124.016C120.057 123.452 116.261 125.026 113.462 127.826C110.662 130.625 109.088 134.421 109.084 138.38V315.51Z" fill="#0364FF"/>
</g>
<defs>
<clipPath id="clip0">
<rect width="379" height="379" fill="white"/>
</clipPath>
</defs>
</svg>
